<svg width="124" height="132" viewBox="0 0 124 132" fill="none" xmlns="http://www.w3.org/2000/svg">
<mask id="mask0" mask-type="alpha" maskUnits="userSpaceOnUse" x="15" y="16" width="94" height="116">
<path d="M73.2728 84.8325V93.4698H75.1516C93.8289 93.4698 108.97 108.611 108.97 127.288V131.515H15.0304V127.288C15.0304 108.611 30.1713 93.4698 48.8486 93.4698H50.7274V84.8325C42.631 80.9864 36.8113 73.1258 35.8404 63.8231C33.1045 63.4363 31.0001 61.0852 31.0001 58.2425V51.6668C31.0001 48.8739 33.0313 46.5555 35.6971 46.1083V43.2122C35.6971 28.6854 47.4733 16.9092 62.0001 16.9092C76.5269 16.9092 88.3031 28.6854 88.3031 43.2122V46.1083C90.9689 46.5555 93.0001 48.8739 93.0001 51.6668V58.2425C93.0001 61.0852 90.8957 63.4363 88.1598 63.8231C87.1889 73.1258 81.3692 80.9864 73.2728 84.8325Z" fill="white"/>
</mask>
<g mask="url(#mask0)">
<path d="M73.2728 84.8325V93.4698H75.1516C93.8289 93.4698 108.97 108.611 108.97 127.288V131.515H15.0304V127.288C15.0304 108.611 30.1713 93.4698 48.8486 93.4698H50.7274V84.8325C42.631 80.9864 36.8113 73.1258 35.8404 63.8231C33.1045 63.4363 31.0001 61.0852 31.0001 58.2425V51.6668C31.0001 48.8739 33.0313 46.5555 35.6971 46.1083V43.2122C35.6971 28.6854 47.4733 16.9092 62.0001 16.9092C76.5269 16.9092 88.3031 28.6854 88.3031 43.2122V46.1083C90.9689 46.5555 93.0001 48.8739 93.0001 51.6668V58.2425C93.0001 61.0852 90.8957 63.4363 88.1598 63.8231C87.1889 73.1258 81.3692 80.9864 73.2728 84.8325Z" fill="#D0C6AC"/>
<path d="M124 16.9092H0.00012207V131.515H124V16.9092Z" fill="#EDB98A"/>
<path fill-rule="evenodd" clip-rule="evenodd" d="M88.3032 54.0151V64.8182C88.3032 79.3449 76.5269 91.1212 62.0002 91.1212C47.4734 91.1212 35.6971 79.3449 35.6971 64.8182V54.0151V61.0606C35.6971 75.5874 47.4734 87.3636 62.0002 87.3636C76.5269 87.3636 88.3032 75.5874 88.3032 61.0606V54.0151Z" fill="black" fill-opacity="0.1"/>
</g>
<mask id="mask1" mask-type="alpha" maskUnits="userSpaceOnUse" x="15" y="85" width="94" height="47">
<path fill-rule="evenodd" clip-rule="evenodd" d="M50.7274 85.9879C42.311 86.9297 35.8285 89.5017 35.699 96.1212C23.5537 101.252 15.0304 113.274 15.0304 127.288V131.515H108.97V127.288C108.97 113.274 100.446 101.252 88.3012 96.1212C88.1717 89.5017 81.6892 86.9297 73.2728 85.9879V94.8789C73.2728 101.105 68.2259 106.152 62.0001 106.152C55.7743 106.152 50.7274 101.105 50.7274 94.8789V85.9879Z" fill="white"/>
</mask>
<g mask="url(#mask1)">
<path fill-rule="evenodd" clip-rule="evenodd" d="M50.7274 85.9879C42.311 86.9297 35.8285 89.5017 35.699 96.1212C23.5537 101.252 15.0304 113.274 15.0304 127.288V131.515H108.97V127.288C108.97 113.274 100.446 101.252 88.3012 96.1212C88.1717 89.5017 81.6892 86.9297 73.2728 85.9879V94.8789C73.2728 101.105 68.2259 106.152 62.0001 106.152C55.7743 106.152 50.7274 101.105 50.7274 94.8789V85.9879Z" fill="#FF6700"/>
<path d="M124 79.8486H0.00012207V131.515H124V79.8486Z" fill="#FF8900"/>
<path fill-rule="evenodd" clip-rule="evenodd" d="M47.9092 108.847V131.515H44.6213V107.162C45.6564 107.777 46.7569 108.341 47.9092 108.847ZM79.3789 107.162V126.114C79.3789 127.022 78.6429 127.758 77.735 127.758C76.8271 127.758 76.091 127.022 76.091 126.114V108.847C77.2433 108.341 78.3438 107.777 79.3789 107.162Z" fill="#F4F4F4"/>
<path fill-rule="evenodd" clip-rule="evenodd" d="M42.7238 85.8253C35.6545 87.1625 30.7653 89.8264 30.7653 95.0236C30.7653 104.282 46.283 111.788 62.0001 111.788C77.7173 111.788 93.235 104.282 93.235 95.0236C93.235 89.8264 88.3457 87.1625 81.2764 85.8253C85.5436 87.3989 88.3031 90.044 88.3031 94.4455C88.3031 104.024 75.2356 111.788 62.0001 111.788C48.7646 111.788 35.6971 104.024 35.6971 94.4455C35.6971 90.044 38.4566 87.3989 42.7238 85.8253Z" fill="black" fill-opacity="0.16"/>
</g>
<path fill-rule="evenodd" clip-rule="evenodd" d="M55.4243 69.9849C55.4243 73.6166 58.3684 76.5606 62.0001 76.5606C65.6318 76.5606 68.5758 73.6166 68.5758 69.9849" fill="black" fill-opacity="0.7"/>
<path fill-rule="evenodd" clip-rule="evenodd" d="M56.3636 61.0605C56.3636 63.1358 58.8871 64.8181 62 64.8181C65.1129 64.8181 67.6364 63.1358 67.6364 61.0605" fill="black" fill-opacity="0.16"/>
<mask id="mask2" mask-type="alpha" maskUnits="userSpaceOnUse" x="43" y="48" width="14" height="8">
<path fill-rule="evenodd" clip-rule="evenodd" d="M49.7879 54.9773C54.3017 54.9773 56.3637 57.068 56.3637 53.8094C56.3637 50.5508 53.4196 48.3789 49.7879 48.3789C46.1562 48.3789 43.2122 50.5508 43.2122 53.8094C43.2122 57.068 45.2741 54.9773 49.7879 54.9773Z" fill="white"/>
</mask>
<g mask="url(#mask2)">
<path fill-rule="evenodd" clip-rule="evenodd" d="M49.7879 54.9773C54.3017 54.9773 56.3637 57.068 56.3637 53.8094C56.3637 50.5508 53.4196 48.3789 49.7879 48.3789C46.1562 48.3789 43.2122 50.5508 43.2122 53.8094C43.2122 57.068 45.2741 54.9773 49.7879 54.9773Z" fill="white"/>
<path d="M49.7878 55.8938C51.3442 55.8938 52.606 54.6321 52.606 53.0756C52.606 51.5192 51.3442 50.2574 49.7878 50.2574C48.2313 50.2574 46.9696 51.5192 46.9696 53.0756C46.9696 54.6321 48.2313 55.8938 49.7878 55.8938Z" fill="black" fill-opacity="0.7"/>
</g>
<mask id="mask3" mask-type="alpha" maskUnits="userSpaceOnUse" x="67" y="48" width="14" height="8">
<path fill-rule="evenodd" clip-rule="evenodd" d="M74.2121 54.9769C78.7259 54.9769 80.7879 57.0677 80.7879 53.8091C80.7879 50.5505 77.8438 48.3785 74.2121 48.3785C70.5804 48.3785 67.6364 50.5505 67.6364 53.8091C67.6364 57.0677 69.6983 54.9769 74.2121 54.9769Z" fill="white"/>
</mask>
<g mask="url(#mask3)">
<path fill-rule="evenodd" clip-rule="evenodd" d="M74.2121 54.9769C78.7259 54.9769 80.7879 57.0677 80.7879 53.8091C80.7879 50.5505 77.8438 48.3785 74.2121 48.3785C70.5804 48.3785 67.6364 50.5505 67.6364 53.8091C67.6364 57.0677 69.6983 54.9769 74.2121 54.9769Z" fill="white"/>
<path d="M74.2123 55.8937C75.7688 55.8937 77.0305 54.6319 77.0305 53.0755C77.0305 51.5191 75.7688 50.2573 74.2123 50.2573C72.6559 50.2573 71.3942 51.5191 71.3942 53.0755C71.3942 54.6319 72.6559 55.8937 74.2123 55.8937Z" fill="black" fill-opacity="0.7"/>
</g>
<path fill-rule="evenodd" clip-rule="evenodd" d="M48.1664 41.403C45.4388 41.529 41.0293 43.5109 41.1429 46.2615C41.1466 46.3515 41.2789 46.391 41.3435 46.3218C42.6375 44.9318 51.8249 43.5272 55.061 44.2715C55.3571 44.3398 55.5821 44.0476 55.3945 43.8365C53.7872 42.029 50.61 41.2878 48.1664 41.403Z" fill="black" fill-opacity="0.6"/>
<path fill-rule="evenodd" clip-rule="evenodd" d="M76.3036 41.403C79.0311 41.529 83.4407 43.5109 83.3271 46.2615C83.3233 46.3515 83.1911 46.391 83.1265 46.3218C81.8325 44.9318 72.645 43.5272 69.409 44.2715C69.1129 44.3398 68.8879 44.0476 69.0754 43.8365C70.6828 42.029 73.86 41.2878 76.3036 41.403Z" fill="black" fill-opacity="0.6"/>
<mask id="mask4" mask-type="alpha" maskUnits="userSpaceOnUse" x="0" y="0" width="124" height="132">
<path d="M124 0H0V131.515H124V0Z" fill="white"/>
</mask>
<g mask="url(#mask4)">
<mask id="mask5" mask-type="alpha" maskUnits="userSpaceOnUse" x="35" y="46" width="54" height="42">
<path fill-rule="evenodd" clip-rule="evenodd" d="M70.1861 79.9276C69.0055 81.0051 67.7478 81.4897 66.1582 81.1509C65.8847 81.0926 64.7695 79.0192 61.9999 79.0192C59.2304 79.0192 58.1154 81.0926 57.8417 81.1509C56.2521 81.4897 54.9944 81.0051 53.8138 79.9276C51.5944 77.9018 49.7487 75.1084 50.8578 72.0605C51.4358 70.4719 52.3758 68.7278 54.0859 68.2215C55.912 67.6812 58.4758 68.2206 60.316 67.8516C60.9122 67.7319 61.5635 67.5193 61.9999 67.1666C62.4364 67.5193 63.0878 67.7319 63.6837 67.8516C65.5241 68.2206 68.0879 67.6812 69.914 68.2215C71.6241 68.7278 72.5641 70.4719 73.1423 72.0605C74.2513 75.1084 72.4056 77.9018 70.1861 79.9276ZM88.3411 46.0303C86.7393 49.9758 87.3579 54.8878 87.0615 59.0295C86.8207 62.396 86.1129 67.4418 83.1236 69.6159C81.595 70.7277 78.8125 72.5963 76.8151 72.0751C75.4402 71.7163 75.2935 67.7726 73.4866 66.2963C71.437 64.622 68.8778 63.8863 66.2973 63.9999C65.1839 64.0489 62.932 64.0373 62 64.8935C61.068 64.0373 58.8163 64.0489 57.7028 63.9999C55.1222 63.8863 52.5629 64.622 50.5134 66.2963C48.7065 67.7726 48.56 71.7163 47.185 72.0751C45.1876 72.5963 42.4051 70.7277 40.8763 69.6159C37.8869 67.4418 37.1794 62.396 36.9383 59.0295C36.6421 54.8878 37.2607 49.9758 35.6589 46.0303C34.8796 46.0303 35.3936 53.606 35.3936 53.606V63.1672C35.4084 70.348 39.8938 81.0957 49.8386 85.1997C52.2708 86.2034 57.7799 87.8333 62 87.8333C66.22 87.8333 71.7292 86.3585 74.1613 85.3549C84.1062 81.2509 88.5915 70.348 88.6066 63.1672V53.606C88.6066 53.606 89.1204 46.0303 88.3411 46.0303Z" fill="white"/>
</mask>
<g mask="url(#mask5)">
<path fill-rule="evenodd" clip-rule="evenodd" d="M70.1861 79.9276C69.0055 81.0051 67.7478 81.4897 66.1582 81.1509C65.8847 81.0926 64.7695 79.0192 61.9999 79.0192C59.2304 79.0192 58.1154 81.0926 57.8417 81.1509C56.2521 81.4897 54.9944 81.0051 53.8138 79.9276C51.5944 77.9018 49.7487 75.1084 50.8578 72.0605C51.4358 70.4719 52.3758 68.7278 54.0859 68.2215C55.912 67.6812 58.4758 68.2206 60.316 67.8516C60.9122 67.7319 61.5635 67.5193 61.9999 67.1666C62.4364 67.5193 63.0878 67.7319 63.6837 67.8516C65.5241 68.2206 68.0879 67.6812 69.914 68.2215C71.6241 68.7278 72.5641 70.4719 73.1423 72.0605C74.2513 75.1084 72.4056 77.9018 70.1861 79.9276ZM88.3411 46.0303C86.7393 49.9758 87.3579 54.8878 87.0615 59.0295C86.8207 62.396 86.1129 67.4418 83.1236 69.6159C81.595 70.7277 78.8125 72.5963 76.8151 72.0751C75.4402 71.7163 75.2935 67.7726 73.4866 66.2963C71.437 64.622 68.8778 63.8863 66.2973 63.9999C65.1839 64.0489 62.932 64.0373 62 64.8935C61.068 64.0373 58.8163 64.0489 57.7028 63.9999C55.1222 63.8863 52.5629 64.622 50.5134 66.2963C48.7065 67.7726 48.56 71.7163 47.185 72.0751C45.1876 72.5963 42.4051 70.7277 40.8763 69.6159C37.8869 67.4418 37.1794 62.396 36.9383 59.0295C36.6421 54.8878 37.2607 49.9758 35.6589 46.0303C34.8796 46.0303 35.3936 53.606 35.3936 53.606V63.1672C35.4084 70.348 39.8938 81.0957 49.8386 85.1997C52.2708 86.2034 57.7799 87.8333 62 87.8333C66.22 87.8333 71.7292 86.3585 74.1613 85.3549C84.1062 81.2509 88.5915 70.348 88.6066 63.1672V53.606C88.6066 53.606 89.1204 46.0303 88.3411 46.0303Z" fill="#331B0C"/>
<path d="M131.515 33.8181H7.51514V148.424H131.515V33.8181Z" fill="#4A312C"/>
</g>
<mask id="mask6" mask-type="alpha" maskUnits="userSpaceOnUse" x="33" y="4" width="58" height="43">
<path fill-rule="evenodd" clip-rule="evenodd" d="M43.8001 24.4347C43.8579 24.4091 43.7145 24.3993 43.3699 24.4052C43.7887 24.4044 43.9321 24.4142 43.8001 24.4347ZM39.9791 17.0508C39.9781 17.0416 39.987 17.1217 39.9791 17.0508V17.0508ZM90.5411 33.2384C90.417 31.6805 90.1972 30.132 89.8279 28.6098C89.5346 27.4 89.1339 26.2455 88.6599 25.0913C88.3738 24.3939 87.7053 23.4361 87.6268 22.6838C87.5493 21.9428 88.1275 21.1219 88.251 20.2591C88.3707 19.4195 88.3504 18.5367 88.1781 17.7047C87.7868 15.8152 86.4901 14.0581 84.4877 13.5655C84.0406 13.4555 83.0956 13.5911 82.7797 13.3308C82.4175 13.0322 82.1653 12.0152 81.8374 11.6073C80.9025 10.4443 79.4444 9.69538 77.9066 9.95648C76.7742 10.1487 77.4245 10.3828 76.5756 9.71638C76.1035 9.34587 75.7508 8.78014 75.2924 8.37905C74.6032 7.7765 73.8126 7.26069 72.9947 6.83738C70.8543 5.72982 68.4133 4.92475 66.0225 4.53233C61.6613 3.81642 57.0066 4.44058 52.7792 5.57477C50.6757 6.13913 48.5579 6.85534 46.6042 7.80252C45.7665 8.20864 45.283 8.54552 44.4095 8.65187C43.0339 8.8194 41.8689 8.81103 40.5658 9.39441C36.5564 11.1896 34.7504 15.3543 36.3106 19.3398C36.6245 20.1414 37.0494 20.8453 37.6352 21.4927C38.3495 22.2821 38.6079 22.1267 37.9927 23.0345C37.0726 24.3919 36.297 25.8394 35.6656 27.3424C34.008 31.2887 33.7307 35.7332 33.8386 39.9418C33.8764 41.4151 33.9396 42.9066 34.1719 44.3658C34.2722 44.9974 34.3004 46.185 34.7741 46.6537C35.0145 46.8913 35.3569 47.0239 35.6986 46.9292C36.5015 46.7068 36.2255 46.1143 36.2441 45.5642C36.338 42.8007 36.2112 40.356 36.8685 37.6258C37.3539 35.6086 38.163 33.7766 39.2115 31.9729C40.5448 29.6788 41.9841 27.6641 43.8177 25.6997C44.2488 25.2378 44.343 25.042 44.9211 25.0085C45.3588 24.9832 45.9991 25.283 46.4247 25.3867C47.3631 25.6154 48.3032 25.8415 49.2586 25.9955C51.0153 26.2787 52.7547 26.2977 54.5271 26.2422C58.0152 26.1331 61.5184 25.8884 64.9003 25.01C67.1464 24.4268 69.1377 23.3798 71.2891 22.6123C71.3275 22.5986 71.8667 22.2144 71.9612 22.2301C72.0931 22.2518 72.8897 23.0876 73.0242 23.1929C74.0696 24.0128 75.2162 24.3569 76.3452 24.9917C77.7371 25.7744 76.3891 24.6544 77.1568 25.6299C77.3806 25.914 77.4951 26.4408 77.6747 26.7626C78.2458 27.7878 79.0403 28.6889 79.9907 29.4039C80.909 30.0947 82.2891 30.4284 82.7573 31.3275C83.1184 32.0212 83.2401 32.9639 83.5315 33.7045C84.2959 35.6468 85.3053 37.4581 86.3148 39.2875C87.128 40.7618 88.0176 42.0496 88.108 43.7343C88.1394 44.3208 87.5814 47.8384 88.9406 46.7685C89.1421 46.61 89.5765 44.8165 89.6658 44.5122C90.028 43.2756 90.1568 41.9847 90.3208 40.7141C90.647 38.1874 90.7541 35.7833 90.5411 33.2384Z" fill="white"/>
</mask>
<g mask="url(#mask6)">
<path fill-rule="evenodd" clip-rule="evenodd" d="M43.8001 24.4347C43.8579 24.4091 43.7145 24.3993 43.3699 24.4052C43.7887 24.4044 43.9321 24.4142 43.8001 24.4347ZM39.9791 17.0508C39.9781 17.0416 39.987 17.1217 39.9791 17.0508V17.0508ZM90.5411 33.2384C90.417 31.6805 90.1972 30.132 89.8279 28.6098C89.5346 27.4 89.1339 26.2455 88.6599 25.0913C88.3738 24.3939 87.7053 23.4361 87.6268 22.6838C87.5493 21.9428 88.1275 21.1219 88.251 20.2591C88.3707 19.4195 88.3504 18.5367 88.1781 17.7047C87.7868 15.8152 86.4901 14.0581 84.4877 13.5655C84.0406 13.4555 83.0956 13.5911 82.7797 13.3308C82.4175 13.0322 82.1653 12.0152 81.8374 11.6073C80.9025 10.4443 79.4444 9.69538 77.9066 9.95648C76.7742 10.1487 77.4245 10.3828 76.5756 9.71638C76.1035 9.34587 75.7508 8.78014 75.2924 8.37905C74.6032 7.7765 73.8126 7.26069 72.9947 6.83738C70.8543 5.72982 68.4133 4.92475 66.0225 4.53233C61.6613 3.81642 57.0066 4.44058 52.7792 5.57477C50.6757 6.13913 48.5579 6.85534 46.6042 7.80252C45.7665 8.20864 45.283 8.54552 44.4095 8.65187C43.0339 8.8194 41.8689 8.81103 40.5658 9.39441C36.5564 11.1896 34.7504 15.3543 36.3106 19.3398C36.6245 20.1414 37.0494 20.8453 37.6352 21.4927C38.3495 22.2821 38.6079 22.1267 37.9927 23.0345C37.0726 24.3919 36.297 25.8394 35.6656 27.3424C34.008 31.2887 33.7307 35.7332 33.8386 39.9418C33.8764 41.4151 33.9396 42.9066 34.1719 44.3658C34.2722 44.9974 34.3004 46.185 34.7741 46.6537C35.0145 46.8913 35.3569 47.0239 35.6986 46.9292C36.5015 46.7068 36.2255 46.1143 36.2441 45.5642C36.338 42.8007 36.2112 40.356 36.8685 37.6258C37.3539 35.6086 38.163 33.7766 39.2115 31.9729C40.5448 29.6788 41.9841 27.6641 43.8177 25.6997C44.2488 25.2378 44.343 25.042 44.9211 25.0085C45.3588 24.9832 45.9991 25.283 46.4247 25.3867C47.3631 25.6154 48.3032 25.8415 49.2586 25.9955C51.0153 26.2787 52.7547 26.2977 54.5271 26.2422C58.0152 26.1331 61.5184 25.8884 64.9003 25.01C67.1464 24.4268 69.1377 23.3798 71.2891 22.6123C71.3275 22.5986 71.8667 22.2144 71.9612 22.2301C72.0931 22.2518 72.8897 23.0876 73.0242 23.1929C74.0696 24.0128 75.2162 24.3569 76.3452 24.9917C77.7371 25.7744 76.3891 24.6544 77.1568 25.6299C77.3806 25.914 77.4951 26.4408 77.6747 26.7626C78.2458 27.7878 79.0403 28.6889 79.9907 29.4039C80.909 30.0947 82.2891 30.4284 82.7573 31.3275C83.1184 32.0212 83.2401 32.9639 83.5315 33.7045C84.2959 35.6468 85.3053 37.4581 86.3148 39.2875C87.128 40.7618 88.0176 42.0496 88.108 43.7343C88.1394 44.3208 87.5814 47.8384 88.9406 46.7685C89.1421 46.61 89.5765 44.8165 89.6658 44.5122C90.028 43.2756 90.1568 41.9847 90.3208 40.7141C90.647 38.1874 90.7541 35.7833 90.5411 33.2384Z" fill="#28354B"/>
<path d="M123.53 0H-0.469604V131.515H123.53V0Z" fill="#2C1B18"/>
</g>
</g>
</svg>
