<svg width="356" height="524" viewBox="0 0 356 524" fill="none" xmlns="http://www.w3.org/2000/svg">
<path fill-rule="evenodd" clip-rule="evenodd" d="M268.677 207.252C273.754 201.293 277.189 193.99 276.615 185.807C274.961 162.231 242.141 167.417 235.757 179.317C229.373 191.216 230.132 221.4 238.383 223.527C241.673 224.375 248.683 222.298 255.817 217.998L251.339 249.678H277.78L268.677 207.252Z" fill="#EBBC91"/>
<path fill-rule="evenodd" clip-rule="evenodd" d="M288.143 177.959C288.997 177.113 289.463 175.905 289.866 174.758C290.284 173.567 290.691 172.363 290.969 171.123C291.524 168.645 291.529 165.795 289.761 163.871C288.344 162.328 286.216 161.636 284.253 161.485C282.945 161.385 281.602 161.568 280.348 161.98C279.104 162.389 278.032 163.204 276.826 163.71C276.78 161.04 276.322 158.246 274.968 155.966C273.664 153.772 271.585 152.541 269.218 152.215C266.789 151.881 264.39 152.449 262.215 153.625C261.67 153.92 261.131 154.229 260.615 154.578C260.182 154.87 259.733 155.222 259.226 155.341C258.66 155.474 258.38 155.148 258.013 154.735C257.582 154.251 257.096 153.825 256.583 153.448C254.311 151.778 251.331 151.092 248.699 152.092C247.487 152.554 246.308 153.337 245.485 154.416C244.752 155.377 244.229 156.903 243.217 157.573C242.788 157.858 242.484 157.481 242.093 157.202C241.506 156.784 240.946 156.322 240.352 155.915C239.517 155.343 238.613 154.915 237.644 154.691C236.227 154.363 234.269 154.44 233.864 156.296C233.712 156.993 233.828 157.739 233.877 158.442C233.945 159.406 234.015 160.37 234.099 161.334C234.162 162.065 234.243 162.771 234.381 163.489C234.454 163.872 234.685 164.586 234.521 164.969C234.316 165.448 233.369 165.176 232.964 165.193C232.165 165.226 231.363 165.366 230.624 165.707C230.052 165.972 229.45 166.361 229.208 167.017C229.06 167.42 229.099 167.834 229.169 168.249C229.253 168.747 229.157 169.011 229.094 169.513C228.021 168.984 224.303 167.81 223.835 169.733C223.679 170.374 224.034 171.097 224.304 171.637C224.779 172.584 225.401 173.45 226.037 174.276C227.365 175.998 228.949 177.484 230.653 178.754C228.656 179.642 228.135 182.261 229.864 183.821C230.628 184.51 231.654 184.663 232.617 184.619C232.97 184.603 233.478 184.468 233.755 184.529C233.904 184.562 234.064 184.688 234.271 184.703C235.63 184.796 237.164 184.468 238.493 184.167C240.86 183.629 243.101 182.508 244.931 180.799C245.401 180.361 245.789 180.109 246.421 180.116C246.975 180.121 247.518 180.273 248.071 180.287C249.535 180.324 250.855 179.609 252.214 179.132C252.297 180.969 252.82 182.991 253.571 184.643C254.184 185.99 255.463 186.186 256.72 186.304C260.74 186.683 264.774 186.261 268.798 186.266C264.902 187.147 260.876 187.51 257.015 188.546C255.27 189.014 256.602 190.191 257.349 191.006C258.578 192.349 259.491 194.013 260.125 195.766C262.031 193.282 265.4 191.645 268.384 192.408C271.682 193.251 274.004 197.71 271.895 200.916C270.671 202.778 268.46 203.496 266.62 204.296C268.056 205.788 268.403 207.991 269.266 209.847C269.692 210.763 270.29 211.798 271.243 212.117C271.595 212.235 272.009 212.245 272.287 212.532C272.631 212.888 272.713 213.286 273.153 213.591C274.908 214.812 277.65 214.718 279.206 213.125C280.613 211.685 280.247 209.406 279.072 207.946C280.942 207.166 284.35 206.163 283.607 203.249C287.66 202.98 297.501 196.407 292.061 191.603C295.046 189.916 297.789 185.793 295.871 182.158C294.395 179.359 290.96 178.108 288.143 177.959Z" fill="#191847"/>
<path fill-rule="evenodd" clip-rule="evenodd" d="M325.568 387.39H240.457L229.305 524H356L325.568 387.39Z" fill="#E7E7E7"/>
<path fill-rule="evenodd" clip-rule="evenodd" d="M325.568 387.39H299.392L283.725 524H356L325.568 387.39Z" fill="#D7D7D7"/>
<path fill-rule="evenodd" clip-rule="evenodd" d="M143.424 363.986C134.35 358.537 119.125 365.537 119.135 373.33C119.167 396.647 140.446 506.539 141.557 513.486C142.668 520.433 154.57 522.268 155.263 513.509C156.366 499.572 158.414 451.325 156.364 428.993C155.518 419.775 154.607 410.996 153.71 403.163C164.876 423.328 182.144 452.198 205.516 489.775L218.204 483.978C208.24 451.152 200.071 427.977 193.694 414.455C182.777 391.301 172.54 371.472 168.231 364.488C161.454 353.501 149.657 357.335 143.424 363.986Z" fill="#EBBC91"/>
<path fill-rule="evenodd" clip-rule="evenodd" d="M217.297 465.748L173.75 362.588C163.317 345.806 134.068 366.003 137.626 375.736C145.702 397.833 186.78 469.372 189.186 475.955L217.297 465.748Z" fill="#141414"/>
<path fill-rule="evenodd" clip-rule="evenodd" d="M219.715 477.473C222.428 479.706 224.193 481.53 225.009 482.944C226.003 484.665 227.165 487.341 228.498 490.973C226.502 492.125 208.564 502.481 174.685 522.041C170.618 518.226 169.984 515.264 172.784 513.156C175.584 511.048 177.895 509.27 179.716 507.822L198.29 482.231C198.647 481.739 199.336 481.629 199.829 481.987C199.837 481.993 199.846 481.999 199.854 482.005L203.713 484.977C207.254 484.668 209.896 484.01 211.64 483.004C213.056 482.186 214.683 480.484 216.518 477.898L216.518 477.898C217.223 476.906 218.598 476.672 219.59 477.377C219.633 477.407 219.675 477.439 219.715 477.473Z" fill="#191919"/>
<path fill-rule="evenodd" clip-rule="evenodd" d="M158.049 507.917C159.282 511.207 159.898 513.669 159.898 515.303C159.898 517.289 159.567 520.188 158.905 524C156.601 524 135.888 524 96.7677 524C95.153 518.662 96.0851 515.78 99.5641 515.354C103.043 514.928 105.933 514.544 108.234 514.201L137.115 501.326C137.671 501.078 138.322 501.328 138.57 501.883C138.574 501.893 138.578 501.902 138.582 501.912L140.439 506.415C143.659 507.918 146.276 508.669 148.29 508.669C149.926 508.669 152.185 508.009 155.068 506.687L155.068 506.687C156.174 506.18 157.482 506.666 157.989 507.772C158.011 507.82 158.031 507.868 158.049 507.917Z" fill="#191919"/>
<path fill-rule="evenodd" clip-rule="evenodd" d="M116.084 381.257C116.084 410.525 129.983 478.798 129.992 485.243L159.898 485.265C155.521 424.347 153.969 393.559 155.242 392.903C157.151 391.919 233.518 400.528 256.422 400.528C289.449 400.528 303.112 379.7 304.22 341.119H238.795C225.474 342.544 155.989 356.559 130.183 361.377C119.136 363.44 116.084 373.194 116.084 381.257Z" fill="#191919"/>
<path fill-rule="evenodd" clip-rule="evenodd" d="M228.602 272.483L190.363 251.539C184.004 243.988 177.738 238.123 171.567 233.945C169.681 233.158 166.383 232.681 169.467 238.156C172.551 243.63 175.549 249.527 173.978 251.213C172.406 252.899 168.488 250.544 166.614 253.346C165.364 255.214 172.058 258.165 186.695 262.199L214.481 287.64L228.602 272.483ZM168.712 290.154L151.915 280.926C149.558 271.958 146.741 267.446 143.463 267.39C140.945 266.218 145.33 277.55 140.557 276.568C135.783 275.585 124.133 266.92 122.125 268.679C119.155 271.282 121.803 279.274 124.924 283.25C130.755 290.68 135.583 293.221 147.517 296.549C153.757 298.288 160.503 301.776 167.755 307.01L168.712 290.154Z" fill="#EBBC91"/>
<path fill-rule="evenodd" clip-rule="evenodd" d="M247.225 267.818C233.831 267.676 215.97 264.847 196.913 252.75L189.428 269.441C202.574 282.487 221.058 293.205 237.22 292.752C249.956 292.394 256.466 276.988 247.225 267.818Z" fill="#FF6700"/>
<path fill-rule="evenodd" clip-rule="evenodd" d="M229.19 294.584C214.971 298.13 191.126 293.948 157.655 282.038C149.353 299.214 145.515 311.459 146.142 318.773C174.855 333.771 199.464 340.458 219.739 340.9C219.094 352.93 220.559 364.377 225.478 374.837C235.591 396.34 294.806 376.426 314.716 380.345C327.185 339.853 303.077 323.397 303.057 297.488C303.036 269.114 280.254 225.44 276.902 225.44H246.333C244.646 247.11 236.157 270.991 229.19 294.584Z" fill="#FF6700"/>
<path d="M64 183.093C94.3478 183.093 118.95 170.069 118.95 154.002C118.95 137.936 94.3478 124.911 64 124.911C33.6523 124.911 9.05054 137.936 9.05054 154.002C9.05054 170.069 33.6523 183.093 64 183.093Z" fill="#EFE6B9"/>
<path fill-rule="evenodd" clip-rule="evenodd" d="M128 174.042C128 138.339 99.3462 109.396 64 109.396C28.6538 109.396 0 138.339 0 174.042" fill="#575757"/>
<path d="M67.2322 -88H60.7676V118.869H67.2322V-88Z" fill="#575757"/>
</svg>
