<svg width="237" height="32" viewBox="0 0 237 32" fill="none" xmlns="http://www.w3.org/2000/svg">
<rect width="237" height="32" rx="3" fill="black" fill-opacity="0.9"/>
<path d="M55.8721 21H54.7354L50.0537 13.8105H50.0068C50.0693 14.6543 50.1006 15.4277 50.1006 16.1309V21H49.1807V12.4336H50.3057L54.9756 19.5938H55.0225C55.0146 19.4883 54.9971 19.1504 54.9697 18.5801C54.9424 18.0059 54.9326 17.5957 54.9404 17.3496V12.4336H55.8721V21ZM63.624 17.7832C63.624 18.8301 63.3604 19.6484 62.833 20.2383C62.3057 20.8242 61.5771 21.1172 60.6475 21.1172C60.0732 21.1172 59.5635 20.9824 59.1182 20.7129C58.6729 20.4434 58.3291 20.0566 58.0869 19.5527C57.8447 19.0488 57.7236 18.459 57.7236 17.7832C57.7236 16.7363 57.9854 15.9219 58.5088 15.3398C59.0322 14.7539 59.7588 14.4609 60.6885 14.4609C61.5869 14.4609 62.2998 14.7598 62.8271 15.3574C63.3584 15.9551 63.624 16.7637 63.624 17.7832ZM58.7314 17.7832C58.7314 18.6035 58.8955 19.2285 59.2236 19.6582C59.5518 20.0879 60.0342 20.3027 60.6709 20.3027C61.3076 20.3027 61.79 20.0898 62.1182 19.6641C62.4502 19.2344 62.6162 18.6074 62.6162 17.7832C62.6162 16.9668 62.4502 16.3477 62.1182 15.9258C61.79 15.5 61.3037 15.2871 60.6592 15.2871C60.0225 15.2871 59.542 15.4961 59.2178 15.9141C58.8936 16.332 58.7314 16.9551 58.7314 17.7832ZM67.4092 20.3145C67.5811 20.3145 67.7471 20.3027 67.9072 20.2793C68.0674 20.252 68.1943 20.2246 68.2881 20.1973V20.9414C68.1826 20.9922 68.0264 21.0332 67.8193 21.0645C67.6162 21.0996 67.4326 21.1172 67.2686 21.1172C66.0264 21.1172 65.4053 20.4629 65.4053 19.1543V15.334H64.4854V14.8652L65.4053 14.4609L65.8154 13.0898H66.3779V14.5781H68.2412V15.334H66.3779V19.1133C66.3779 19.5 66.4697 19.7969 66.6533 20.0039C66.8369 20.2109 67.0889 20.3145 67.4092 20.3145ZM70.5498 21H69.5771V14.5781H70.5498V21ZM69.4951 12.8379C69.4951 12.6152 69.5498 12.4531 69.6592 12.3516C69.7686 12.2461 69.9053 12.1934 70.0693 12.1934C70.2256 12.1934 70.3604 12.2461 70.4736 12.3516C70.5869 12.457 70.6436 12.6191 70.6436 12.8379C70.6436 13.0566 70.5869 13.2207 70.4736 13.3301C70.3604 13.4355 70.2256 13.4883 70.0693 13.4883C69.9053 13.4883 69.7686 13.4355 69.6592 13.3301C69.5498 13.2207 69.4951 13.0566 69.4951 12.8379ZM75.5068 15.334H73.8721V21H72.8994V15.334H71.751V14.8945L72.8994 14.543V14.1855C72.8994 12.6074 73.5889 11.8184 74.9678 11.8184C75.3076 11.8184 75.7061 11.8867 76.1631 12.0234L75.9111 12.8027C75.5361 12.6816 75.2158 12.6211 74.9502 12.6211C74.583 12.6211 74.3115 12.7441 74.1357 12.9902C73.96 13.2324 73.8721 13.623 73.8721 14.1621V14.5781H75.5068V15.334ZM77.6514 21H76.6787V14.5781H77.6514V21ZM76.5967 12.8379C76.5967 12.6152 76.6514 12.4531 76.7607 12.3516C76.8701 12.2461 77.0068 12.1934 77.1709 12.1934C77.3271 12.1934 77.4619 12.2461 77.5752 12.3516C77.6885 12.457 77.7451 12.6191 77.7451 12.8379C77.7451 13.0566 77.6885 13.2207 77.5752 13.3301C77.4619 13.4355 77.3271 13.4883 77.1709 13.4883C77.0068 13.4883 76.8701 13.4355 76.7607 13.3301C76.6514 13.2207 76.5967 13.0566 76.5967 12.8379ZM82.2803 21.1172C81.3506 21.1172 80.6299 20.832 80.1182 20.2617C79.6104 19.6875 79.3564 18.877 79.3564 17.8301C79.3564 16.7559 79.6143 15.9258 80.1299 15.3398C80.6494 14.7539 81.3877 14.4609 82.3447 14.4609C82.6533 14.4609 82.9619 14.4941 83.2705 14.5605C83.5791 14.627 83.8213 14.7051 83.9971 14.7949L83.6982 15.6211C83.4834 15.5352 83.249 15.4648 82.9951 15.4102C82.7412 15.3516 82.5166 15.3223 82.3213 15.3223C81.0166 15.3223 80.3643 16.1543 80.3643 17.8184C80.3643 18.6074 80.5225 19.2129 80.8389 19.6348C81.1592 20.0566 81.6318 20.2676 82.2568 20.2676C82.792 20.2676 83.3408 20.1523 83.9033 19.9219V20.7832C83.4736 21.0059 82.9326 21.1172 82.2803 21.1172ZM89.3818 21L89.1885 20.0859H89.1416C88.8213 20.4883 88.501 20.7617 88.1807 20.9062C87.8643 21.0469 87.4678 21.1172 86.9912 21.1172C86.3545 21.1172 85.8545 20.9531 85.4912 20.625C85.1318 20.2969 84.9521 19.8301 84.9521 19.2246C84.9521 17.9277 85.9893 17.248 88.0635 17.1855L89.1533 17.1504V16.752C89.1533 16.248 89.0439 15.877 88.8252 15.6387C88.6104 15.3965 88.2646 15.2754 87.7881 15.2754C87.2529 15.2754 86.6475 15.4395 85.9717 15.7676L85.6729 15.0234C85.9893 14.8516 86.335 14.7168 86.71 14.6191C87.0889 14.5215 87.4678 14.4727 87.8467 14.4727C88.6123 14.4727 89.1787 14.6426 89.5459 14.9824C89.917 15.3223 90.1025 15.8672 90.1025 16.6172V21H89.3818ZM87.1846 20.3145C87.79 20.3145 88.2646 20.1484 88.6084 19.8164C88.9561 19.4844 89.1299 19.0195 89.1299 18.4219V17.8418L88.1572 17.8828C87.3838 17.9102 86.8252 18.0312 86.4814 18.2461C86.1416 18.457 85.9717 18.7871 85.9717 19.2363C85.9717 19.5879 86.0771 19.8555 86.2881 20.0391C86.5029 20.2227 86.8018 20.3145 87.1846 20.3145ZM94.1865 20.3145C94.3584 20.3145 94.5244 20.3027 94.6846 20.2793C94.8447 20.252 94.9717 20.2246 95.0654 20.1973V20.9414C94.96 20.9922 94.8037 21.0332 94.5967 21.0645C94.3936 21.0996 94.21 21.1172 94.0459 21.1172C92.8037 21.1172 92.1826 20.4629 92.1826 19.1543V15.334H91.2627V14.8652L92.1826 14.4609L92.5928 13.0898H93.1553V14.5781H95.0186V15.334H93.1553V19.1133C93.1553 19.5 93.2471 19.7969 93.4307 20.0039C93.6143 20.2109 93.8662 20.3145 94.1865 20.3145ZM97.3271 21H96.3545V14.5781H97.3271V21ZM96.2725 12.8379C96.2725 12.6152 96.3271 12.4531 96.4365 12.3516C96.5459 12.2461 96.6826 12.1934 96.8467 12.1934C97.0029 12.1934 97.1377 12.2461 97.251 12.3516C97.3643 12.457 97.4209 12.6191 97.4209 12.8379C97.4209 13.0566 97.3643 13.2207 97.251 13.3301C97.1377 13.4355 97.0029 13.4883 96.8467 13.4883C96.6826 13.4883 96.5459 13.4355 96.4365 13.3301C96.3271 13.2207 96.2725 13.0566 96.2725 12.8379ZM104.933 17.7832C104.933 18.8301 104.669 19.6484 104.142 20.2383C103.614 20.8242 102.886 21.1172 101.956 21.1172C101.382 21.1172 100.872 20.9824 100.427 20.7129C99.9814 20.4434 99.6377 20.0566 99.3955 19.5527C99.1533 19.0488 99.0322 18.459 99.0322 17.7832C99.0322 16.7363 99.2939 15.9219 99.8174 15.3398C100.341 14.7539 101.067 14.4609 101.997 14.4609C102.896 14.4609 103.608 14.7598 104.136 15.3574C104.667 15.9551 104.933 16.7637 104.933 17.7832ZM100.04 17.7832C100.04 18.6035 100.204 19.2285 100.532 19.6582C100.86 20.0879 101.343 20.3027 101.979 20.3027C102.616 20.3027 103.099 20.0898 103.427 19.6641C103.759 19.2344 103.925 18.6074 103.925 17.7832C103.925 16.9668 103.759 16.3477 103.427 15.9258C103.099 15.5 102.612 15.2871 101.968 15.2871C101.331 15.2871 100.851 15.4961 100.526 15.9141C100.202 16.332 100.04 16.9551 100.04 17.7832ZM111.038 21V16.8457C111.038 16.3223 110.919 15.9316 110.681 15.6738C110.442 15.416 110.069 15.2871 109.562 15.2871C108.89 15.2871 108.397 15.4688 108.085 15.832C107.772 16.1953 107.616 16.7949 107.616 17.6309V21H106.644V14.5781H107.435L107.593 15.457H107.64C107.839 15.1406 108.118 14.8965 108.478 14.7246C108.837 14.5488 109.237 14.4609 109.679 14.4609C110.452 14.4609 111.034 14.6484 111.425 15.0234C111.815 15.3945 112.011 15.9902 112.011 16.8105V21H111.038ZM121.274 19.248C121.274 19.8457 121.052 20.3066 120.606 20.6309C120.161 20.9551 119.536 21.1172 118.731 21.1172C117.88 21.1172 117.216 20.9824 116.739 20.7129V19.8105C117.048 19.9668 117.378 20.0898 117.729 20.1797C118.085 20.2695 118.427 20.3145 118.755 20.3145C119.263 20.3145 119.653 20.2344 119.927 20.0742C120.2 19.9102 120.337 19.6621 120.337 19.3301C120.337 19.0801 120.228 18.8672 120.009 18.6914C119.794 18.5117 119.372 18.3008 118.743 18.0586C118.146 17.8359 117.72 17.6426 117.466 17.4785C117.216 17.3105 117.028 17.1211 116.903 16.9102C116.782 16.6992 116.722 16.4473 116.722 16.1543C116.722 15.6309 116.935 15.2188 117.36 14.918C117.786 14.6133 118.37 14.4609 119.112 14.4609C119.804 14.4609 120.479 14.6016 121.14 14.8828L120.794 15.6738C120.149 15.4082 119.565 15.2754 119.042 15.2754C118.581 15.2754 118.233 15.3477 117.999 15.4922C117.765 15.6367 117.647 15.8359 117.647 16.0898C117.647 16.2617 117.69 16.4082 117.776 16.5293C117.866 16.6504 118.009 16.7656 118.204 16.875C118.399 16.9844 118.774 17.1426 119.329 17.3496C120.091 17.627 120.604 17.9062 120.87 18.1875C121.14 18.4688 121.274 18.8223 121.274 19.248ZM125.575 21.1172C124.626 21.1172 123.876 20.8281 123.325 20.25C122.778 19.6719 122.505 18.8691 122.505 17.8418C122.505 16.8066 122.759 15.9844 123.267 15.375C123.778 14.7656 124.464 14.4609 125.323 14.4609C126.128 14.4609 126.765 14.7266 127.233 15.2578C127.702 15.7852 127.937 16.4824 127.937 17.3496V17.9648H123.513C123.532 18.7188 123.722 19.291 124.081 19.6816C124.444 20.0723 124.954 20.2676 125.61 20.2676C126.302 20.2676 126.985 20.123 127.661 19.834V20.7012C127.317 20.8496 126.991 20.9551 126.683 21.0176C126.378 21.084 126.009 21.1172 125.575 21.1172ZM125.312 15.2754C124.796 15.2754 124.384 15.4434 124.075 15.7793C123.771 16.1152 123.591 16.5801 123.536 17.1738H126.894C126.894 16.5605 126.757 16.0918 126.483 15.7676C126.21 15.4395 125.819 15.2754 125.312 15.2754ZM133.995 21V16.8457C133.995 16.3223 133.876 15.9316 133.638 15.6738C133.399 15.416 133.026 15.2871 132.519 15.2871C131.847 15.2871 131.354 15.4688 131.042 15.832C130.729 16.1953 130.573 16.7949 130.573 17.6309V21H129.601V14.5781H130.392L130.55 15.457H130.597C130.796 15.1406 131.075 14.8965 131.435 14.7246C131.794 14.5488 132.194 14.4609 132.636 14.4609C133.409 14.4609 133.991 14.6484 134.382 15.0234C134.772 15.3945 134.968 15.9902 134.968 16.8105V21H133.995ZM139.046 20.3145C139.218 20.3145 139.384 20.3027 139.544 20.2793C139.704 20.252 139.831 20.2246 139.925 20.1973V20.9414C139.819 20.9922 139.663 21.0332 139.456 21.0645C139.253 21.0996 139.069 21.1172 138.905 21.1172C137.663 21.1172 137.042 20.4629 137.042 19.1543V15.334H136.122V14.8652L137.042 14.4609L137.452 13.0898H138.015V14.5781H139.878V15.334H138.015V19.1133C138.015 19.5 138.106 19.7969 138.29 20.0039C138.474 20.2109 138.726 20.3145 139.046 20.3145ZM148.474 19.248C148.474 19.8457 148.251 20.3066 147.806 20.6309C147.36 20.9551 146.735 21.1172 145.931 21.1172C145.079 21.1172 144.415 20.9824 143.938 20.7129V19.8105C144.247 19.9668 144.577 20.0898 144.929 20.1797C145.284 20.2695 145.626 20.3145 145.954 20.3145C146.462 20.3145 146.853 20.2344 147.126 20.0742C147.399 19.9102 147.536 19.6621 147.536 19.3301C147.536 19.0801 147.427 18.8672 147.208 18.6914C146.993 18.5117 146.571 18.3008 145.942 18.0586C145.345 17.8359 144.919 17.6426 144.665 17.4785C144.415 17.3105 144.228 17.1211 144.103 16.9102C143.981 16.6992 143.921 16.4473 143.921 16.1543C143.921 15.6309 144.134 15.2188 144.56 14.918C144.985 14.6133 145.569 14.4609 146.312 14.4609C147.003 14.4609 147.679 14.6016 148.339 14.8828L147.993 15.6738C147.349 15.4082 146.765 15.2754 146.241 15.2754C145.78 15.2754 145.433 15.3477 145.198 15.4922C144.964 15.6367 144.847 15.8359 144.847 16.0898C144.847 16.2617 144.89 16.4082 144.976 16.5293C145.065 16.6504 145.208 16.7656 145.403 16.875C145.599 16.9844 145.974 17.1426 146.528 17.3496C147.29 17.627 147.804 17.9062 148.069 18.1875C148.339 18.4688 148.474 18.8223 148.474 19.248ZM150.976 14.5781V18.7441C150.976 19.2676 151.095 19.6582 151.333 19.916C151.571 20.1738 151.944 20.3027 152.452 20.3027C153.124 20.3027 153.614 20.1191 153.923 19.752C154.235 19.3848 154.392 18.7852 154.392 17.9531V14.5781H155.364V21H154.562L154.421 20.1387H154.368C154.169 20.4551 153.892 20.6973 153.536 20.8652C153.185 21.0332 152.782 21.1172 152.329 21.1172C151.548 21.1172 150.962 20.9316 150.571 20.5605C150.185 20.1895 149.991 19.5957 149.991 18.7793V14.5781H150.976ZM159.999 21.1172C159.069 21.1172 158.349 20.832 157.837 20.2617C157.329 19.6875 157.075 18.877 157.075 17.8301C157.075 16.7559 157.333 15.9258 157.849 15.3398C158.368 14.7539 159.106 14.4609 160.063 14.4609C160.372 14.4609 160.681 14.4941 160.989 14.5605C161.298 14.627 161.54 14.7051 161.716 14.7949L161.417 15.6211C161.202 15.5352 160.968 15.4648 160.714 15.4102C160.46 15.3516 160.235 15.3223 160.04 15.3223C158.735 15.3223 158.083 16.1543 158.083 17.8184C158.083 18.6074 158.241 19.2129 158.558 19.6348C158.878 20.0566 159.351 20.2676 159.976 20.2676C160.511 20.2676 161.06 20.1523 161.622 19.9219V20.7832C161.192 21.0059 160.651 21.1172 159.999 21.1172ZM165.718 21.1172C164.788 21.1172 164.067 20.832 163.556 20.2617C163.048 19.6875 162.794 18.877 162.794 17.8301C162.794 16.7559 163.052 15.9258 163.567 15.3398C164.087 14.7539 164.825 14.4609 165.782 14.4609C166.091 14.4609 166.399 14.4941 166.708 14.5605C167.017 14.627 167.259 14.7051 167.435 14.7949L167.136 15.6211C166.921 15.5352 166.687 15.4648 166.433 15.4102C166.179 15.3516 165.954 15.3223 165.759 15.3223C164.454 15.3223 163.802 16.1543 163.802 17.8184C163.802 18.6074 163.96 19.2129 164.276 19.6348C164.597 20.0566 165.069 20.2676 165.694 20.2676C166.229 20.2676 166.778 20.1523 167.341 19.9219V20.7832C166.911 21.0059 166.37 21.1172 165.718 21.1172ZM171.583 21.1172C170.634 21.1172 169.884 20.8281 169.333 20.25C168.786 19.6719 168.513 18.8691 168.513 17.8418C168.513 16.8066 168.767 15.9844 169.274 15.375C169.786 14.7656 170.472 14.4609 171.331 14.4609C172.136 14.4609 172.772 14.7266 173.241 15.2578C173.71 15.7852 173.944 16.4824 173.944 17.3496V17.9648H169.521C169.54 18.7188 169.729 19.291 170.089 19.6816C170.452 20.0723 170.962 20.2676 171.618 20.2676C172.31 20.2676 172.993 20.123 173.669 19.834V20.7012C173.325 20.8496 172.999 20.9551 172.69 21.0176C172.386 21.084 172.017 21.1172 171.583 21.1172ZM171.319 15.2754C170.804 15.2754 170.392 15.4434 170.083 15.7793C169.778 16.1152 169.599 16.5801 169.544 17.1738H172.901C172.901 16.5605 172.765 16.0918 172.491 15.7676C172.218 15.4395 171.827 15.2754 171.319 15.2754ZM179.751 19.248C179.751 19.8457 179.528 20.3066 179.083 20.6309C178.638 20.9551 178.013 21.1172 177.208 21.1172C176.356 21.1172 175.692 20.9824 175.216 20.7129V19.8105C175.524 19.9668 175.854 20.0898 176.206 20.1797C176.562 20.2695 176.903 20.3145 177.231 20.3145C177.739 20.3145 178.13 20.2344 178.403 20.0742C178.677 19.9102 178.813 19.6621 178.813 19.3301C178.813 19.0801 178.704 18.8672 178.485 18.6914C178.271 18.5117 177.849 18.3008 177.22 18.0586C176.622 17.8359 176.196 17.6426 175.942 17.4785C175.692 17.3105 175.505 17.1211 175.38 16.9102C175.259 16.6992 175.198 16.4473 175.198 16.1543C175.198 15.6309 175.411 15.2188 175.837 14.918C176.263 14.6133 176.847 14.4609 177.589 14.4609C178.28 14.4609 178.956 14.6016 179.616 14.8828L179.271 15.6738C178.626 15.4082 178.042 15.2754 177.519 15.2754C177.058 15.2754 176.71 15.3477 176.476 15.4922C176.241 15.6367 176.124 15.8359 176.124 16.0898C176.124 16.2617 176.167 16.4082 176.253 16.5293C176.343 16.6504 176.485 16.7656 176.681 16.875C176.876 16.9844 177.251 17.1426 177.806 17.3496C178.567 17.627 179.081 17.9062 179.347 18.1875C179.616 18.4688 179.751 18.8223 179.751 19.248ZM185.481 19.248C185.481 19.8457 185.259 20.3066 184.813 20.6309C184.368 20.9551 183.743 21.1172 182.938 21.1172C182.087 21.1172 181.423 20.9824 180.946 20.7129V19.8105C181.255 19.9668 181.585 20.0898 181.937 20.1797C182.292 20.2695 182.634 20.3145 182.962 20.3145C183.47 20.3145 183.86 20.2344 184.134 20.0742C184.407 19.9102 184.544 19.6621 184.544 19.3301C184.544 19.0801 184.435 18.8672 184.216 18.6914C184.001 18.5117 183.579 18.3008 182.95 18.0586C182.353 17.8359 181.927 17.6426 181.673 17.4785C181.423 17.3105 181.235 17.1211 181.11 16.9102C180.989 16.6992 180.929 16.4473 180.929 16.1543C180.929 15.6309 181.142 15.2188 181.567 14.918C181.993 14.6133 182.577 14.4609 183.319 14.4609C184.011 14.4609 184.687 14.6016 185.347 14.8828L185.001 15.6738C184.356 15.4082 183.772 15.2754 183.249 15.2754C182.788 15.2754 182.44 15.3477 182.206 15.4922C181.972 15.6367 181.854 15.8359 181.854 16.0898C181.854 16.2617 181.897 16.4082 181.983 16.5293C182.073 16.6504 182.216 16.7656 182.411 16.875C182.606 16.9844 182.981 17.1426 183.536 17.3496C184.298 17.627 184.812 17.9062 185.077 18.1875C185.347 18.4688 185.481 18.8223 185.481 19.248ZM189.964 15.334H188.329V21H187.356V15.334H186.208V14.8945L187.356 14.543V14.1855C187.356 12.6074 188.046 11.8184 189.425 11.8184C189.765 11.8184 190.163 11.8867 190.62 12.0234L190.368 12.8027C189.993 12.6816 189.673 12.6211 189.407 12.6211C189.04 12.6211 188.769 12.7441 188.593 12.9902C188.417 13.2324 188.329 13.623 188.329 14.1621V14.5781H189.964V15.334ZM192.05 14.5781V18.7441C192.05 19.2676 192.169 19.6582 192.407 19.916C192.646 20.1738 193.019 20.3027 193.526 20.3027C194.198 20.3027 194.688 20.1191 194.997 19.752C195.31 19.3848 195.466 18.7852 195.466 17.9531V14.5781H196.438V21H195.636L195.495 20.1387H195.442C195.243 20.4551 194.966 20.6973 194.61 20.8652C194.259 21.0332 193.856 21.1172 193.403 21.1172C192.622 21.1172 192.036 20.9316 191.646 20.5605C191.259 20.1895 191.065 19.5957 191.065 18.7793V14.5781H192.05ZM199.479 21H198.507V11.8828H199.479V21ZM202.515 21H201.542V11.8828H202.515V21ZM203.558 14.5781H204.601L206.007 18.2402C206.315 19.0762 206.507 19.6797 206.581 20.0508H206.628C206.679 19.8516 206.784 19.5117 206.944 19.0312C207.108 18.5469 207.64 17.0625 208.538 14.5781H209.581L206.821 21.8906C206.548 22.6133 206.228 23.125 205.86 23.4258C205.497 23.7305 205.05 23.8828 204.519 23.8828C204.222 23.8828 203.929 23.8496 203.64 23.7832V23.0039C203.854 23.0508 204.095 23.0742 204.36 23.0742C205.028 23.0742 205.505 22.6992 205.79 21.9492L206.147 21.0352L203.558 14.5781Z" fill="white"/>
<path d="M30.331 19.4934L27.4117 16.5769C27.0864 16.2519 26.5693 16.2519 26.244 16.5769C25.9187 16.9019 25.9187 17.4185 26.244 17.7435L29.7388 21.235C30.064 21.56 30.5895 21.56 30.9148 21.235L39.756 12.4104C40.0813 12.0854 40.0813 11.5687 39.756 11.2437C39.4307 10.9188 38.9136 10.9188 38.5883 11.2437L30.331 19.4934Z" fill="white"/>
</svg>
