<svg width="126" height="52" viewBox="0 0 126 52" fill="none" xmlns="http://www.w3.org/2000/svg">
<path opacity="0.9" fill-rule="evenodd" clip-rule="evenodd" d="M16.8241 0.0756847C16.2949 1.89212 15.6522 3.70855 15.1986 5.56283C14.4803 8.59022 13.7998 11.6555 13.3462 14.7585C13.0438 16.7642 13.4596 18.8077 14.2913 20.6619C14.5937 21.3809 15.2742 21.9864 15.9168 22.4784C17.2777 23.538 18.1094 24.8246 18.1094 26.6032C18.0716 28.798 18.3362 31.0307 18.0338 33.1878C17.618 35.9503 16.8619 38.6371 16.0302 41.286C14.9339 44.8432 13.573 48.3247 12.1743 51.8441C12.3255 50.5574 12.4011 49.3086 12.5901 48.022C12.9304 45.3352 13.3084 42.6484 13.6864 39.9615C14.1023 37.1612 13.8755 34.3987 12.9304 31.7498C12.5901 30.8415 11.9853 29.9712 11.3048 29.29C10.1329 28.1547 9.7549 26.7924 9.64149 25.2787C9.15005 18.5806 10.9268 12.4501 13.6108 6.47105C14.5181 4.4654 15.501 2.45975 16.4461 0.454108C16.5217 0.302739 16.6351 0.151369 16.7107 0C16.7485 0.0378424 16.7863 0.0378424 16.8241 0.0756847Z" fill="#7F0000"/>
<path opacity="0.9" fill-rule="evenodd" clip-rule="evenodd" d="M2.94984 41.0211C1.51332 39.8859 0.757254 38.5614 0.379223 36.972C-0.376841 33.8311 0.1146 30.728 0.832861 27.6628C2.34499 21.2296 5.36924 15.5154 8.96055 10.0661C11.1909 6.66026 13.6481 3.36797 15.9919 0C16.0675 0.0378424 16.181 0.113527 16.2566 0.15137C16.1053 0.416266 15.9919 0.719005 15.8407 0.983902C13.2323 5.82773 10.5861 10.5959 8.77153 15.8181C7.63743 18.9969 6.99478 22.2892 6.91917 25.6571C6.88137 27.7385 7.33501 29.7063 8.50691 31.447C8.62032 31.6362 8.69592 32.0147 8.58251 32.166C6.76796 35.1177 4.8778 38.0316 2.94984 41.0211Z" fill="black"/>
<path opacity="0.9" fill-rule="evenodd" clip-rule="evenodd" d="M12.7041 51.8063C14.1028 48.4005 15.5771 45.0325 16.9003 41.5889C18.6014 37.1613 19.9623 32.6202 20.0757 27.8142C20.1513 24.8247 19.9245 21.9487 17.9209 19.5268C17.8075 19.3754 17.7697 19.0348 17.8453 18.8834C19.4331 15.8182 21.0586 12.7151 22.7597 9.57422C24.0073 10.3689 24.7633 11.315 25.2926 12.4881C26.1998 14.4559 26.3889 16.5751 26.3132 18.7321C26.1998 23.1975 25.1413 27.4358 23.5914 31.5985C20.8696 38.7885 17.0137 45.4109 12.7041 51.8063Z" fill="black"/>
<path opacity="0.9" fill-rule="evenodd" clip-rule="evenodd" d="M46.802 27.4354C50.2421 27.4354 53.6444 27.3219 57.0089 27.4732C59.3149 27.5489 60.9782 29.3275 61.4318 31.863C61.7343 33.6037 61.7343 35.3823 61.016 37.0474C60.2221 38.9773 58.7478 40.0748 56.7064 40.1126C53.531 40.2261 50.3177 40.1504 47.1044 40.1504C47.0288 40.1504 46.9532 40.1126 46.802 40.0748C46.802 35.9121 46.802 31.7116 46.802 27.4354ZM49.7507 28.9491C49.7507 32.2414 49.7507 35.3445 49.7507 38.5989C51.9054 38.5989 54.0224 38.5611 56.1394 38.5989C57.1601 38.6367 57.8027 38.1448 58.1052 37.2744C58.899 34.966 58.9368 32.6198 58.0674 30.3114C57.8783 29.7438 57.1223 29.0626 56.593 29.0248C54.3626 28.8734 52.0944 28.9491 49.7507 28.9491Z" fill="black"/>
<path opacity="0.9" fill-rule="evenodd" clip-rule="evenodd" d="M65.6663 40.1134C65.6663 39.5836 65.6663 39.1674 65.6663 38.6376C66.6114 38.6376 67.5187 38.6376 68.4637 38.6376C70.0515 38.6376 71.677 38.6376 73.2647 38.6376C74.5122 38.6376 75.3817 37.7672 75.3817 36.6698C75.3817 35.4966 74.5122 34.6641 73.2269 34.6641C71.7148 34.6641 70.2027 34.702 68.6906 34.6263C67.8967 34.5884 67.1028 34.4749 66.3468 34.2479C64.9102 33.7937 64.1542 32.6206 64.0786 31.0691C64.0408 29.6311 64.759 28.458 66.1577 27.8903C66.6492 27.7011 67.2162 27.5876 67.7455 27.4741C68.1613 27.3984 68.615 27.4362 69.0308 27.4362C71.4124 27.4362 73.7562 27.4362 76.2134 27.4362C76.2134 27.9282 76.2134 28.3444 76.2134 28.9499C75.1549 28.9499 74.0208 28.9499 72.9245 28.9499C71.677 28.9499 70.4673 28.9499 69.2198 28.9499C67.5187 28.9499 66.7248 29.5932 66.687 30.9556C66.687 32.28 67.5565 32.999 69.2576 32.999C70.6563 32.999 72.0928 32.9612 73.4916 33.0369C74.3232 33.0747 75.1549 33.2261 75.911 33.5288C77.2341 34.0586 77.8767 35.1561 77.9145 36.5941C77.9523 37.9942 77.3097 38.9781 76.1 39.5458C75.4951 39.8485 74.8147 40.1134 74.172 40.1513C71.3746 40.1513 68.5393 40.1134 65.6663 40.1134Z" fill="black"/>
<path opacity="0.9" fill-rule="evenodd" clip-rule="evenodd" d="M42.7199 27.511C42.7199 27.9651 42.7199 28.3814 42.7199 28.9491C41.5858 28.9491 40.4517 28.9491 39.3554 28.9491C37.9945 28.9491 36.6336 28.9491 35.3105 28.9491C33.9874 28.9869 33.2313 29.7816 33.2313 31.0304C33.2691 32.2413 34.063 32.9982 35.3105 32.9982C36.8982 32.9982 38.4482 32.9603 39.9981 33.036C40.792 33.0739 41.5858 33.2252 42.3419 33.4901C43.7028 34.0199 44.3833 35.0795 44.4211 36.5554C44.4589 37.9934 43.7784 38.9773 42.5687 39.5828C42.0017 39.8477 41.359 40.1504 40.7164 40.1504C37.8811 40.2261 35.0837 40.1882 32.1728 40.1882C32.1728 39.7341 32.1728 39.28 32.1728 38.7124C32.5131 38.7124 32.8533 38.7124 33.1935 38.7124C35.3861 38.7124 37.5787 38.7124 39.7335 38.7124C40.981 38.7124 41.8126 37.842 41.8126 36.7067C41.8126 35.5715 40.981 34.7389 39.7335 34.7011C38.1079 34.6632 36.4824 34.7389 34.8569 34.6633C33.9496 34.5876 33.0045 34.4362 32.2106 34.0199C29.9803 32.8847 29.9047 29.5924 32.0594 28.3057C32.6643 27.9652 33.3825 27.6246 34.0252 27.6246C36.8982 27.4732 39.7713 27.511 42.7199 27.511Z" fill="black"/>
<path opacity="0.9" fill-rule="evenodd" clip-rule="evenodd" d="M104.829 27.7388C105.51 27.7388 106.153 27.7388 106.909 27.7388C106.909 29.2146 106.909 30.6526 106.909 32.2042C108.194 32.2042 109.366 32.2042 110.538 32.2042C110.954 32.2042 111.332 32.2042 111.747 32.2042C114.62 32.1285 116.586 34.0963 115.679 37.6535C115.301 39.1672 113.94 40.0754 112.201 40.1511C110.954 40.1889 109.744 40.1889 108.496 40.1511C106.493 40.0754 104.981 38.9023 104.905 37.0101C104.716 33.9449 104.829 30.8418 104.829 27.7388ZM106.909 33.68C106.984 35.0802 107.022 36.329 107.135 37.5778C107.211 38.3725 107.778 38.7887 108.61 38.7509C109.706 38.7131 110.802 38.7509 111.936 38.7131C112.995 38.7131 113.486 38.2968 113.6 37.275C113.675 36.4804 113.675 35.6857 113.562 34.891C113.486 34.2477 113.146 33.68 112.39 33.68C110.651 33.6422 108.874 33.68 106.909 33.68Z" fill="black"/>
<path opacity="0.9" fill-rule="evenodd" clip-rule="evenodd" d="M103.243 40.1127C100.559 40.1127 97.9883 40.2641 95.4177 40.0749C93.1117 39.9235 92.0154 38.2584 92.1666 35.7609C92.28 33.6038 93.6409 32.2794 95.8335 32.2037C97.0432 32.1658 98.2907 32.1658 99.5004 32.2037C101.806 32.2794 103.167 33.7174 103.205 36.0257C103.281 37.3502 103.243 38.6747 103.243 40.1127ZM101.05 38.7126C101.05 37.6151 101.05 36.6691 101.05 35.723C101.05 35.4581 100.975 35.1932 100.937 34.8905C100.786 34.0201 100.256 33.5282 99.3492 33.566C98.5931 33.6038 97.7993 33.6038 97.0432 33.6038C94.586 33.6417 94.208 34.0958 94.3592 36.5555C94.397 36.934 94.3592 37.4259 94.586 37.7287C94.8506 38.1071 95.3042 38.599 95.7201 38.6369C97.4212 38.7504 99.198 38.7126 101.05 38.7126Z" fill="black"/>
<path opacity="0.9" fill-rule="evenodd" clip-rule="evenodd" d="M80.4087 27.4736C81.5428 27.4736 82.4501 27.4736 83.4329 27.4736C83.4329 29.5171 83.3951 31.5228 83.4329 33.4906C83.4707 34.5123 83.4707 35.5341 83.6976 36.518C84.0378 38.1073 84.7182 38.675 86.3438 38.5993C87.9693 38.5236 89.5949 38.5993 91.296 38.5993C91.296 39.1291 91.296 39.621 91.296 40.113C89.179 40.113 87.062 40.2644 85.0207 40.0752C82.7903 39.8859 81.0892 38.3344 80.8245 36.026C80.4465 33.2257 80.5221 30.3875 80.4087 27.4736Z" fill="black"/>
<path opacity="0.9" fill-rule="evenodd" clip-rule="evenodd" d="M124.715 32.2797C124.715 32.6582 124.715 32.9987 124.715 33.4907C123.127 33.4907 121.539 33.4528 119.989 33.5285C119.611 33.5285 119.082 33.8313 118.931 34.1719C118.78 34.4367 119.006 35.0044 119.233 35.3071C119.384 35.5342 119.838 35.6099 120.141 35.6099C121.123 35.6477 122.106 35.6099 123.089 35.6477C124.942 35.7234 126 36.5559 126 37.9182C125.962 39.167 124.753 40.1131 123.051 40.1131C121.464 40.1509 119.876 40.1131 118.213 40.1131C118.213 39.6968 118.213 39.3184 118.213 38.8643C118.855 38.8643 119.498 38.8643 120.141 38.8643C121.086 38.8643 122.031 38.8643 123.014 38.8643C123.656 38.8643 124.223 38.6751 124.223 37.9182C124.223 37.1614 123.732 36.8208 123.014 36.8208C122.069 36.8208 121.123 36.8587 120.141 36.783C119.611 36.7451 119.044 36.6694 118.515 36.4802C117.532 36.1018 116.927 35.1179 117.041 34.1719C117.116 33.2258 117.872 32.3176 119.006 32.2797C120.859 32.204 122.787 32.2797 124.715 32.2797Z" fill="black"/>
</svg>
