<svg width="31" height="24" viewBox="0 0 31 24" fill="none" xmlns="http://www.w3.org/2000/svg">
<path d="M9.8868 24C21.0327 24 27.1291 14.7657 27.1291 6.75773C27.1291 6.49545 27.1291 6.23434 27.1114 5.97442C28.2973 5.11658 29.3211 4.0544 30.1347 2.83764C29.0287 3.32771 27.8555 3.6491 26.6541 3.79108C27.9192 3.03374 28.866 1.84258 29.3183 0.439268C28.1288 1.14514 26.8274 1.6426 25.4703 1.91019C24.5566 0.938654 23.3482 0.295328 22.0321 0.0797644C20.716 -0.135799 19.3655 0.0884165 18.1896 0.717716C17.0137 1.34702 16.078 2.34631 15.5273 3.56097C14.9766 4.77563 14.8416 6.13794 15.1431 7.43707C12.7338 7.31629 10.3769 6.69019 8.22524 5.59941C6.07361 4.50864 4.17542 2.97757 2.65389 1.10561C1.87896 2.43968 1.64161 4.01894 1.99018 5.52185C2.33874 7.02476 3.24701 8.33832 4.53005 9.19509C3.56567 9.16651 2.62232 8.90636 1.77961 8.43659C1.77961 8.4614 1.77961 8.48739 1.77961 8.51338C1.77999 9.91249 2.26432 11.2684 3.15044 12.3511C4.03656 13.4339 5.26992 14.1767 6.64133 14.4538C5.74917 14.6971 4.81311 14.7327 3.90506 14.5577C4.29229 15.7619 5.04619 16.8148 6.06131 17.5694C7.07643 18.324 8.30201 18.7424 9.56663 18.7661C7.42078 20.4526 4.76996 21.3681 2.04071 21.3653C1.55856 21.3644 1.07688 21.3352 0.598145 21.2779C3.36943 23.0563 6.59397 23.9997 9.8868 23.9953" fill="#191919"/>
</svg>
