<svg width="166" height="19" viewBox="0 0 166 19" fill="none" xmlns="http://www.w3.org/2000/svg">
<path d="M7.928 18.216C5.48 18.216 3.616 17.592 2.336 16.344C1.072 15.096 0.44 13.272 0.44 10.872V1.08H4.76V11.04C4.76 12.256 5.032 13.192 5.576 13.848C6.12 14.504 6.904 14.832 7.928 14.832C8.952 14.832 9.736 14.504 10.28 13.848C10.824 13.192 11.096 12.256 11.096 11.04V1.08H15.44V10.872C15.44 13.256 14.792 15.08 13.496 16.344C12.216 17.592 10.36 18.216 7.928 18.216ZM24.5388 18.216C23.2748 18.216 22.0268 18.048 20.7948 17.712C19.5628 17.376 18.5628 16.928 17.7948 16.368L19.1628 13.248C19.9788 13.76 20.8508 14.152 21.7788 14.424C22.7068 14.696 23.6428 14.832 24.5868 14.832C25.5468 14.832 26.2748 14.704 26.7708 14.448C27.2828 14.176 27.5388 13.8 27.5388 13.32C27.5388 12.888 27.3068 12.536 26.8428 12.264C26.3948 11.992 25.5308 11.72 24.2508 11.448C22.6668 11.112 21.4268 10.712 20.5308 10.248C19.6348 9.784 19.0028 9.24 18.6348 8.616C18.2828 7.992 18.1068 7.224 18.1068 6.312C18.1068 5.272 18.3948 4.344 18.9708 3.528C19.5628 2.696 20.3868 2.048 21.4428 1.584C22.5148 1.104 23.7388 0.863999 25.1148 0.863999C26.3308 0.863999 27.5068 1.04 28.6428 1.392C29.7948 1.728 30.6908 2.168 31.3308 2.712L29.9868 5.832C28.4508 4.776 26.8348 4.248 25.1388 4.248C24.3228 4.248 23.6668 4.408 23.1708 4.728C22.6748 5.032 22.4268 5.44 22.4268 5.952C22.4268 6.256 22.5148 6.504 22.6908 6.696C22.8668 6.888 23.1948 7.08 23.6748 7.272C24.1548 7.448 24.8668 7.632 25.8108 7.824C27.3468 8.16 28.5548 8.568 29.4348 9.048C30.3148 9.512 30.9388 10.056 31.3068 10.68C31.6748 11.304 31.8588 12.048 31.8588 12.912C31.8588 14.576 31.2188 15.88 29.9388 16.824C28.6588 17.752 26.8588 18.216 24.5388 18.216ZM34.3563 1.08H46.3803V4.488H38.6523V7.704H45.9003V11.088H38.6523V14.592H46.3803V18H34.3563V1.08ZM63.8926 18H59.0446L56.1166 12.6C55.7486 11.976 55.1646 11.664 54.3646 11.664H53.0206V18H48.6766V1.08H56.7406C58.7886 1.08 60.3246 1.528 61.3486 2.424C62.3886 3.304 62.9086 4.584 62.9086 6.264C62.9086 7.544 62.5566 8.632 61.8526 9.528C61.1486 10.408 60.1566 11 58.8766 11.304C59.8526 11.512 60.6286 12.144 61.2046 13.2L63.8926 18ZM56.0446 8.352C57.0206 8.352 57.7166 8.2 58.1326 7.896C58.5646 7.592 58.7806 7.096 58.7806 6.408C58.7806 5.704 58.5646 5.2 58.1326 4.896C57.7166 4.576 57.0206 4.416 56.0446 4.416H52.9726V8.352H56.0446ZM71.6248 18.216C70.3608 18.216 69.1128 18.048 67.8808 17.712C66.6488 17.376 65.6488 16.928 64.8808 16.368L66.2488 13.248C67.0648 13.76 67.9368 14.152 68.8648 14.424C69.7928 14.696 70.7288 14.832 71.6728 14.832C72.6328 14.832 73.3608 14.704 73.8568 14.448C74.3688 14.176 74.6248 13.8 74.6248 13.32C74.6248 12.888 74.3928 12.536 73.9288 12.264C73.4808 11.992 72.6168 11.72 71.3368 11.448C69.7528 11.112 68.5128 10.712 67.6168 10.248C66.7208 9.784 66.0888 9.24 65.7208 8.616C65.3688 7.992 65.1928 7.224 65.1928 6.312C65.1928 5.272 65.4808 4.344 66.0568 3.528C66.6488 2.696 67.4728 2.048 68.5288 1.584C69.6008 1.104 70.8248 0.863999 72.2008 0.863999C73.4168 0.863999 74.5928 1.04 75.7288 1.392C76.8808 1.728 77.7768 2.168 78.4168 2.712L77.0728 5.832C75.5368 4.776 73.9208 4.248 72.2248 4.248C71.4088 4.248 70.7528 4.408 70.2568 4.728C69.7608 5.032 69.5128 5.44 69.5128 5.952C69.5128 6.256 69.6008 6.504 69.7768 6.696C69.9528 6.888 70.2808 7.08 70.7608 7.272C71.2408 7.448 71.9528 7.632 72.8968 7.824C74.4328 8.16 75.6408 8.568 76.5208 9.048C77.4008 9.512 78.0248 10.056 78.3928 10.68C78.7608 11.304 78.9448 12.048 78.9448 12.912C78.9448 14.576 78.3048 15.88 77.0248 16.824C75.7448 17.752 73.9448 18.216 71.6248 18.216Z" fill="#FF6700"/>
<path d="M88.3094 1.08H96.4934C98.3654 1.08 99.8214 1.56 100.861 2.52C101.901 3.464 102.421 4.784 102.421 6.48C102.421 8.16 101.893 9.48 100.837 10.44C99.7974 11.4 98.3494 11.88 96.4934 11.88H92.7254V18H88.3094V1.08ZM95.8934 8.568C96.7094 8.568 97.3094 8.4 97.6934 8.064C98.0934 7.728 98.2934 7.208 98.2934 6.504C98.2934 5.8 98.0934 5.28 97.6934 4.944C97.3094 4.592 96.7094 4.416 95.8934 4.416H92.7254V8.568H95.8934ZM114.123 14.496H106.635L105.123 18H100.683L108.579 1.08H112.083L120.003 18H115.635L114.123 14.496ZM112.707 11.184L110.379 5.76L108.051 11.184H112.707ZM136.101 1.08V18H132.837L125.109 8.328V18H121.005V1.08H124.221L131.973 10.752V1.08H136.101ZM139.169 1.08H151.193V4.488H143.465V7.704H150.713V11.088H143.465V14.592H151.193V18H139.169V1.08ZM153.489 1.08H157.905V14.424H165.105V18H153.489V1.08Z" fill="#191919"/>
</svg>
