<svg width="20" height="18" viewBox="0 0 20 18" fill="none" xmlns="http://www.w3.org/2000/svg">
<path d="M8.16659 0.666626C7.19412 0.666626 6.26149 1.05293 5.57386 1.74057C4.88623 2.4282 4.49992 3.36083 4.49992 4.33329C4.49992 5.30575 4.88623 6.23838 5.57386 6.92602C6.26149 7.61365 7.19412 7.99996 8.16659 7.99996C9.13905 7.99996 10.0717 7.61365 10.7593 6.92602C11.4469 6.23838 11.8333 5.30575 11.8333 4.33329C11.8333 3.36083 11.4469 2.4282 10.7593 1.74057C10.0717 1.05293 9.13905 0.666626 8.16659 0.666626ZM15.0416 8.91663C12.7499 8.91663 10.9166 10.75 10.9166 13.0416C10.9166 15.3333 12.7499 17.1666 15.0416 17.1666C17.3333 17.1666 19.1666 15.3333 19.1666 13.0416C19.1666 10.75 17.3333 8.91663 15.0416 8.91663ZM8.16659 9.83329C4.11492 9.83329 0.833252 11.4741 0.833252 13.5V15.3333H9.54159C9.23903 14.6072 9.08325 13.8283 9.08325 13.0416C9.08718 11.9548 9.38832 10.8897 9.95409 9.96163C9.37659 9.88829 8.78992 9.83329 8.16659 9.83329ZM15.0416 10.2916C16.5633 10.2916 17.7916 11.52 17.7916 13.0416C17.7916 13.555 17.6541 14.0316 17.4066 14.4166L13.6666 10.6766C14.0516 10.4291 14.5283 10.2916 15.0416 10.2916ZM12.6766 11.6666L16.4166 15.4066C16.0316 15.6541 15.5549 15.7916 15.0416 15.7916C13.5199 15.7916 12.2916 14.5633 12.2916 13.0416C12.2916 12.5283 12.4291 12.0516 12.6766 11.6666Z" fill="#393939"/>
</svg>
