<svg width="16" height="18" viewBox="0 0 16 18" fill="none" xmlns="http://www.w3.org/2000/svg">
<path d="M15 4.5925H13.19C12.74 3.8125 12.12 3.1425 11.37 2.6325L12.3 1.7025C12.69 1.3125 12.69 0.6825 12.3 0.2925C11.91 -0.0975 11.28 -0.0975 10.89 0.2925L9.42 1.7625C8.96 1.6525 8.49 1.5925 8 1.5925C7.51 1.5925 7.04 1.6525 6.59 1.7625L5.11 0.2925C4.72 -0.0975 4.09 -0.0975 3.7 0.2925C3.31 0.6825 3.31 1.3125 3.7 1.7025L4.62 2.6325C3.88 3.1425 3.26 3.8125 2.81 4.5925H1C0.45 4.5925 0 5.0425 0 5.5925C0 6.1425 0.45 6.5925 1 6.5925H2.09C2.04 6.9225 2 7.2525 2 7.5925V8.5925H1C0.45 8.5925 0 9.0425 0 9.5925C0 10.1425 0.45 10.5925 1 10.5925H2V11.5925C2 11.9325 2.04 12.2625 2.09 12.5925H1C0.45 12.5925 0 13.0425 0 13.5925C0 14.1425 0.45 14.5925 1 14.5925H2.81C3.85 16.3825 5.78 17.5925 8 17.5925C10.22 17.5925 12.15 16.3825 13.19 14.5925H15C15.55 14.5925 16 14.1425 16 13.5925C16 13.0425 15.55 12.5925 15 12.5925H13.91C13.96 12.2625 14 11.9325 14 11.5925V10.5925H15C15.55 10.5925 16 10.1425 16 9.5925C16 9.0425 15.55 8.5925 15 8.5925H14V7.5925C14 7.2525 13.96 6.9225 13.91 6.5925H15C15.55 6.5925 16 6.1425 16 5.5925C16 5.0425 15.55 4.5925 15 4.5925ZM9 12.5925H7C6.45 12.5925 6 12.1425 6 11.5925C6 11.0425 6.45 10.5925 7 10.5925H9C9.55 10.5925 10 11.0425 10 11.5925C10 12.1425 9.55 12.5925 9 12.5925ZM9 8.5925H7C6.45 8.5925 6 8.1425 6 7.5925C6 7.0425 6.45 6.5925 7 6.5925H9C9.55 6.5925 10 7.0425 10 7.5925C10 8.1425 9.55 8.5925 9 8.5925Z" fill="#575757"/>
</svg>
