<svg width="237" height="32" viewBox="0 0 237 32" fill="none" xmlns="http://www.w3.org/2000/svg">
<rect width="237" height="32" rx="3" fill="black" fill-opacity="0.9"/>
<path d="M66.1738 21H65.1777V12.4336H69.9531V13.3184H66.1738V16.4531H69.7246V17.3379H66.1738V21ZM75.1797 21L74.9863 20.0859H74.9395C74.6191 20.4883 74.2988 20.7617 73.9785 20.9062C73.6621 21.0469 73.2656 21.1172 72.7891 21.1172C72.1523 21.1172 71.6523 20.9531 71.2891 20.625C70.9297 20.2969 70.75 19.8301 70.75 19.2246C70.75 17.9277 71.7871 17.248 73.8613 17.1855L74.9512 17.1504V16.752C74.9512 16.248 74.8418 15.877 74.623 15.6387C74.4082 15.3965 74.0625 15.2754 73.5859 15.2754C73.0508 15.2754 72.4453 15.4395 71.7695 15.7676L71.4707 15.0234C71.7871 14.8516 72.1328 14.7168 72.5078 14.6191C72.8867 14.5215 73.2656 14.4727 73.6445 14.4727C74.4102 14.4727 74.9766 14.6426 75.3438 14.9824C75.7148 15.3223 75.9004 15.8672 75.9004 16.6172V21H75.1797ZM72.9824 20.3145C73.5879 20.3145 74.0625 20.1484 74.4062 19.8164C74.7539 19.4844 74.9277 19.0195 74.9277 18.4219V17.8418L73.9551 17.8828C73.1816 17.9102 72.623 18.0312 72.2793 18.2461C71.9395 18.457 71.7695 18.7871 71.7695 19.2363C71.7695 19.5879 71.875 19.8555 72.0859 20.0391C72.3008 20.2227 72.5996 20.3145 72.9824 20.3145ZM78.8828 21H77.9102V14.5781H78.8828V21ZM77.8281 12.8379C77.8281 12.6152 77.8828 12.4531 77.9922 12.3516C78.1016 12.2461 78.2383 12.1934 78.4023 12.1934C78.5586 12.1934 78.6934 12.2461 78.8066 12.3516C78.9199 12.457 78.9766 12.6191 78.9766 12.8379C78.9766 13.0566 78.9199 13.2207 78.8066 13.3301C78.6934 13.4355 78.5586 13.4883 78.4023 13.4883C78.2383 13.4883 78.1016 13.4355 77.9922 13.3301C77.8828 13.2207 77.8281 13.0566 77.8281 12.8379ZM81.918 21H80.9453V11.8828H81.918V21ZM86.6934 21.1172C85.7441 21.1172 84.9941 20.8281 84.4434 20.25C83.8965 19.6719 83.623 18.8691 83.623 17.8418C83.623 16.8066 83.877 15.9844 84.3848 15.375C84.8965 14.7656 85.582 14.4609 86.4414 14.4609C87.2461 14.4609 87.8828 14.7266 88.3516 15.2578C88.8203 15.7852 89.0547 16.4824 89.0547 17.3496V17.9648H84.6309C84.6504 18.7188 84.8398 19.291 85.1992 19.6816C85.5625 20.0723 86.0723 20.2676 86.7285 20.2676C87.4199 20.2676 88.1035 20.123 88.7793 19.834V20.7012C88.4355 20.8496 88.1094 20.9551 87.8008 21.0176C87.4961 21.084 87.127 21.1172 86.6934 21.1172ZM86.4297 15.2754C85.9141 15.2754 85.502 15.4434 85.1934 15.7793C84.8887 16.1152 84.709 16.5801 84.6543 17.1738H88.0117C88.0117 16.5605 87.875 16.0918 87.6016 15.7676C87.3281 15.4395 86.9375 15.2754 86.4297 15.2754ZM95.0898 20.1387H95.0371C94.5879 20.791 93.916 21.1172 93.0215 21.1172C92.1816 21.1172 91.5273 20.8301 91.0586 20.2559C90.5938 19.6816 90.3613 18.8652 90.3613 17.8066C90.3613 16.748 90.5957 15.9258 91.0645 15.3398C91.5332 14.7539 92.1855 14.4609 93.0215 14.4609C93.8926 14.4609 94.5605 14.7773 95.0254 15.4102H95.1016L95.0605 14.9473L95.0371 14.4961V11.8828H96.0098V21H95.2188L95.0898 20.1387ZM93.1445 20.3027C93.8086 20.3027 94.2891 20.123 94.5859 19.7637C94.8867 19.4004 95.0371 18.8164 95.0371 18.0117V17.8066C95.0371 16.8965 94.8848 16.248 94.5801 15.8613C94.2793 15.4707 93.7969 15.2754 93.1328 15.2754C92.5625 15.2754 92.125 15.498 91.8203 15.9434C91.5195 16.3848 91.3691 17.0098 91.3691 17.8184C91.3691 18.6387 91.5195 19.2578 91.8203 19.6758C92.1211 20.0938 92.5625 20.3027 93.1445 20.3027ZM103.27 20.3145C103.441 20.3145 103.607 20.3027 103.768 20.2793C103.928 20.252 104.055 20.2246 104.148 20.1973V20.9414C104.043 20.9922 103.887 21.0332 103.68 21.0645C103.477 21.0996 103.293 21.1172 103.129 21.1172C101.887 21.1172 101.266 20.4629 101.266 19.1543V15.334H100.346V14.8652L101.266 14.4609L101.676 13.0898H102.238V14.5781H104.102V15.334H102.238V19.1133C102.238 19.5 102.33 19.7969 102.514 20.0039C102.697 20.2109 102.949 20.3145 103.27 20.3145ZM110.98 17.7832C110.98 18.8301 110.717 19.6484 110.189 20.2383C109.662 20.8242 108.934 21.1172 108.004 21.1172C107.43 21.1172 106.92 20.9824 106.475 20.7129C106.029 20.4434 105.686 20.0566 105.443 19.5527C105.201 19.0488 105.08 18.459 105.08 17.7832C105.08 16.7363 105.342 15.9219 105.865 15.3398C106.389 14.7539 107.115 14.4609 108.045 14.4609C108.943 14.4609 109.656 14.7598 110.184 15.3574C110.715 15.9551 110.98 16.7637 110.98 17.7832ZM106.088 17.7832C106.088 18.6035 106.252 19.2285 106.58 19.6582C106.908 20.0879 107.391 20.3027 108.027 20.3027C108.664 20.3027 109.146 20.0898 109.475 19.6641C109.807 19.2344 109.973 18.6074 109.973 17.7832C109.973 16.9668 109.807 16.3477 109.475 15.9258C109.146 15.5 108.66 15.2871 108.016 15.2871C107.379 15.2871 106.898 15.4961 106.574 15.9141C106.25 16.332 106.088 16.9551 106.088 17.7832ZM123.994 21V16.8223C123.994 16.3105 123.885 15.9277 123.666 15.6738C123.447 15.416 123.107 15.2871 122.646 15.2871C122.041 15.2871 121.594 15.4609 121.305 15.8086C121.016 16.1562 120.871 16.6914 120.871 17.4141V21H119.898V16.8223C119.898 16.3105 119.789 15.9277 119.57 15.6738C119.352 15.416 119.01 15.2871 118.545 15.2871C117.936 15.2871 117.488 15.4707 117.203 15.8379C116.922 16.2012 116.781 16.7988 116.781 17.6309V21H115.809V14.5781H116.6L116.758 15.457H116.805C116.988 15.1445 117.246 14.9004 117.578 14.7246C117.914 14.5488 118.289 14.4609 118.703 14.4609C119.707 14.4609 120.363 14.8242 120.672 15.5508H120.719C120.91 15.2148 121.188 14.9492 121.551 14.7539C121.914 14.5586 122.328 14.4609 122.793 14.4609C123.52 14.4609 124.062 14.6484 124.422 15.0234C124.785 15.3945 124.967 15.9902 124.967 16.8105V21H123.994ZM130.926 21L130.732 20.0859H130.686C130.365 20.4883 130.045 20.7617 129.725 20.9062C129.408 21.0469 129.012 21.1172 128.535 21.1172C127.898 21.1172 127.398 20.9531 127.035 20.625C126.676 20.2969 126.496 19.8301 126.496 19.2246C126.496 17.9277 127.533 17.248 129.607 17.1855L130.697 17.1504V16.752C130.697 16.248 130.588 15.877 130.369 15.6387C130.154 15.3965 129.809 15.2754 129.332 15.2754C128.797 15.2754 128.191 15.4395 127.516 15.7676L127.217 15.0234C127.533 14.8516 127.879 14.7168 128.254 14.6191C128.633 14.5215 129.012 14.4727 129.391 14.4727C130.156 14.4727 130.723 14.6426 131.09 14.9824C131.461 15.3223 131.646 15.8672 131.646 16.6172V21H130.926ZM128.729 20.3145C129.334 20.3145 129.809 20.1484 130.152 19.8164C130.5 19.4844 130.674 19.0195 130.674 18.4219V17.8418L129.701 17.8828C128.928 17.9102 128.369 18.0312 128.025 18.2461C127.686 18.457 127.516 18.7871 127.516 19.2363C127.516 19.5879 127.621 19.8555 127.832 20.0391C128.047 20.2227 128.346 20.3145 128.729 20.3145ZM134.617 17.7129C134.785 17.4746 135.041 17.1621 135.385 16.7754L137.459 14.5781H138.613L136.012 17.3145L138.795 21H137.617L135.35 17.9648L134.617 18.5977V21H133.656V11.8828H134.617V16.7168C134.617 16.9316 134.602 17.2637 134.57 17.7129H134.617ZM142.674 21.1172C141.725 21.1172 140.975 20.8281 140.424 20.25C139.877 19.6719 139.604 18.8691 139.604 17.8418C139.604 16.8066 139.857 15.9844 140.365 15.375C140.877 14.7656 141.562 14.4609 142.422 14.4609C143.227 14.4609 143.863 14.7266 144.332 15.2578C144.801 15.7852 145.035 16.4824 145.035 17.3496V17.9648H140.611C140.631 18.7188 140.82 19.291 141.18 19.6816C141.543 20.0723 142.053 20.2676 142.709 20.2676C143.4 20.2676 144.084 20.123 144.76 19.834V20.7012C144.416 20.8496 144.09 20.9551 143.781 21.0176C143.477 21.084 143.107 21.1172 142.674 21.1172ZM142.41 15.2754C141.895 15.2754 141.482 15.4434 141.174 15.7793C140.869 16.1152 140.689 16.5801 140.635 17.1738H143.992C143.992 16.5605 143.855 16.0918 143.582 15.7676C143.309 15.4395 142.918 15.2754 142.41 15.2754ZM152.383 21.1172C151.453 21.1172 150.732 20.832 150.221 20.2617C149.713 19.6875 149.459 18.877 149.459 17.8301C149.459 16.7559 149.717 15.9258 150.232 15.3398C150.752 14.7539 151.49 14.4609 152.447 14.4609C152.756 14.4609 153.064 14.4941 153.373 14.5605C153.682 14.627 153.924 14.7051 154.1 14.7949L153.801 15.6211C153.586 15.5352 153.352 15.4648 153.098 15.4102C152.844 15.3516 152.619 15.3223 152.424 15.3223C151.119 15.3223 150.467 16.1543 150.467 17.8184C150.467 18.6074 150.625 19.2129 150.941 19.6348C151.262 20.0566 151.734 20.2676 152.359 20.2676C152.895 20.2676 153.443 20.1523 154.006 19.9219V20.7832C153.576 21.0059 153.035 21.1172 152.383 21.1172ZM159.93 21V16.8457C159.93 16.3223 159.811 15.9316 159.572 15.6738C159.334 15.416 158.961 15.2871 158.453 15.2871C157.777 15.2871 157.283 15.4707 156.971 15.8379C156.662 16.2051 156.508 16.8066 156.508 17.6426V21H155.535V11.8828H156.508V14.6426C156.508 14.9746 156.492 15.25 156.461 15.4688H156.52C156.711 15.1602 156.982 14.918 157.334 14.7422C157.689 14.5625 158.094 14.4727 158.547 14.4727C159.332 14.4727 159.92 14.6602 160.311 15.0352C160.705 15.4062 160.902 15.998 160.902 16.8105V21H159.93ZM166.855 21L166.662 20.0859H166.615C166.295 20.4883 165.975 20.7617 165.654 20.9062C165.338 21.0469 164.941 21.1172 164.465 21.1172C163.828 21.1172 163.328 20.9531 162.965 20.625C162.605 20.2969 162.426 19.8301 162.426 19.2246C162.426 17.9277 163.463 17.248 165.537 17.1855L166.627 17.1504V16.752C166.627 16.248 166.518 15.877 166.299 15.6387C166.084 15.3965 165.738 15.2754 165.262 15.2754C164.727 15.2754 164.121 15.4395 163.445 15.7676L163.146 15.0234C163.463 14.8516 163.809 14.7168 164.184 14.6191C164.562 14.5215 164.941 14.4727 165.32 14.4727C166.086 14.4727 166.652 14.6426 167.02 14.9824C167.391 15.3223 167.576 15.8672 167.576 16.6172V21H166.855ZM164.658 20.3145C165.264 20.3145 165.738 20.1484 166.082 19.8164C166.43 19.4844 166.604 19.0195 166.604 18.4219V17.8418L165.631 17.8828C164.857 17.9102 164.299 18.0312 163.955 18.2461C163.615 18.457 163.445 18.7871 163.445 19.2363C163.445 19.5879 163.551 19.8555 163.762 20.0391C163.977 20.2227 164.275 20.3145 164.658 20.3145ZM173.98 21V16.8457C173.98 16.3223 173.861 15.9316 173.623 15.6738C173.385 15.416 173.012 15.2871 172.504 15.2871C171.832 15.2871 171.34 15.4688 171.027 15.832C170.715 16.1953 170.559 16.7949 170.559 17.6309V21H169.586V14.5781H170.377L170.535 15.457H170.582C170.781 15.1406 171.061 14.8965 171.42 14.7246C171.779 14.5488 172.18 14.4609 172.621 14.4609C173.395 14.4609 173.977 14.6484 174.367 15.0234C174.758 15.3945 174.953 15.9902 174.953 16.8105V21H173.98ZM182.213 14.5781V15.1934L181.023 15.334C181.133 15.4707 181.23 15.6504 181.316 15.873C181.402 16.0918 181.445 16.3398 181.445 16.6172C181.445 17.2461 181.23 17.748 180.801 18.123C180.371 18.498 179.781 18.6855 179.031 18.6855C178.84 18.6855 178.66 18.6699 178.492 18.6387C178.078 18.8574 177.871 19.1328 177.871 19.4648C177.871 19.6406 177.943 19.7715 178.088 19.8574C178.232 19.9395 178.48 19.9805 178.832 19.9805H179.969C180.664 19.9805 181.197 20.127 181.568 20.4199C181.943 20.7129 182.131 21.1387 182.131 21.6973C182.131 22.4082 181.846 22.9492 181.275 23.3203C180.705 23.6953 179.873 23.8828 178.779 23.8828C177.939 23.8828 177.291 23.7266 176.834 23.4141C176.381 23.1016 176.154 22.6602 176.154 22.0898C176.154 21.6992 176.279 21.3613 176.529 21.0762C176.779 20.791 177.131 20.5977 177.584 20.4961C177.42 20.4219 177.281 20.3066 177.168 20.1504C177.059 19.9941 177.004 19.8125 177.004 19.6055C177.004 19.3711 177.066 19.166 177.191 18.9902C177.316 18.8145 177.514 18.6445 177.783 18.4805C177.451 18.3438 177.18 18.1113 176.969 17.7832C176.762 17.4551 176.658 17.0801 176.658 16.6582C176.658 15.9551 176.869 15.4141 177.291 15.0352C177.713 14.6523 178.311 14.4609 179.084 14.4609C179.42 14.4609 179.723 14.5 179.992 14.5781H182.213ZM177.092 22.0781C177.092 22.4258 177.238 22.6895 177.531 22.8691C177.824 23.0488 178.244 23.1387 178.791 23.1387C179.607 23.1387 180.211 23.0156 180.602 22.7695C180.996 22.5273 181.193 22.1973 181.193 21.7793C181.193 21.4316 181.086 21.1895 180.871 21.0527C180.656 20.9199 180.252 20.8535 179.658 20.8535H178.492C178.051 20.8535 177.707 20.959 177.461 21.1699C177.215 21.3809 177.092 21.6836 177.092 22.0781ZM177.619 16.6348C177.619 17.084 177.746 17.4238 178 17.6543C178.254 17.8848 178.607 18 179.061 18C180.01 18 180.484 17.5391 180.484 16.6172C180.484 15.6523 180.004 15.1699 179.043 15.1699C178.586 15.1699 178.234 15.293 177.988 15.5391C177.742 15.7852 177.619 16.1504 177.619 16.6348ZM186.244 21.1172C185.295 21.1172 184.545 20.8281 183.994 20.25C183.447 19.6719 183.174 18.8691 183.174 17.8418C183.174 16.8066 183.428 15.9844 183.936 15.375C184.447 14.7656 185.133 14.4609 185.992 14.4609C186.797 14.4609 187.434 14.7266 187.902 15.2578C188.371 15.7852 188.605 16.4824 188.605 17.3496V17.9648H184.182C184.201 18.7188 184.391 19.291 184.75 19.6816C185.113 20.0723 185.623 20.2676 186.279 20.2676C186.971 20.2676 187.654 20.123 188.33 19.834V20.7012C187.986 20.8496 187.66 20.9551 187.352 21.0176C187.047 21.084 186.678 21.1172 186.244 21.1172ZM185.98 15.2754C185.465 15.2754 185.053 15.4434 184.744 15.7793C184.439 16.1152 184.26 16.5801 184.205 17.1738H187.562C187.562 16.5605 187.426 16.0918 187.152 15.7676C186.879 15.4395 186.488 15.2754 185.98 15.2754ZM194.412 19.248C194.412 19.8457 194.189 20.3066 193.744 20.6309C193.299 20.9551 192.674 21.1172 191.869 21.1172C191.018 21.1172 190.354 20.9824 189.877 20.7129V19.8105C190.186 19.9668 190.516 20.0898 190.867 20.1797C191.223 20.2695 191.564 20.3145 191.893 20.3145C192.4 20.3145 192.791 20.2344 193.064 20.0742C193.338 19.9102 193.475 19.6621 193.475 19.3301C193.475 19.0801 193.365 18.8672 193.146 18.6914C192.932 18.5117 192.51 18.3008 191.881 18.0586C191.283 17.8359 190.857 17.6426 190.604 17.4785C190.354 17.3105 190.166 17.1211 190.041 16.9102C189.92 16.6992 189.859 16.4473 189.859 16.1543C189.859 15.6309 190.072 15.2188 190.498 14.918C190.924 14.6133 191.508 14.4609 192.25 14.4609C192.941 14.4609 193.617 14.6016 194.277 14.8828L193.932 15.6738C193.287 15.4082 192.703 15.2754 192.18 15.2754C191.719 15.2754 191.371 15.3477 191.137 15.4922C190.902 15.6367 190.785 15.8359 190.785 16.0898C190.785 16.2617 190.828 16.4082 190.914 16.5293C191.004 16.6504 191.146 16.7656 191.342 16.875C191.537 16.9844 191.912 17.1426 192.467 17.3496C193.229 17.627 193.742 17.9062 194.008 18.1875C194.277 18.4688 194.412 18.8223 194.412 19.248Z" fill="white"/>
<path d="M49 12.5C49.385 12.5 49.7 12.815 49.7 13.2V16C49.7 16.385 49.385 16.7 49 16.7C48.615 16.7 48.3 16.385 48.3 16V13.2C48.3 12.815 48.615 12.5 49 12.5ZM48.993 9C45.129 9 42 12.136 42 16C42 19.864 45.129 23 48.993 23C52.864 23 56 19.864 56 16C56 12.136 52.864 9 48.993 9ZM49 21.6C45.906 21.6 43.4 19.094 43.4 16C43.4 12.906 45.906 10.4 49 10.4C52.094 10.4 54.6 12.906 54.6 16C54.6 19.094 52.094 21.6 49 21.6ZM49.7 19.5H48.3V18.1H49.7V19.5Z" fill="white"/>
</svg>
