<svg width="237" height="32" viewBox="0 0 237 32" fill="none" xmlns="http://www.w3.org/2000/svg">
<rect width="237" height="32" rx="3" fill="black" fill-opacity="0.9"/>
<path d="M57.8486 13.2012C56.9072 13.2012 56.1631 13.5156 55.6162 14.1445C55.0732 14.7695 54.8018 15.627 54.8018 16.7168C54.8018 17.8379 55.0635 18.7051 55.5869 19.3184C56.1143 19.9277 56.8643 20.2324 57.8369 20.2324C58.4346 20.2324 59.1162 20.125 59.8818 19.9102V20.7832C59.2881 21.0059 58.5557 21.1172 57.6846 21.1172C56.4229 21.1172 55.4482 20.7344 54.7607 19.9688C54.0771 19.2031 53.7354 18.1152 53.7354 16.7051C53.7354 15.8223 53.8994 15.0488 54.2275 14.3848C54.5596 13.7207 55.0361 13.209 55.6572 12.8496C56.2822 12.4902 57.0166 12.3105 57.8604 12.3105C58.7588 12.3105 59.5439 12.4746 60.2158 12.8027L59.7939 13.6582C59.1455 13.3535 58.4971 13.2012 57.8486 13.2012ZM65.999 21V16.8457C65.999 16.3223 65.8799 15.9316 65.6416 15.6738C65.4033 15.416 65.0303 15.2871 64.5225 15.2871C63.8467 15.2871 63.3525 15.4707 63.04 15.8379C62.7314 16.2051 62.5771 16.8066 62.5771 17.6426V21H61.6045V11.8828H62.5771V14.6426C62.5771 14.9746 62.5615 15.25 62.5303 15.4688H62.5889C62.7803 15.1602 63.0518 14.918 63.4033 14.7422C63.7588 14.5625 64.1631 14.4727 64.6162 14.4727C65.4014 14.4727 65.9893 14.6602 66.3799 15.0352C66.7744 15.4062 66.9717 15.998 66.9717 16.8105V21H65.999ZM72.9248 21L72.7314 20.0859H72.6846C72.3643 20.4883 72.0439 20.7617 71.7236 20.9062C71.4072 21.0469 71.0107 21.1172 70.5342 21.1172C69.8975 21.1172 69.3975 20.9531 69.0342 20.625C68.6748 20.2969 68.4951 19.8301 68.4951 19.2246C68.4951 17.9277 69.5322 17.248 71.6064 17.1855L72.6963 17.1504V16.752C72.6963 16.248 72.5869 15.877 72.3682 15.6387C72.1533 15.3965 71.8076 15.2754 71.3311 15.2754C70.7959 15.2754 70.1904 15.4395 69.5146 15.7676L69.2158 15.0234C69.5322 14.8516 69.8779 14.7168 70.2529 14.6191C70.6318 14.5215 71.0107 14.4727 71.3896 14.4727C72.1553 14.4727 72.7217 14.6426 73.0889 14.9824C73.46 15.3223 73.6455 15.8672 73.6455 16.6172V21H72.9248ZM70.7275 20.3145C71.333 20.3145 71.8076 20.1484 72.1514 19.8164C72.499 19.4844 72.6729 19.0195 72.6729 18.4219V17.8418L71.7002 17.8828C70.9268 17.9102 70.3682 18.0312 70.0244 18.2461C69.6846 18.457 69.5146 18.7871 69.5146 19.2363C69.5146 19.5879 69.6201 19.8555 69.8311 20.0391C70.0459 20.2227 70.3447 20.3145 70.7275 20.3145ZM80.0498 21V16.8457C80.0498 16.3223 79.9307 15.9316 79.6924 15.6738C79.4541 15.416 79.0811 15.2871 78.5732 15.2871C77.9014 15.2871 77.4092 15.4688 77.0967 15.832C76.7842 16.1953 76.6279 16.7949 76.6279 17.6309V21H75.6553V14.5781H76.4463L76.6045 15.457H76.6514C76.8506 15.1406 77.1299 14.8965 77.4893 14.7246C77.8486 14.5488 78.249 14.4609 78.6904 14.4609C79.4639 14.4609 80.0459 14.6484 80.4365 15.0234C80.8271 15.3945 81.0225 15.9902 81.0225 16.8105V21H80.0498ZM88.2822 14.5781V15.1934L87.0928 15.334C87.2021 15.4707 87.2998 15.6504 87.3857 15.873C87.4717 16.0918 87.5146 16.3398 87.5146 16.6172C87.5146 17.2461 87.2998 17.748 86.8701 18.123C86.4404 18.498 85.8506 18.6855 85.1006 18.6855C84.9092 18.6855 84.7295 18.6699 84.5615 18.6387C84.1475 18.8574 83.9404 19.1328 83.9404 19.4648C83.9404 19.6406 84.0127 19.7715 84.1572 19.8574C84.3018 19.9395 84.5498 19.9805 84.9014 19.9805H86.0381C86.7334 19.9805 87.2666 20.127 87.6377 20.4199C88.0127 20.7129 88.2002 21.1387 88.2002 21.6973C88.2002 22.4082 87.915 22.9492 87.3447 23.3203C86.7744 23.6953 85.9424 23.8828 84.8486 23.8828C84.0088 23.8828 83.3604 23.7266 82.9033 23.4141C82.4502 23.1016 82.2236 22.6602 82.2236 22.0898C82.2236 21.6992 82.3486 21.3613 82.5986 21.0762C82.8486 20.791 83.2002 20.5977 83.6533 20.4961C83.4893 20.4219 83.3506 20.3066 83.2373 20.1504C83.1279 19.9941 83.0732 19.8125 83.0732 19.6055C83.0732 19.3711 83.1357 19.166 83.2607 18.9902C83.3857 18.8145 83.583 18.6445 83.8525 18.4805C83.5205 18.3438 83.249 18.1113 83.0381 17.7832C82.8311 17.4551 82.7275 17.0801 82.7275 16.6582C82.7275 15.9551 82.9385 15.4141 83.3604 15.0352C83.7822 14.6523 84.3799 14.4609 85.1533 14.4609C85.4893 14.4609 85.792 14.5 86.0615 14.5781H88.2822ZM83.1611 22.0781C83.1611 22.4258 83.3076 22.6895 83.6006 22.8691C83.8936 23.0488 84.3135 23.1387 84.8604 23.1387C85.6768 23.1387 86.2803 23.0156 86.6709 22.7695C87.0654 22.5273 87.2627 22.1973 87.2627 21.7793C87.2627 21.4316 87.1553 21.1895 86.9404 21.0527C86.7256 20.9199 86.3213 20.8535 85.7275 20.8535H84.5615C84.1201 20.8535 83.7764 20.959 83.5303 21.1699C83.2842 21.3809 83.1611 21.6836 83.1611 22.0781ZM83.6885 16.6348C83.6885 17.084 83.8154 17.4238 84.0693 17.6543C84.3232 17.8848 84.6768 18 85.1299 18C86.0791 18 86.5537 17.5391 86.5537 16.6172C86.5537 15.6523 86.0732 15.1699 85.1123 15.1699C84.6553 15.1699 84.3037 15.293 84.0576 15.5391C83.8115 15.7852 83.6885 16.1504 83.6885 16.6348ZM92.3135 21.1172C91.3643 21.1172 90.6143 20.8281 90.0635 20.25C89.5166 19.6719 89.2432 18.8691 89.2432 17.8418C89.2432 16.8066 89.4971 15.9844 90.0049 15.375C90.5166 14.7656 91.2021 14.4609 92.0615 14.4609C92.8662 14.4609 93.5029 14.7266 93.9717 15.2578C94.4404 15.7852 94.6748 16.4824 94.6748 17.3496V17.9648H90.251C90.2705 18.7188 90.46 19.291 90.8193 19.6816C91.1826 20.0723 91.6924 20.2676 92.3486 20.2676C93.04 20.2676 93.7236 20.123 94.3994 19.834V20.7012C94.0557 20.8496 93.7295 20.9551 93.4209 21.0176C93.1162 21.084 92.7471 21.1172 92.3135 21.1172ZM92.0498 15.2754C91.5342 15.2754 91.1221 15.4434 90.8135 15.7793C90.5088 16.1152 90.3291 16.5801 90.2744 17.1738H93.6318C93.6318 16.5605 93.4951 16.0918 93.2217 15.7676C92.9482 15.4395 92.5576 15.2754 92.0498 15.2754ZM100.481 19.248C100.481 19.8457 100.259 20.3066 99.8135 20.6309C99.3682 20.9551 98.7432 21.1172 97.9385 21.1172C97.0869 21.1172 96.4229 20.9824 95.9463 20.7129V19.8105C96.2549 19.9668 96.585 20.0898 96.9365 20.1797C97.292 20.2695 97.6338 20.3145 97.9619 20.3145C98.4697 20.3145 98.8604 20.2344 99.1338 20.0742C99.4072 19.9102 99.5439 19.6621 99.5439 19.3301C99.5439 19.0801 99.4346 18.8672 99.2158 18.6914C99.001 18.5117 98.5791 18.3008 97.9502 18.0586C97.3525 17.8359 96.9268 17.6426 96.6729 17.4785C96.4229 17.3105 96.2354 17.1211 96.1104 16.9102C95.9893 16.6992 95.9287 16.4473 95.9287 16.1543C95.9287 15.6309 96.1416 15.2188 96.5674 14.918C96.9932 14.6133 97.5771 14.4609 98.3193 14.4609C99.0107 14.4609 99.6865 14.6016 100.347 14.8828L100.001 15.6738C99.3564 15.4082 98.7725 15.2754 98.249 15.2754C97.7881 15.2754 97.4404 15.3477 97.2061 15.4922C96.9717 15.6367 96.8545 15.8359 96.8545 16.0898C96.8545 16.2617 96.8975 16.4082 96.9834 16.5293C97.0732 16.6504 97.2158 16.7656 97.4111 16.875C97.6064 16.9844 97.9814 17.1426 98.5361 17.3496C99.2979 17.627 99.8115 17.9062 100.077 18.1875C100.347 18.4688 100.481 18.8223 100.481 19.248ZM113.372 21V16.8223C113.372 16.3105 113.263 15.9277 113.044 15.6738C112.825 15.416 112.485 15.2871 112.024 15.2871C111.419 15.2871 110.972 15.4609 110.683 15.8086C110.394 16.1562 110.249 16.6914 110.249 17.4141V21H109.276V16.8223C109.276 16.3105 109.167 15.9277 108.948 15.6738C108.729 15.416 108.388 15.2871 107.923 15.2871C107.313 15.2871 106.866 15.4707 106.581 15.8379C106.3 16.2012 106.159 16.7988 106.159 17.6309V21H105.187V14.5781H105.978L106.136 15.457H106.183C106.366 15.1445 106.624 14.9004 106.956 14.7246C107.292 14.5488 107.667 14.4609 108.081 14.4609C109.085 14.4609 109.741 14.8242 110.05 15.5508H110.097C110.288 15.2148 110.565 14.9492 110.929 14.7539C111.292 14.5586 111.706 14.4609 112.171 14.4609C112.897 14.4609 113.44 14.6484 113.8 15.0234C114.163 15.3945 114.345 15.9902 114.345 16.8105V21H113.372ZM120.304 21L120.11 20.0859H120.063C119.743 20.4883 119.423 20.7617 119.103 20.9062C118.786 21.0469 118.39 21.1172 117.913 21.1172C117.276 21.1172 116.776 20.9531 116.413 20.625C116.054 20.2969 115.874 19.8301 115.874 19.2246C115.874 17.9277 116.911 17.248 118.985 17.1855L120.075 17.1504V16.752C120.075 16.248 119.966 15.877 119.747 15.6387C119.532 15.3965 119.187 15.2754 118.71 15.2754C118.175 15.2754 117.569 15.4395 116.894 15.7676L116.595 15.0234C116.911 14.8516 117.257 14.7168 117.632 14.6191C118.011 14.5215 118.39 14.4727 118.769 14.4727C119.534 14.4727 120.101 14.6426 120.468 14.9824C120.839 15.3223 121.024 15.8672 121.024 16.6172V21H120.304ZM118.106 20.3145C118.712 20.3145 119.187 20.1484 119.53 19.8164C119.878 19.4844 120.052 19.0195 120.052 18.4219V17.8418L119.079 17.8828C118.306 17.9102 117.747 18.0312 117.403 18.2461C117.063 18.457 116.894 18.7871 116.894 19.2363C116.894 19.5879 116.999 19.8555 117.21 20.0391C117.425 20.2227 117.724 20.3145 118.106 20.3145ZM127.405 20.1387H127.353C126.903 20.791 126.231 21.1172 125.337 21.1172C124.497 21.1172 123.843 20.8301 123.374 20.2559C122.909 19.6816 122.677 18.8652 122.677 17.8066C122.677 16.748 122.911 15.9258 123.38 15.3398C123.849 14.7539 124.501 14.4609 125.337 14.4609C126.208 14.4609 126.876 14.7773 127.341 15.4102H127.417L127.376 14.9473L127.353 14.4961V11.8828H128.325V21H127.534L127.405 20.1387ZM125.46 20.3027C126.124 20.3027 126.604 20.123 126.901 19.7637C127.202 19.4004 127.353 18.8164 127.353 18.0117V17.8066C127.353 16.8965 127.2 16.248 126.896 15.8613C126.595 15.4707 126.112 15.2754 125.448 15.2754C124.878 15.2754 124.44 15.498 124.136 15.9434C123.835 16.3848 123.685 17.0098 123.685 17.8184C123.685 18.6387 123.835 19.2578 124.136 19.6758C124.437 20.0938 124.878 20.3027 125.46 20.3027ZM133.106 21.1172C132.157 21.1172 131.407 20.8281 130.856 20.25C130.31 19.6719 130.036 18.8691 130.036 17.8418C130.036 16.8066 130.29 15.9844 130.798 15.375C131.31 14.7656 131.995 14.4609 132.854 14.4609C133.659 14.4609 134.296 14.7266 134.765 15.2578C135.233 15.7852 135.468 16.4824 135.468 17.3496V17.9648H131.044C131.063 18.7188 131.253 19.291 131.612 19.6816C131.976 20.0723 132.485 20.2676 133.142 20.2676C133.833 20.2676 134.517 20.123 135.192 19.834V20.7012C134.849 20.8496 134.522 20.9551 134.214 21.0176C133.909 21.084 133.54 21.1172 133.106 21.1172ZM132.843 15.2754C132.327 15.2754 131.915 15.4434 131.606 15.7793C131.302 16.1152 131.122 16.5801 131.067 17.1738H134.425C134.425 16.5605 134.288 16.0918 134.015 15.7676C133.741 15.4395 133.351 15.2754 132.843 15.2754ZM144.392 19.248C144.392 19.8457 144.169 20.3066 143.724 20.6309C143.278 20.9551 142.653 21.1172 141.849 21.1172C140.997 21.1172 140.333 20.9824 139.856 20.7129V19.8105C140.165 19.9668 140.495 20.0898 140.847 20.1797C141.202 20.2695 141.544 20.3145 141.872 20.3145C142.38 20.3145 142.771 20.2344 143.044 20.0742C143.317 19.9102 143.454 19.6621 143.454 19.3301C143.454 19.0801 143.345 18.8672 143.126 18.6914C142.911 18.5117 142.489 18.3008 141.86 18.0586C141.263 17.8359 140.837 17.6426 140.583 17.4785C140.333 17.3105 140.146 17.1211 140.021 16.9102C139.899 16.6992 139.839 16.4473 139.839 16.1543C139.839 15.6309 140.052 15.2188 140.478 14.918C140.903 14.6133 141.487 14.4609 142.229 14.4609C142.921 14.4609 143.597 14.6016 144.257 14.8828L143.911 15.6738C143.267 15.4082 142.683 15.2754 142.159 15.2754C141.698 15.2754 141.351 15.3477 141.116 15.4922C140.882 15.6367 140.765 15.8359 140.765 16.0898C140.765 16.2617 140.808 16.4082 140.894 16.5293C140.983 16.6504 141.126 16.7656 141.321 16.875C141.517 16.9844 141.892 17.1426 142.446 17.3496C143.208 17.627 143.722 17.9062 143.987 18.1875C144.257 18.4688 144.392 18.8223 144.392 19.248ZM146.894 14.5781V18.7441C146.894 19.2676 147.013 19.6582 147.251 19.916C147.489 20.1738 147.862 20.3027 148.37 20.3027C149.042 20.3027 149.532 20.1191 149.841 19.752C150.153 19.3848 150.31 18.7852 150.31 17.9531V14.5781H151.282V21H150.479L150.339 20.1387H150.286C150.087 20.4551 149.81 20.6973 149.454 20.8652C149.103 21.0332 148.7 21.1172 148.247 21.1172C147.466 21.1172 146.88 20.9316 146.489 20.5605C146.103 20.1895 145.909 19.5957 145.909 18.7793V14.5781H146.894ZM155.917 21.1172C154.987 21.1172 154.267 20.832 153.755 20.2617C153.247 19.6875 152.993 18.877 152.993 17.8301C152.993 16.7559 153.251 15.9258 153.767 15.3398C154.286 14.7539 155.024 14.4609 155.981 14.4609C156.29 14.4609 156.599 14.4941 156.907 14.5605C157.216 14.627 157.458 14.7051 157.634 14.7949L157.335 15.6211C157.12 15.5352 156.886 15.4648 156.632 15.4102C156.378 15.3516 156.153 15.3223 155.958 15.3223C154.653 15.3223 154.001 16.1543 154.001 17.8184C154.001 18.6074 154.159 19.2129 154.476 19.6348C154.796 20.0566 155.269 20.2676 155.894 20.2676C156.429 20.2676 156.978 20.1523 157.54 19.9219V20.7832C157.11 21.0059 156.569 21.1172 155.917 21.1172ZM161.636 21.1172C160.706 21.1172 159.985 20.832 159.474 20.2617C158.966 19.6875 158.712 18.877 158.712 17.8301C158.712 16.7559 158.97 15.9258 159.485 15.3398C160.005 14.7539 160.743 14.4609 161.7 14.4609C162.009 14.4609 162.317 14.4941 162.626 14.5605C162.935 14.627 163.177 14.7051 163.353 14.7949L163.054 15.6211C162.839 15.5352 162.604 15.4648 162.351 15.4102C162.097 15.3516 161.872 15.3223 161.677 15.3223C160.372 15.3223 159.72 16.1543 159.72 17.8184C159.72 18.6074 159.878 19.2129 160.194 19.6348C160.515 20.0566 160.987 20.2676 161.612 20.2676C162.147 20.2676 162.696 20.1523 163.259 19.9219V20.7832C162.829 21.0059 162.288 21.1172 161.636 21.1172ZM167.501 21.1172C166.552 21.1172 165.802 20.8281 165.251 20.25C164.704 19.6719 164.431 18.8691 164.431 17.8418C164.431 16.8066 164.685 15.9844 165.192 15.375C165.704 14.7656 166.39 14.4609 167.249 14.4609C168.054 14.4609 168.69 14.7266 169.159 15.2578C169.628 15.7852 169.862 16.4824 169.862 17.3496V17.9648H165.438C165.458 18.7188 165.647 19.291 166.007 19.6816C166.37 20.0723 166.88 20.2676 167.536 20.2676C168.228 20.2676 168.911 20.123 169.587 19.834V20.7012C169.243 20.8496 168.917 20.9551 168.608 21.0176C168.304 21.084 167.935 21.1172 167.501 21.1172ZM167.237 15.2754C166.722 15.2754 166.31 15.4434 166.001 15.7793C165.696 16.1152 165.517 16.5801 165.462 17.1738H168.819C168.819 16.5605 168.683 16.0918 168.409 15.7676C168.136 15.4395 167.745 15.2754 167.237 15.2754ZM175.669 19.248C175.669 19.8457 175.446 20.3066 175.001 20.6309C174.556 20.9551 173.931 21.1172 173.126 21.1172C172.274 21.1172 171.61 20.9824 171.134 20.7129V19.8105C171.442 19.9668 171.772 20.0898 172.124 20.1797C172.479 20.2695 172.821 20.3145 173.149 20.3145C173.657 20.3145 174.048 20.2344 174.321 20.0742C174.595 19.9102 174.731 19.6621 174.731 19.3301C174.731 19.0801 174.622 18.8672 174.403 18.6914C174.188 18.5117 173.767 18.3008 173.138 18.0586C172.54 17.8359 172.114 17.6426 171.86 17.4785C171.61 17.3105 171.423 17.1211 171.298 16.9102C171.177 16.6992 171.116 16.4473 171.116 16.1543C171.116 15.6309 171.329 15.2188 171.755 14.918C172.181 14.6133 172.765 14.4609 173.507 14.4609C174.198 14.4609 174.874 14.6016 175.534 14.8828L175.188 15.6738C174.544 15.4082 173.96 15.2754 173.437 15.2754C172.976 15.2754 172.628 15.3477 172.394 15.4922C172.159 15.6367 172.042 15.8359 172.042 16.0898C172.042 16.2617 172.085 16.4082 172.171 16.5293C172.261 16.6504 172.403 16.7656 172.599 16.875C172.794 16.9844 173.169 17.1426 173.724 17.3496C174.485 17.627 174.999 17.9062 175.265 18.1875C175.534 18.4688 175.669 18.8223 175.669 19.248ZM181.399 19.248C181.399 19.8457 181.177 20.3066 180.731 20.6309C180.286 20.9551 179.661 21.1172 178.856 21.1172C178.005 21.1172 177.341 20.9824 176.864 20.7129V19.8105C177.173 19.9668 177.503 20.0898 177.854 20.1797C178.21 20.2695 178.552 20.3145 178.88 20.3145C179.388 20.3145 179.778 20.2344 180.052 20.0742C180.325 19.9102 180.462 19.6621 180.462 19.3301C180.462 19.0801 180.353 18.8672 180.134 18.6914C179.919 18.5117 179.497 18.3008 178.868 18.0586C178.271 17.8359 177.845 17.6426 177.591 17.4785C177.341 17.3105 177.153 17.1211 177.028 16.9102C176.907 16.6992 176.847 16.4473 176.847 16.1543C176.847 15.6309 177.06 15.2188 177.485 14.918C177.911 14.6133 178.495 14.4609 179.237 14.4609C179.929 14.4609 180.604 14.6016 181.265 14.8828L180.919 15.6738C180.274 15.4082 179.69 15.2754 179.167 15.2754C178.706 15.2754 178.358 15.3477 178.124 15.4922C177.89 15.6367 177.772 15.8359 177.772 16.0898C177.772 16.2617 177.815 16.4082 177.901 16.5293C177.991 16.6504 178.134 16.7656 178.329 16.875C178.524 16.9844 178.899 17.1426 179.454 17.3496C180.216 17.627 180.729 17.9062 180.995 18.1875C181.265 18.4688 181.399 18.8223 181.399 19.248ZM185.882 15.334H184.247V21H183.274V15.334H182.126V14.8945L183.274 14.543V14.1855C183.274 12.6074 183.964 11.8184 185.343 11.8184C185.683 11.8184 186.081 11.8867 186.538 12.0234L186.286 12.8027C185.911 12.6816 185.591 12.6211 185.325 12.6211C184.958 12.6211 184.687 12.7441 184.511 12.9902C184.335 13.2324 184.247 13.623 184.247 14.1621V14.5781H185.882V15.334ZM187.968 14.5781V18.7441C187.968 19.2676 188.087 19.6582 188.325 19.916C188.563 20.1738 188.937 20.3027 189.444 20.3027C190.116 20.3027 190.606 20.1191 190.915 19.752C191.228 19.3848 191.384 18.7852 191.384 17.9531V14.5781H192.356V21H191.554L191.413 20.1387H191.36C191.161 20.4551 190.884 20.6973 190.528 20.8652C190.177 21.0332 189.774 21.1172 189.321 21.1172C188.54 21.1172 187.954 20.9316 187.563 20.5605C187.177 20.1895 186.983 19.5957 186.983 18.7793V14.5781H187.968ZM195.397 21H194.425V11.8828H195.397V21ZM198.433 21H197.46V11.8828H198.433V21ZM199.476 14.5781H200.519L201.925 18.2402C202.233 19.0762 202.425 19.6797 202.499 20.0508H202.546C202.597 19.8516 202.702 19.5117 202.862 19.0312C203.026 18.5469 203.558 17.0625 204.456 14.5781H205.499L202.739 21.8906C202.466 22.6133 202.146 23.125 201.778 23.4258C201.415 23.7305 200.968 23.8828 200.437 23.8828C200.14 23.8828 199.847 23.8496 199.558 23.7832V23.0039C199.772 23.0508 200.013 23.0742 200.278 23.0742C200.946 23.0742 201.423 22.6992 201.708 21.9492L202.065 21.0352L199.476 14.5781Z" fill="white"/>
<path d="M35.331 19.4934L32.4117 16.5769C32.0864 16.2519 31.5693 16.2519 31.244 16.5769C30.9187 16.9019 30.9187 17.4185 31.244 17.7435L34.7388 21.235C35.064 21.56 35.5895 21.56 35.9148 21.235L44.756 12.4104C45.0813 12.0854 45.0813 11.5687 44.756 11.2437C44.4307 10.9188 43.9136 10.9188 43.5883 11.2437L35.331 19.4934Z" fill="white"/>
</svg>
