<svg width="72" height="14" viewBox="0 0 72 14" fill="none" xmlns="http://www.w3.org/2000/svg">
<path d="M5.57652 4.22169C6.58524 4.22169 7.33605 4.54524 7.82894 5.19235C8.32184 5.82702 8.56828 6.79146 8.56828 8.08569V13.611H5.97199V8.21635C5.97199 7.59413 5.86309 7.13991 5.6453 6.85369C5.43897 6.56746 5.11228 6.42435 4.66524 6.42435C4.12649 6.42435 3.69091 6.61102 3.35849 6.98435C3.03754 7.35769 2.87706 7.85546 2.87706 8.47769V13.611H0.280762V4.44569H2.80828V5.75235C3.10631 5.25458 3.49031 4.87502 3.96028 4.61369C4.44172 4.35235 4.98046 4.22169 5.57652 4.22169ZM14.5643 13.7604C13.6702 13.7604 12.885 13.5675 12.2087 13.1817C11.5324 12.7835 11.0109 12.2297 10.6441 11.5204C10.2773 10.7986 10.0939 9.95235 10.0939 8.98169C10.0939 8.01102 10.2773 7.17102 10.6441 6.46169C11.0109 5.73991 11.5324 5.18613 12.2087 4.80035C12.885 4.41458 13.6702 4.22169 14.5643 4.22169C15.4584 4.22169 16.2436 4.41458 16.9199 4.80035C17.5962 5.18613 18.1177 5.73991 18.4845 6.46169C18.8514 7.17102 19.0348 8.01102 19.0348 8.98169C19.0348 9.95235 18.8514 10.7986 18.4845 11.5204C18.1177 12.2297 17.5962 12.7835 16.9199 13.1817C16.2436 13.5675 15.4584 13.7604 14.5643 13.7604ZM14.5643 11.6137C15.8252 11.6137 16.4557 10.7364 16.4557 8.98169C16.4557 8.09813 16.2894 7.43858 15.957 7.00302C15.6361 6.56746 15.1718 6.34969 14.5643 6.34969C13.3034 6.34969 12.673 7.22702 12.673 8.98169C12.673 10.7364 13.3034 11.6137 14.5643 11.6137ZM24.6725 13.7604C23.7784 13.7604 22.9932 13.5675 22.3169 13.1817C21.6406 12.7835 21.1191 12.2297 20.7523 11.5204C20.3855 10.7986 20.2021 9.95235 20.2021 8.98169C20.2021 8.01102 20.3855 7.17102 20.7523 6.46169C21.1191 5.73991 21.6406 5.18613 22.3169 4.80035C22.9932 4.41458 23.7784 4.22169 24.6725 4.22169C25.5666 4.22169 26.3518 4.41458 27.0281 4.80035C27.7044 5.18613 28.2259 5.73991 28.5927 6.46169C28.9595 7.17102 29.1429 8.01102 29.1429 8.98169C29.1429 9.95235 28.9595 10.7986 28.5927 11.5204C28.2259 12.2297 27.7044 12.7835 27.0281 13.1817C26.3518 13.5675 25.5666 13.7604 24.6725 13.7604ZM24.6725 11.6137C25.9334 11.6137 26.5638 10.7364 26.5638 8.98169C26.5638 8.09813 26.3976 7.43858 26.0652 7.00302C25.7443 6.56746 25.28 6.34969 24.6725 6.34969C23.4116 6.34969 22.7812 7.22702 22.7812 8.98169C22.7812 10.7364 23.4116 11.6137 24.6725 11.6137ZM35.9498 4.22169C36.6834 4.22169 37.331 4.41458 37.8927 4.80035C38.4544 5.18613 38.89 5.73991 39.1994 6.46169C39.5204 7.17102 39.6809 7.99858 39.6809 8.94435C39.6809 9.89013 39.5204 10.7301 39.1994 11.4644C38.89 12.1861 38.4486 12.7524 37.8755 13.163C37.3138 13.5612 36.6719 13.7604 35.9498 13.7604C35.3653 13.7604 34.838 13.6297 34.3681 13.3684C33.8981 13.0946 33.537 12.7212 33.2848 12.2484V13.611H30.7229V0.451019H33.3192V5.67769C33.5714 5.21724 33.9268 4.86258 34.3853 4.61369C34.8552 4.35235 35.3768 4.22169 35.9498 4.22169ZM35.1934 11.6137C35.8009 11.6137 36.2707 11.3835 36.6031 10.923C36.9356 10.4501 37.1018 9.79058 37.1018 8.94435C37.1018 8.11058 36.9356 7.47591 36.6031 7.04035C36.2707 6.59235 35.8009 6.36835 35.1934 6.36835C34.5859 6.36835 34.1159 6.59858 33.7835 7.05902C33.4511 7.50702 33.2848 8.14791 33.2848 8.98169C33.2848 9.82791 33.4511 10.4812 33.7835 10.9417C34.1159 11.3897 34.5859 11.6137 35.1934 11.6137Z" fill="#393939"/>
<path d="M47.1655 13.7791C45.939 13.7791 44.8672 13.4991 43.9502 12.9391C43.0446 12.3791 42.3454 11.5888 41.8525 10.5684C41.3711 9.54794 41.1304 8.36572 41.1304 7.02172C41.1304 5.67772 41.3711 4.4955 41.8525 3.47505C42.3454 2.45461 43.0446 1.67061 43.9502 1.12305C44.8672 0.563051 45.939 0.283051 47.1655 0.283051C47.9679 0.283051 48.7359 0.41994 49.4695 0.693718C50.2031 0.955051 50.8049 1.32216 51.2749 1.79505L50.4152 3.86705C49.8879 3.4315 49.3606 3.11416 48.8333 2.91505C48.3175 2.71594 47.7787 2.61638 47.2171 2.61638C46.1396 2.61638 45.3085 2.98972 44.7239 3.73639C44.1508 4.48305 43.8642 5.57816 43.8642 7.02172C43.8642 8.46527 44.1508 9.56661 44.7239 10.3257C45.3085 11.0724 46.1396 11.4457 47.2171 11.4457C47.7787 11.4457 48.3175 11.3462 48.8333 11.1471C49.3606 10.9479 49.8879 10.6306 50.4152 10.1951L51.2749 12.2671C50.8049 12.7399 50.2031 13.1133 49.4695 13.3871C48.7359 13.6484 47.9679 13.7791 47.1655 13.7791ZM55.7618 2.82172H51.9619V0.451051H62.2439V2.82172H58.444V13.6111H55.7618V2.82172ZM63.6553 0.451051H71.8396V2.74705H66.3032V5.77105H71.4958V8.06705H66.3032V13.6111H63.6553V0.451051Z" fill="#FF6700"/>
</svg>
