<svg width="26" height="26" viewBox="0 0 26 26" fill="none" xmlns="http://www.w3.org/2000/svg">
<g clip-path="url(#clip0_604_15)">
<path d="M24.0002 0H2.38477C1.2802 0 0.384766 0.89543 0.384766 2V23.6154C0.384766 24.72 1.2802 25.6154 2.38477 25.6154H24.0002C25.1047 25.6154 26.0002 24.72 26.0002 23.6154V2C26.0002 0.89543 25.1047 0 24.0002 0Z" fill="#393939"/>
<g clip-path="url(#clip1_604_15)">
<path d="M20.0948 6.20599C18.8465 5.63448 17.5287 5.22903 16.175 5C15.9897 5.33114 15.8221 5.67185 15.6729 6.02069C14.2309 5.8034 12.7646 5.8034 11.3226 6.02069C11.1733 5.67188 11.0057 5.33118 10.8205 5C9.46594 5.23096 8.14723 5.63738 6.89766 6.20898C4.41693 9.87927 3.74444 13.4584 4.08068 16.9867C5.53346 18.0601 7.15953 18.8764 8.88822 19.4002C9.27747 18.8767 9.6219 18.3213 9.91787 17.7399C9.35572 17.5299 8.81315 17.2709 8.29643 16.9658C8.43242 16.8672 8.56543 16.7655 8.69394 16.6669C10.1975 17.374 11.8385 17.7406 13.5 17.7406C15.1615 17.7406 16.8025 17.374 18.306 16.6669C18.436 16.773 18.569 16.8746 18.7035 16.9658C18.1858 17.2714 17.6423 17.5309 17.0791 17.7414C17.3747 18.3225 17.7192 18.8774 18.1088 19.4002C19.8389 18.8785 21.4662 18.0626 22.9193 16.9882V16.9882C23.3138 12.8965 22.2453 9.35024 20.0948 6.20599ZM10.3438 14.8168C9.40678 14.8168 8.63267 13.9665 8.63267 12.9204C8.63267 11.8743 9.37988 11.0165 10.3408 11.0165C11.3017 11.0165 12.0698 11.8743 12.0534 12.9204C12.037 13.9665 11.2987 14.8168 10.3438 14.8168ZM16.6562 14.8168C15.7177 14.8168 14.9466 13.9665 14.9466 12.9204C14.9466 11.8743 15.6938 11.0165 16.6562 11.0165C17.6186 11.0165 18.3807 11.8743 18.3643 12.9204C18.3479 13.9665 17.6111 14.8168 16.6562 14.8168Z" fill="white"/>
</g>
</g>
<defs>
<clipPath id="clip0_604_15">
<rect width="26" height="26" fill="white"/>
</clipPath>
<clipPath id="clip1_604_15">
<rect width="19" height="14.4002" fill="white" transform="translate(4 5)"/>
</clipPath>
</defs>
</svg>
