<svg width="12" height="16" viewBox="0 0 12 16" fill="none" xmlns="http://www.w3.org/2000/svg">
<path d="M4.90791 1.5V6.09H2.61791C2.16791 6.09 1.94791 6.63 2.26791 6.94L5.55791 10.23C5.75791 10.43 6.06791 10.43 6.26791 10.23L9.55791 6.94C9.86791 6.63 9.64791 6.09 9.20791 6.09H6.90791V1.5C6.90791 0.95 6.45791 0.5 5.90791 0.5C5.35791 0.5 4.90791 0.95 4.90791 1.5ZM1.00791 9.5C0.397911 9.5 -0.102088 10.05 0.0179116 10.65C0.557912 13.41 2.98791 15.5 5.90791 15.5C8.82791 15.5 11.2579 13.41 11.7979 10.65C11.9179 10.05 11.4179 9.5 10.8079 9.5C10.3179 9.5 9.92791 9.85 9.82791 10.33C9.43791 12.14 7.83791 13.5 5.90791 13.5C3.97791 13.5 2.37791 12.14 1.99791 10.33C1.89791 9.85 1.49791 9.5 1.00791 9.5Z" fill="#604195"/>
</svg>
