<svg width="18" height="18" viewBox="0 0 18 18" fill="none" xmlns="http://www.w3.org/2000/svg">
<path d="M8.1 11.7H9.9V13.5H8.1V11.7ZM8.1 4.5H9.9V9.9H8.1V4.5ZM9 0C4.023 0 0 4.05 0 9C0 11.3869 0.948211 13.6761 2.63604 15.364C3.47177 16.1997 4.46392 16.8626 5.55585 17.3149C6.64778 17.7672 7.8181 18 9 18C11.3869 18 13.6761 17.0518 15.364 15.364C17.0518 13.6761 18 11.3869 18 9C18 7.8181 17.7672 6.64778 17.3149 5.55585C16.8626 4.46392 16.1997 3.47177 15.364 2.63604C14.5282 1.80031 13.5361 1.13738 12.4442 0.685084C11.3522 0.232792 10.1819 0 9 0ZM9 16.2C7.09044 16.2 5.25909 15.4414 3.90883 14.0912C2.55857 12.7409 1.8 10.9096 1.8 9C1.8 7.09044 2.55857 5.25909 3.90883 3.90883C5.25909 2.55857 7.09044 1.8 9 1.8C10.9096 1.8 12.7409 2.55857 14.0912 3.90883C15.4414 5.25909 16.2 7.09044 16.2 9C16.2 10.9096 15.4414 12.7409 14.0912 14.0912C12.7409 15.4414 10.9096 16.2 9 16.2Z" fill="#D72C27" fill-opacity="0.9"/>
</svg>
