<svg width="14" height="14" viewBox="0 0 14 14" fill="none" xmlns="http://www.w3.org/2000/svg">
<path d="M7 3.5C7.385 3.5 7.7 3.815 7.7 4.2V7C7.7 7.385 7.385 7.7 7 7.7C6.615 7.7 6.3 7.385 6.3 7V4.2C6.3 3.815 6.615 3.5 7 3.5ZM6.993 0C3.129 0 0 3.136 0 7C0 10.864 3.129 14 6.993 14C10.864 14 14 10.864 14 7C14 3.136 10.864 0 6.993 0ZM7 12.6C3.906 12.6 1.4 10.094 1.4 7C1.4 3.906 3.906 1.4 7 1.4C10.094 1.4 12.6 3.906 12.6 7C12.6 10.094 10.094 12.6 7 12.6ZM7.7 10.5H6.3V9.1H7.7V10.5Z" fill="white"/>
</svg>
