<svg width="627" height="240" viewBox="0 0 627 240" fill="none" xmlns="http://www.w3.org/2000/svg">
<path d="M401.945 122.297H413.898C425.07 122.297 433.43 120.109 438.977 115.734C444.523 111.281 447.297 104.836 447.297 96.3984C447.297 87.8828 444.953 81.5938 440.266 77.5312C435.656 73.4687 428.391 71.4375 418.469 71.4375H401.945V122.297ZM483.977 95.1094C483.977 113.547 478.195 127.648 466.633 137.414C455.148 147.18 438.781 152.062 417.531 152.062H401.945V213H365.617V41.6719H420.344C441.125 41.6719 456.906 46.1641 467.688 55.1484C478.547 64.0547 483.977 77.375 483.977 95.1094ZM617.453 165.422C617.453 180.891 611.867 193.078 600.695 201.984C589.602 210.891 574.133 215.344 554.289 215.344C536.008 215.344 519.836 211.906 505.773 205.031V171.281C517.336 176.438 527.102 180.07 535.07 182.18C543.117 184.289 550.461 185.344 557.102 185.344C565.07 185.344 571.164 183.82 575.383 180.773C579.68 177.727 581.828 173.195 581.828 167.18C581.828 163.82 580.891 160.852 579.016 158.273C577.141 155.617 574.367 153.078 570.695 150.656C567.102 148.234 559.719 144.367 548.547 139.055C538.078 134.133 530.227 129.406 524.992 124.875C519.758 120.344 515.578 115.07 512.453 109.055C509.328 103.039 507.766 96.0078 507.766 87.9609C507.766 72.8047 512.883 60.8906 523.117 52.2188C533.43 43.5469 547.648 39.2109 565.773 39.2109C574.68 39.2109 583.156 40.2656 591.203 42.375C599.328 44.4844 607.805 47.4531 616.633 51.2812L604.914 79.5234C595.773 75.7734 588.195 73.1563 582.18 71.6719C576.242 70.1875 570.383 69.4453 564.602 69.4453C557.727 69.4453 552.453 71.0469 548.781 74.25C545.109 77.4531 543.273 81.6328 543.273 86.7891C543.273 89.9922 544.016 92.8047 545.5 95.2266C546.984 97.5703 549.328 99.875 552.531 102.141C555.812 104.328 563.508 108.312 575.617 114.094C591.633 121.75 602.609 129.445 608.547 137.18C614.484 144.836 617.453 154.25 617.453 165.422Z" fill="#191919"/>
<circle cx="262" cy="126" r="82" fill="#FF6700"/>
<path fill-rule="evenodd" clip-rule="evenodd" d="M293.874 105.511C298.879 104.507 303.229 100.985 305.652 98L310.615 102.772C307.519 106.586 301.935 111.223 295.074 112.599C287.928 114.032 279.881 111.818 272.538 102.772L277.502 98C283.404 105.271 289.155 106.457 293.874 105.511Z" fill="#191919"/>
<path fill-rule="evenodd" clip-rule="evenodd" d="M233.396 105.511C237.946 104.507 241.9 100.985 244.103 98L248.615 102.772C245.801 106.586 240.725 111.223 234.487 112.599C227.99 114.032 220.675 111.818 214 102.772L218.512 98C223.878 105.271 229.106 106.457 233.396 105.511Z" fill="#191919"/>
<circle cx="82" cy="126" r="82" fill="#FF6700"/>
<path fill-rule="evenodd" clip-rule="evenodd" d="M113.874 105.511C118.879 104.507 123.229 100.985 125.652 98L130.615 102.772C127.519 106.586 121.935 111.223 115.074 112.599C107.928 114.032 99.8814 111.818 92.5383 102.772L97.5016 98C103.404 105.271 109.155 106.457 113.874 105.511Z" fill="#191919"/>
<path fill-rule="evenodd" clip-rule="evenodd" d="M53.3961 105.511C57.9456 104.507 61.9005 100.985 64.1032 98L68.6152 102.772C65.8007 106.586 60.7245 111.223 54.4871 112.599C47.9902 114.032 40.6754 111.818 33.9998 102.772L38.5119 98C43.8777 105.271 49.1059 106.457 53.3961 105.511Z" fill="#191919"/>
</svg>
