<svg width="25" height="24" viewBox="0 0 25 24" fill="none" xmlns="http://www.w3.org/2000/svg">
<path d="M11.101 0.0856765C5.40702 0.70459 0.827062 5.28455 0.208149 10.8548C-0.410764 16.6725 2.93137 21.8714 8.00645 23.8519C8.3778 23.9757 8.74915 23.7282 8.74915 23.233V21.2525C8.74915 21.2525 8.25402 21.3763 7.63511 21.3763C5.90215 21.3763 5.15945 19.8909 5.03567 19.0244C4.91189 18.5293 4.66432 18.1579 4.29298 17.7866C3.92163 17.6628 3.79785 17.6628 3.79785 17.539C3.79785 17.2915 4.16919 17.2915 4.29298 17.2915C5.03567 17.2915 5.65458 18.1579 5.90215 18.5293C6.52106 19.5195 7.26376 19.7671 7.63511 19.7671C8.13024 19.7671 8.50158 19.6433 8.74915 19.5195C8.87293 18.6531 9.24428 17.7866 9.98698 17.2915C7.13998 16.6725 5.03567 15.0634 5.03567 12.3402C5.03567 10.9785 5.65458 9.61694 6.52106 8.62668C6.39728 8.37911 6.2735 7.7602 6.2735 6.89372C6.2735 6.39859 6.2735 5.65589 6.64485 4.9132C6.64485 4.9132 8.3778 4.9132 10.1108 6.52237C10.7297 6.27481 11.5962 6.15102 12.4626 6.15102C13.3291 6.15102 14.1956 6.27481 14.9383 6.52237C16.5475 4.9132 18.4042 4.9132 18.4042 4.9132C18.6518 5.65589 18.6518 6.39859 18.6518 6.89372C18.6518 7.88398 18.528 8.37911 18.4042 8.62668C19.2707 9.61694 19.8896 10.8548 19.8896 12.3402C19.8896 15.0634 17.7853 16.6725 14.9383 17.2915C15.681 17.9104 16.1761 19.0244 16.1761 20.1385V23.3568C16.1761 23.7282 16.5475 24.0995 17.0426 23.9757C21.6225 22.119 24.8409 17.6628 24.8409 12.4639C24.8409 5.03698 18.528 -0.780802 11.101 0.0856765Z" fill="#191919"/>
</svg>
