<svg width="26" height="26" viewBox="0 0 26 26" fill="none" xmlns="http://www.w3.org/2000/svg">
<rect x="0.384644" width="25.6154" height="25.6154" rx="2" fill="#393939"/>
<path d="M12.457 4.33013C8.40552 4.77051 5.1467 8.02932 4.70632 11.9927C4.26594 16.1323 6.64399 19.8315 10.2551 21.2407C10.5193 21.3288 10.7836 21.1527 10.7836 20.8004V19.3911C10.7836 19.3911 10.4313 19.4792 9.99089 19.4792C8.75782 19.4792 8.22936 18.4223 8.14129 17.8058C8.05321 17.4535 7.87706 17.1892 7.61283 16.925C7.3486 16.8369 7.26053 16.8369 7.26053 16.7489C7.26053 16.5727 7.52475 16.5727 7.61283 16.5727C8.14129 16.5727 8.58167 17.1892 8.75782 17.4535C9.1982 18.1581 9.72666 18.3342 9.99089 18.3342C10.3432 18.3342 10.6074 18.2461 10.7836 18.1581C10.8716 17.5415 11.1359 16.925 11.6643 16.5727C9.63858 16.1323 8.14129 14.9873 8.14129 13.0497C8.14129 12.0808 8.58167 11.112 9.1982 10.4074C9.11012 10.2312 9.02205 9.79084 9.02205 9.17431C9.02205 8.82201 9.02205 8.29355 9.28628 7.76509C9.28628 7.76509 10.5193 7.76509 11.7524 8.91008C12.1928 8.73393 12.8093 8.64585 13.4259 8.64585C14.0424 8.64585 14.6589 8.73393 15.1874 8.91008C16.3324 7.76509 17.6535 7.76509 17.6535 7.76509C17.8297 8.29355 17.8297 8.82201 17.8297 9.17431C17.8297 9.87892 17.7416 10.2312 17.6535 10.4074C18.27 11.112 18.7104 11.9927 18.7104 13.0497C18.7104 14.9873 17.2131 16.1323 15.1874 16.5727C15.7158 17.0131 16.0681 17.8058 16.0681 18.5985V20.8884C16.0681 21.1527 16.3324 21.4169 16.6847 21.3288C19.9435 20.0077 22.2335 16.8369 22.2335 13.1377C22.2335 7.85317 17.7416 3.71359 12.457 4.33013Z" fill="white"/>
</svg>
