<svg width="141" height="43" viewBox="0 0 141 43" fill="none" xmlns="http://www.w3.org/2000/svg">
<path fill-rule="evenodd" clip-rule="evenodd" d="M8.59425 2.22131C5.62126 3.44922 3.18348 4.45921 3.17696 4.46569C3.17049 4.4722 3.37274 4.56976 3.62647 4.68248C6.18633 5.82003 8.4217 7.31709 10.1797 9.07131C11.474 10.3628 12.4605 11.7122 13.2201 13.2299C13.4676 13.7245 13.8249 14.5513 13.9337 14.8815C13.965 14.9766 14.0011 15.0422 14.0138 15.0273C14.0265 15.0123 14.0926 14.847 14.1607 14.6599C15.003 12.346 16.6262 10.0595 18.7257 8.22993C20.2782 6.87704 22.3422 5.58331 24.361 4.69758C24.6384 4.57585 24.8622 4.4733 24.8582 4.46964C24.8508 4.46284 14.0907 0.0204358 14.0321 2.8866e-05C14.0143 -0.0061904 11.5672 0.993361 8.59425 2.22131ZM0.443703 5.5847L0.0711964 5.73918L0.0503682 5.93191C0.000452327 6.39353 -0.0170393 8.03719 0.0193692 8.84557C0.235099 13.6366 1.37426 18.1213 3.3763 22.0615C5.57724 26.3932 8.68793 29.8836 12.7688 32.6006C13.1073 32.826 13.5252 33.0954 13.6975 33.1993L14.0106 33.3882L14.5694 33.0388C17.5153 31.1964 20.0666 28.8611 22.103 26.1429C25.6117 21.4594 27.634 15.5852 27.98 9.07231C28.0161 8.39108 28.0002 6.17712 27.9569 5.86551L27.9389 5.73594L27.5692 5.58425L27.1996 5.43259L26.8351 5.55619C25.9557 5.85446 24.4731 6.49197 23.8381 6.84491L23.6674 6.93982L23.9455 7.10975C25.1583 7.85087 26.1529 9.11756 26.6183 10.5138C27.6237 13.5303 26.2257 16.854 23.361 18.2578C22.4582 18.7002 21.5681 18.9033 20.5317 18.9033C19.0706 18.9033 17.6906 18.4134 16.542 17.487C16.2664 17.2648 15.668 16.6565 15.5219 16.4502C15.4686 16.3749 15.4175 16.313 15.4084 16.3126C15.3994 16.3122 15.3579 16.4176 15.3163 16.5468C15.2747 16.6759 15.0679 17.2198 14.8567 17.7554C14.3169 19.1249 14.1421 19.6766 14.0213 20.3933C13.9983 20.5295 13.9903 20.546 13.9874 20.4632C13.972 20.0292 13.7117 19.1861 13.1658 17.802C12.9515 17.2586 12.7374 16.6994 12.69 16.5593L12.6039 16.3045L12.4129 16.5431C12.13 16.8962 11.667 17.3411 11.2791 17.6323C10.1637 18.4698 8.85993 18.9033 7.45655 18.9033C6.18867 18.9033 5.02107 18.5583 3.97442 17.8746C1.7548 16.4245 0.659757 13.7821 1.20611 11.1944C1.55319 9.55061 2.54335 8.11063 3.97442 7.16844C4.16148 7.04529 4.3205 6.93875 4.32775 6.93166C4.34913 6.91086 3.19646 6.36065 2.58157 6.09818C2.12948 5.90522 0.86862 5.42478 0.825863 5.42922C0.820551 5.42977 0.648582 5.49973 0.443703 5.5847ZM5.90174 8.1126C5.25018 8.34327 4.66864 8.71551 4.15147 9.23298C3.47468 9.91013 3.07428 10.6542 2.86963 11.6151C2.76588 12.1023 2.76588 12.9418 2.86963 13.429C3.1425 14.7107 3.8812 15.7861 4.96555 16.4805C5.37884 16.7451 5.99512 16.9925 6.53338 17.1098C6.92688 17.1956 7.98658 17.1956 8.37842 17.1099C9.45694 16.8738 10.4244 16.2839 11.0854 15.4593C11.3301 15.1539 11.6068 14.7024 11.7305 14.4064L11.8162 14.2015L11.5996 13.7909C11.2605 13.1482 10.5628 12.0362 10.4986 12.0362C10.49 12.0362 10.4925 12.1639 10.5043 12.32C10.541 12.8061 10.4171 13.4391 10.2016 13.8663C9.99222 14.2815 9.60187 14.7402 9.23331 15.0042C8.98499 15.182 8.50044 15.4102 8.20156 15.4901C7.87489 15.5774 7.03241 15.5765 6.71154 15.4885C6.16648 15.3391 5.73667 15.0958 5.33945 14.712C4.91677 14.3037 4.64137 13.836 4.48854 13.2671C4.38246 12.872 4.38233 12.1728 4.48835 11.777C4.57377 11.458 4.78943 10.9898 4.95829 10.7567C5.2792 10.3137 5.81852 9.88833 6.31415 9.68727C6.73308 9.51738 7.0454 9.46717 7.56506 9.48631C7.80823 9.49529 8.04365 9.51249 8.08819 9.5246C8.15609 9.54307 8.14562 9.52467 8.02341 9.41074C7.71517 9.12343 6.25092 8.02126 6.17707 8.02093C6.16816 8.02087 6.04426 8.06214 5.90174 8.1126ZM21.3891 8.32506C20.9715 8.61377 20.2478 9.17159 19.9598 9.42681L19.8303 9.54161L19.976 9.51751C20.0562 9.50426 20.3477 9.49477 20.6239 9.49639C21.0698 9.49904 21.1578 9.50902 21.4109 9.58576C22.115 9.79925 22.7124 10.2441 23.1104 10.8512C23.473 11.4044 23.6204 11.9481 23.5942 12.6354C23.5748 13.1418 23.4997 13.4517 23.2956 13.8663C22.9184 14.6326 22.1949 15.2353 21.3689 15.4711C21.0567 15.5602 20.4015 15.5921 20.0482 15.5354C19.2547 15.4079 18.467 14.9015 18.0272 14.2362C17.6376 13.6467 17.4456 12.9116 17.5119 12.2629C17.5255 12.1293 17.5338 12.0161 17.5302 12.0113C17.5182 11.995 17.0358 12.6989 16.8543 12.9976C16.6612 13.3154 16.3775 13.835 16.2624 14.0817L16.1922 14.2323L16.3592 14.5688C16.6607 15.1761 17.0513 15.6772 17.5466 16.0922C18.2226 16.6586 18.983 17.0039 19.8612 17.1433C20.2608 17.2067 21.1301 17.1867 21.4984 17.1057C22.3767 16.9125 23.1458 16.503 23.7776 15.892C24.4809 15.212 24.9217 14.4243 25.1341 13.4684C25.2287 13.0424 25.2365 12.07 25.1487 11.6365C24.8779 10.2981 24.035 9.13172 22.8427 8.44536C22.6462 8.33225 22.1052 8.09858 21.9004 8.03839C21.8495 8.02343 21.7223 8.09479 21.3891 8.32506ZM7.27571 11.1969C6.91797 11.2361 6.53358 11.4739 6.33981 11.7758C5.76067 12.6784 6.3815 13.8533 7.43728 13.8529C7.74552 13.8528 7.9639 13.788 8.20639 13.6248C8.90401 13.1554 8.99831 12.172 8.40282 11.5765C8.11249 11.2862 7.707 11.1496 7.27571 11.1969ZM20.3485 11.1983C19.9436 11.255 19.5135 11.5756 19.3443 11.947C19.0338 12.6286 19.3184 13.4076 20.0003 13.7425C20.1719 13.8267 20.2159 13.8339 20.5591 13.8339C20.899 13.8339 20.9473 13.8262 21.1109 13.7458C21.6061 13.5023 21.8871 13.0593 21.8871 12.5221C21.8871 12.2345 21.8114 11.9833 21.6561 11.7557C21.4696 11.4825 21.1108 11.2495 20.8144 11.2092C20.7363 11.1986 20.6433 11.1857 20.6077 11.1805C20.572 11.1754 20.4554 11.1834 20.3485 11.1983ZM12.0843 19.4349C12.1653 19.5847 12.424 20.0183 12.6592 20.3985C13.4965 21.7517 13.7041 22.0977 13.8559 22.3926L14.0095 22.6914L14.1212 22.4574C14.2374 22.2142 14.5517 21.6865 15.3507 20.3933C15.6094 19.9746 15.8758 19.5274 15.9426 19.3994L16.0642 19.1668L16.3115 19.3208C17.3043 19.9396 18.4432 20.3417 19.6359 20.4947C20.1498 20.5606 21.1691 20.5448 21.709 20.4626C22.4103 20.3558 23.3767 20.0769 23.7955 19.8603C23.8538 19.8301 23.907 19.811 23.9138 19.8178C23.9339 19.8379 23.4363 20.9035 23.1495 21.4546C21.0995 25.394 18.2426 28.5972 14.538 31.1099L14.0073 31.4699L13.5014 31.126C11.3349 29.653 9.48606 27.9666 7.87855 25.9971C6.59026 24.4188 5.39027 22.5038 4.49868 20.6034C4.10593 19.7663 4.11513 19.8242 4.39335 19.9389C5.38114 20.3462 6.34596 20.5336 7.45655 20.5338C8.73117 20.5341 9.83253 20.2775 10.9873 19.7114C11.2367 19.5891 11.5501 19.4168 11.6837 19.3284C11.8173 19.2401 11.929 19.1666 11.9318 19.1651C11.9346 19.1636 12.0032 19.285 12.0843 19.4349ZM13.773 23.2779C12.8562 23.4353 12.2796 24.3149 12.5109 25.203C12.6246 25.6397 12.9879 26.06 13.3908 26.2213L13.4945 26.2628L12.8643 27.5228L12.2342 28.7828H13.9996C14.9706 28.7828 15.7651 28.7755 15.7651 28.7665C15.7651 28.7575 15.4881 28.1963 15.1496 27.5196C14.8111 26.8428 14.5342 26.2833 14.5342 26.2764C14.5342 26.2695 14.6158 26.2239 14.7155 26.1751C14.9888 26.0415 15.2557 25.7618 15.3998 25.4583C15.508 25.2305 15.5218 25.1719 15.5331 24.8899C15.5533 24.3874 15.4077 24.011 15.0671 23.6847C14.7311 23.3627 14.2181 23.2015 13.773 23.2779Z" fill="#D2D2D2"/>
<path d="M38.0234 11.7812V26H35.1035V11.7812H38.0234ZM43.3457 17.6895V26H40.5332V15.4336H43.1699L43.3457 17.6895ZM42.9355 20.3457H42.1738C42.1738 19.5645 42.2747 18.8613 42.4766 18.2363C42.6784 17.6048 42.9616 17.0677 43.3262 16.625C43.6908 16.1758 44.1237 15.834 44.625 15.5996C45.1328 15.3587 45.6992 15.2383 46.3242 15.2383C46.819 15.2383 47.2715 15.3099 47.6816 15.4531C48.0918 15.5964 48.4434 15.8242 48.7363 16.1367C49.0358 16.4492 49.2637 16.8626 49.4199 17.377C49.5827 17.8913 49.6641 18.5195 49.6641 19.2617V26H46.832V19.252C46.832 18.7832 46.7669 18.4186 46.6367 18.1582C46.5065 17.8978 46.3145 17.7155 46.0605 17.6113C45.8132 17.5007 45.5072 17.4453 45.1426 17.4453C44.765 17.4453 44.4362 17.5202 44.1562 17.6699C43.8828 17.8197 43.6549 18.028 43.4727 18.2949C43.2969 18.5553 43.1634 18.8613 43.0723 19.2129C42.9811 19.5645 42.9355 19.9421 42.9355 20.3457ZM55.3867 26H52.5547V14.4961C52.5547 13.6953 52.7109 13.0215 53.0234 12.4746C53.3424 11.9212 53.7884 11.5046 54.3613 11.2246C54.9408 10.9382 55.6276 10.7949 56.4219 10.7949C56.6823 10.7949 56.9329 10.8145 57.1738 10.8535C57.4147 10.8861 57.6491 10.9284 57.877 10.9805L57.8477 13.0996C57.724 13.0671 57.5938 13.0443 57.457 13.0312C57.3203 13.0182 57.1608 13.0117 56.9785 13.0117C56.64 13.0117 56.3503 13.0703 56.1094 13.1875C55.875 13.2982 55.696 13.4642 55.5723 13.6855C55.4486 13.9069 55.3867 14.1771 55.3867 14.4961V26ZM57.4961 15.4336V17.4258H50.9824V15.4336H57.4961ZM58.5215 20.8242V20.6191C58.5215 19.8444 58.6322 19.1315 58.8535 18.4805C59.0749 17.8229 59.3971 17.2533 59.8203 16.7715C60.2435 16.2897 60.7643 15.9154 61.3828 15.6484C62.0013 15.375 62.7109 15.2383 63.5117 15.2383C64.3125 15.2383 65.0254 15.375 65.6504 15.6484C66.2754 15.9154 66.7995 16.2897 67.2227 16.7715C67.6523 17.2533 67.9779 17.8229 68.1992 18.4805C68.4206 19.1315 68.5312 19.8444 68.5312 20.6191V20.8242C68.5312 21.5924 68.4206 22.3053 68.1992 22.9629C67.9779 23.6139 67.6523 24.1836 67.2227 24.6719C66.7995 25.1536 66.2786 25.528 65.6602 25.7949C65.0417 26.0618 64.332 26.1953 63.5312 26.1953C62.7305 26.1953 62.0176 26.0618 61.3926 25.7949C60.7741 25.528 60.25 25.1536 59.8203 24.6719C59.3971 24.1836 59.0749 23.6139 58.8535 22.9629C58.6322 22.3053 58.5215 21.5924 58.5215 20.8242ZM61.334 20.6191V20.8242C61.334 21.2669 61.373 21.6803 61.4512 22.0645C61.5293 22.4486 61.653 22.7871 61.8223 23.0801C61.998 23.3665 62.2259 23.5911 62.5059 23.7539C62.7858 23.9167 63.1276 23.998 63.5312 23.998C63.9219 23.998 64.2572 23.9167 64.5371 23.7539C64.8171 23.5911 65.0417 23.3665 65.2109 23.0801C65.3802 22.7871 65.5039 22.4486 65.582 22.0645C65.6667 21.6803 65.709 21.2669 65.709 20.8242V20.6191C65.709 20.1895 65.6667 19.7858 65.582 19.4082C65.5039 19.0241 65.377 18.6855 65.2012 18.3926C65.0319 18.0931 64.8073 17.8587 64.5273 17.6895C64.2474 17.5202 63.9089 17.4355 63.5117 17.4355C63.1146 17.4355 62.776 17.5202 62.4961 17.6895C62.2227 17.8587 61.998 18.0931 61.8223 18.3926C61.653 18.6855 61.5293 19.0241 61.4512 19.4082C61.373 19.7858 61.334 20.1895 61.334 20.6191ZM77.8379 22.2793C77.8379 22.0254 77.7988 21.7975 77.7207 21.5957C77.6491 21.3874 77.5124 21.1986 77.3105 21.0293C77.1087 20.8535 76.8255 20.681 76.4609 20.5117C76.0964 20.3424 75.6243 20.1667 75.0449 19.9844C74.4004 19.776 73.7884 19.5417 73.209 19.2812C72.6361 19.0208 72.1283 18.7181 71.6855 18.373C71.2493 18.0215 70.9043 17.6146 70.6504 17.1523C70.403 16.6901 70.2793 16.153 70.2793 15.541C70.2793 14.9486 70.4095 14.4115 70.6699 13.9297C70.9303 13.4414 71.2949 13.0247 71.7637 12.6797C72.2324 12.3281 72.7858 12.0579 73.4238 11.8691C74.0684 11.6803 74.7747 11.5859 75.543 11.5859C76.5911 11.5859 77.5059 11.7747 78.2871 12.1523C79.0684 12.5299 79.6738 13.0475 80.1035 13.7051C80.5397 14.3626 80.7578 15.1146 80.7578 15.9609H77.8477C77.8477 15.5443 77.7598 15.1797 77.584 14.8672C77.4147 14.5482 77.1543 14.2975 76.8027 14.1152C76.4577 13.9329 76.0215 13.8418 75.4941 13.8418C74.9863 13.8418 74.5632 13.9199 74.2246 14.0762C73.8861 14.2259 73.6322 14.431 73.4629 14.6914C73.2936 14.9453 73.209 15.2318 73.209 15.5508C73.209 15.7917 73.2676 16.0098 73.3848 16.2051C73.5085 16.4004 73.6908 16.5827 73.9316 16.752C74.1725 16.9212 74.4688 17.0807 74.8203 17.2305C75.1719 17.3802 75.5788 17.5267 76.041 17.6699C76.8158 17.9043 77.4961 18.168 78.082 18.4609C78.6745 18.7539 79.1693 19.0827 79.5664 19.4473C79.9635 19.8118 80.263 20.2253 80.4648 20.6875C80.6667 21.1497 80.7676 21.6738 80.7676 22.2598C80.7676 22.8783 80.6471 23.4316 80.4062 23.9199C80.1654 24.4082 79.8171 24.8216 79.3613 25.1602C78.9056 25.4987 78.362 25.7559 77.7305 25.9316C77.099 26.1074 76.3926 26.1953 75.6113 26.1953C74.9082 26.1953 74.2148 26.1042 73.5312 25.9219C72.8477 25.7331 72.2259 25.4499 71.666 25.0723C71.1126 24.6947 70.6699 24.2129 70.3379 23.627C70.0059 23.041 69.8398 22.3477 69.8398 21.5469H72.7793C72.7793 21.9896 72.8477 22.3639 72.9844 22.6699C73.1211 22.9759 73.3132 23.2233 73.5605 23.4121C73.8145 23.6009 74.1139 23.7376 74.459 23.8223C74.8105 23.9069 75.1947 23.9492 75.6113 23.9492C76.1191 23.9492 76.5358 23.8776 76.8613 23.7344C77.1934 23.5911 77.4375 23.3926 77.5938 23.1387C77.7565 22.8848 77.8379 22.5983 77.8379 22.2793ZM87.4473 26.1953C86.627 26.1953 85.8913 26.0651 85.2402 25.8047C84.5892 25.5378 84.0358 25.1699 83.5801 24.7012C83.1309 24.2324 82.7858 23.6888 82.5449 23.0703C82.304 22.4453 82.1836 21.7812 82.1836 21.0781V20.6875C82.1836 19.8867 82.2975 19.1543 82.5254 18.4902C82.7533 17.8262 83.0788 17.25 83.502 16.7617C83.9316 16.2734 84.4525 15.8991 85.0645 15.6387C85.6764 15.3717 86.3665 15.2383 87.1348 15.2383C87.8835 15.2383 88.5475 15.362 89.127 15.6094C89.7064 15.8568 90.1914 16.2083 90.582 16.6641C90.9792 17.1198 91.2786 17.6667 91.4805 18.3047C91.6823 18.9362 91.7832 19.6393 91.7832 20.4141V21.5859H83.3848V19.7109H89.0195V19.4961C89.0195 19.1055 88.9479 18.7572 88.8047 18.4512C88.668 18.1387 88.4596 17.8913 88.1797 17.709C87.8997 17.5267 87.5417 17.4355 87.1055 17.4355C86.7344 17.4355 86.4154 17.5169 86.1484 17.6797C85.8815 17.8424 85.6634 18.0703 85.4941 18.3633C85.3314 18.6562 85.2077 19.0013 85.123 19.3984C85.0449 19.7891 85.0059 20.2188 85.0059 20.6875V21.0781C85.0059 21.5013 85.0645 21.8919 85.1816 22.25C85.3053 22.6081 85.4779 22.9173 85.6992 23.1777C85.9271 23.4382 86.2005 23.64 86.5195 23.7832C86.8451 23.9264 87.2129 23.998 87.623 23.998C88.1309 23.998 88.6029 23.9004 89.0391 23.7051C89.4818 23.5033 89.8626 23.2005 90.1816 22.7969L91.5488 24.2812C91.3275 24.6003 91.0247 24.9062 90.6406 25.1992C90.263 25.4922 89.8073 25.7331 89.2734 25.9219C88.7396 26.1042 88.1309 26.1953 87.4473 26.1953ZM97.75 23.998C98.0951 23.998 98.401 23.9329 98.668 23.8027C98.9349 23.666 99.1432 23.4772 99.293 23.2363C99.4492 22.9889 99.5306 22.6992 99.5371 22.3672H102.184C102.177 23.1094 101.979 23.7702 101.588 24.3496C101.197 24.9225 100.673 25.375 100.016 25.707C99.3581 26.0326 98.6224 26.1953 97.8086 26.1953C96.9883 26.1953 96.2721 26.0586 95.6602 25.7852C95.0547 25.5117 94.5501 25.1341 94.1465 24.6523C93.7428 24.1641 93.4401 23.5977 93.2383 22.9531C93.0365 22.3021 92.9355 21.6055 92.9355 20.8633V20.5801C92.9355 19.8314 93.0365 19.1348 93.2383 18.4902C93.4401 17.8392 93.7428 17.2728 94.1465 16.791C94.5501 16.3027 95.0547 15.9219 95.6602 15.6484C96.2656 15.375 96.9753 15.2383 97.7891 15.2383C98.6549 15.2383 99.4134 15.4043 100.064 15.7363C100.722 16.0684 101.236 16.5436 101.607 17.1621C101.985 17.7741 102.177 18.5 102.184 19.3398H99.5371C99.5306 18.9883 99.4557 18.6693 99.3125 18.3828C99.1758 18.0964 98.974 17.8685 98.707 17.6992C98.4466 17.5234 98.1243 17.4355 97.7402 17.4355C97.3301 17.4355 96.9948 17.5234 96.7344 17.6992C96.474 17.8685 96.2721 18.1029 96.1289 18.4023C95.9857 18.6953 95.8848 19.0306 95.8262 19.4082C95.7741 19.7793 95.748 20.1699 95.748 20.5801V20.8633C95.748 21.2734 95.7741 21.6673 95.8262 22.0449C95.8783 22.4225 95.9759 22.7578 96.1191 23.0508C96.2689 23.3438 96.474 23.5749 96.7344 23.7441C96.9948 23.9134 97.3333 23.998 97.75 23.998ZM107.105 11.7812V26H104.186V11.7812H107.105ZM112.965 11.7812V26H110.045V11.7812H112.965ZM121.773 11.7812V26H118.854V11.7812H121.773ZM126.148 11.7812V14.0762H114.547V11.7812H126.148ZM127.818 11.7812H133.121C134.208 11.7812 135.143 11.944 135.924 12.2695C136.712 12.5951 137.317 13.0768 137.74 13.7148C138.163 14.3529 138.375 15.1374 138.375 16.0684C138.375 16.8301 138.245 17.4844 137.984 18.0312C137.73 18.5716 137.369 19.0241 136.9 19.3887C136.438 19.7467 135.895 20.0332 135.27 20.248L134.342 20.7363H129.732L129.713 18.4512H133.141C133.655 18.4512 134.081 18.36 134.42 18.1777C134.758 17.9954 135.012 17.7415 135.182 17.416C135.357 17.0905 135.445 16.7129 135.445 16.2832C135.445 15.8275 135.361 15.4336 135.191 15.1016C135.022 14.7695 134.765 14.5156 134.42 14.3398C134.075 14.1641 133.642 14.0762 133.121 14.0762H130.748V26H127.818V11.7812ZM135.768 26L132.525 19.6621L135.621 19.6426L138.902 25.8633V26H135.768Z" fill="#D2D2D2"/>
</svg>
