<svg width="26" height="26" viewBox="0 0 26 26" fill="none" xmlns="http://www.w3.org/2000/svg">
<g clip-path="url(#clip0_604_9)">
<path d="M24.0002 0H2.38477C1.2802 0 0.384766 0.89543 0.384766 2V23.6154C0.384766 24.72 1.2802 25.6154 2.38477 25.6154H24.0002C25.1047 25.6154 26.0002 24.72 26.0002 23.6154V2C26.0002 0.89543 25.1047 0 24.0002 0Z" fill="#393939"/>
<path d="M9.27778 3C6.36675 3 4 5.36675 4 8.27778V16.7222C4 19.6332 6.36675 22 9.27778 22H17.7222C20.6332 22 23 19.6332 23 16.7222V8.27778C23 5.36675 20.6332 3 17.7222 3H9.27778ZM9.27778 5.11111H17.7222C19.4684 5.11111 20.8889 6.53158 20.8889 8.27778V16.7222C20.8889 18.4684 19.4684 19.8889 17.7222 19.8889H9.27778C7.53158 19.8889 6.11111 18.4684 6.11111 16.7222V8.27778C6.11111 6.53158 7.53158 5.11111 9.27778 5.11111ZM18.7778 6.16667C18.1943 6.16667 17.7222 6.63878 17.7222 7.22222C17.7222 7.80566 18.1943 8.27778 18.7778 8.27778C19.3612 8.27778 19.8333 7.80566 19.8333 7.22222C19.8333 6.63878 19.3612 6.16667 18.7778 6.16667ZM13.5 7.22222C10.589 7.22222 8.22222 9.58898 8.22222 12.5C8.22222 15.411 10.589 17.7778 13.5 17.7778C16.411 17.7778 18.7778 15.411 18.7778 12.5C18.7778 9.58898 16.411 7.22222 13.5 7.22222ZM13.5 9.33333C15.2462 9.33333 16.6667 10.7538 16.6667 12.5C16.6667 14.2462 15.2462 15.6667 13.5 15.6667C11.7538 15.6667 10.3333 14.2462 10.3333 12.5C10.3333 10.7538 11.7538 9.33333 13.5 9.33333Z" fill="white"/>
</g>
<defs>
<clipPath id="clip0_604_9">
<rect width="26" height="26" fill="white"/>
</clipPath>
</defs>
</svg>
