<svg width="232" height="73" viewBox="0 0 232 73" fill="none" xmlns="http://www.w3.org/2000/svg">
<path d="M15.3398 56.3567C12.6218 56.3567 10.2095 55.9151 8.10307 55.0317C6.03059 54.1484 4.38279 52.9253 3.15969 51.3624C1.93658 49.7995 1.24009 48.0328 1.07022 46.0623H11.9253C12.0612 46.9117 12.4179 47.5402 12.9955 47.9479C13.607 48.3556 14.3715 48.5594 15.2888 48.5594C15.8664 48.5594 16.3251 48.4405 16.6648 48.2027C17.0046 47.9309 17.1744 47.6081 17.1744 47.2344C17.1744 46.5889 16.8177 46.1302 16.1042 45.8584C15.3907 45.5866 14.1846 45.2808 12.4859 44.9411C10.4134 44.5334 8.69763 44.0917 7.33863 43.6161C6.0136 43.1404 4.84146 42.325 3.8222 41.1699C2.83692 40.0147 2.34428 38.4179 2.34428 36.3794C2.34428 34.6127 2.80295 33.0158 3.72028 31.5889C4.67158 30.1279 6.06456 28.9898 7.89922 28.1744C9.73388 27.325 11.9592 26.9003 14.5753 26.9003C18.4485 26.9003 21.4723 27.8516 23.6467 29.7542C25.8551 31.6568 27.1801 34.137 27.6218 37.1948H17.5821C17.4123 36.4133 17.0555 35.8188 16.5119 35.4111C15.9683 34.9694 15.2378 34.7486 14.3205 34.7486C13.7429 34.7486 13.3013 34.8675 12.9955 35.1053C12.6897 35.3091 12.5368 35.6319 12.5368 36.0736C12.5368 36.6512 12.8936 37.0928 13.607 37.3986C14.3205 37.6704 15.4587 37.9592 17.0215 38.265C19.094 38.6727 20.8437 39.1313 22.2707 39.641C23.6977 40.1506 24.9377 41.034 25.991 42.291C27.0442 43.5141 27.5708 45.2129 27.5708 47.3873C27.5708 49.0861 27.0782 50.6149 26.0929 51.9739C25.1076 53.333 23.6807 54.4032 21.812 55.1846C19.9774 55.966 17.82 56.3567 15.3398 56.3567ZM28.4933 41.6285C28.4933 38.6047 29.003 35.9886 30.0222 33.7803C31.0754 31.5379 32.5024 29.8391 34.3031 28.684C36.1038 27.4949 38.1253 26.9003 40.3676 26.9003C42.2363 26.9003 43.8331 27.291 45.1581 28.0724C46.5171 28.8199 47.5534 29.8561 48.2669 31.1812V18.2876H59.5806V56H48.2669V52.0759C47.5534 53.4009 46.5171 54.4541 45.1581 55.2356C43.8331 55.983 42.2363 56.3567 40.3676 56.3567C38.1253 56.3567 36.1038 55.7792 34.3031 54.624C32.5024 53.4349 31.0754 51.7361 30.0222 49.5277C29.003 47.2854 28.4933 44.6523 28.4933 41.6285ZM48.3178 41.6285C48.3178 40.0996 47.9271 38.9105 47.1457 38.0611C46.3642 37.2118 45.362 36.7871 44.1389 36.7871C42.9158 36.7871 41.9135 37.2118 41.1321 38.0611C40.3506 38.9105 39.9599 40.0996 39.9599 41.6285C39.9599 43.1574 40.3506 44.3465 41.1321 45.1959C41.9135 46.0453 42.9158 46.47 44.1389 46.47C45.362 46.47 46.3642 46.0453 47.1457 45.1959C47.9271 44.3465 48.3178 43.1574 48.3178 41.6285ZM75.414 56.3567C72.696 56.3567 70.2838 55.9151 68.1773 55.0317C66.1049 54.1484 64.4571 52.9253 63.234 51.3624C62.0109 49.7995 61.3144 48.0328 61.1445 46.0623H71.9995C72.1354 46.9117 72.4922 47.5402 73.0698 47.9479C73.6813 48.3556 74.4458 48.5594 75.3631 48.5594C75.9407 48.5594 76.3993 48.4405 76.7391 48.2027C77.0788 47.9309 77.2487 47.6081 77.2487 47.2344C77.2487 46.5889 76.892 46.1302 76.1785 45.8584C75.465 45.5866 74.2589 45.2808 72.5601 44.9411C70.4877 44.5334 68.7719 44.0917 67.4129 43.6161C66.0879 43.1404 64.9157 42.325 63.8965 41.1699C62.9112 40.0147 62.4186 38.4179 62.4186 36.3794C62.4186 34.6127 62.8772 33.0158 63.7945 31.5889C64.7459 30.1279 66.1388 28.9898 67.9735 28.1744C69.8081 27.325 72.0335 26.9003 74.6496 26.9003C78.5228 26.9003 81.5466 27.8516 83.721 29.7542C85.9294 31.6568 87.2544 34.137 87.6961 37.1948H77.6564C77.4865 36.4133 77.1298 35.8188 76.5862 35.4111C76.0426 34.9694 75.3121 34.7486 74.3948 34.7486C73.8172 34.7486 73.3755 34.8675 73.0698 35.1053C72.764 35.3091 72.6111 35.6319 72.6111 36.0736C72.6111 36.6512 72.9678 37.0928 73.6813 37.3986C74.3948 37.6704 75.533 37.9592 77.0958 38.265C79.1683 38.6727 80.918 39.1313 82.345 39.641C83.7719 40.1506 85.012 41.034 86.0653 42.291C87.1185 43.5141 87.6451 45.2129 87.6451 47.3873C87.6451 49.0861 87.1525 50.6149 86.1672 51.9739C85.1819 53.333 83.7549 54.4032 81.8863 55.1846C80.0517 55.966 77.8942 56.3567 75.414 56.3567ZM101.41 18.2876V56H90.0965V18.2876H101.41ZM102.953 41.6285C102.953 38.6047 103.462 35.9886 104.481 33.7803C105.535 31.5379 106.962 29.8391 108.762 28.684C110.563 27.4949 112.585 26.9003 114.827 26.9003C116.696 26.9003 118.309 27.291 119.668 28.0724C121.027 28.8199 122.064 29.8561 122.777 31.1812V27.257H134.04V56H122.777V52.0759C122.064 53.4009 121.027 54.4541 119.668 55.2356C118.309 55.983 116.696 56.3567 114.827 56.3567C112.585 56.3567 110.563 55.7792 108.762 54.624C106.962 53.4349 105.535 51.7361 104.481 49.5277C103.462 47.2854 102.953 44.6523 102.953 41.6285ZM122.777 41.6285C122.777 40.0996 122.386 38.9105 121.605 38.0611C120.824 37.2118 119.821 36.7871 118.598 36.7871C117.375 36.7871 116.373 37.2118 115.591 38.0611C114.81 38.9105 114.419 40.0996 114.419 41.6285C114.419 43.1574 114.81 44.3465 115.591 45.1959C116.373 46.0453 117.375 46.47 118.598 46.47C119.821 46.47 120.824 46.0453 121.605 45.1959C122.386 44.3465 122.777 43.1574 122.777 41.6285ZM148.395 31.1812C149.109 29.8561 150.128 28.8199 151.453 28.0724C152.812 27.291 154.426 26.9003 156.295 26.9003C158.537 26.9003 160.559 27.4949 162.359 28.684C164.16 29.8391 165.57 31.5379 166.589 33.7803C167.642 35.9886 168.169 38.6047 168.169 41.6285C168.169 44.6523 167.642 47.2854 166.589 49.5277C165.57 51.7361 164.16 53.4349 162.359 54.624C160.559 55.7792 158.537 56.3567 156.295 56.3567C154.426 56.3567 152.812 55.983 151.453 55.2356C150.128 54.4541 149.109 53.4009 148.395 52.0759V56H137.082V18.2876H148.395V31.1812ZM156.702 41.6285C156.702 40.0996 156.312 38.9105 155.53 38.0611C154.749 37.2118 153.747 36.7871 152.523 36.7871C151.3 36.7871 150.298 37.2118 149.517 38.0611C148.735 38.9105 148.344 40.0996 148.344 41.6285C148.344 43.1574 148.735 44.3465 149.517 45.1959C150.298 46.0453 151.3 46.47 152.523 46.47C153.747 46.47 154.749 46.0453 155.53 45.1959C156.312 44.3465 156.702 43.1574 156.702 41.6285ZM182.474 56.3567C179.756 56.3567 177.343 55.9151 175.237 55.0317C173.164 54.1484 171.517 52.9253 170.293 51.3624C169.07 49.7995 168.374 48.0328 168.204 46.0623H179.059C179.195 46.9117 179.552 47.5402 180.129 47.9479C180.741 48.3556 181.505 48.5594 182.423 48.5594C183 48.5594 183.459 48.4405 183.799 48.2027C184.138 47.9309 184.308 47.6081 184.308 47.2344C184.308 46.5889 183.951 46.1302 183.238 45.8584C182.525 45.5866 181.318 45.2808 179.62 44.9411C177.547 44.5334 175.831 44.0917 174.472 43.6161C173.147 43.1404 171.975 42.325 170.956 41.1699C169.971 40.0147 169.478 38.4179 169.478 36.3794C169.478 34.6127 169.937 33.0158 170.854 31.5889C171.805 30.1279 173.198 28.9898 175.033 28.1744C176.868 27.325 179.093 26.9003 181.709 26.9003C185.582 26.9003 188.606 27.8516 190.78 29.7542C192.989 31.6568 194.314 34.137 194.756 37.1948H184.716C184.546 36.4133 184.189 35.8188 183.646 35.4111C183.102 34.9694 182.372 34.7486 181.454 34.7486C180.877 34.7486 180.435 34.8675 180.129 35.1053C179.823 35.3091 179.671 35.6319 179.671 36.0736C179.671 36.6512 180.027 37.0928 180.741 37.3986C181.454 37.6704 182.592 37.9592 184.155 38.265C186.228 38.6727 187.978 39.1313 189.404 39.641C190.831 40.1506 192.072 41.034 193.125 42.291C194.178 43.5141 194.705 45.2129 194.705 47.3873C194.705 49.0861 194.212 50.6149 193.227 51.9739C192.241 53.333 190.814 54.4032 188.946 55.1846C187.111 55.966 184.954 56.3567 182.474 56.3567Z" fill="#D7D6D7"/>
<path fill-rule="evenodd" clip-rule="evenodd" d="M231.153 13.6509V60.9734H209.312V13.6509H231.153Z" fill="#FF5851"/>
</svg>
