<svg width="360" height="271" viewBox="0 0 360 271" fill="none" xmlns="http://www.w3.org/2000/svg">
<rect x="124" y="131" width="112" height="140" fill="#604195"/>
<rect x="248" y="191" width="112" height="80" fill="#AD9EC9"/>
<rect y="171" width="113" height="100" fill="#8E77B4"/>
<rect x="143" y="90" width="72" height="29" fill="#FFAE00"/>
<path d="M248 2.00027C248 46.7352 217.332 83 179.5 83C141.668 83 111 46.7352 111 2.00027C111 2.00027 141.668 2 179.5 2C217.332 2 248 2.00027 248 2.00027Z" fill="#FFAE00"/>
<path d="M116.1 25H93C93 36.1724 99.3 52 129 52" stroke="#FFAE00" stroke-width="6"/>
<path d="M242.9 25H266C266 36.1724 259.7 52 230 52" stroke="#FFAE00" stroke-width="6"/>
<path d="M185.292 53.5H194.412V61H166.812V53.5H175.932V29.08L168.732 33.28L165.192 26.56L178.632 18.7H185.292V53.5Z" fill="white"/>
<path d="M72.5481 140.5V149H39.5681V141.18L55.5481 124.248C58.9027 120.712 60.5801 117.448 60.5801 114.456C60.5801 110.648 58.4041 108.744 54.0521 108.744C52.0574 108.744 49.9721 109.152 47.7961 109.968C45.6201 110.739 43.4894 111.872 41.4041 113.368L38.0721 105.82C39.9761 104.188 42.4241 102.896 45.4161 101.944C48.4081 100.947 51.4681 100.448 54.5961 100.448C59.5827 100.448 63.5494 101.649 66.4961 104.052C69.4881 106.455 70.9841 109.673 70.9841 113.708C70.9841 116.473 70.3947 119.035 69.2161 121.392C68.0827 123.749 66.1561 126.379 63.4361 129.28L52.7601 140.5H72.5481Z" fill="#593C8F"/>
<path d="M310.469 145.316C313.28 146.132 315.433 147.56 316.929 149.6C318.471 151.595 319.241 154.043 319.241 156.944C319.241 161.16 317.632 164.492 314.413 166.94C311.195 169.343 306.843 170.544 301.357 170.544C298.048 170.544 294.875 170.068 291.837 169.116C288.8 168.164 286.329 166.849 284.425 165.172L287.757 157.624C292.109 160.707 296.484 162.248 300.881 162.248C303.783 162.248 305.891 161.749 307.205 160.752C308.52 159.709 309.177 158.1 309.177 155.924C309.177 153.793 308.52 152.252 307.205 151.3C305.891 150.348 303.783 149.872 300.881 149.872H294.013V141.644H299.725C302.491 141.644 304.531 141.168 305.845 140.216C307.205 139.264 307.885 137.791 307.885 135.796C307.885 133.847 307.296 132.351 306.117 131.308C304.939 130.265 303.239 129.744 301.017 129.744C299.023 129.744 296.937 130.152 294.761 130.968C292.585 131.739 290.477 132.872 288.437 134.368L285.105 126.82C287.009 125.188 289.457 123.896 292.449 122.944C295.487 121.947 298.592 121.448 301.765 121.448C305.029 121.448 307.885 121.992 310.333 123.08C312.781 124.123 314.663 125.619 315.977 127.568C317.337 129.517 318.017 131.784 318.017 134.368C318.017 136.952 317.337 139.219 315.977 141.168C314.663 143.072 312.827 144.455 310.469 145.316Z" fill="#593C8F"/>
</svg>
