<svg width="409" height="452" viewBox="0 0 409 452" fill="none" xmlns="http://www.w3.org/2000/svg">
<rect x="384" y="333" width="25" height="68" fill="#FF6700"/>
<path d="M209.762 192.663C235.577 192.663 259.282 201.886 277.771 217.229C286.994 201.886 292.209 184.13 292.209 165.554V82.5898C292.209 36.4745 254.498 -0.805633 208.253 0.0132366C162.87 0.832106 127.357 39.8361 127.357 85.348V156.46C127.357 179.906 132.702 200.291 142.269 216.841C160.586 201.714 184.075 192.663 209.762 192.663Z" fill="#575757"/>
<path d="M316.258 299.29V350.879H103.309V299.29C103.309 240.375 150.975 192.665 209.762 192.665C268.548 192.665 316.258 240.375 316.258 299.29Z" fill="#525252"/>
<path d="M264.841 208.051C261.954 217.662 258.032 225.678 252.687 233.867C246.223 243.694 238.336 252.787 229.414 260.502C221.226 267.57 209.761 280.327 209.761 295.843C209.761 280.37 198.34 267.699 190.238 260.631C181.187 252.787 173.128 243.564 166.62 233.522C161.448 225.592 157.612 217.834 154.811 208.568C154.725 208.439 154.725 208.224 154.682 208.094C170.757 198.268 189.634 192.665 209.761 192.665C229.888 192.665 248.809 198.268 264.841 208.051Z" fill="#FF6700"/>
<path d="M233.811 209.86C220.536 223.134 198.987 223.134 185.713 209.86V172.02H233.811V209.86Z" fill="#F0DAA3"/>
<path d="M278.103 99.8285V82.6322C278.103 44.6625 247.331 13.8472 209.404 13.8472C171.478 13.8472 140.748 44.6625 140.748 82.6322V99.8285C133.206 99.8285 127 106.035 127 113.577C127 121.162 133.163 127.325 140.748 127.325C141.007 127.325 141.309 127.239 141.567 127.239C146.524 160.382 174.969 185.767 209.447 185.767C243.926 185.767 272.371 160.296 277.327 127.239C277.586 127.239 277.887 127.325 278.146 127.325C285.688 127.325 291.894 121.119 291.894 113.577C291.851 105.948 285.645 99.8285 278.103 99.8285Z" fill="#F2DFB0"/>
<path d="M208.253 0.0132366C162.871 0.832106 127.357 39.8361 127.357 85.348V156.46C127.357 179.906 132.702 200.291 142.269 216.841C151.837 233.348 165.543 244.683 182.308 253.087C182.179 252.872 182.049 252.742 181.877 252.527C179.248 249.855 176.791 247.01 174.464 244.123C174.119 243.648 173.688 243.217 173.387 242.743C170.973 239.727 168.732 236.623 166.663 233.477C164.896 230.719 163.301 227.918 161.793 225.159C161.534 224.599 161.19 224.125 160.974 223.565C158.518 218.824 156.492 213.954 154.854 208.48C154.768 208.351 154.768 208.135 154.725 208.006C149.725 191.068 148.002 169.131 148.002 131.765C148.002 106.596 161.75 75.6509 209.805 75.6509C257.859 75.6509 271.608 110.043 271.608 131.765C271.608 169.131 269.884 191.068 264.884 208.006C264.195 210.29 263.462 212.488 262.6 214.6C260.618 219.772 258.29 224.513 255.446 229.254C254.756 230.417 254.067 231.538 253.334 232.701C253.119 233.046 252.903 233.477 252.644 233.822C248.248 240.545 243.034 246.967 237.388 252.828C236.957 253.389 236.483 253.863 236.095 254.423C252.903 246.019 267.815 233.305 277.383 217.876C277.512 217.66 277.642 217.402 277.814 217.186C287.037 201.843 292.252 184.086 292.252 165.511V82.5898C292.209 36.4745 254.498 -0.805633 208.253 0.0132366Z" fill="#454545"/>
<path opacity="0.4" d="M147.008 224.21C147.008 224.252 147.008 224.252 147.008 224.252C146.967 224.21 146.967 224.21 146.967 224.21H147.008Z" fill="#3A3A3A"/>
<path opacity="0.3" d="M312.635 271.922C300.18 255.502 283.63 242.4 264.451 234.125C269.407 229.169 273.76 223.738 277.338 217.92C277.467 217.704 277.639 217.489 277.769 217.273C294.534 231.237 306.903 250.201 312.635 271.922Z" fill="white" fill-opacity="0.51"/>
<path opacity="0.3" d="M107.402 271.575C119.858 255.155 136.408 242.053 155.586 233.778C150.63 228.822 146.277 223.392 142.7 217.573C142.571 217.358 142.398 217.142 142.269 216.927C125.504 230.891 113.134 249.854 107.402 271.575Z" fill="white" fill-opacity="0.51"/>
<path opacity="0.3" d="M289.926 63.3242C273.678 36.0429 243.854 17.7692 209.763 17.7692C176.448 17.7692 147.184 35.2241 130.721 61.5141C140.504 27.0354 171.061 0.745367 208.255 0.0557932C247.819 -0.633781 281.177 26.5613 289.926 63.3242Z" fill="white" fill-opacity="0.51"/>
<line x1="208.121" y1="285.819" x2="208.121" y2="347.704" stroke="#393939" stroke-width="2" stroke-linecap="round"/>
<ellipse cx="209.783" cy="284.819" rx="2.66186" ry="5.32373" fill="#282828"/>
<path d="M221 115C224.846 111.227 235.031 105.945 245 115" stroke="#393939" stroke-width="4.5" stroke-linecap="round"/>
<path d="M173 115C176.846 111.227 187.031 105.945 197 115" stroke="#393939" stroke-width="4.5" stroke-linecap="round"/>
<circle cx="209" cy="157" r="8" fill="#393939"/>
<g filter="url(#filter0_d)">
<rect x="60" y="236" width="282" height="165" rx="8" fill="#5E5E5E"/>
</g>
<path d="M308.011 257L318.022 267.011L308.011 277.022" stroke="white" stroke-width="4" stroke-linecap="round" stroke-linejoin="round"/>
<path d="M292.011 277.022L282 267.011L292.011 257" stroke="white" stroke-width="4" stroke-linecap="round" stroke-linejoin="round"/>
<defs>
<filter id="filter0_d" x="0" y="167" width="402" height="285" filterUnits="userSpaceOnUse" color-interpolation-filters="sRGB">
<feFlood flood-opacity="0" result="BackgroundImageFix"/>
<feColorMatrix in="SourceAlpha" type="matrix" values="0 0 0 0 0 0 0 0 0 0 0 0 0 0 0 0 0 0 127 0"/>
<feOffset dy="-9"/>
<feGaussianBlur stdDeviation="30"/>
<feColorMatrix type="matrix" values="0 0 0 0 0.376471 0 0 0 0 0.254902 0 0 0 0 0.584314 0 0 0 0.3 0"/>
<feBlend mode="normal" in2="BackgroundImageFix" result="effect1_dropShadow"/>
<feBlend mode="normal" in="SourceGraphic" in2="effect1_dropShadow" result="shape"/>
</filter>
</defs>
</svg>
