<svg width="308" height="465" viewBox="0 0 308 465" fill="none" xmlns="http://www.w3.org/2000/svg">
<path fill-rule="evenodd" clip-rule="evenodd" d="M132.209 41.1705C127.063 35.1296 123.58 27.7263 124.162 19.4307C125.839 -4.47126 159.111 0.786863 165.583 12.8505C172.055 24.9141 171.286 55.5146 162.922 57.6707C159.586 58.5305 152.48 56.4242 145.247 52.0648L149.787 84.1817H122.981L132.209 41.1705Z" fill="#B28B67"/>
<path fill-rule="evenodd" clip-rule="evenodd" d="M146.587 22.0705C147.613 36.3635 150.328 43.5101 154.73 43.5101C161.334 43.5101 166.937 39.3176 169.835 39.3176C171.947 39.3176 171.475 41.961 170.075 43.9208C168.92 45.5378 163.294 47.0963 163.294 49.6031C163.294 52.1099 167.739 50.1705 167.739 51.6572C167.739 54.1165 168.52 58.7403 164.252 58.7403C159.932 58.7403 147.547 57.1661 145.425 50.7551C144.055 46.6175 143.169 38.0438 142.768 25.034C142.506 25.0028 142.239 24.9868 141.969 24.9868C138.268 24.9868 135.267 27.9871 135.267 31.6881C135.267 33.567 136.041 35.2652 137.286 36.4821C135.735 38.6707 133.998 40.9571 132.006 43.3163C124.526 38.828 118.974 25.6893 126.288 13.0677C128.31 6.88457 132.886 3.58193 138.291 2.04841C142.669 0.216948 147.215 0.0104479 151.051 1.10839C158.572 1.7535 165.288 4.04686 167.191 5.40883C167.191 12.5292 165.812 14.6418 154.027 14.4556C151.132 15.9849 148.906 18.6182 146.587 22.0705Z" fill="#191847"/>
<path fill-rule="evenodd" clip-rule="evenodd" d="M106.747 186.076C108.847 214.741 244.149 299.136 244.938 301.503C245.289 302.556 231.251 335.823 202.824 401.305L214.651 405.901C258.254 336.551 278.935 298.181 276.696 290.792C273.489 280.212 238.496 245.408 171.716 186.381L106.747 186.076Z" fill="#B28B67"/>
<path fill-rule="evenodd" clip-rule="evenodd" d="M205.937 386.517L225.247 393.546C265.965 347.604 281.926 309.697 279.015 290.383C277.075 277.507 242.203 242.761 174.398 186.146L105.362 186.146C107.717 252.531 233.126 301.756 234.803 304.585C236.481 307.414 219.973 335.12 205.937 386.517Z" fill="#141414"/>
<path fill-rule="evenodd" clip-rule="evenodd" d="M198.473 399.047C196.058 401.87 194.556 404.093 193.965 405.716C193.247 407.69 192.527 410.69 191.807 414.716C194.096 415.55 214.675 423.039 253.541 437.186C257.076 432.466 257.192 429.266 253.889 427.585C250.587 425.904 247.855 424.477 245.693 423.304L221.655 400.069C221.192 399.621 220.455 399.634 220.008 400.097C220 400.104 219.992 400.112 219.985 400.121L216.512 403.923C212.769 404.252 209.897 404.052 207.897 403.324C206.271 402.732 204.266 401.259 201.88 398.903L201.88 398.903C200.964 398 199.489 398.009 198.585 398.925C198.546 398.964 198.509 399.005 198.473 399.047Z" fill="#191919"/>
<path fill-rule="evenodd" clip-rule="evenodd" d="M122.304 186.076L62.0301 330.775L2.79053 453.106H16.767L169.68 186.076H122.304Z" fill="#997659"/>
<path fill-rule="evenodd" clip-rule="evenodd" d="M1.95468 447.459C0.651561 450.938 0 453.54 0 455.267C0 457.368 0.349922 460.433 1.04976 464.463C3.48645 464.463 25.3853 464.463 66.7464 464.463C68.4537 458.819 67.4682 455.772 63.7899 455.322C60.1117 454.872 57.0561 454.465 54.6232 454.103L24.088 440.49C23.5004 440.228 22.8118 440.492 22.5499 441.079C22.5454 441.09 22.541 441.1 22.5368 441.11L20.5741 445.871C17.169 447.46 14.402 448.254 12.2731 448.254C10.5434 448.254 8.15474 447.556 5.10703 446.158L5.10703 446.158C3.93746 445.622 2.5547 446.136 2.01855 447.305C1.99544 447.356 1.97414 447.407 1.95468 447.459Z" fill="#191919"/>
<path fill-rule="evenodd" clip-rule="evenodd" d="M8.14014 427.693L39.1961 433.517C63.2085 398.215 163.701 253.462 174.719 186.076H105.582C68.7868 234.789 31.0289 391.807 8.14014 427.693Z" fill="#191919"/>
<path fill-rule="evenodd" clip-rule="evenodd" d="M219.49 66.6607L263.64 53.4071C271.876 46.9955 279.645 42.3077 286.946 39.3436C289.07 38.9439 292.585 39.176 288.192 44.1593C283.799 49.1426 279.402 54.5818 280.657 56.6713C281.911 58.7609 286.481 57.1857 287.803 60.4956C288.685 62.7022 281.114 64.2826 265.09 65.2369L230.762 85.4392L219.49 66.6607ZM215.588 144.501L252.743 171.785C262.821 174.504 271.24 177.887 278.001 181.934C279.598 183.389 281.528 186.337 274.905 185.827C268.281 185.318 261.291 185.08 260.377 187.339C259.463 189.598 263.472 192.3 261.624 195.348C260.393 197.381 254.574 192.285 244.168 180.062L207.375 164.804L215.588 144.501Z" fill="#B28B67"/>
<path fill-rule="evenodd" clip-rule="evenodd" d="M157.877 71.0241C178.11 108.751 207.369 137.672 249.785 167.736L233.725 185.845C186.365 168.245 161.369 157.626 149.095 121.982C146.014 113.036 143.861 84.5172 142.014 69.5123L157.877 71.0241Z" fill="#593C8F"/>
<path fill-rule="evenodd" clip-rule="evenodd" d="M101.313 196.721H191.003C170.687 134.76 160.308 92.2339 159.868 69.1425C159.846 67.9653 157.671 65.8909 156.71 66.1626C149.675 68.1492 142.148 67.4064 134.128 63.9341C112.865 98.1307 105.512 140.234 101.313 196.721Z" fill="#F2F2F2"/>
<path fill-rule="evenodd" clip-rule="evenodd" d="M141.782 63.9891C167.491 64.1996 209.202 68.8943 257.307 53.4507L262.056 77.1817C225.699 100.565 188.884 118.678 156.626 116.106C170.634 176.194 169.988 225.382 139.062 225.382C124.293 225.382 108.353 225.382 91.2397 225.382C83.6444 174.338 103.606 103.564 122.112 67.8669C122.819 66.5037 124.324 63.9339 127.868 63.9339C130.956 63.9339 135.588 63.9339 141.764 63.9339C141.77 63.9523 141.776 63.9707 141.782 63.9891Z" fill="#604195"/>
</svg>
