<svg width="190" height="19" viewBox="0 0 190 19" fill="none" xmlns="http://www.w3.org/2000/svg">
<path d="M0.536 1.08H4.952V14.424H12.152V18H0.536V1.08ZM14.2704 1.08H26.2944V4.488H18.5664V7.704H25.8144V11.088H18.5664V14.592H26.2944V18H14.2704V1.08ZM39.7558 14.496H32.2678L30.7558 18H26.3157L34.2118 1.08H37.7158L45.6358 18H41.2678L39.7558 14.496ZM38.3398 11.184L36.0118 5.76L33.6838 11.184H38.3398ZM46.6376 1.08H53.5256C55.3976 1.08 57.0056 1.416 58.3496 2.088C59.7096 2.76 60.7496 3.736 61.4696 5.016C62.1896 6.28 62.5496 7.784 62.5496 9.528C62.5496 11.288 62.1896 12.808 61.4696 14.088C60.7656 15.352 59.7336 16.32 58.3736 16.992C57.0296 17.664 55.4136 18 53.5256 18H46.6376V1.08ZM53.2136 14.448C54.8776 14.448 56.1176 14.04 56.9336 13.224C57.7496 12.408 58.1576 11.176 58.1576 9.528C58.1576 7.88 57.7496 6.656 56.9336 5.856C56.1176 5.04 54.8776 4.632 53.2136 4.632H51.0536V14.448H53.2136ZM65.2001 1.08H77.2241V4.488H69.4961V7.704H76.7441V11.088H69.4961V14.592H77.2241V18H65.2001V1.08ZM94.7364 18H89.8884L86.9604 12.6C86.5924 11.976 86.0084 11.664 85.2084 11.664H83.8644V18H79.5204V1.08H87.5844C89.6324 1.08 91.1684 1.528 92.1924 2.424C93.2324 3.304 93.7524 4.584 93.7524 6.264C93.7524 7.544 93.4004 8.632 92.6964 9.528C91.9924 10.408 91.0004 11 89.7204 11.304C90.6964 11.512 91.4724 12.144 92.0484 13.2L94.7364 18ZM86.8884 8.352C87.8644 8.352 88.5604 8.2 88.9764 7.896C89.4084 7.592 89.6244 7.096 89.6244 6.408C89.6244 5.704 89.4084 5.2 88.9764 4.896C88.5604 4.576 87.8644 4.416 86.8884 4.416H83.8164V8.352H86.8884Z" fill="#FF6700"/>
<path d="M114.708 9.216C115.7 9.52 116.46 10.032 116.988 10.752C117.516 11.456 117.78 12.328 117.78 13.368C117.78 14.296 117.532 15.112 117.036 15.816C116.556 16.504 115.86 17.04 114.948 17.424C114.052 17.808 112.996 18 111.78 18H103.356V1.08H111.54C113.316 1.08 114.724 1.48 115.764 2.28C116.82 3.064 117.348 4.128 117.348 5.472C117.348 6.336 117.116 7.104 116.652 7.776C116.188 8.432 115.54 8.912 114.708 9.216ZM107.652 7.728H110.796C111.628 7.728 112.236 7.6 112.62 7.344C113.004 7.088 113.196 6.68 113.196 6.12C113.196 5.528 113.004 5.096 112.62 4.824C112.236 4.552 111.628 4.416 110.796 4.416H107.652V7.728ZM111.228 14.664C112.108 14.664 112.732 14.528 113.1 14.256C113.484 13.968 113.676 13.504 113.676 12.864C113.676 12.224 113.484 11.768 113.1 11.496C112.732 11.208 112.108 11.064 111.228 11.064H107.652V14.664H111.228ZM128.084 18.216C126.356 18.216 124.852 17.864 123.572 17.16C122.308 16.44 121.332 15.432 120.644 14.136C119.956 12.824 119.612 11.288 119.612 9.528C119.612 7.768 119.956 6.24 120.644 4.944C121.332 3.632 122.308 2.624 123.572 1.92C124.852 1.216 126.356 0.863999 128.084 0.863999C129.812 0.863999 131.308 1.216 132.572 1.92C133.852 2.624 134.828 3.632 135.5 4.944C136.188 6.24 136.532 7.768 136.532 9.528C136.532 11.288 136.188 12.824 135.5 14.136C134.812 15.432 133.828 16.44 132.548 17.16C131.284 17.864 129.796 18.216 128.084 18.216ZM128.084 14.832C129.364 14.832 130.364 14.384 131.084 13.488C131.804 12.576 132.164 11.256 132.164 9.528C132.164 7.8 131.796 6.488 131.06 5.592C130.34 4.696 129.348 4.248 128.084 4.248C126.804 4.248 125.804 4.696 125.084 5.592C124.364 6.472 124.004 7.784 124.004 9.528C124.004 11.272 124.364 12.592 125.084 13.488C125.804 14.384 126.804 14.832 128.084 14.832ZM150.006 14.496H142.518L141.006 18H136.566L144.462 1.08H147.966L155.886 18H151.518L150.006 14.496ZM148.59 11.184L146.262 5.76L143.934 11.184H148.59ZM172.104 18H167.256L164.328 12.6C163.96 11.976 163.376 11.664 162.576 11.664H161.232V18H156.888V1.08H164.952C167 1.08 168.536 1.528 169.56 2.424C170.6 3.304 171.12 4.584 171.12 6.264C171.12 7.544 170.768 8.632 170.064 9.528C169.36 10.408 168.368 11 167.088 11.304C168.064 11.512 168.84 12.144 169.416 13.2L172.104 18ZM164.256 8.352C165.232 8.352 165.928 8.2 166.344 7.896C166.776 7.592 166.992 7.096 166.992 6.408C166.992 5.704 166.776 5.2 166.344 4.896C165.928 4.576 165.232 4.416 164.256 4.416H161.184V8.352H164.256ZM173.856 1.08H180.744C182.616 1.08 184.224 1.416 185.568 2.088C186.928 2.76 187.968 3.736 188.688 5.016C189.408 6.28 189.768 7.784 189.768 9.528C189.768 11.288 189.408 12.808 188.688 14.088C187.984 15.352 186.952 16.32 185.592 16.992C184.248 17.664 182.632 18 180.744 18H173.856V1.08ZM180.432 14.448C182.096 14.448 183.336 14.04 184.152 13.224C184.968 12.408 185.376 11.176 185.376 9.528C185.376 7.88 184.968 6.656 184.152 5.856C183.336 5.04 182.096 4.632 180.432 4.632H178.272V14.448H180.432Z" fill="#191919"/>
</svg>
