<svg width="190" height="19" viewBox="0 0 190 19" fill="none" xmlns="http://www.w3.org/2000/svg">
<g clip-path="url(#clip0_607_2)">
<path d="M0.536133 1.08008H4.95213V14.4241H12.1521V18.0001H0.536133V1.08008ZM14.2705 1.08008H26.2945V4.48808H18.5665V7.70408H25.8145V11.0881H18.5665V14.5921H26.2945V18.0001H14.2705V1.08008ZM39.7559 14.4961H32.2679L30.7559 18.0001H26.3158L34.2119 1.08008H37.7159L45.6359 18.0001H41.2679L39.7559 14.4961ZM38.3399 11.1841L36.0119 5.76008L33.6839 11.1841H38.3399ZM46.6377 1.08008H53.5257C55.3977 1.08008 57.0057 1.41608 58.3497 2.08808C59.7097 2.76008 60.7497 3.73608 61.4697 5.01608C62.1897 6.28008 62.5497 7.78408 62.5497 9.52808C62.5497 11.2881 62.1897 12.8081 61.4697 14.0881C60.7657 15.3521 59.7337 16.3201 58.3737 16.9921C57.0297 17.6641 55.4137 18.0001 53.5257 18.0001H46.6377V1.08008ZM53.2137 14.4481C54.8777 14.4481 56.1177 14.0401 56.9337 13.2241C57.7497 12.4081 58.1577 11.1761 58.1577 9.52808C58.1577 7.88008 57.7497 6.65608 56.9337 5.85608C56.1177 5.04008 54.8777 4.63208 53.2137 4.63208H51.0537V14.4481H53.2137ZM65.2002 1.08008H77.2242V4.48808H69.4962V7.70408H76.7442V11.0881H69.4962V14.5921H77.2242V18.0001H65.2002V1.08008ZM94.7365 18.0001H89.8885L86.9605 12.6001C86.5925 11.9761 86.0085 11.6641 85.2085 11.6641H83.8645V18.0001H79.5205V1.08008H87.5845C89.6325 1.08008 91.1685 1.52808 92.1925 2.42408C93.2325 3.30408 93.7525 4.58408 93.7525 6.26408C93.7525 7.54408 93.4005 8.63208 92.6965 9.52808C91.9925 10.4081 91.0005 11.0001 89.7205 11.3041C90.6965 11.5121 91.4725 12.1441 92.0485 13.2001L94.7365 18.0001ZM86.8885 8.35208C87.8645 8.35208 88.5605 8.20008 88.9765 7.89608C89.4085 7.59208 89.6245 7.09608 89.6245 6.40808C89.6245 5.70408 89.4085 5.20008 88.9765 4.89608C88.5605 4.57608 87.8645 4.41608 86.8885 4.41608H83.8165V8.35208H86.8885Z" fill="#D7D6D7"/>
<path d="M114.708 9.21577C115.7 9.51977 116.46 10.0318 116.988 10.7518C117.516 11.4558 117.78 12.3278 117.78 13.3678C117.78 14.2958 117.532 15.1118 117.036 15.8158C116.556 16.5038 115.86 17.0398 114.948 17.4238C114.052 17.8078 112.996 17.9998 111.78 17.9998H103.356V1.07977H111.54C113.316 1.07977 114.724 1.47977 115.764 2.27977C116.82 3.06377 117.348 4.12777 117.348 5.47177C117.348 6.33577 117.116 7.10377 116.652 7.77577C116.188 8.43177 115.54 8.91177 114.708 9.21577ZM107.652 7.72777H110.796C111.628 7.72777 112.236 7.59977 112.62 7.34377C113.004 7.08777 113.196 6.67977 113.196 6.11977C113.196 5.52777 113.004 5.09577 112.62 4.82377C112.236 4.55177 111.628 4.41577 110.796 4.41577H107.652V7.72777ZM111.228 14.6638C112.108 14.6638 112.732 14.5278 113.1 14.2558C113.484 13.9678 113.676 13.5038 113.676 12.8638C113.676 12.2238 113.484 11.7678 113.1 11.4958C112.732 11.2078 112.108 11.0638 111.228 11.0638H107.652V14.6638H111.228ZM128.084 18.2158C126.356 18.2158 124.852 17.8638 123.572 17.1598C122.308 16.4398 121.332 15.4318 120.644 14.1358C119.956 12.8238 119.612 11.2878 119.612 9.52777C119.612 7.76777 119.956 6.23977 120.644 4.94377C121.332 3.63177 122.308 2.62377 123.572 1.91977C124.852 1.21577 126.356 0.86377 128.084 0.86377C129.812 0.86377 131.308 1.21577 132.572 1.91977C133.852 2.62377 134.828 3.63177 135.5 4.94377C136.188 6.23977 136.532 7.76777 136.532 9.52777C136.532 11.2878 136.188 12.8238 135.5 14.1358C134.812 15.4318 133.828 16.4398 132.548 17.1598C131.284 17.8638 129.796 18.2158 128.084 18.2158ZM128.084 14.8318C129.364 14.8318 130.364 14.3838 131.084 13.4878C131.804 12.5758 132.164 11.2558 132.164 9.52777C132.164 7.79977 131.796 6.48777 131.06 5.59177C130.34 4.69577 129.348 4.24777 128.084 4.24777C126.804 4.24777 125.804 4.69577 125.084 5.59177C124.364 6.47177 124.004 7.78377 124.004 9.52777C124.004 11.2718 124.364 12.5918 125.084 13.4878C125.804 14.3838 126.804 14.8318 128.084 14.8318ZM150.006 14.4958H142.518L141.006 17.9998H136.566L144.462 1.07977H147.966L155.886 17.9998H151.518L150.006 14.4958ZM148.59 11.1838L146.262 5.75977L143.934 11.1838H148.59ZM172.104 17.9998H167.256L164.328 12.5998C163.96 11.9758 163.376 11.6638 162.576 11.6638H161.232V17.9998H156.888V1.07977H164.952C167 1.07977 168.536 1.52777 169.56 2.42377C170.6 3.30377 171.12 4.58377 171.12 6.26377C171.12 7.54377 170.768 8.63177 170.064 9.52777C169.36 10.4078 168.368 10.9998 167.088 11.3038C168.064 11.5118 168.84 12.1438 169.416 13.1998L172.104 17.9998ZM164.256 8.35177C165.232 8.35177 165.928 8.19977 166.344 7.89577C166.776 7.59177 166.992 7.09577 166.992 6.40777C166.992 5.70377 166.776 5.19977 166.344 4.89577C165.928 4.57577 165.232 4.41577 164.256 4.41577H161.184V8.35177H164.256ZM173.856 1.07977H180.744C182.616 1.07977 184.224 1.41577 185.568 2.08777C186.928 2.75977 187.968 3.73577 188.688 5.01577C189.408 6.27977 189.768 7.78377 189.768 9.52777C189.768 11.2878 189.408 12.8078 188.688 14.0878C187.984 15.3518 186.952 16.3198 185.592 16.9918C184.248 17.6638 182.632 17.9998 180.744 17.9998H173.856V1.07977ZM180.432 14.4478C182.096 14.4478 183.336 14.0398 184.152 13.2238C184.968 12.4078 185.376 11.1758 185.376 9.52777C185.376 7.87977 184.968 6.65577 184.152 5.85577C183.336 5.03977 182.096 4.63177 180.432 4.63177H178.272V14.4478H180.432Z" fill="#D7D6D7"/>
</g>
<defs>
<clipPath id="clip0_607_2">
<rect width="190" height="19" fill="white"/>
</clipPath>
</defs>
</svg>
