<svg width="18" height="18" viewBox="0 0 18 18" fill="none" xmlns="http://www.w3.org/2000/svg">
<path d="M13.1909 11.608H12.3572L12.0618 11.3231C13.328 9.84582 13.9823 7.83036 13.6235 5.68827C13.1275 2.75477 10.6794 0.412194 7.72484 0.0534209C3.26128 -0.495291 -0.495291 3.26128 0.0534209 7.72484C0.412194 10.6794 2.75477 13.1275 5.68827 13.6235C7.83036 13.9823 9.84582 13.328 11.3231 12.0618L11.608 12.3572V13.1909L16.0927 17.6755C16.5253 18.1082 17.2323 18.1082 17.665 17.6755C18.0976 17.2429 18.0976 16.5359 17.665 16.1032L13.1909 11.608ZM6.85956 11.608C4.23207 11.608 2.11109 9.48705 2.11109 6.85956C2.11109 4.23207 4.23207 2.11109 6.85956 2.11109C9.48705 2.11109 11.608 4.23207 11.608 6.85956C11.608 9.48705 9.48705 11.608 6.85956 11.608Z" fill="#575757"/>
</svg>
