<svg width="468" height="249" viewBox="0 0 468 249" fill="none" xmlns="http://www.w3.org/2000/svg">
<rect width="468" height="249" rx="4" fill="#696969"/>
<path d="M0 4C0 1.79086 1.79086 0 4 0H464C466.209 0 468 1.79086 468 4V23H0V4Z" fill="#F0F0F0"/>
<path d="M17.7588 47.4648H19.2695V48.2715C19.4701 47.9388 19.7093 47.6973 19.9873 47.5469C20.2699 47.3965 20.5911 47.3213 20.9512 47.3213C21.4342 47.3213 21.8763 47.4535 22.2773 47.7178C22.6829 47.9821 23.0065 48.374 23.248 48.8936C23.4896 49.4131 23.6104 50.0374 23.6104 50.7666C23.6104 51.5094 23.4873 52.1406 23.2412 52.6602C22.9951 53.1751 22.6715 53.5625 22.2705 53.8223C21.8695 54.082 21.4342 54.2119 20.9648 54.2119C20.6185 54.2119 20.304 54.139 20.0215 53.9932C19.7435 53.8428 19.5156 53.6081 19.3379 53.2891V56.3379H17.7725L17.7588 47.4648ZM20.6094 52.9199C20.8783 52.9199 21.1198 52.8402 21.334 52.6807C21.5482 52.5212 21.7191 52.2751 21.8467 51.9424C21.9743 51.6051 22.0381 51.1859 22.0381 50.6846C22.0381 50.0602 21.931 49.5589 21.7168 49.1807C21.5072 48.8024 21.1722 48.6133 20.7119 48.6133C20.2334 48.6133 19.8848 48.8138 19.666 49.2148C19.4473 49.6113 19.3379 50.1468 19.3379 50.8213C19.3379 51.5277 19.4518 52.054 19.6797 52.4004C19.9076 52.7467 20.2174 52.9199 20.6094 52.9199ZM24.9365 52.7832H26.7275V45.7695H25.0254V44.5527H28.3135V52.7832H30.0908V54H24.9365V52.7832ZM34.3428 47.2529C35.2041 47.2529 35.8923 47.4671 36.4072 47.8955C36.9268 48.3239 37.1865 49.0326 37.1865 50.0215V54H35.6895V53.4121C35.4388 53.6491 35.1357 53.8359 34.7803 53.9727C34.4294 54.1048 34.0511 54.1709 33.6455 54.1709C32.9665 54.1709 32.4492 54.0046 32.0938 53.6719C31.7383 53.3346 31.5605 52.8789 31.5605 52.3047C31.5605 51.8398 31.7064 51.4434 31.998 51.1152C32.2943 50.7871 32.7181 50.5387 33.2695 50.3701C33.8255 50.1969 34.4886 50.1104 35.2588 50.1104H35.7373C35.6917 49.5407 35.5527 49.1351 35.3203 48.8936C35.0879 48.6475 34.7347 48.5244 34.2607 48.5244C33.96 48.5244 33.6478 48.6042 33.3242 48.7637C33.0007 48.9186 32.7021 49.1374 32.4287 49.4199L31.6289 48.3877C32.0391 48.014 32.4788 47.7314 32.9482 47.54C33.4222 47.3486 33.887 47.2529 34.3428 47.2529ZM34.1514 52.9746C34.6162 52.9746 34.9831 52.8288 35.252 52.5371C35.5208 52.2454 35.6826 51.7852 35.7373 51.1562H35.4229C34.6208 51.1562 34.0352 51.2428 33.666 51.416C33.2969 51.5892 33.1123 51.8626 33.1123 52.2363C33.1123 52.4915 33.2035 52.6784 33.3857 52.7969C33.5726 52.9154 33.8278 52.9746 34.1514 52.9746ZM44.3574 47.4648C44.3438 47.8385 44.2845 48.2191 44.1797 48.6064C44.0749 48.9893 43.9245 49.4473 43.7285 49.9805L42.1016 54.4648C41.8372 55.1895 41.5137 55.7044 41.1309 56.0098C40.7526 56.3197 40.2923 56.4746 39.75 56.4746C39.4447 56.4746 39.1689 56.4222 38.9229 56.3174C38.6813 56.2171 38.4193 56.0553 38.1367 55.832L38.6494 54.7109L38.7041 54.5947L38.8477 54.6631C38.8568 54.6813 38.8704 54.7201 38.8887 54.7793C38.9115 54.8385 38.9479 54.8932 38.998 54.9434C39.0482 54.998 39.112 55.0505 39.1895 55.1006C39.3626 55.2145 39.5358 55.2715 39.709 55.2715C39.9368 55.2715 40.151 55.1576 40.3516 54.9297C40.5521 54.7018 40.7367 54.3828 40.9053 53.9727L38.4307 47.4648H39.9619L41.6025 52.0518L42.4502 49.7139C42.5869 49.29 42.6895 48.9186 42.7578 48.5996C42.8307 48.2806 42.8672 47.9661 42.8672 47.6562C42.8672 47.5697 42.8649 47.5059 42.8604 47.4648H44.3574ZM49.1152 54.1982C48.418 54.1982 47.7845 54.0228 47.2148 53.6719C46.6452 53.3164 46.1917 52.79 45.8545 52.0928C45.5173 51.391 45.3486 50.5479 45.3486 49.5635C45.3486 48.5973 45.5127 47.7747 45.8408 47.0957C46.1689 46.4121 46.5973 45.9017 47.126 45.5645C47.6546 45.2227 48.2152 45.0518 48.8076 45.0518C49.6917 45.0518 50.3822 45.3548 50.8789 45.9609C51.3757 46.5671 51.624 47.4785 51.624 48.6953V51.7168H50.3457V51.2861C50.2227 51.4411 50.0563 51.5687 49.8467 51.6689C49.637 51.7692 49.416 51.8193 49.1836 51.8193C48.8281 51.8193 48.5046 51.735 48.2129 51.5664C47.9258 51.3978 47.6979 51.1676 47.5293 50.876C47.3652 50.5798 47.2832 50.2493 47.2832 49.8848C47.2832 49.1738 47.5247 48.627 48.0078 48.2441C48.4909 47.8568 49.2383 47.6562 50.25 47.6426C50.209 47.196 50.054 46.8382 49.7852 46.5693C49.5163 46.2959 49.1768 46.1592 48.7666 46.1592C48.402 46.1592 48.0557 46.2868 47.7275 46.542C47.404 46.7972 47.1419 47.18 46.9414 47.6904C46.7409 48.2008 46.6406 48.8206 46.6406 49.5498C46.6406 50.2744 46.7568 50.9033 46.9893 51.4365C47.2217 51.9652 47.5316 52.3685 47.9189 52.6465C48.3109 52.9245 48.737 53.0635 49.1973 53.0635C49.7624 53.0635 50.2682 52.8721 50.7148 52.4893L51.2754 53.5215C50.9564 53.7676 50.6214 53.9408 50.2705 54.041C49.9242 54.1458 49.5391 54.1982 49.1152 54.1982ZM49.3545 50.7119C49.6051 50.7119 49.7988 50.6413 49.9355 50.5C50.0723 50.3587 50.168 50.1445 50.2227 49.8574C50.2773 49.5703 50.3047 49.1829 50.3047 48.6953C49.9355 48.6999 49.6234 48.7523 49.3682 48.8525C49.1175 48.9528 48.9307 49.085 48.8076 49.249C48.6846 49.4131 48.623 49.5931 48.623 49.7891C48.623 50.0671 48.6891 50.2904 48.8213 50.459C48.958 50.6276 49.1357 50.7119 49.3545 50.7119ZM55.8486 54.2529C55.1924 54.2529 54.6045 54.0843 54.085 53.7471C53.5654 53.4098 53.1553 52.8994 52.8545 52.2158C52.5537 51.5277 52.4033 50.6846 52.4033 49.6865C52.4033 48.6064 52.5765 47.7201 52.9229 47.0273C53.2738 46.3346 53.7181 45.8333 54.2559 45.5234C54.7982 45.209 55.3724 45.0518 55.9785 45.0518C56.6393 45.0518 57.2113 45.2272 57.6943 45.5781C58.1774 45.929 58.5511 46.4167 58.8154 47.041L57.6807 47.5947L57.5713 47.6494L57.5029 47.5059C57.5166 47.4648 57.5234 47.4215 57.5234 47.376C57.5234 47.2803 57.4688 47.1504 57.3594 46.9863C57.0449 46.5397 56.5983 46.3164 56.0195 46.3164C55.3451 46.3164 54.8438 46.6081 54.5156 47.1914C54.1921 47.7747 54.0303 48.5837 54.0303 49.6182C54.0303 50.2516 54.11 50.8258 54.2695 51.3408C54.4336 51.8512 54.6615 52.2546 54.9531 52.5508C55.2493 52.847 55.582 52.9951 55.9512 52.9951C56.5436 52.9951 57.07 52.5872 57.5303 51.7715L58.7197 52.5439C58.3916 53.1045 57.986 53.5306 57.5029 53.8223C57.0199 54.1094 56.4684 54.2529 55.8486 54.2529ZM61.6455 46.6377H59.2803V45.2773H65.7061V46.6377H63.2451V54H61.6455V46.6377ZM66.9502 45.2773H72.3711V46.6104H68.5225V48.6543H71.626V49.9668H68.5225V54H66.9502V45.2773ZM76.2607 49.8164C76.083 49.8164 75.9144 49.7731 75.7549 49.6865C75.5954 49.5999 75.4678 49.4837 75.3721 49.3379C75.2764 49.1875 75.2285 49.028 75.2285 48.8594C75.2285 48.6908 75.2764 48.5335 75.3721 48.3877C75.4678 48.2419 75.5954 48.1257 75.7549 48.0391C75.9144 47.9525 76.083 47.9092 76.2607 47.9092C76.4294 47.9092 76.5957 47.9502 76.7598 48.0322C76.9238 48.1143 77.056 48.2282 77.1562 48.374C77.2611 48.5199 77.3135 48.6816 77.3135 48.8594C77.3135 49.028 77.2656 49.1875 77.1699 49.3379C77.0742 49.4837 76.9443 49.5999 76.7803 49.6865C76.6208 49.7731 76.4476 49.8164 76.2607 49.8164ZM76.2607 54.1846C76.0739 54.1846 75.9007 54.1413 75.7412 54.0547C75.5817 53.9727 75.4564 53.8587 75.3652 53.7129C75.2741 53.5671 75.2285 53.4098 75.2285 53.2412C75.2285 53.068 75.2764 52.9085 75.3721 52.7627C75.4678 52.6123 75.5954 52.4938 75.7549 52.4072C75.9144 52.3206 76.083 52.2773 76.2607 52.2773C76.4294 52.2773 76.5957 52.3206 76.7598 52.4072C76.9238 52.4893 77.056 52.6055 77.1562 52.7559C77.2611 52.9017 77.3135 53.0635 77.3135 53.2412C77.3135 53.4098 77.2656 53.5671 77.1699 53.7129C77.0788 53.8542 76.9512 53.9681 76.7871 54.0547C76.6276 54.1413 76.4521 54.1846 76.2607 54.1846ZM80.7246 54.0684L85.0654 44.6621L86.2891 45.291L81.9619 54.6562L80.7246 54.0684ZM89.9805 53.9043C89.5475 53.8314 89.1328 53.6878 88.7363 53.4736C88.3398 53.2549 87.9889 52.9769 87.6836 52.6396L88.5381 51.4365C88.6292 51.4639 88.6976 51.5072 88.7432 51.5664C88.7887 51.6257 88.8298 51.7008 88.8662 51.792C88.889 51.8604 88.9118 51.9059 88.9346 51.9287C89.1032 52.111 89.2741 52.2591 89.4473 52.373C89.625 52.487 89.8255 52.5667 90.0488 52.6123V50.1104C89.3561 49.8551 88.8298 49.5452 88.4697 49.1807C88.1143 48.8115 87.9365 48.3649 87.9365 47.8408C87.9365 47.499 88.0208 47.1823 88.1895 46.8906C88.3581 46.5944 88.5951 46.3438 88.9004 46.1387C89.2103 45.929 89.5703 45.7832 89.9805 45.7012V44.8877H91.3818C91.4365 44.9105 91.4639 44.9561 91.4639 45.0244C91.4639 45.0518 91.4525 45.1042 91.4297 45.1816C91.3978 45.3411 91.3818 45.4346 91.3818 45.4619V45.6807C91.7601 45.7581 92.1156 45.9062 92.4482 46.125C92.7809 46.3392 93.084 46.6126 93.3574 46.9453L92.5303 47.9912C92.4482 47.9912 92.3867 47.9684 92.3457 47.9229C92.3092 47.8727 92.2751 47.8021 92.2432 47.7109C92.2158 47.6289 92.1908 47.5697 92.168 47.5332C92.0677 47.4193 91.9401 47.3145 91.7852 47.2188C91.6348 47.123 91.4775 47.0547 91.3135 47.0137V49.0713C92.0791 49.3128 92.6465 49.6204 93.0156 49.9941C93.3848 50.3633 93.5693 50.8441 93.5693 51.4365C93.5693 51.8193 93.4805 52.1794 93.3027 52.5166C93.125 52.8493 92.8721 53.1341 92.5439 53.3711C92.2158 53.6081 91.8285 53.7721 91.3818 53.8633V54.6152H89.9805V53.9043ZM90.0488 47C89.8529 47.0501 89.6956 47.1413 89.5771 47.2734C89.4632 47.4056 89.4062 47.5674 89.4062 47.7588C89.4062 47.9229 89.4587 48.0801 89.5635 48.2305C89.6683 48.3763 89.8301 48.488 90.0488 48.5654V47ZM91.3135 52.5303C91.8649 52.3343 92.1406 51.9993 92.1406 51.5254C92.1406 51.0742 91.8649 50.7507 91.3135 50.5547V52.5303ZM17.7588 83.4648H19.2695V84.2715C19.4701 83.9388 19.7093 83.6973 19.9873 83.5469C20.2699 83.3965 20.5911 83.3213 20.9512 83.3213C21.4342 83.3213 21.8763 83.4535 22.2773 83.7178C22.6829 83.9821 23.0065 84.374 23.248 84.8936C23.4896 85.4131 23.6104 86.0374 23.6104 86.7666C23.6104 87.5094 23.4873 88.1406 23.2412 88.6602C22.9951 89.1751 22.6715 89.5625 22.2705 89.8223C21.8695 90.082 21.4342 90.2119 20.9648 90.2119C20.6185 90.2119 20.304 90.139 20.0215 89.9932C19.7435 89.8428 19.5156 89.6081 19.3379 89.2891V92.3379H17.7725L17.7588 83.4648ZM20.6094 88.9199C20.8783 88.9199 21.1198 88.8402 21.334 88.6807C21.5482 88.5212 21.7191 88.2751 21.8467 87.9424C21.9743 87.6051 22.0381 87.1859 22.0381 86.6846C22.0381 86.0602 21.931 85.5589 21.7168 85.1807C21.5072 84.8024 21.1722 84.6133 20.7119 84.6133C20.2334 84.6133 19.8848 84.8138 19.666 85.2148C19.4473 85.6113 19.3379 86.1468 19.3379 86.8213C19.3379 87.5277 19.4518 88.054 19.6797 88.4004C19.9076 88.7467 20.2174 88.9199 20.6094 88.9199ZM24.9365 88.7832H26.7275V81.7695H25.0254V80.5527H28.3135V88.7832H30.0908V90H24.9365V88.7832ZM34.3428 83.2529C35.2041 83.2529 35.8923 83.4671 36.4072 83.8955C36.9268 84.3239 37.1865 85.0326 37.1865 86.0215V90H35.6895V89.4121C35.4388 89.6491 35.1357 89.8359 34.7803 89.9727C34.4294 90.1048 34.0511 90.1709 33.6455 90.1709C32.9665 90.1709 32.4492 90.0046 32.0938 89.6719C31.7383 89.3346 31.5605 88.8789 31.5605 88.3047C31.5605 87.8398 31.7064 87.4434 31.998 87.1152C32.2943 86.7871 32.7181 86.5387 33.2695 86.3701C33.8255 86.1969 34.4886 86.1104 35.2588 86.1104H35.7373C35.6917 85.5407 35.5527 85.1351 35.3203 84.8936C35.0879 84.6475 34.7347 84.5244 34.2607 84.5244C33.96 84.5244 33.6478 84.6042 33.3242 84.7637C33.0007 84.9186 32.7021 85.1374 32.4287 85.4199L31.6289 84.3877C32.0391 84.014 32.4788 83.7314 32.9482 83.54C33.4222 83.3486 33.887 83.2529 34.3428 83.2529ZM34.1514 88.9746C34.6162 88.9746 34.9831 88.8288 35.252 88.5371C35.5208 88.2454 35.6826 87.7852 35.7373 87.1562H35.4229C34.6208 87.1562 34.0352 87.2428 33.666 87.416C33.2969 87.5892 33.1123 87.8626 33.1123 88.2363C33.1123 88.4915 33.2035 88.6784 33.3857 88.7969C33.5726 88.9154 33.8278 88.9746 34.1514 88.9746ZM44.3574 83.4648C44.3438 83.8385 44.2845 84.2191 44.1797 84.6064C44.0749 84.9893 43.9245 85.4473 43.7285 85.9805L42.1016 90.4648C41.8372 91.1895 41.5137 91.7044 41.1309 92.0098C40.7526 92.3197 40.2923 92.4746 39.75 92.4746C39.4447 92.4746 39.1689 92.4222 38.9229 92.3174C38.6813 92.2171 38.4193 92.0553 38.1367 91.832L38.6494 90.7109L38.7041 90.5947L38.8477 90.6631C38.8568 90.6813 38.8704 90.7201 38.8887 90.7793C38.9115 90.8385 38.9479 90.8932 38.998 90.9434C39.0482 90.998 39.112 91.0505 39.1895 91.1006C39.3626 91.2145 39.5358 91.2715 39.709 91.2715C39.9368 91.2715 40.151 91.1576 40.3516 90.9297C40.5521 90.7018 40.7367 90.3828 40.9053 89.9727L38.4307 83.4648H39.9619L41.6025 88.0518L42.4502 85.7139C42.5869 85.29 42.6895 84.9186 42.7578 84.5996C42.8307 84.2806 42.8672 83.9661 42.8672 83.6562C42.8672 83.5697 42.8649 83.5059 42.8604 83.4648H44.3574ZM49.1152 90.1982C48.418 90.1982 47.7845 90.0228 47.2148 89.6719C46.6452 89.3164 46.1917 88.79 45.8545 88.0928C45.5173 87.391 45.3486 86.5479 45.3486 85.5635C45.3486 84.5973 45.5127 83.7747 45.8408 83.0957C46.1689 82.4121 46.5973 81.9017 47.126 81.5645C47.6546 81.2227 48.2152 81.0518 48.8076 81.0518C49.6917 81.0518 50.3822 81.3548 50.8789 81.9609C51.3757 82.5671 51.624 83.4785 51.624 84.6953V87.7168H50.3457V87.2861C50.2227 87.4411 50.0563 87.5687 49.8467 87.6689C49.637 87.7692 49.416 87.8193 49.1836 87.8193C48.8281 87.8193 48.5046 87.735 48.2129 87.5664C47.9258 87.3978 47.6979 87.1676 47.5293 86.876C47.3652 86.5798 47.2832 86.2493 47.2832 85.8848C47.2832 85.1738 47.5247 84.627 48.0078 84.2441C48.4909 83.8568 49.2383 83.6562 50.25 83.6426C50.209 83.196 50.054 82.8382 49.7852 82.5693C49.5163 82.2959 49.1768 82.1592 48.7666 82.1592C48.402 82.1592 48.0557 82.2868 47.7275 82.542C47.404 82.7972 47.1419 83.18 46.9414 83.6904C46.7409 84.2008 46.6406 84.8206 46.6406 85.5498C46.6406 86.2744 46.7568 86.9033 46.9893 87.4365C47.2217 87.9652 47.5316 88.3685 47.9189 88.6465C48.3109 88.9245 48.737 89.0635 49.1973 89.0635C49.7624 89.0635 50.2682 88.8721 50.7148 88.4893L51.2754 89.5215C50.9564 89.7676 50.6214 89.9408 50.2705 90.041C49.9242 90.1458 49.5391 90.1982 49.1152 90.1982ZM49.3545 86.7119C49.6051 86.7119 49.7988 86.6413 49.9355 86.5C50.0723 86.3587 50.168 86.1445 50.2227 85.8574C50.2773 85.5703 50.3047 85.1829 50.3047 84.6953C49.9355 84.6999 49.6234 84.7523 49.3682 84.8525C49.1175 84.9528 48.9307 85.085 48.8076 85.249C48.6846 85.4131 48.623 85.5931 48.623 85.7891C48.623 86.0671 48.6891 86.2904 48.8213 86.459C48.958 86.6276 49.1357 86.7119 49.3545 86.7119ZM55.8486 90.2529C55.1924 90.2529 54.6045 90.0843 54.085 89.7471C53.5654 89.4098 53.1553 88.8994 52.8545 88.2158C52.5537 87.5277 52.4033 86.6846 52.4033 85.6865C52.4033 84.6064 52.5765 83.7201 52.9229 83.0273C53.2738 82.3346 53.7181 81.8333 54.2559 81.5234C54.7982 81.209 55.3724 81.0518 55.9785 81.0518C56.6393 81.0518 57.2113 81.2272 57.6943 81.5781C58.1774 81.929 58.5511 82.4167 58.8154 83.041L57.6807 83.5947L57.5713 83.6494L57.5029 83.5059C57.5166 83.4648 57.5234 83.4215 57.5234 83.376C57.5234 83.2803 57.4688 83.1504 57.3594 82.9863C57.0449 82.5397 56.5983 82.3164 56.0195 82.3164C55.3451 82.3164 54.8438 82.6081 54.5156 83.1914C54.1921 83.7747 54.0303 84.5837 54.0303 85.6182C54.0303 86.2516 54.11 86.8258 54.2695 87.3408C54.4336 87.8512 54.6615 88.2546 54.9531 88.5508C55.2493 88.847 55.582 88.9951 55.9512 88.9951C56.5436 88.9951 57.07 88.5872 57.5303 87.7715L58.7197 88.5439C58.3916 89.1045 57.986 89.5306 57.5029 89.8223C57.0199 90.1094 56.4684 90.2529 55.8486 90.2529ZM61.6455 82.6377H59.2803V81.2773H65.7061V82.6377H63.2451V90H61.6455V82.6377ZM66.9502 81.2773H72.3711V82.6104H68.5225V84.6543H71.626V85.9668H68.5225V90H66.9502V81.2773ZM76.2607 85.8164C76.083 85.8164 75.9144 85.7731 75.7549 85.6865C75.5954 85.5999 75.4678 85.4837 75.3721 85.3379C75.2764 85.1875 75.2285 85.028 75.2285 84.8594C75.2285 84.6908 75.2764 84.5335 75.3721 84.3877C75.4678 84.2419 75.5954 84.1257 75.7549 84.0391C75.9144 83.9525 76.083 83.9092 76.2607 83.9092C76.4294 83.9092 76.5957 83.9502 76.7598 84.0322C76.9238 84.1143 77.056 84.2282 77.1562 84.374C77.2611 84.5199 77.3135 84.6816 77.3135 84.8594C77.3135 85.028 77.2656 85.1875 77.1699 85.3379C77.0742 85.4837 76.9443 85.5999 76.7803 85.6865C76.6208 85.7731 76.4476 85.8164 76.2607 85.8164ZM76.2607 90.1846C76.0739 90.1846 75.9007 90.1413 75.7412 90.0547C75.5817 89.9727 75.4564 89.8587 75.3652 89.7129C75.2741 89.5671 75.2285 89.4098 75.2285 89.2412C75.2285 89.068 75.2764 88.9085 75.3721 88.7627C75.4678 88.6123 75.5954 88.4938 75.7549 88.4072C75.9144 88.3206 76.083 88.2773 76.2607 88.2773C76.4294 88.2773 76.5957 88.3206 76.7598 88.4072C76.9238 88.4893 77.056 88.6055 77.1562 88.7559C77.2611 88.9017 77.3135 89.0635 77.3135 89.2412C77.3135 89.4098 77.2656 89.5671 77.1699 89.7129C77.0788 89.8542 76.9512 89.9681 76.7871 90.0547C76.6276 90.1413 76.4521 90.1846 76.2607 90.1846ZM80.7246 90.0684L85.0654 80.6621L86.2891 81.291L81.9619 90.6562L80.7246 90.0684ZM89.9805 89.9043C89.5475 89.8314 89.1328 89.6878 88.7363 89.4736C88.3398 89.2549 87.9889 88.9769 87.6836 88.6396L88.5381 87.4365C88.6292 87.4639 88.6976 87.5072 88.7432 87.5664C88.7887 87.6257 88.8298 87.7008 88.8662 87.792C88.889 87.8604 88.9118 87.9059 88.9346 87.9287C89.1032 88.111 89.2741 88.2591 89.4473 88.373C89.625 88.487 89.8255 88.5667 90.0488 88.6123V86.1104C89.3561 85.8551 88.8298 85.5452 88.4697 85.1807C88.1143 84.8115 87.9365 84.3649 87.9365 83.8408C87.9365 83.499 88.0208 83.1823 88.1895 82.8906C88.3581 82.5944 88.5951 82.3438 88.9004 82.1387C89.2103 81.929 89.5703 81.7832 89.9805 81.7012V80.8877H91.3818C91.4365 80.9105 91.4639 80.9561 91.4639 81.0244C91.4639 81.0518 91.4525 81.1042 91.4297 81.1816C91.3978 81.3411 91.3818 81.4346 91.3818 81.4619V81.6807C91.7601 81.7581 92.1156 81.9062 92.4482 82.125C92.7809 82.3392 93.084 82.6126 93.3574 82.9453L92.5303 83.9912C92.4482 83.9912 92.3867 83.9684 92.3457 83.9229C92.3092 83.8727 92.2751 83.8021 92.2432 83.7109C92.2158 83.6289 92.1908 83.5697 92.168 83.5332C92.0677 83.4193 91.9401 83.3145 91.7852 83.2188C91.6348 83.123 91.4775 83.0547 91.3135 83.0137V85.0713C92.0791 85.3128 92.6465 85.6204 93.0156 85.9941C93.3848 86.3633 93.5693 86.8441 93.5693 87.4365C93.5693 87.8193 93.4805 88.1794 93.3027 88.5166C93.125 88.8493 92.8721 89.1341 92.5439 89.3711C92.2158 89.6081 91.8285 89.7721 91.3818 89.8633V90.6152H89.9805V89.9043ZM90.0488 83C89.8529 83.0501 89.6956 83.1413 89.5771 83.2734C89.4632 83.4056 89.4062 83.5674 89.4062 83.7588C89.4062 83.9229 89.4587 84.0801 89.5635 84.2305C89.6683 84.3763 89.8301 84.488 90.0488 84.5654V83ZM91.3135 88.5303C91.8649 88.3343 92.1406 87.9993 92.1406 87.5254C92.1406 87.0742 91.8649 86.7507 91.3135 86.5547V88.5303ZM17.7588 119.465H19.2695V120.271C19.4701 119.939 19.7093 119.697 19.9873 119.547C20.2699 119.396 20.5911 119.321 20.9512 119.321C21.4342 119.321 21.8763 119.453 22.2773 119.718C22.6829 119.982 23.0065 120.374 23.248 120.894C23.4896 121.413 23.6104 122.037 23.6104 122.767C23.6104 123.509 23.4873 124.141 23.2412 124.66C22.9951 125.175 22.6715 125.562 22.2705 125.822C21.8695 126.082 21.4342 126.212 20.9648 126.212C20.6185 126.212 20.304 126.139 20.0215 125.993C19.7435 125.843 19.5156 125.608 19.3379 125.289V128.338H17.7725L17.7588 119.465ZM20.6094 124.92C20.8783 124.92 21.1198 124.84 21.334 124.681C21.5482 124.521 21.7191 124.275 21.8467 123.942C21.9743 123.605 22.0381 123.186 22.0381 122.685C22.0381 122.06 21.931 121.559 21.7168 121.181C21.5072 120.802 21.1722 120.613 20.7119 120.613C20.2334 120.613 19.8848 120.814 19.666 121.215C19.4473 121.611 19.3379 122.147 19.3379 122.821C19.3379 123.528 19.4518 124.054 19.6797 124.4C19.9076 124.747 20.2174 124.92 20.6094 124.92ZM24.9365 124.783H26.7275V117.77H25.0254V116.553H28.3135V124.783H30.0908V126H24.9365V124.783ZM34.3428 119.253C35.2041 119.253 35.8923 119.467 36.4072 119.896C36.9268 120.324 37.1865 121.033 37.1865 122.021V126H35.6895V125.412C35.4388 125.649 35.1357 125.836 34.7803 125.973C34.4294 126.105 34.0511 126.171 33.6455 126.171C32.9665 126.171 32.4492 126.005 32.0938 125.672C31.7383 125.335 31.5605 124.879 31.5605 124.305C31.5605 123.84 31.7064 123.443 31.998 123.115C32.2943 122.787 32.7181 122.539 33.2695 122.37C33.8255 122.197 34.4886 122.11 35.2588 122.11H35.7373C35.6917 121.541 35.5527 121.135 35.3203 120.894C35.0879 120.647 34.7347 120.524 34.2607 120.524C33.96 120.524 33.6478 120.604 33.3242 120.764C33.0007 120.919 32.7021 121.137 32.4287 121.42L31.6289 120.388C32.0391 120.014 32.4788 119.731 32.9482 119.54C33.4222 119.349 33.887 119.253 34.3428 119.253ZM34.1514 124.975C34.6162 124.975 34.9831 124.829 35.252 124.537C35.5208 124.245 35.6826 123.785 35.7373 123.156H35.4229C34.6208 123.156 34.0352 123.243 33.666 123.416C33.2969 123.589 33.1123 123.863 33.1123 124.236C33.1123 124.492 33.2035 124.678 33.3857 124.797C33.5726 124.915 33.8278 124.975 34.1514 124.975ZM44.3574 119.465C44.3438 119.839 44.2845 120.219 44.1797 120.606C44.0749 120.989 43.9245 121.447 43.7285 121.98L42.1016 126.465C41.8372 127.189 41.5137 127.704 41.1309 128.01C40.7526 128.32 40.2923 128.475 39.75 128.475C39.4447 128.475 39.1689 128.422 38.9229 128.317C38.6813 128.217 38.4193 128.055 38.1367 127.832L38.6494 126.711L38.7041 126.595L38.8477 126.663C38.8568 126.681 38.8704 126.72 38.8887 126.779C38.9115 126.839 38.9479 126.893 38.998 126.943C39.0482 126.998 39.112 127.05 39.1895 127.101C39.3626 127.215 39.5358 127.271 39.709 127.271C39.9368 127.271 40.151 127.158 40.3516 126.93C40.5521 126.702 40.7367 126.383 40.9053 125.973L38.4307 119.465H39.9619L41.6025 124.052L42.4502 121.714C42.5869 121.29 42.6895 120.919 42.7578 120.6C42.8307 120.281 42.8672 119.966 42.8672 119.656C42.8672 119.57 42.8649 119.506 42.8604 119.465H44.3574ZM49.1152 126.198C48.418 126.198 47.7845 126.023 47.2148 125.672C46.6452 125.316 46.1917 124.79 45.8545 124.093C45.5173 123.391 45.3486 122.548 45.3486 121.563C45.3486 120.597 45.5127 119.775 45.8408 119.096C46.1689 118.412 46.5973 117.902 47.126 117.564C47.6546 117.223 48.2152 117.052 48.8076 117.052C49.6917 117.052 50.3822 117.355 50.8789 117.961C51.3757 118.567 51.624 119.479 51.624 120.695V123.717H50.3457V123.286C50.2227 123.441 50.0563 123.569 49.8467 123.669C49.637 123.769 49.416 123.819 49.1836 123.819C48.8281 123.819 48.5046 123.735 48.2129 123.566C47.9258 123.398 47.6979 123.168 47.5293 122.876C47.3652 122.58 47.2832 122.249 47.2832 121.885C47.2832 121.174 47.5247 120.627 48.0078 120.244C48.4909 119.857 49.2383 119.656 50.25 119.643C50.209 119.196 50.054 118.838 49.7852 118.569C49.5163 118.296 49.1768 118.159 48.7666 118.159C48.402 118.159 48.0557 118.287 47.7275 118.542C47.404 118.797 47.1419 119.18 46.9414 119.69C46.7409 120.201 46.6406 120.821 46.6406 121.55C46.6406 122.274 46.7568 122.903 46.9893 123.437C47.2217 123.965 47.5316 124.368 47.9189 124.646C48.3109 124.924 48.737 125.063 49.1973 125.063C49.7624 125.063 50.2682 124.872 50.7148 124.489L51.2754 125.521C50.9564 125.768 50.6214 125.941 50.2705 126.041C49.9242 126.146 49.5391 126.198 49.1152 126.198ZM49.3545 122.712C49.6051 122.712 49.7988 122.641 49.9355 122.5C50.0723 122.359 50.168 122.145 50.2227 121.857C50.2773 121.57 50.3047 121.183 50.3047 120.695C49.9355 120.7 49.6234 120.752 49.3682 120.853C49.1175 120.953 48.9307 121.085 48.8076 121.249C48.6846 121.413 48.623 121.593 48.623 121.789C48.623 122.067 48.6891 122.29 48.8213 122.459C48.958 122.628 49.1357 122.712 49.3545 122.712ZM55.8486 126.253C55.1924 126.253 54.6045 126.084 54.085 125.747C53.5654 125.41 53.1553 124.899 52.8545 124.216C52.5537 123.528 52.4033 122.685 52.4033 121.687C52.4033 120.606 52.5765 119.72 52.9229 119.027C53.2738 118.335 53.7181 117.833 54.2559 117.523C54.7982 117.209 55.3724 117.052 55.9785 117.052C56.6393 117.052 57.2113 117.227 57.6943 117.578C58.1774 117.929 58.5511 118.417 58.8154 119.041L57.6807 119.595L57.5713 119.649L57.5029 119.506C57.5166 119.465 57.5234 119.422 57.5234 119.376C57.5234 119.28 57.4688 119.15 57.3594 118.986C57.0449 118.54 56.5983 118.316 56.0195 118.316C55.3451 118.316 54.8438 118.608 54.5156 119.191C54.1921 119.775 54.0303 120.584 54.0303 121.618C54.0303 122.252 54.11 122.826 54.2695 123.341C54.4336 123.851 54.6615 124.255 54.9531 124.551C55.2493 124.847 55.582 124.995 55.9512 124.995C56.5436 124.995 57.07 124.587 57.5303 123.771L58.7197 124.544C58.3916 125.104 57.986 125.531 57.5029 125.822C57.0199 126.109 56.4684 126.253 55.8486 126.253ZM61.6455 118.638H59.2803V117.277H65.7061V118.638H63.2451V126H61.6455V118.638ZM66.9502 117.277H72.3711V118.61H68.5225V120.654H71.626V121.967H68.5225V126H66.9502V117.277ZM76.2607 121.816C76.083 121.816 75.9144 121.773 75.7549 121.687C75.5954 121.6 75.4678 121.484 75.3721 121.338C75.2764 121.188 75.2285 121.028 75.2285 120.859C75.2285 120.691 75.2764 120.534 75.3721 120.388C75.4678 120.242 75.5954 120.126 75.7549 120.039C75.9144 119.952 76.083 119.909 76.2607 119.909C76.4294 119.909 76.5957 119.95 76.7598 120.032C76.9238 120.114 77.056 120.228 77.1562 120.374C77.2611 120.52 77.3135 120.682 77.3135 120.859C77.3135 121.028 77.2656 121.188 77.1699 121.338C77.0742 121.484 76.9443 121.6 76.7803 121.687C76.6208 121.773 76.4476 121.816 76.2607 121.816ZM76.2607 126.185C76.0739 126.185 75.9007 126.141 75.7412 126.055C75.5817 125.973 75.4564 125.859 75.3652 125.713C75.2741 125.567 75.2285 125.41 75.2285 125.241C75.2285 125.068 75.2764 124.909 75.3721 124.763C75.4678 124.612 75.5954 124.494 75.7549 124.407C75.9144 124.321 76.083 124.277 76.2607 124.277C76.4294 124.277 76.5957 124.321 76.7598 124.407C76.9238 124.489 77.056 124.605 77.1562 124.756C77.2611 124.902 77.3135 125.063 77.3135 125.241C77.3135 125.41 77.2656 125.567 77.1699 125.713C77.0788 125.854 76.9512 125.968 76.7871 126.055C76.6276 126.141 76.4521 126.185 76.2607 126.185ZM80.7246 126.068L85.0654 116.662L86.2891 117.291L81.9619 126.656L80.7246 126.068ZM89.9805 125.904C89.5475 125.831 89.1328 125.688 88.7363 125.474C88.3398 125.255 87.9889 124.977 87.6836 124.64L88.5381 123.437C88.6292 123.464 88.6976 123.507 88.7432 123.566C88.7887 123.626 88.8298 123.701 88.8662 123.792C88.889 123.86 88.9118 123.906 88.9346 123.929C89.1032 124.111 89.2741 124.259 89.4473 124.373C89.625 124.487 89.8255 124.567 90.0488 124.612V122.11C89.3561 121.855 88.8298 121.545 88.4697 121.181C88.1143 120.812 87.9365 120.365 87.9365 119.841C87.9365 119.499 88.0208 119.182 88.1895 118.891C88.3581 118.594 88.5951 118.344 88.9004 118.139C89.2103 117.929 89.5703 117.783 89.9805 117.701V116.888H91.3818C91.4365 116.91 91.4639 116.956 91.4639 117.024C91.4639 117.052 91.4525 117.104 91.4297 117.182C91.3978 117.341 91.3818 117.435 91.3818 117.462V117.681C91.7601 117.758 92.1156 117.906 92.4482 118.125C92.7809 118.339 93.084 118.613 93.3574 118.945L92.5303 119.991C92.4482 119.991 92.3867 119.968 92.3457 119.923C92.3092 119.873 92.2751 119.802 92.2432 119.711C92.2158 119.629 92.1908 119.57 92.168 119.533C92.0677 119.419 91.9401 119.314 91.7852 119.219C91.6348 119.123 91.4775 119.055 91.3135 119.014V121.071C92.0791 121.313 92.6465 121.62 93.0156 121.994C93.3848 122.363 93.5693 122.844 93.5693 123.437C93.5693 123.819 93.4805 124.179 93.3027 124.517C93.125 124.849 92.8721 125.134 92.5439 125.371C92.2158 125.608 91.8285 125.772 91.3818 125.863V126.615H89.9805V125.904ZM90.0488 119C89.8529 119.05 89.6956 119.141 89.5771 119.273C89.4632 119.406 89.4062 119.567 89.4062 119.759C89.4062 119.923 89.4587 120.08 89.5635 120.23C89.6683 120.376 89.8301 120.488 90.0488 120.565V119ZM91.3135 124.53C91.8649 124.334 92.1406 123.999 92.1406 123.525C92.1406 123.074 91.8649 122.751 91.3135 122.555V124.53ZM17.7588 155.465H19.2695V156.271C19.4701 155.939 19.7093 155.697 19.9873 155.547C20.2699 155.396 20.5911 155.321 20.9512 155.321C21.4342 155.321 21.8763 155.453 22.2773 155.718C22.6829 155.982 23.0065 156.374 23.248 156.894C23.4896 157.413 23.6104 158.037 23.6104 158.767C23.6104 159.509 23.4873 160.141 23.2412 160.66C22.9951 161.175 22.6715 161.562 22.2705 161.822C21.8695 162.082 21.4342 162.212 20.9648 162.212C20.6185 162.212 20.304 162.139 20.0215 161.993C19.7435 161.843 19.5156 161.608 19.3379 161.289V164.338H17.7725L17.7588 155.465ZM20.6094 160.92C20.8783 160.92 21.1198 160.84 21.334 160.681C21.5482 160.521 21.7191 160.275 21.8467 159.942C21.9743 159.605 22.0381 159.186 22.0381 158.685C22.0381 158.06 21.931 157.559 21.7168 157.181C21.5072 156.802 21.1722 156.613 20.7119 156.613C20.2334 156.613 19.8848 156.814 19.666 157.215C19.4473 157.611 19.3379 158.147 19.3379 158.821C19.3379 159.528 19.4518 160.054 19.6797 160.4C19.9076 160.747 20.2174 160.92 20.6094 160.92ZM24.9365 160.783H26.7275V153.77H25.0254V152.553H28.3135V160.783H30.0908V162H24.9365V160.783ZM34.3428 155.253C35.2041 155.253 35.8923 155.467 36.4072 155.896C36.9268 156.324 37.1865 157.033 37.1865 158.021V162H35.6895V161.412C35.4388 161.649 35.1357 161.836 34.7803 161.973C34.4294 162.105 34.0511 162.171 33.6455 162.171C32.9665 162.171 32.4492 162.005 32.0938 161.672C31.7383 161.335 31.5605 160.879 31.5605 160.305C31.5605 159.84 31.7064 159.443 31.998 159.115C32.2943 158.787 32.7181 158.539 33.2695 158.37C33.8255 158.197 34.4886 158.11 35.2588 158.11H35.7373C35.6917 157.541 35.5527 157.135 35.3203 156.894C35.0879 156.647 34.7347 156.524 34.2607 156.524C33.96 156.524 33.6478 156.604 33.3242 156.764C33.0007 156.919 32.7021 157.137 32.4287 157.42L31.6289 156.388C32.0391 156.014 32.4788 155.731 32.9482 155.54C33.4222 155.349 33.887 155.253 34.3428 155.253ZM34.1514 160.975C34.6162 160.975 34.9831 160.829 35.252 160.537C35.5208 160.245 35.6826 159.785 35.7373 159.156H35.4229C34.6208 159.156 34.0352 159.243 33.666 159.416C33.2969 159.589 33.1123 159.863 33.1123 160.236C33.1123 160.492 33.2035 160.678 33.3857 160.797C33.5726 160.915 33.8278 160.975 34.1514 160.975ZM44.3574 155.465C44.3438 155.839 44.2845 156.219 44.1797 156.606C44.0749 156.989 43.9245 157.447 43.7285 157.98L42.1016 162.465C41.8372 163.189 41.5137 163.704 41.1309 164.01C40.7526 164.32 40.2923 164.475 39.75 164.475C39.4447 164.475 39.1689 164.422 38.9229 164.317C38.6813 164.217 38.4193 164.055 38.1367 163.832L38.6494 162.711L38.7041 162.595L38.8477 162.663C38.8568 162.681 38.8704 162.72 38.8887 162.779C38.9115 162.839 38.9479 162.893 38.998 162.943C39.0482 162.998 39.112 163.05 39.1895 163.101C39.3626 163.215 39.5358 163.271 39.709 163.271C39.9368 163.271 40.151 163.158 40.3516 162.93C40.5521 162.702 40.7367 162.383 40.9053 161.973L38.4307 155.465H39.9619L41.6025 160.052L42.4502 157.714C42.5869 157.29 42.6895 156.919 42.7578 156.6C42.8307 156.281 42.8672 155.966 42.8672 155.656C42.8672 155.57 42.8649 155.506 42.8604 155.465H44.3574ZM49.1152 162.198C48.418 162.198 47.7845 162.023 47.2148 161.672C46.6452 161.316 46.1917 160.79 45.8545 160.093C45.5173 159.391 45.3486 158.548 45.3486 157.563C45.3486 156.597 45.5127 155.775 45.8408 155.096C46.1689 154.412 46.5973 153.902 47.126 153.564C47.6546 153.223 48.2152 153.052 48.8076 153.052C49.6917 153.052 50.3822 153.355 50.8789 153.961C51.3757 154.567 51.624 155.479 51.624 156.695V159.717H50.3457V159.286C50.2227 159.441 50.0563 159.569 49.8467 159.669C49.637 159.769 49.416 159.819 49.1836 159.819C48.8281 159.819 48.5046 159.735 48.2129 159.566C47.9258 159.398 47.6979 159.168 47.5293 158.876C47.3652 158.58 47.2832 158.249 47.2832 157.885C47.2832 157.174 47.5247 156.627 48.0078 156.244C48.4909 155.857 49.2383 155.656 50.25 155.643C50.209 155.196 50.054 154.838 49.7852 154.569C49.5163 154.296 49.1768 154.159 48.7666 154.159C48.402 154.159 48.0557 154.287 47.7275 154.542C47.404 154.797 47.1419 155.18 46.9414 155.69C46.7409 156.201 46.6406 156.821 46.6406 157.55C46.6406 158.274 46.7568 158.903 46.9893 159.437C47.2217 159.965 47.5316 160.368 47.9189 160.646C48.3109 160.924 48.737 161.063 49.1973 161.063C49.7624 161.063 50.2682 160.872 50.7148 160.489L51.2754 161.521C50.9564 161.768 50.6214 161.941 50.2705 162.041C49.9242 162.146 49.5391 162.198 49.1152 162.198ZM49.3545 158.712C49.6051 158.712 49.7988 158.641 49.9355 158.5C50.0723 158.359 50.168 158.145 50.2227 157.857C50.2773 157.57 50.3047 157.183 50.3047 156.695C49.9355 156.7 49.6234 156.752 49.3682 156.853C49.1175 156.953 48.9307 157.085 48.8076 157.249C48.6846 157.413 48.623 157.593 48.623 157.789C48.623 158.067 48.6891 158.29 48.8213 158.459C48.958 158.628 49.1357 158.712 49.3545 158.712ZM55.8486 162.253C55.1924 162.253 54.6045 162.084 54.085 161.747C53.5654 161.41 53.1553 160.899 52.8545 160.216C52.5537 159.528 52.4033 158.685 52.4033 157.687C52.4033 156.606 52.5765 155.72 52.9229 155.027C53.2738 154.335 53.7181 153.833 54.2559 153.523C54.7982 153.209 55.3724 153.052 55.9785 153.052C56.6393 153.052 57.2113 153.227 57.6943 153.578C58.1774 153.929 58.5511 154.417 58.8154 155.041L57.6807 155.595L57.5713 155.649L57.5029 155.506C57.5166 155.465 57.5234 155.422 57.5234 155.376C57.5234 155.28 57.4688 155.15 57.3594 154.986C57.0449 154.54 56.5983 154.316 56.0195 154.316C55.3451 154.316 54.8438 154.608 54.5156 155.191C54.1921 155.775 54.0303 156.584 54.0303 157.618C54.0303 158.252 54.11 158.826 54.2695 159.341C54.4336 159.851 54.6615 160.255 54.9531 160.551C55.2493 160.847 55.582 160.995 55.9512 160.995C56.5436 160.995 57.07 160.587 57.5303 159.771L58.7197 160.544C58.3916 161.104 57.986 161.531 57.5029 161.822C57.0199 162.109 56.4684 162.253 55.8486 162.253ZM61.6455 154.638H59.2803V153.277H65.7061V154.638H63.2451V162H61.6455V154.638ZM66.9502 153.277H72.3711V154.61H68.5225V156.654H71.626V157.967H68.5225V162H66.9502V153.277ZM76.2607 157.816C76.083 157.816 75.9144 157.773 75.7549 157.687C75.5954 157.6 75.4678 157.484 75.3721 157.338C75.2764 157.188 75.2285 157.028 75.2285 156.859C75.2285 156.691 75.2764 156.534 75.3721 156.388C75.4678 156.242 75.5954 156.126 75.7549 156.039C75.9144 155.952 76.083 155.909 76.2607 155.909C76.4294 155.909 76.5957 155.95 76.7598 156.032C76.9238 156.114 77.056 156.228 77.1562 156.374C77.2611 156.52 77.3135 156.682 77.3135 156.859C77.3135 157.028 77.2656 157.188 77.1699 157.338C77.0742 157.484 76.9443 157.6 76.7803 157.687C76.6208 157.773 76.4476 157.816 76.2607 157.816ZM76.2607 162.185C76.0739 162.185 75.9007 162.141 75.7412 162.055C75.5817 161.973 75.4564 161.859 75.3652 161.713C75.2741 161.567 75.2285 161.41 75.2285 161.241C75.2285 161.068 75.2764 160.909 75.3721 160.763C75.4678 160.612 75.5954 160.494 75.7549 160.407C75.9144 160.321 76.083 160.277 76.2607 160.277C76.4294 160.277 76.5957 160.321 76.7598 160.407C76.9238 160.489 77.056 160.605 77.1562 160.756C77.2611 160.902 77.3135 161.063 77.3135 161.241C77.3135 161.41 77.2656 161.567 77.1699 161.713C77.0788 161.854 76.9512 161.968 76.7871 162.055C76.6276 162.141 76.4521 162.185 76.2607 162.185ZM80.7246 162.068L85.0654 152.662L86.2891 153.291L81.9619 162.656L80.7246 162.068ZM89.9805 161.904C89.5475 161.831 89.1328 161.688 88.7363 161.474C88.3398 161.255 87.9889 160.977 87.6836 160.64L88.5381 159.437C88.6292 159.464 88.6976 159.507 88.7432 159.566C88.7887 159.626 88.8298 159.701 88.8662 159.792C88.889 159.86 88.9118 159.906 88.9346 159.929C89.1032 160.111 89.2741 160.259 89.4473 160.373C89.625 160.487 89.8255 160.567 90.0488 160.612V158.11C89.3561 157.855 88.8298 157.545 88.4697 157.181C88.1143 156.812 87.9365 156.365 87.9365 155.841C87.9365 155.499 88.0208 155.182 88.1895 154.891C88.3581 154.594 88.5951 154.344 88.9004 154.139C89.2103 153.929 89.5703 153.783 89.9805 153.701V152.888H91.3818C91.4365 152.91 91.4639 152.956 91.4639 153.024C91.4639 153.052 91.4525 153.104 91.4297 153.182C91.3978 153.341 91.3818 153.435 91.3818 153.462V153.681C91.7601 153.758 92.1156 153.906 92.4482 154.125C92.7809 154.339 93.084 154.613 93.3574 154.945L92.5303 155.991C92.4482 155.991 92.3867 155.968 92.3457 155.923C92.3092 155.873 92.2751 155.802 92.2432 155.711C92.2158 155.629 92.1908 155.57 92.168 155.533C92.0677 155.419 91.9401 155.314 91.7852 155.219C91.6348 155.123 91.4775 155.055 91.3135 155.014V157.071C92.0791 157.313 92.6465 157.62 93.0156 157.994C93.3848 158.363 93.5693 158.844 93.5693 159.437C93.5693 159.819 93.4805 160.179 93.3027 160.517C93.125 160.849 92.8721 161.134 92.5439 161.371C92.2158 161.608 91.8285 161.772 91.3818 161.863V162.615H89.9805V161.904ZM90.0488 155C89.8529 155.05 89.6956 155.141 89.5771 155.273C89.4632 155.406 89.4062 155.567 89.4062 155.759C89.4062 155.923 89.4587 156.08 89.5635 156.23C89.6683 156.376 89.8301 156.488 90.0488 156.565V155ZM91.3135 160.53C91.8649 160.334 92.1406 159.999 92.1406 159.525C92.1406 159.074 91.8649 158.751 91.3135 158.555V160.53Z" fill="#86FF29"/>
<path d="M101.224 47.602H102.106L103.142 52.74L104.234 48.204H104.85L106.208 52.726C106.469 50.9807 106.633 49.8373 106.698 49.296C106.763 48.7453 106.796 48.2507 106.796 47.812V47.602H107.734C107.454 49.7673 107.099 51.9047 106.67 54.014H105.718L104.542 49.87L103.422 54.014H102.512L101.224 47.602ZM109.022 44.69H110.128V44.788C110.072 44.844 110.035 44.9047 110.016 44.97C110.007 45.0353 110.002 45.1473 110.002 45.306V48.736C110.254 48.344 110.567 48.0313 110.94 47.798C111.323 47.5647 111.71 47.448 112.102 47.448C112.709 47.448 113.185 47.6627 113.53 48.092C113.875 48.5213 114.048 49.198 114.048 50.122V54H113.068V50.15C113.068 49.5153 112.961 49.0533 112.746 48.764C112.531 48.4747 112.247 48.33 111.892 48.33C111.593 48.33 111.299 48.414 111.01 48.582C110.721 48.7407 110.478 48.974 110.282 49.282C110.095 49.5807 110.002 49.926 110.002 50.318V54H109.022V44.69ZM118.808 54.14C117.856 54.14 117.095 53.8507 116.526 53.272C115.966 52.6933 115.686 51.8767 115.686 50.822C115.686 50.122 115.817 49.52 116.078 49.016C116.339 48.5027 116.689 48.1153 117.128 47.854C117.576 47.5833 118.075 47.448 118.626 47.448C119.401 47.448 120.026 47.7047 120.502 48.218C120.987 48.7313 121.23 49.4873 121.23 50.486C121.23 50.5887 121.221 50.7427 121.202 50.948H116.652C116.689 51.732 116.909 52.3247 117.31 52.726C117.711 53.1273 118.22 53.328 118.836 53.328C119.508 53.328 120.059 53.09 120.488 52.614L121.048 53.16C120.507 53.8133 119.76 54.14 118.808 54.14ZM120.208 50.164C120.208 49.5667 120.054 49.0953 119.746 48.75C119.447 48.3953 119.051 48.218 118.556 48.218C118.089 48.218 117.683 48.3813 117.338 48.708C116.993 49.0347 116.778 49.52 116.694 50.164H120.208ZM123.008 47.602H123.988V48.736C124.24 48.344 124.557 48.0313 124.94 47.798C125.323 47.5647 125.729 47.448 126.158 47.448C126.727 47.448 127.18 47.6673 127.516 48.106C127.861 48.5353 128.034 49.2073 128.034 50.122V54H127.054V50.15C127.054 49.5153 126.947 49.0533 126.732 48.764C126.517 48.4747 126.233 48.33 125.878 48.33C125.589 48.33 125.295 48.414 124.996 48.582C124.707 48.75 124.464 48.988 124.268 49.296C124.081 49.5947 123.988 49.9353 123.988 50.318V54H123.008V47.602ZM104.276 90.14C103.819 90.14 103.389 90.014 102.988 89.762C102.587 89.5007 102.26 89.1133 102.008 88.6C101.756 88.0867 101.63 87.466 101.63 86.738C101.63 86.0007 101.761 85.3847 102.022 84.89C102.283 84.3953 102.619 84.0313 103.03 83.798C103.441 83.5553 103.875 83.434 104.332 83.434C104.761 83.434 105.135 83.532 105.452 83.728C105.779 83.924 106.026 84.1947 106.194 84.54V80.69H107.258V80.788C107.202 80.844 107.165 80.9047 107.146 80.97C107.137 81.0353 107.132 81.1473 107.132 81.306L107.146 89.006C107.146 89.23 107.151 89.4167 107.16 89.566C107.179 89.706 107.221 89.8507 107.286 90H106.292C106.227 89.8507 106.185 89.706 106.166 89.566C106.157 89.4167 106.152 89.23 106.152 89.006C105.947 89.3607 105.681 89.6407 105.354 89.846C105.037 90.042 104.677 90.14 104.276 90.14ZM104.43 89.258C105.009 89.258 105.433 89.0293 105.704 88.572C105.975 88.1147 106.11 87.5127 106.11 86.766C106.11 86.01 105.961 85.4033 105.662 84.946C105.373 84.4887 104.934 84.26 104.346 84.26C103.786 84.26 103.357 84.47 103.058 84.89C102.759 85.3007 102.61 85.8653 102.61 86.584C102.61 87.4053 102.764 88.0587 103.072 88.544C103.389 89.02 103.842 89.258 104.43 89.258ZM111.094 90.154C110.422 90.154 109.885 89.9067 109.484 89.412C109.083 88.908 108.887 88.1613 108.896 87.172L108.91 83.602H109.89V87.172C109.89 87.9373 110.021 88.4927 110.282 88.838C110.553 89.174 110.907 89.342 111.346 89.342C111.831 89.342 112.237 89.1553 112.564 88.782C112.9 88.3993 113.068 87.8487 113.068 87.13V83.602H114.048V89.006C114.048 89.23 114.053 89.4167 114.062 89.566C114.081 89.706 114.123 89.8507 114.188 90H113.222C113.157 89.86 113.115 89.7153 113.096 89.566C113.087 89.4167 113.082 89.2347 113.082 89.02C112.877 89.3747 112.597 89.6547 112.242 89.86C111.897 90.056 111.514 90.154 111.094 90.154ZM119.718 83.448C120.399 83.448 120.964 83.6813 121.412 84.148L120.964 84.932L120.908 85.058L120.81 85.002C120.782 84.8993 120.749 84.82 120.712 84.764C120.675 84.6987 120.595 84.6287 120.474 84.554C120.231 84.3953 119.956 84.316 119.648 84.316C119.312 84.316 118.995 84.4 118.696 84.568C118.397 84.736 118.155 84.9927 117.968 85.338C117.781 85.674 117.688 86.0987 117.688 86.612V90.014H116.666V83.602H117.716L117.688 84.778C117.865 84.358 118.136 84.0313 118.5 83.798C118.873 83.5647 119.279 83.448 119.718 83.448ZM125.416 83.462C126.331 83.462 127.026 83.7 127.502 84.176C127.987 84.652 128.23 85.4593 128.23 86.598V90H127.138V89.02C126.746 89.776 126.018 90.154 124.954 90.154C124.245 90.154 123.689 89.9953 123.288 89.678C122.887 89.3513 122.686 88.922 122.686 88.39C122.686 87.942 122.831 87.55 123.12 87.214C123.409 86.878 123.797 86.6213 124.282 86.444C124.777 86.2573 125.318 86.164 125.906 86.164C126.438 86.164 126.919 86.192 127.348 86.248C127.292 85.5293 127.101 85.0253 126.774 84.736C126.457 84.4373 125.981 84.288 125.346 84.288C125.029 84.288 124.721 84.3487 124.422 84.47C124.133 84.5913 123.867 84.7687 123.624 85.002L123.134 84.358C123.731 83.7607 124.492 83.462 125.416 83.462ZM125.052 89.384C125.743 89.384 126.289 89.1833 126.69 88.782C127.091 88.3713 127.311 87.7833 127.348 87.018C126.928 86.9527 126.475 86.92 125.99 86.92C125.281 86.92 124.721 87.0367 124.31 87.27C123.899 87.5033 123.694 87.858 123.694 88.334C123.694 89.034 124.147 89.384 125.052 89.384ZM135.216 89.412C134.6 89.8693 133.923 90.098 133.186 90.098C132.477 90.098 131.973 89.8833 131.674 89.454C131.385 89.0247 131.24 88.3247 131.24 87.354C131.24 87.1953 131.249 86.92 131.268 86.528L131.394 84.428H129.98V83.602H131.45L131.548 81.894L132.668 81.712L132.808 81.698L132.822 81.782C132.757 81.8753 132.705 81.9547 132.668 82.02C132.64 82.0853 132.621 82.188 132.612 82.328L132.458 83.602H134.586V84.428H132.402L132.276 86.598C132.257 86.9713 132.248 87.2187 132.248 87.34C132.248 88.0867 132.332 88.5953 132.5 88.866C132.677 89.1273 132.957 89.258 133.34 89.258C133.62 89.258 133.877 89.2067 134.11 89.104C134.343 89.0013 134.609 88.838 134.908 88.614L135.216 89.412ZM137.4 89.188H139.038V84.414H137.484V83.602H140.046V89.188H141.544V90H137.4V89.188ZM139.486 82.258C139.29 82.258 139.122 82.188 138.982 82.048C138.842 81.908 138.772 81.74 138.772 81.544C138.772 81.3387 138.837 81.166 138.968 81.026C139.108 80.886 139.281 80.816 139.486 80.816C139.682 80.816 139.85 80.8907 139.99 81.04C140.139 81.18 140.214 81.348 140.214 81.544C140.214 81.74 140.139 81.908 139.99 82.048C139.85 82.188 139.682 82.258 139.486 82.258ZM146.5 90.112C145.931 90.112 145.422 89.972 144.974 89.692C144.526 89.412 144.176 89.02 143.924 88.516C143.672 88.012 143.546 87.438 143.546 86.794C143.546 86.15 143.672 85.576 143.924 85.072C144.176 84.568 144.526 84.176 144.974 83.896C145.422 83.6067 145.931 83.462 146.5 83.462C147.069 83.462 147.578 83.6067 148.026 83.896C148.474 84.176 148.824 84.568 149.076 85.072C149.328 85.576 149.454 86.15 149.454 86.794C149.454 87.438 149.328 88.012 149.076 88.516C148.824 89.02 148.474 89.412 148.026 89.692C147.578 89.972 147.069 90.112 146.5 90.112ZM146.5 89.272C146.864 89.272 147.186 89.1647 147.466 88.95C147.755 88.7353 147.979 88.4413 148.138 88.068C148.306 87.6853 148.39 87.256 148.39 86.78C148.39 86.052 148.213 85.4593 147.858 85.002C147.503 84.5353 147.051 84.302 146.5 84.302C145.949 84.302 145.497 84.5353 145.142 85.002C144.787 85.4593 144.61 86.052 144.61 86.78C144.61 87.256 144.689 87.6853 144.848 88.068C145.016 88.4413 145.24 88.7353 145.52 88.95C145.809 89.1647 146.136 89.272 146.5 89.272ZM151.008 83.602H151.988V84.736C152.24 84.344 152.557 84.0313 152.94 83.798C153.323 83.5647 153.729 83.448 154.158 83.448C154.727 83.448 155.18 83.6673 155.516 84.106C155.861 84.5353 156.034 85.2073 156.034 86.122V90H155.054V86.15C155.054 85.5153 154.947 85.0533 154.732 84.764C154.517 84.4747 154.233 84.33 153.878 84.33C153.589 84.33 153.295 84.414 152.996 84.582C152.707 84.75 152.464 84.988 152.268 85.296C152.081 85.5947 151.988 85.9353 151.988 86.318V90H151.008V83.602ZM102.106 161.188H103.996V153.502H102.19V152.69H105.018V161.188H106.894V162H102.106V161.188ZM111.5 162.112C110.931 162.112 110.422 161.972 109.974 161.692C109.526 161.412 109.176 161.02 108.924 160.516C108.672 160.012 108.546 159.438 108.546 158.794C108.546 158.15 108.672 157.576 108.924 157.072C109.176 156.568 109.526 156.176 109.974 155.896C110.422 155.607 110.931 155.462 111.5 155.462C112.069 155.462 112.578 155.607 113.026 155.896C113.474 156.176 113.824 156.568 114.076 157.072C114.328 157.576 114.454 158.15 114.454 158.794C114.454 159.438 114.328 160.012 114.076 160.516C113.824 161.02 113.474 161.412 113.026 161.692C112.578 161.972 112.069 162.112 111.5 162.112ZM111.5 161.272C111.864 161.272 112.186 161.165 112.466 160.95C112.755 160.735 112.979 160.441 113.138 160.068C113.306 159.685 113.39 159.256 113.39 158.78C113.39 158.052 113.213 157.459 112.858 157.002C112.503 156.535 112.051 156.302 111.5 156.302C110.949 156.302 110.497 156.535 110.142 157.002C109.787 157.459 109.61 158.052 109.61 158.78C109.61 159.256 109.689 159.685 109.848 160.068C110.016 160.441 110.24 160.735 110.52 160.95C110.809 161.165 111.136 161.272 111.5 161.272ZM121.65 156.26C121.566 156.251 121.445 156.246 121.286 156.246C120.838 156.246 120.465 156.344 120.166 156.54C120.325 156.857 120.404 157.207 120.404 157.59C120.404 158.01 120.311 158.393 120.124 158.738C119.947 159.074 119.685 159.34 119.34 159.536C119.004 159.732 118.612 159.83 118.164 159.83C117.809 159.83 117.478 159.765 117.17 159.634C117.002 159.839 116.918 160.035 116.918 160.222C116.918 160.446 117.058 160.609 117.338 160.712C117.627 160.805 118.141 160.852 118.878 160.852C119.783 160.852 120.399 160.992 120.726 161.272C121.062 161.543 121.23 161.944 121.23 162.476C121.23 163.027 121.006 163.484 120.558 163.848C120.11 164.221 119.41 164.408 118.458 164.408C117.543 164.408 116.825 164.268 116.302 163.988C115.789 163.708 115.532 163.297 115.532 162.756C115.532 162.42 115.625 162.131 115.812 161.888C115.999 161.645 116.237 161.454 116.526 161.314C116.218 161.109 116.064 160.824 116.064 160.46C116.064 160.087 116.255 159.695 116.638 159.284C116.405 159.079 116.227 158.831 116.106 158.542C115.985 158.253 115.924 157.935 115.924 157.59C115.924 157.179 116.013 156.806 116.19 156.47C116.377 156.125 116.638 155.854 116.974 155.658C117.319 155.462 117.716 155.364 118.164 155.364C118.845 155.364 119.391 155.583 119.802 156.022C120.026 155.817 120.255 155.667 120.488 155.574C120.731 155.471 120.997 155.42 121.286 155.42L121.524 155.434L121.65 156.26ZM118.164 158.99C118.565 158.99 118.897 158.855 119.158 158.584C119.429 158.313 119.564 157.982 119.564 157.59C119.564 157.198 119.429 156.867 119.158 156.596C118.897 156.325 118.565 156.19 118.164 156.19C117.763 156.19 117.427 156.325 117.156 156.596C116.895 156.867 116.764 157.198 116.764 157.59C116.764 157.982 116.895 158.313 117.156 158.584C117.427 158.855 117.763 158.99 118.164 158.99ZM120.306 162.63C120.306 162.406 120.264 162.229 120.18 162.098C120.105 161.977 119.951 161.888 119.718 161.832C119.485 161.767 119.135 161.734 118.668 161.734C117.996 161.734 117.459 161.673 117.058 161.552C116.834 161.701 116.675 161.855 116.582 162.014C116.498 162.173 116.456 162.383 116.456 162.644C116.456 162.961 116.633 163.209 116.988 163.386C117.343 163.563 117.837 163.652 118.472 163.652C119.088 163.652 119.545 163.559 119.844 163.372C120.152 163.195 120.306 162.947 120.306 162.63ZM123.4 161.188H125.038V156.414H123.484V155.602H126.046V161.188H127.544V162H123.4V161.188ZM125.486 154.258C125.29 154.258 125.122 154.188 124.982 154.048C124.842 153.908 124.772 153.74 124.772 153.544C124.772 153.339 124.837 153.166 124.968 153.026C125.108 152.886 125.281 152.816 125.486 152.816C125.682 152.816 125.85 152.891 125.99 153.04C126.139 153.18 126.214 153.348 126.214 153.544C126.214 153.74 126.139 153.908 125.99 154.048C125.85 154.188 125.682 154.258 125.486 154.258ZM130.008 155.602H130.988V156.736C131.24 156.344 131.557 156.031 131.94 155.798C132.323 155.565 132.729 155.448 133.158 155.448C133.727 155.448 134.18 155.667 134.516 156.106C134.861 156.535 135.034 157.207 135.034 158.122V162H134.054V158.15C134.054 157.515 133.947 157.053 133.732 156.764C133.517 156.475 133.233 156.33 132.878 156.33C132.589 156.33 132.295 156.414 131.996 156.582C131.707 156.75 131.464 156.988 131.268 157.296C131.081 157.595 130.988 157.935 130.988 158.318V162H130.008V155.602Z" fill="#F0FF93"/>
<path d="M20.3428 72.2529C19.208 72.2529 18.2236 71.8473 17.3896 71.0361L18.0732 69.8467L18.1348 69.7373L18.2715 69.8193C18.276 69.8376 18.2874 69.8763 18.3057 69.9355C18.3285 69.9948 18.3604 70.054 18.4014 70.1133C18.4424 70.168 18.4993 70.2227 18.5723 70.2773C19.1374 70.6966 19.7708 70.9062 20.4727 70.9062C20.9102 70.9062 21.2474 70.8037 21.4844 70.5986C21.7259 70.3936 21.8467 70.0859 21.8467 69.6758C21.8467 69.4707 21.7943 69.2861 21.6895 69.1221C21.5892 68.9535 21.4137 68.7848 21.1631 68.6162C20.917 68.4476 20.5752 68.2653 20.1377 68.0693C19.3265 67.7184 18.7386 67.3242 18.374 66.8867C18.0094 66.4492 17.8271 65.9411 17.8271 65.3623C17.8271 64.943 17.9434 64.5579 18.1758 64.207C18.4128 63.8516 18.7363 63.5713 19.1465 63.3662C19.5612 63.1566 20.026 63.0518 20.541 63.0518C21.1198 63.0518 21.6188 63.1475 22.0381 63.3389C22.4574 63.5303 22.8584 63.8265 23.2412 64.2275L22.4551 65.3213L22.3867 65.4238L22.2568 65.335C22.2523 65.3076 22.2432 65.262 22.2295 65.1982C22.2204 65.1344 22.1976 65.0729 22.1611 65.0137C22.1292 64.9499 22.0791 64.8883 22.0107 64.8291C21.6188 64.5055 21.1243 64.3438 20.5273 64.3438C20.2721 64.3438 20.0511 64.3893 19.8643 64.4805C19.682 64.5671 19.543 64.6833 19.4473 64.8291C19.3561 64.9749 19.3105 65.1344 19.3105 65.3076C19.3105 65.5127 19.363 65.695 19.4678 65.8545C19.5771 66.0094 19.7617 66.1712 20.0215 66.3398C20.2812 66.5039 20.6595 66.7067 21.1562 66.9482C21.7487 67.2308 22.209 67.5042 22.5371 67.7686C22.8652 68.0283 23.0977 68.3018 23.2344 68.5889C23.3711 68.876 23.4395 69.2109 23.4395 69.5938C23.4395 70.0586 23.3324 70.4938 23.1182 70.8994C22.904 71.3005 22.5645 71.6263 22.0996 71.877C21.6393 72.1276 21.0537 72.2529 20.3428 72.2529ZM26.8848 72.2803C26.1784 72.2803 25.6383 72.0638 25.2646 71.6309C24.8955 71.1934 24.7109 70.5007 24.7109 69.5527V65.4648H26.2559V69.5527C26.2559 70.0404 26.3379 70.4027 26.502 70.6396C26.6706 70.8766 26.9007 70.9951 27.1924 70.9951C27.4521 70.9951 27.6891 70.9268 27.9033 70.79C28.1175 70.6533 28.2861 70.4619 28.4092 70.2158C28.5322 69.9697 28.5938 69.6917 28.5938 69.3818V65.4648H30.1729V70.9336C30.1729 71.2116 30.1797 71.4235 30.1934 71.5693C30.2116 71.7152 30.2526 71.8587 30.3164 72H28.7852C28.7259 71.8861 28.6872 71.7744 28.6689 71.665C28.6553 71.5511 28.6484 71.4098 28.6484 71.2412C28.4661 71.5557 28.2064 71.8086 27.8691 72C27.5319 72.1868 27.2038 72.2803 26.8848 72.2803ZM31.8408 65.4648H33.4199V66.1348C33.6523 65.8796 33.9281 65.6813 34.2471 65.54C34.5661 65.3942 34.9124 65.3213 35.2861 65.3213C35.9059 65.3213 36.4004 65.5423 36.7695 65.9844C37.1432 66.4219 37.3301 67.1055 37.3301 68.0352V72H35.7578V68.0488C35.7578 67.5566 35.6667 67.1943 35.4844 66.9619C35.3066 66.7295 35.04 66.6133 34.6846 66.6133C34.4613 66.6133 34.2516 66.6589 34.0557 66.75C33.8643 66.8366 33.7093 66.9688 33.5908 67.1465C33.4769 67.3242 33.4199 67.543 33.4199 67.8027V72H31.8408V65.4648ZM45.6152 63.2773H47.8711C48.6139 63.2773 49.2041 63.3776 49.6416 63.5781C50.0837 63.7741 50.4596 64.0794 50.7695 64.4941C51.3665 65.3053 51.665 66.374 51.665 67.7002C51.665 69.0765 51.3438 70.1383 50.7012 70.8857C50.0632 71.6286 49.0628 72 47.7002 72H45.6152V63.2773ZM47.6729 70.7695C48.4886 70.7695 49.0947 70.512 49.4912 69.9971C49.8923 69.4821 50.0928 68.7301 50.0928 67.7412C50.0928 65.6357 49.334 64.583 47.8164 64.583H47.1396V70.7695H47.6729ZM55.7803 72.2256C55.1514 72.2256 54.5908 72.0889 54.0986 71.8154C53.6064 71.542 53.2191 71.1501 52.9365 70.6396C52.6585 70.1247 52.5195 69.5186 52.5195 68.8213C52.5195 68.1149 52.6517 67.4974 52.916 66.9688C53.1803 66.4401 53.5472 66.0345 54.0166 65.752C54.486 65.4648 55.0169 65.3213 55.6094 65.3213C56.1335 65.3213 56.6051 65.4443 57.0244 65.6904C57.4482 65.932 57.7832 66.2943 58.0293 66.7773C58.2754 67.2559 58.3984 67.8346 58.3984 68.5137C58.3984 68.623 58.3893 68.778 58.3711 68.9785L58.3574 69.1699H54.0713C54.1396 69.7669 54.3265 70.2181 54.6318 70.5234C54.9372 70.8242 55.3018 70.9746 55.7256 70.9746C56.0264 70.9746 56.3294 70.9062 56.6348 70.7695C56.9401 70.6283 57.1908 70.4323 57.3867 70.1816L58.2549 71.0498C57.5941 71.8337 56.7692 72.2256 55.7803 72.2256ZM56.833 68.0215C56.833 67.748 56.7783 67.4951 56.6689 67.2627C56.5641 67.0303 56.4115 66.8457 56.2109 66.709C56.015 66.5677 55.7871 66.4971 55.5273 66.4971C55.1445 66.4971 54.8278 66.6361 54.5771 66.9141C54.3265 67.1875 54.1761 67.5566 54.126 68.0215H56.833ZM62.835 72.2256C62.1969 72.2256 61.6273 72.0775 61.126 71.7812C60.6247 71.485 60.2327 71.0771 59.9502 70.5576C59.6722 70.0335 59.5332 69.4456 59.5332 68.7939C59.5332 68.1468 59.6722 67.5589 59.9502 67.0303C60.2327 66.5016 60.6247 66.0846 61.126 65.7793C61.6318 65.474 62.2061 65.3213 62.8486 65.3213C63.3864 65.3213 63.89 65.4307 64.3594 65.6494C64.8288 65.8682 65.1979 66.1781 65.4668 66.5791L64.5918 67.6045L64.5166 67.7002L64.3936 67.5977C64.389 67.5749 64.3844 67.5316 64.3799 67.4678C64.3753 67.404 64.3571 67.3424 64.3252 67.2832C64.2979 67.2194 64.25 67.1556 64.1816 67.0918C63.849 66.7819 63.4046 66.627 62.8486 66.627C62.5296 66.627 62.238 66.7181 61.9736 66.9004C61.7139 67.0827 61.5065 67.3402 61.3516 67.6729C61.2012 68.0055 61.126 68.3883 61.126 68.8213C61.126 69.236 61.1966 69.5983 61.3379 69.9082C61.4837 70.2181 61.6865 70.4574 61.9463 70.626C62.2061 70.7946 62.5023 70.8789 62.835 70.8789C63.1312 70.8789 63.4206 70.8105 63.7031 70.6738C63.9902 70.5371 64.2568 70.3161 64.5029 70.0107L65.4121 71.0635C65.0612 71.46 64.6647 71.7539 64.2227 71.9453C63.7852 72.1322 63.3226 72.2256 62.835 72.2256ZM76.8076 69.8467H73.4785V68.8623L77.2588 63.2773H78.3867V68.541H79.5488V69.8604H78.3867V72H76.8076V69.8467ZM76.8623 68.582V65.9775L75.0986 68.582H76.8623ZM82.085 73.6543C82.3447 73.4082 82.5612 73.153 82.7344 72.8887C82.9076 72.6289 82.9941 72.4261 82.9941 72.2803C82.9941 72.2393 82.9736 72.196 82.9326 72.1504C82.8962 72.1048 82.8369 72.0433 82.7549 71.9658C82.6227 71.8428 82.5179 71.7288 82.4404 71.624C82.363 71.5192 82.3242 71.403 82.3242 71.2754C82.3242 71.0931 82.3675 70.9268 82.4541 70.7764C82.5407 70.626 82.6637 70.5075 82.8232 70.4209C82.9873 70.3343 83.1719 70.291 83.377 70.291C83.5729 70.291 83.7598 70.348 83.9375 70.4619C84.1152 70.5713 84.2565 70.724 84.3613 70.9199C84.4707 71.1159 84.5254 71.3369 84.5254 71.583C84.5254 71.9521 84.3887 72.3646 84.1152 72.8203C83.8418 73.2806 83.4271 73.7956 82.8711 74.3652L82.085 73.6543ZM96.9258 65.0547L95.4287 65.5059L95.0527 64.5488L97.418 63.2773H98.4639V72H96.9258V65.0547ZM102.593 72C103.076 70.5645 103.532 69.252 103.96 68.0625C104.393 66.873 104.835 65.736 105.286 64.6514H101.923V63.2773H107.173V64.0771C106.166 66.3695 105.204 69.0104 104.288 72H102.593ZM111.261 67.8164C111.083 67.8164 110.914 67.7731 110.755 67.6865C110.595 67.5999 110.468 67.4837 110.372 67.3379C110.276 67.1875 110.229 67.028 110.229 66.8594C110.229 66.6908 110.276 66.5335 110.372 66.3877C110.468 66.2419 110.595 66.1257 110.755 66.0391C110.914 65.9525 111.083 65.9092 111.261 65.9092C111.429 65.9092 111.596 65.9502 111.76 66.0322C111.924 66.1143 112.056 66.2282 112.156 66.374C112.261 66.5199 112.313 66.6816 112.313 66.8594C112.313 67.028 112.266 67.1875 112.17 67.3379C112.074 67.4837 111.944 67.5999 111.78 67.6865C111.621 67.7731 111.448 67.8164 111.261 67.8164ZM111.261 72.1846C111.074 72.1846 110.901 72.1413 110.741 72.0547C110.582 71.9727 110.456 71.8587 110.365 71.7129C110.274 71.5671 110.229 71.4098 110.229 71.2412C110.229 71.068 110.276 70.9085 110.372 70.7627C110.468 70.6123 110.595 70.4938 110.755 70.4072C110.914 70.3206 111.083 70.2773 111.261 70.2773C111.429 70.2773 111.596 70.3206 111.76 70.4072C111.924 70.4893 112.056 70.6055 112.156 70.7559C112.261 70.9017 112.313 71.0635 112.313 71.2412C112.313 71.4098 112.266 71.5671 112.17 71.7129C112.079 71.8542 111.951 71.9681 111.787 72.0547C111.628 72.1413 111.452 72.1846 111.261 72.1846ZM118.5 63.1133C119.133 63.1133 119.676 63.2933 120.127 63.6533C120.578 64.0133 120.922 64.5374 121.159 65.2256C121.401 65.9092 121.521 66.7295 121.521 67.6865C121.521 68.6436 121.401 69.4661 121.159 70.1543C120.922 70.8379 120.578 71.362 120.127 71.7266C119.676 72.0866 119.133 72.2666 118.5 72.2666C117.867 72.2666 117.324 72.0866 116.873 71.7266C116.422 71.362 116.076 70.8379 115.834 70.1543C115.597 69.4661 115.479 68.6436 115.479 67.6865C115.479 66.7295 115.597 65.9092 115.834 65.2256C116.076 64.5374 116.422 64.0133 116.873 63.6533C117.324 63.2933 117.867 63.1133 118.5 63.1133ZM118.5 64.3711C118.181 64.3711 117.908 64.5033 117.68 64.7676C117.452 65.0273 117.276 65.4056 117.153 65.9023C117.035 66.3991 116.976 66.9938 116.976 67.6865C116.976 68.042 116.994 68.3906 117.03 68.7324L119.73 65.5264C119.603 65.1527 119.434 64.8678 119.225 64.6719C119.015 64.4714 118.773 64.3711 118.5 64.3711ZM118.5 71.0088C118.819 71.0088 119.092 70.8766 119.32 70.6123C119.548 70.348 119.721 69.9674 119.84 69.4707C119.963 68.974 120.024 68.3792 120.024 67.6865C120.024 67.2764 120.004 66.9049 119.963 66.5723L117.249 69.7988C117.377 70.1908 117.545 70.4915 117.755 70.7012C117.969 70.9062 118.217 71.0088 118.5 71.0088ZM125.5 63.1133C126.133 63.1133 126.676 63.2933 127.127 63.6533C127.578 64.0133 127.922 64.5374 128.159 65.2256C128.401 65.9092 128.521 66.7295 128.521 67.6865C128.521 68.6436 128.401 69.4661 128.159 70.1543C127.922 70.8379 127.578 71.362 127.127 71.7266C126.676 72.0866 126.133 72.2666 125.5 72.2666C124.867 72.2666 124.324 72.0866 123.873 71.7266C123.422 71.362 123.076 70.8379 122.834 70.1543C122.597 69.4661 122.479 68.6436 122.479 67.6865C122.479 66.7295 122.597 65.9092 122.834 65.2256C123.076 64.5374 123.422 64.0133 123.873 63.6533C124.324 63.2933 124.867 63.1133 125.5 63.1133ZM125.5 64.3711C125.181 64.3711 124.908 64.5033 124.68 64.7676C124.452 65.0273 124.276 65.4056 124.153 65.9023C124.035 66.3991 123.976 66.9938 123.976 67.6865C123.976 68.042 123.994 68.3906 124.03 68.7324L126.73 65.5264C126.603 65.1527 126.434 64.8678 126.225 64.6719C126.015 64.4714 125.773 64.3711 125.5 64.3711ZM125.5 71.0088C125.819 71.0088 126.092 70.8766 126.32 70.6123C126.548 70.348 126.721 69.9674 126.84 69.4707C126.963 68.974 127.024 68.3792 127.024 67.6865C127.024 67.2764 127.004 66.9049 126.963 66.5723L124.249 69.7988C124.377 70.1908 124.545 70.4915 124.755 70.7012C124.969 70.9062 125.217 71.0088 125.5 71.0088ZM137.025 70.7012H138.714V64.583H137.107V63.2773H141.975V64.583H140.286V70.7148H142.05V72H137.025V70.7012ZM146.343 72.2529C145.208 72.2529 144.224 71.8473 143.39 71.0361L144.073 69.8467L144.135 69.7373L144.271 69.8193C144.276 69.8376 144.287 69.8763 144.306 69.9355C144.328 69.9948 144.36 70.054 144.401 70.1133C144.442 70.168 144.499 70.2227 144.572 70.2773C145.137 70.6966 145.771 70.9062 146.473 70.9062C146.91 70.9062 147.247 70.8037 147.484 70.5986C147.726 70.3936 147.847 70.0859 147.847 69.6758C147.847 69.4707 147.794 69.2861 147.689 69.1221C147.589 68.9535 147.414 68.7848 147.163 68.6162C146.917 68.4476 146.575 68.2653 146.138 68.0693C145.326 67.7184 144.739 67.3242 144.374 66.8867C144.009 66.4492 143.827 65.9411 143.827 65.3623C143.827 64.943 143.943 64.5579 144.176 64.207C144.413 63.8516 144.736 63.5713 145.146 63.3662C145.561 63.1566 146.026 63.0518 146.541 63.0518C147.12 63.0518 147.619 63.1475 148.038 63.3389C148.457 63.5303 148.858 63.8265 149.241 64.2275L148.455 65.3213L148.387 65.4238L148.257 65.335C148.252 65.3076 148.243 65.262 148.229 65.1982C148.22 65.1344 148.198 65.0729 148.161 65.0137C148.129 64.9499 148.079 64.8883 148.011 64.8291C147.619 64.5055 147.124 64.3438 146.527 64.3438C146.272 64.3438 146.051 64.3893 145.864 64.4805C145.682 64.5671 145.543 64.6833 145.447 64.8291C145.356 64.9749 145.311 65.1344 145.311 65.3076C145.311 65.5127 145.363 65.695 145.468 65.8545C145.577 66.0094 145.762 66.1712 146.021 66.3398C146.281 66.5039 146.66 66.7067 147.156 66.9482C147.749 67.2308 148.209 67.5042 148.537 67.7686C148.865 68.0283 149.098 68.3018 149.234 68.5889C149.371 68.876 149.439 69.2109 149.439 69.5938C149.439 70.0586 149.332 70.4938 149.118 70.8994C148.904 71.3005 148.564 71.6263 148.1 71.877C147.639 72.1276 147.054 72.2529 146.343 72.2529ZM152.646 64.6377H150.28V63.2773H156.706V64.6377H154.245V72H152.646V64.6377ZM18.5928 108C19.0758 106.564 19.5316 105.252 19.96 104.062C20.3929 102.873 20.835 101.736 21.2861 100.651H17.9229V99.2773H23.1729V100.077C22.1657 102.369 21.2041 105.01 20.2881 108H18.5928ZM24.7998 106.852C25.9255 105.771 26.7321 104.974 27.2197 104.459C27.7119 103.944 28.0856 103.465 28.3408 103.023C28.6006 102.577 28.7305 102.121 28.7305 101.656C28.7305 101.287 28.6143 100.995 28.3818 100.781C28.1494 100.562 27.8372 100.453 27.4453 100.453C26.8665 100.453 26.3949 100.635 26.0303 101C25.9482 101.082 25.8913 101.157 25.8594 101.226C25.8275 101.289 25.8115 101.353 25.8115 101.417L25.8184 101.492L25.7227 101.622L25.627 101.547L24.5879 100.761C24.9251 100.218 25.3376 99.8037 25.8252 99.5166C26.3174 99.2249 26.8665 99.0791 27.4727 99.0791C27.9922 99.0791 28.4593 99.1885 28.874 99.4072C29.2887 99.6214 29.6123 99.9222 29.8447 100.31C30.0817 100.697 30.2002 101.141 30.2002 101.643C30.2002 102.139 30.0817 102.616 29.8447 103.071C29.6123 103.527 29.3047 103.969 28.9219 104.397C28.5436 104.826 27.9854 105.409 27.2471 106.147L26.6865 106.701H29.5371C29.6875 106.701 29.7969 106.694 29.8652 106.681C29.9382 106.662 30.002 106.628 30.0566 106.578H30.2139V108H24.7998V106.852ZM38.8408 98.5527H40.5293V98.71C40.4792 98.7646 40.4473 98.8262 40.4336 98.8945C40.4199 98.9583 40.4154 99.0677 40.4199 99.2227V102.135C40.6478 101.884 40.9121 101.686 41.2129 101.54C41.5182 101.394 41.8236 101.321 42.1289 101.321C42.8307 101.321 43.3753 101.54 43.7627 101.978C44.1501 102.41 44.3438 103.096 44.3438 104.035V108H42.7578V104.049C42.7578 103.566 42.6735 103.206 42.5049 102.969C42.3408 102.732 42.113 102.613 41.8213 102.613C41.5615 102.613 41.3245 102.682 41.1104 102.818C40.8962 102.955 40.7275 103.146 40.6045 103.393C40.4814 103.634 40.4199 103.91 40.4199 104.22V108H38.8408V98.5527ZM48.5137 108.226C47.9349 108.226 47.4085 108.077 46.9346 107.781C46.4606 107.485 46.0869 107.073 45.8135 106.544C45.54 106.015 45.4033 105.414 45.4033 104.739C45.4033 104.106 45.5423 103.529 45.8203 103.01C46.0983 102.486 46.4743 102.073 46.9482 101.772C47.4268 101.472 47.9486 101.321 48.5137 101.321C49.0788 101.321 49.5983 101.472 50.0723 101.772C50.5508 102.073 50.929 102.486 51.207 103.01C51.485 103.529 51.624 104.106 51.624 104.739C51.624 105.414 51.4873 106.015 51.2139 106.544C50.9404 107.073 50.5667 107.485 50.0928 107.781C49.6188 108.077 49.0924 108.226 48.5137 108.226ZM48.5137 106.961C48.8236 106.961 49.0924 106.87 49.3203 106.688C49.5527 106.501 49.7305 106.241 49.8535 105.908C49.9766 105.571 50.0381 105.181 50.0381 104.739C50.0381 104.293 49.9766 103.908 49.8535 103.584C49.7305 103.26 49.5527 103.012 49.3203 102.839C49.0924 102.666 48.8236 102.579 48.5137 102.579C48.2174 102.579 47.9554 102.666 47.7275 102.839C47.5042 103.012 47.3288 103.263 47.2012 103.591C47.0781 103.914 47.0166 104.297 47.0166 104.739C47.0166 105.186 47.0758 105.578 47.1943 105.915C47.3174 106.248 47.4906 106.505 47.7139 106.688C47.9372 106.87 48.2038 106.961 48.5137 106.961ZM54.8848 108.28C54.1784 108.28 53.6383 108.064 53.2646 107.631C52.8955 107.193 52.7109 106.501 52.7109 105.553V101.465H54.2559V105.553C54.2559 106.04 54.3379 106.403 54.502 106.64C54.6706 106.877 54.9007 106.995 55.1924 106.995C55.4521 106.995 55.6891 106.927 55.9033 106.79C56.1175 106.653 56.2861 106.462 56.4092 106.216C56.5322 105.97 56.5938 105.692 56.5938 105.382V101.465H58.1729V106.934C58.1729 107.212 58.1797 107.424 58.1934 107.569C58.2116 107.715 58.2526 107.859 58.3164 108H56.7852C56.7259 107.886 56.6872 107.774 56.6689 107.665C56.6553 107.551 56.6484 107.41 56.6484 107.241C56.4661 107.556 56.2064 107.809 55.8691 108C55.5319 108.187 55.2038 108.28 54.8848 108.28ZM63.7441 101.321C64.0677 101.321 64.389 101.383 64.708 101.506C65.0316 101.624 65.3187 101.802 65.5693 102.039L64.8174 103.543L64.6738 103.475C64.6647 103.443 64.6556 103.397 64.6465 103.338C64.6328 103.251 64.6123 103.178 64.585 103.119C64.5622 103.055 64.512 102.992 64.4346 102.928C64.2067 102.745 63.9264 102.654 63.5938 102.654C63.2611 102.654 62.9603 102.734 62.6914 102.894C62.4225 103.049 62.2106 103.272 62.0557 103.563C61.9053 103.855 61.8301 104.195 61.8301 104.582V108H60.2441V101.465H61.8574V102.401C62.0306 102.064 62.2835 101.8 62.6162 101.608C62.9535 101.417 63.3294 101.321 63.7441 101.321ZM69.7119 108.226C69.0557 108.226 68.4837 108.139 67.9961 107.966C67.5085 107.788 67.0618 107.506 66.6562 107.118L67.3125 105.97L67.374 105.86L67.5107 105.942C67.5199 105.965 67.5312 106.006 67.5449 106.065C67.5632 106.125 67.5928 106.184 67.6338 106.243C67.6794 106.298 67.7386 106.353 67.8115 106.407C68.0667 106.599 68.347 106.74 68.6523 106.831C68.9622 106.918 69.32 106.961 69.7256 106.961C70.473 106.961 70.8467 106.715 70.8467 106.223C70.8467 106.072 70.8011 105.942 70.71 105.833C70.6188 105.724 70.473 105.623 70.2725 105.532C70.0719 105.441 69.7962 105.345 69.4453 105.245C68.6934 105.049 68.1077 104.803 67.6885 104.507C67.2738 104.206 67.0664 103.794 67.0664 103.27C67.0664 102.891 67.1667 102.556 67.3672 102.265C67.5723 101.968 67.8639 101.738 68.2422 101.574C68.625 101.406 69.0716 101.321 69.582 101.321C70.0924 101.321 70.5573 101.406 70.9766 101.574C71.4004 101.738 71.79 101.991 72.1455 102.333L71.3525 103.434L71.2842 103.536L71.1543 103.447C71.1497 103.424 71.1406 103.383 71.127 103.324C71.1178 103.26 71.0928 103.199 71.0518 103.14C71.0107 103.08 70.9538 103.026 70.8809 102.976C70.5117 102.711 70.0879 102.579 69.6094 102.579C69.3314 102.579 69.099 102.627 68.9121 102.723C68.7253 102.818 68.6318 102.948 68.6318 103.112C68.6318 103.263 68.682 103.393 68.7822 103.502C68.887 103.607 69.042 103.702 69.2471 103.789C69.4567 103.876 69.7552 103.978 70.1426 104.097C70.6803 104.261 71.1019 104.427 71.4072 104.596C71.7126 104.76 71.9359 104.958 72.0771 105.19C72.2184 105.423 72.2891 105.715 72.2891 106.065C72.2891 106.444 72.1751 106.799 71.9473 107.132C71.724 107.46 71.4163 107.724 71.0244 107.925C70.6325 108.125 70.195 108.226 69.7119 108.226ZM19.7549 134.874H21.2588V146.112H19.7549V134.874ZM26.7549 134.874H28.2588V146.112H26.7549V134.874ZM33.7549 134.874H35.2588V146.112H33.7549V134.874ZM40.7549 134.874H42.2588V146.112H40.7549V134.874ZM47.7549 134.874H49.2588V146.112H47.7549V134.874ZM54.7549 134.874H56.2588V146.112H54.7549V134.874ZM61.7549 134.874H63.2588V146.112H61.7549V134.874ZM68.7549 134.874H70.2588V146.112H68.7549V134.874ZM75.7549 134.874H77.2588V146.112H75.7549V134.874ZM82.7549 134.874H84.2588V146.112H82.7549V134.874ZM89.7549 134.874H91.2588V146.112H89.7549V134.874ZM96.7549 134.874H98.2588V146.112H96.7549V134.874ZM103.755 134.874H105.259V146.112H103.755V134.874ZM110.755 134.874H112.259V146.112H110.755V134.874ZM117.755 134.874H119.259V146.112H117.755V134.874ZM124.755 134.874H126.259V146.112H124.755V134.874ZM131.755 134.874H133.259V146.112H131.755V134.874ZM138.755 134.874H140.259V146.112H138.755V134.874ZM145.755 134.874H147.259V146.112H145.755V134.874ZM152.755 134.874H154.259V146.112H152.755V134.874ZM159.755 134.874H161.259V146.112H159.755V134.874ZM166.755 134.874H168.259V146.112H166.755V134.874ZM173.755 134.874H175.259V146.112H173.755V134.874ZM180.755 134.874H182.259V146.112H180.755V134.874ZM187.755 134.874H189.259V146.112H187.755V134.874ZM194.755 134.874H196.259V146.112H194.755V134.874ZM201.755 134.874H203.259V146.112H201.755V134.874ZM208.755 134.874H210.259V146.112H208.755V134.874ZM215.755 134.874H217.259V146.112H215.755V134.874ZM222.755 134.874H224.259V146.112H222.755V134.874ZM229.755 134.874H231.259V146.112H229.755V134.874ZM236.755 134.874H238.259V146.112H236.755V134.874ZM243.755 134.874H245.259V146.112H243.755V134.874ZM250.755 134.874H252.259V146.112H250.755V134.874ZM257.755 134.874H259.259V146.112H257.755V134.874ZM264.755 134.874H266.259V146.112H264.755V134.874ZM271.755 134.874H273.259V146.112H271.755V134.874ZM278.755 134.874H280.259V146.112H278.755V134.874ZM283.896 138.873H289.146V140.151H283.896V138.873ZM295.558 146.55C294.737 146.208 294.017 145.725 293.397 145.101C292.782 144.476 292.306 143.768 291.969 142.975C291.636 142.177 291.47 141.357 291.47 140.514C291.47 139.68 291.632 138.878 291.955 138.107C292.279 137.333 292.741 136.642 293.343 136.036C293.949 135.425 294.66 134.949 295.476 134.607L295.838 135.824C294.904 136.303 294.184 136.95 293.678 137.766C293.176 138.581 292.926 139.511 292.926 140.555C292.926 141.234 293.044 141.885 293.281 142.51C293.518 143.134 293.862 143.692 294.313 144.185C294.765 144.677 295.3 145.069 295.92 145.36L295.558 146.55ZM297.615 135.277H299.871C300.614 135.277 301.204 135.378 301.642 135.578C302.084 135.774 302.46 136.079 302.77 136.494C303.367 137.305 303.665 138.374 303.665 139.7C303.665 141.076 303.344 142.138 302.701 142.886C302.063 143.629 301.063 144 299.7 144H297.615V135.277ZM299.673 142.77C300.489 142.77 301.095 142.512 301.491 141.997C301.892 141.482 302.093 140.73 302.093 139.741C302.093 137.636 301.334 136.583 299.816 136.583H299.14V142.77H299.673ZM307.541 144.253C306.853 144.253 306.26 144.071 305.764 143.706C305.271 143.337 304.893 142.806 304.629 142.113C304.369 141.416 304.239 140.584 304.239 139.618C304.239 138.666 304.369 137.848 304.629 137.164C304.893 136.48 305.271 135.959 305.764 135.599C306.26 135.234 306.853 135.052 307.541 135.052C308.229 135.052 308.819 135.234 309.312 135.599C309.808 135.959 310.187 136.48 310.446 137.164C310.711 137.848 310.843 138.666 310.843 139.618C310.843 140.584 310.711 141.416 310.446 142.113C310.187 142.806 309.808 143.337 309.312 143.706C308.819 144.071 308.229 144.253 307.541 144.253ZM307.541 142.995C307.887 142.995 308.186 142.854 308.437 142.571C308.692 142.284 308.885 141.881 309.018 141.361C309.154 140.837 309.223 140.229 309.223 139.536C309.223 138.894 309.154 138.331 309.018 137.848C308.885 137.36 308.692 136.984 308.437 136.72C308.186 136.451 307.887 136.316 307.541 136.316C307.199 136.316 306.901 136.451 306.646 136.72C306.39 136.984 306.194 137.36 306.058 137.848C305.925 138.331 305.859 138.894 305.859 139.536C305.859 140.229 305.925 140.837 306.058 141.361C306.194 141.881 306.388 142.284 306.639 142.571C306.894 142.854 307.195 142.995 307.541 142.995ZM311.451 135.277H313.365L316.141 141.525V135.277H317.658V135.435C317.608 135.489 317.576 135.551 317.562 135.619C317.549 135.683 317.544 135.792 317.549 135.947V144H315.819L312.859 137.403V144H311.451V135.277ZM318.786 135.277H324.467V136.624H320.311V138.777H323.756V140.151H320.311V142.653H324.439V144H318.786V135.277ZM326.47 145.36C327.09 145.069 327.625 144.677 328.076 144.185C328.527 143.692 328.871 143.134 329.108 142.51C329.345 141.885 329.464 141.234 329.464 140.555C329.464 139.511 329.211 138.581 328.705 137.766C328.204 136.95 327.486 136.303 326.552 135.824L326.914 134.607C327.73 134.949 328.438 135.425 329.04 136.036C329.646 136.642 330.111 137.333 330.435 138.107C330.758 138.878 330.92 139.68 330.92 140.514C330.92 141.357 330.751 142.177 330.414 142.975C330.081 143.768 329.605 144.476 328.985 145.101C328.37 145.725 327.652 146.208 326.832 146.55L326.47 145.36ZM20.3633 180.185C20.1901 180.185 20.0283 180.141 19.8779 180.055C19.7321 179.973 19.6159 179.859 19.5293 179.713C19.4473 179.562 19.4062 179.401 19.4062 179.228C19.4062 179.059 19.4473 178.904 19.5293 178.763C19.6159 178.617 19.7321 178.503 19.8779 178.421C20.0283 178.334 20.1901 178.291 20.3633 178.291C20.5319 178.291 20.6868 178.334 20.8281 178.421C20.974 178.503 21.0879 178.617 21.1699 178.763C21.2565 178.904 21.2998 179.059 21.2998 179.228C21.2998 179.401 21.2565 179.562 21.1699 179.713C21.0879 179.859 20.974 179.973 20.8281 180.055C20.6868 180.141 20.5319 180.185 20.3633 180.185ZM27.3633 180.185C27.1901 180.185 27.0283 180.141 26.8779 180.055C26.7321 179.973 26.6159 179.859 26.5293 179.713C26.4473 179.562 26.4062 179.401 26.4062 179.228C26.4062 179.059 26.4473 178.904 26.5293 178.763C26.6159 178.617 26.7321 178.503 26.8779 178.421C27.0283 178.334 27.1901 178.291 27.3633 178.291C27.5319 178.291 27.6868 178.334 27.8281 178.421C27.974 178.503 28.0879 178.617 28.1699 178.763C28.2565 178.904 28.2998 179.059 28.2998 179.228C28.2998 179.401 28.2565 179.562 28.1699 179.713C28.0879 179.859 27.974 179.973 27.8281 180.055C27.6868 180.141 27.5319 180.185 27.3633 180.185ZM34.3633 180.185C34.1901 180.185 34.0283 180.141 33.8779 180.055C33.7321 179.973 33.6159 179.859 33.5293 179.713C33.4473 179.562 33.4062 179.401 33.4062 179.228C33.4062 179.059 33.4473 178.904 33.5293 178.763C33.6159 178.617 33.7321 178.503 33.8779 178.421C34.0283 178.334 34.1901 178.291 34.3633 178.291C34.5319 178.291 34.6868 178.334 34.8281 178.421C34.974 178.503 35.0879 178.617 35.1699 178.763C35.2565 178.904 35.2998 179.059 35.2998 179.228C35.2998 179.401 35.2565 179.562 35.1699 179.713C35.0879 179.859 34.974 179.973 34.8281 180.055C34.6868 180.141 34.5319 180.185 34.3633 180.185Z" fill="white"/>
<path d="M105.718 119.448C106.399 119.448 106.964 119.681 107.412 120.148L106.964 120.932L106.908 121.058L106.81 121.002C106.782 120.899 106.749 120.82 106.712 120.764C106.675 120.699 106.595 120.629 106.474 120.554C106.231 120.395 105.956 120.316 105.648 120.316C105.312 120.316 104.995 120.4 104.696 120.568C104.397 120.736 104.155 120.993 103.968 121.338C103.781 121.674 103.688 122.099 103.688 122.612V126.014H102.666V119.602H103.716L103.688 120.778C103.865 120.358 104.136 120.031 104.5 119.798C104.873 119.565 105.279 119.448 105.718 119.448ZM111.808 126.14C110.856 126.14 110.095 125.851 109.526 125.272C108.966 124.693 108.686 123.877 108.686 122.822C108.686 122.122 108.817 121.52 109.078 121.016C109.339 120.503 109.689 120.115 110.128 119.854C110.576 119.583 111.075 119.448 111.626 119.448C112.401 119.448 113.026 119.705 113.502 120.218C113.987 120.731 114.23 121.487 114.23 122.486C114.23 122.589 114.221 122.743 114.202 122.948H109.652C109.689 123.732 109.909 124.325 110.31 124.726C110.711 125.127 111.22 125.328 111.836 125.328C112.508 125.328 113.059 125.09 113.488 124.614L114.048 125.16C113.507 125.813 112.76 126.14 111.808 126.14ZM113.208 122.164C113.208 121.567 113.054 121.095 112.746 120.75C112.447 120.395 112.051 120.218 111.556 120.218C111.089 120.218 110.683 120.381 110.338 120.708C109.993 121.035 109.778 121.52 109.694 122.164H113.208ZM121.65 120.26C121.566 120.251 121.445 120.246 121.286 120.246C120.838 120.246 120.465 120.344 120.166 120.54C120.325 120.857 120.404 121.207 120.404 121.59C120.404 122.01 120.311 122.393 120.124 122.738C119.947 123.074 119.685 123.34 119.34 123.536C119.004 123.732 118.612 123.83 118.164 123.83C117.809 123.83 117.478 123.765 117.17 123.634C117.002 123.839 116.918 124.035 116.918 124.222C116.918 124.446 117.058 124.609 117.338 124.712C117.627 124.805 118.141 124.852 118.878 124.852C119.783 124.852 120.399 124.992 120.726 125.272C121.062 125.543 121.23 125.944 121.23 126.476C121.23 127.027 121.006 127.484 120.558 127.848C120.11 128.221 119.41 128.408 118.458 128.408C117.543 128.408 116.825 128.268 116.302 127.988C115.789 127.708 115.532 127.297 115.532 126.756C115.532 126.42 115.625 126.131 115.812 125.888C115.999 125.645 116.237 125.454 116.526 125.314C116.218 125.109 116.064 124.824 116.064 124.46C116.064 124.087 116.255 123.695 116.638 123.284C116.405 123.079 116.227 122.831 116.106 122.542C115.985 122.253 115.924 121.935 115.924 121.59C115.924 121.179 116.013 120.806 116.19 120.47C116.377 120.125 116.638 119.854 116.974 119.658C117.319 119.462 117.716 119.364 118.164 119.364C118.845 119.364 119.391 119.583 119.802 120.022C120.026 119.817 120.255 119.667 120.488 119.574C120.731 119.471 120.997 119.42 121.286 119.42L121.524 119.434L121.65 120.26ZM118.164 122.99C118.565 122.99 118.897 122.855 119.158 122.584C119.429 122.313 119.564 121.982 119.564 121.59C119.564 121.198 119.429 120.867 119.158 120.596C118.897 120.325 118.565 120.19 118.164 120.19C117.763 120.19 117.427 120.325 117.156 120.596C116.895 120.867 116.764 121.198 116.764 121.59C116.764 121.982 116.895 122.313 117.156 122.584C117.427 122.855 117.763 122.99 118.164 122.99ZM120.306 126.63C120.306 126.406 120.264 126.229 120.18 126.098C120.105 125.977 119.951 125.888 119.718 125.832C119.485 125.767 119.135 125.734 118.668 125.734C117.996 125.734 117.459 125.673 117.058 125.552C116.834 125.701 116.675 125.855 116.582 126.014C116.498 126.173 116.456 126.383 116.456 126.644C116.456 126.961 116.633 127.209 116.988 127.386C117.343 127.563 117.837 127.652 118.472 127.652C119.088 127.652 119.545 127.559 119.844 127.372C120.152 127.195 120.306 126.947 120.306 126.63ZM123.4 125.188H125.038V120.414H123.484V119.602H126.046V125.188H127.544V126H123.4V125.188ZM125.486 118.258C125.29 118.258 125.122 118.188 124.982 118.048C124.842 117.908 124.772 117.74 124.772 117.544C124.772 117.339 124.837 117.166 124.968 117.026C125.108 116.886 125.281 116.816 125.486 116.816C125.682 116.816 125.85 116.891 125.99 117.04C126.139 117.18 126.214 117.348 126.214 117.544C126.214 117.74 126.139 117.908 125.99 118.048C125.85 118.188 125.682 118.258 125.486 118.258ZM132.514 126.14C131.431 126.14 130.526 125.804 129.798 125.132L130.358 124.18L130.442 124.054L130.526 124.11C130.526 124.129 130.531 124.171 130.54 124.236C130.559 124.301 130.587 124.367 130.624 124.432C130.661 124.497 130.713 124.563 130.778 124.628C130.993 124.843 131.235 125.011 131.506 125.132C131.786 125.244 132.131 125.3 132.542 125.3C133.046 125.3 133.443 125.211 133.732 125.034C134.021 124.847 134.166 124.595 134.166 124.278C134.166 124.007 134.049 123.783 133.816 123.606C133.583 123.429 133.163 123.242 132.556 123.046C130.951 122.589 130.148 121.926 130.148 121.058C130.148 120.563 130.349 120.171 130.75 119.882C131.161 119.593 131.744 119.448 132.5 119.448C133.079 119.448 133.564 119.532 133.956 119.7C134.357 119.859 134.721 120.111 135.048 120.456L134.474 121.156L134.376 121.268L134.306 121.198C134.297 121.095 134.273 121.011 134.236 120.946C134.208 120.881 134.143 120.806 134.04 120.722C133.825 120.554 133.583 120.428 133.312 120.344C133.051 120.251 132.789 120.204 132.528 120.204C132.127 120.204 131.795 120.274 131.534 120.414C131.282 120.554 131.156 120.75 131.156 121.002C131.156 121.235 131.287 121.45 131.548 121.646C131.809 121.842 132.281 122.038 132.962 122.234C133.765 122.477 134.329 122.743 134.656 123.032C134.992 123.312 135.16 123.681 135.16 124.138C135.16 124.717 134.931 125.197 134.474 125.58C134.026 125.953 133.373 126.14 132.514 126.14ZM142.216 125.412C141.6 125.869 140.923 126.098 140.186 126.098C139.477 126.098 138.973 125.883 138.674 125.454C138.385 125.025 138.24 124.325 138.24 123.354C138.24 123.195 138.249 122.92 138.268 122.528L138.394 120.428H136.98V119.602H138.45L138.548 117.894L139.668 117.712L139.808 117.698L139.822 117.782C139.757 117.875 139.705 117.955 139.668 118.02C139.64 118.085 139.621 118.188 139.612 118.328L139.458 119.602H141.586V120.428H139.402L139.276 122.598C139.257 122.971 139.248 123.219 139.248 123.34C139.248 124.087 139.332 124.595 139.5 124.866C139.677 125.127 139.957 125.258 140.34 125.258C140.62 125.258 140.877 125.207 141.11 125.104C141.343 125.001 141.609 124.838 141.908 124.614L142.216 125.412ZM147.718 119.448C148.399 119.448 148.964 119.681 149.412 120.148L148.964 120.932L148.908 121.058L148.81 121.002C148.782 120.899 148.749 120.82 148.712 120.764C148.675 120.699 148.595 120.629 148.474 120.554C148.231 120.395 147.956 120.316 147.648 120.316C147.312 120.316 146.995 120.4 146.696 120.568C146.397 120.736 146.155 120.993 145.968 121.338C145.781 121.674 145.688 122.099 145.688 122.612V126.014H144.666V119.602H145.716L145.688 120.778C145.865 120.358 146.136 120.031 146.5 119.798C146.873 119.565 147.279 119.448 147.718 119.448ZM153.416 119.462C154.331 119.462 155.026 119.7 155.502 120.176C155.987 120.652 156.23 121.459 156.23 122.598V126H155.138V125.02C154.746 125.776 154.018 126.154 152.954 126.154C152.245 126.154 151.689 125.995 151.288 125.678C150.887 125.351 150.686 124.922 150.686 124.39C150.686 123.942 150.831 123.55 151.12 123.214C151.409 122.878 151.797 122.621 152.282 122.444C152.777 122.257 153.318 122.164 153.906 122.164C154.438 122.164 154.919 122.192 155.348 122.248C155.292 121.529 155.101 121.025 154.774 120.736C154.457 120.437 153.981 120.288 153.346 120.288C153.029 120.288 152.721 120.349 152.422 120.47C152.133 120.591 151.867 120.769 151.624 121.002L151.134 120.358C151.731 119.761 152.492 119.462 153.416 119.462ZM153.052 125.384C153.743 125.384 154.289 125.183 154.69 124.782C155.091 124.371 155.311 123.783 155.348 123.018C154.928 122.953 154.475 122.92 153.99 122.92C153.281 122.92 152.721 123.037 152.31 123.27C151.899 123.503 151.694 123.858 151.694 124.334C151.694 125.034 152.147 125.384 153.052 125.384ZM163.216 125.412C162.6 125.869 161.923 126.098 161.186 126.098C160.477 126.098 159.973 125.883 159.674 125.454C159.385 125.025 159.24 124.325 159.24 123.354C159.24 123.195 159.249 122.92 159.268 122.528L159.394 120.428H157.98V119.602H159.45L159.548 117.894L160.668 117.712L160.808 117.698L160.822 117.782C160.757 117.875 160.705 117.955 160.668 118.02C160.64 118.085 160.621 118.188 160.612 118.328L160.458 119.602H162.586V120.428H160.402L160.276 122.598C160.257 122.971 160.248 123.219 160.248 123.34C160.248 124.087 160.332 124.595 160.5 124.866C160.677 125.127 160.957 125.258 161.34 125.258C161.62 125.258 161.877 125.207 162.11 125.104C162.343 125.001 162.609 124.838 162.908 124.614L163.216 125.412ZM165.4 125.188H167.038V120.414H165.484V119.602H168.046V125.188H169.544V126H165.4V125.188ZM167.486 118.258C167.29 118.258 167.122 118.188 166.982 118.048C166.842 117.908 166.772 117.74 166.772 117.544C166.772 117.339 166.837 117.166 166.968 117.026C167.108 116.886 167.281 116.816 167.486 116.816C167.682 116.816 167.85 116.891 167.99 117.04C168.139 117.18 168.214 117.348 168.214 117.544C168.214 117.74 168.139 117.908 167.99 118.048C167.85 118.188 167.682 118.258 167.486 118.258ZM174.5 126.112C173.931 126.112 173.422 125.972 172.974 125.692C172.526 125.412 172.176 125.02 171.924 124.516C171.672 124.012 171.546 123.438 171.546 122.794C171.546 122.15 171.672 121.576 171.924 121.072C172.176 120.568 172.526 120.176 172.974 119.896C173.422 119.607 173.931 119.462 174.5 119.462C175.069 119.462 175.578 119.607 176.026 119.896C176.474 120.176 176.824 120.568 177.076 121.072C177.328 121.576 177.454 122.15 177.454 122.794C177.454 123.438 177.328 124.012 177.076 124.516C176.824 125.02 176.474 125.412 176.026 125.692C175.578 125.972 175.069 126.112 174.5 126.112ZM174.5 125.272C174.864 125.272 175.186 125.165 175.466 124.95C175.755 124.735 175.979 124.441 176.138 124.068C176.306 123.685 176.39 123.256 176.39 122.78C176.39 122.052 176.213 121.459 175.858 121.002C175.503 120.535 175.051 120.302 174.5 120.302C173.949 120.302 173.497 120.535 173.142 121.002C172.787 121.459 172.61 122.052 172.61 122.78C172.61 123.256 172.689 123.685 172.848 124.068C173.016 124.441 173.24 124.735 173.52 124.95C173.809 125.165 174.136 125.272 174.5 125.272ZM179.008 119.602H179.988V120.736C180.24 120.344 180.557 120.031 180.94 119.798C181.323 119.565 181.729 119.448 182.158 119.448C182.727 119.448 183.18 119.667 183.516 120.106C183.861 120.535 184.034 121.207 184.034 122.122V126H183.054V122.15C183.054 121.515 182.947 121.053 182.732 120.764C182.517 120.475 182.233 120.33 181.878 120.33C181.589 120.33 181.295 120.414 180.996 120.582C180.707 120.75 180.464 120.988 180.268 121.296C180.081 121.595 179.988 121.935 179.988 122.318V126H179.008V119.602Z" fill="#F0FF93"/>
<circle cx="21" cy="12" r="4" fill="#EF6767"/>
<circle cx="33" cy="12" r="4" fill="#F7E54B"/>
<circle cx="45" cy="12" r="4" fill="#7BEC54"/>
</svg>
