<svg width="16" height="14" viewBox="0 0 16 14" fill="none" xmlns="http://www.w3.org/2000/svg">
<path d="M14.4 3.79998L8 7.79998L1.6 3.79998V2.19998L8 6.19998L14.4 2.19998V3.79998ZM14.4 0.599976H1.6C0.712 0.599976 0 1.31198 0 2.19998V11.8C0 12.2243 0.168571 12.6313 0.468629 12.9313C0.768687 13.2314 1.17565 13.4 1.6 13.4H14.4C14.8243 13.4 15.2313 13.2314 15.5314 12.9313C15.8314 12.6313 16 12.2243 16 11.8V2.19998C16 1.77563 15.8314 1.36866 15.5314 1.0686C15.2313 0.768546 14.8243 0.599976 14.4 0.599976Z" fill="#393939"/>
</svg>
