<svg width="126" height="29" viewBox="0 0 126 29" fill="none" xmlns="http://www.w3.org/2000/svg">
<path d="M0.664 28.76V7.256H6.2V9.4C6.62667 8.632 7.27733 8.024 8.152 7.576C9.02667 7.128 9.98667 6.904 11.032 6.904C12.376 6.904 13.56 7.23467 14.584 7.896C15.6293 8.55733 16.44 9.50667 17.016 10.744C17.6133 11.96 17.912 13.4213 17.912 15.128C17.912 16.8133 17.624 18.2747 17.048 19.512C16.472 20.7493 15.6613 21.6987 14.616 22.36C13.592 23.0213 12.3973 23.352 11.032 23.352C10.0507 23.352 9.13333 23.1493 8.28 22.744C7.448 22.3387 6.808 21.7947 6.36 21.112V28.76H0.664ZM9.24 19.16C10.0933 19.16 10.7973 18.84 11.352 18.2C11.9067 17.56 12.184 16.536 12.184 15.128C12.184 13.6987 11.9067 12.6747 11.352 12.056C10.7973 11.416 10.0933 11.096 9.24 11.096C8.36533 11.096 7.65067 11.416 7.096 12.056C6.54133 12.6747 6.264 13.6987 6.264 15.128C6.264 16.536 6.54133 17.56 7.096 18.2C7.65067 18.84 8.36533 19.16 9.24 19.16ZM26.7158 23.352C24.5398 23.352 22.9611 22.808 21.9798 21.72C20.9984 20.6107 20.5078 18.9467 20.5078 16.728V0.439999H26.2038V16.536C26.2038 18.0293 26.8864 18.776 28.2517 18.776C28.4651 18.776 28.6784 18.7653 28.8918 18.744C29.1264 18.7227 29.3504 18.6907 29.5638 18.648L29.4998 23C28.6464 23.2347 27.7184 23.352 26.7158 23.352ZM37.1048 23.352C35.8888 23.352 34.8114 23.128 33.8728 22.68C32.9554 22.232 32.2301 21.624 31.6968 20.856C31.1848 20.0667 30.9288 19.1707 30.9288 18.168C30.9288 17.0373 31.2274 16.1413 31.8248 15.48C32.4221 14.7973 33.3821 14.3173 34.7048 14.04C36.0274 13.7413 37.7874 13.592 39.9848 13.592H41.2008V13.144C41.2008 12.376 40.9981 11.832 40.5928 11.512C40.2088 11.192 39.5368 11.032 38.5768 11.032C37.7661 11.032 36.8701 11.16 35.8888 11.416C34.9074 11.672 33.9474 12.0667 33.0088 12.6L31.5688 8.856C32.1021 8.472 32.7848 8.13067 33.6168 7.832C34.4488 7.53333 35.3234 7.30933 36.2408 7.16C37.1581 6.98933 38.0221 6.904 38.8328 6.904C41.4568 6.904 43.3981 7.46933 44.6568 8.6C45.9368 9.73067 46.5768 11.512 46.5768 13.944V23H41.2648V20.76C40.9874 21.5707 40.4861 22.2107 39.7608 22.68C39.0354 23.128 38.1501 23.352 37.1048 23.352ZM38.3848 19.64C39.1741 19.64 39.8354 19.384 40.3688 18.872C40.9234 18.36 41.2008 17.688 41.2008 16.856V16.28H39.9848C38.7261 16.28 37.7981 16.4187 37.2008 16.696C36.6248 16.952 36.3368 17.368 36.3368 17.944C36.3368 18.4347 36.5074 18.84 36.8488 19.16C37.2114 19.48 37.7234 19.64 38.3848 19.64ZM50.624 28.76L53.792 21.912L47.36 7.256H53.344L56.8 16.184L60.384 7.256H66.016L56.384 28.76H50.624ZM78.7525 23.352C76.2565 23.352 74.1125 22.872 72.3205 21.912C70.5285 20.952 69.1525 19.5973 68.1925 17.848C67.2538 16.0987 66.7845 14.0507 66.7845 11.704C66.7845 9.35733 67.2538 7.32 68.1925 5.592C69.1525 3.84267 70.5285 2.488 72.3205 1.528C74.1125 0.568 76.2565 0.0879993 78.7525 0.0879993C80.2458 0.0879993 81.6858 0.322666 83.0725 0.792C84.4592 1.24 85.5792 1.83733 86.4325 2.584L84.6725 7.224C83.7338 6.54133 82.7952 6.04 81.8565 5.72C80.9178 5.37867 79.9578 5.208 78.9765 5.208C76.9925 5.208 75.4992 5.77333 74.4965 6.904C73.4938 8.01333 72.9925 9.61333 72.9925 11.704C72.9925 13.816 73.4938 15.4373 74.4965 16.568C75.4992 17.6773 76.9925 18.232 78.9765 18.232C79.9578 18.232 80.9178 18.072 81.8565 17.752C82.7952 17.4107 83.7338 16.8987 84.6725 16.216L86.4325 20.856C85.5792 21.6027 84.4592 22.2107 83.0725 22.68C81.6858 23.128 80.2458 23.352 78.7525 23.352ZM94.3288 23V5.24H87.1608V0.439999H107.385V5.24H100.217V23H94.3288ZM109.611 23V0.439999H125.355V4.984H115.499V9.528H124.651V14.04H115.499V23H109.611Z" fill="#191919"/>
</svg>
