<svg width="255" height="96" viewBox="0 0 255 96" fill="none" xmlns="http://www.w3.org/2000/svg">
<g filter="url(#filter0_d)">
<rect x="1" y="1" width="241" height="82" rx="3" fill="black" fill-opacity="0.9"/>
</g>
<path d="M27.0977 45.6348C27.0977 47.0488 26.7051 48.1309 25.9199 48.8809C25.1348 49.627 24.0039 50 22.5273 50H20.1309V41.4336H22.7793C24.1426 41.4336 25.2031 41.8008 25.9609 42.5352C26.7188 43.2695 27.0977 44.3027 27.0977 45.6348ZM25.6211 45.6816C25.6211 43.6309 24.6621 42.6055 22.7441 42.6055H21.5312V48.8223H22.5273C24.5898 48.8223 25.6211 47.7754 25.6211 45.6816ZM34.5449 46.748C34.5449 47.8066 34.2734 48.6328 33.7305 49.2266C33.1875 49.8203 32.4316 50.1172 31.4629 50.1172C30.8574 50.1172 30.3223 49.9805 29.8574 49.707C29.3926 49.4336 29.0352 49.041 28.7852 48.5293C28.5352 48.0176 28.4102 47.4238 28.4102 46.748C28.4102 45.6973 28.6797 44.877 29.2188 44.2871C29.7578 43.6973 30.5176 43.4023 31.498 43.4023C32.4355 43.4023 33.1777 43.7051 33.7246 44.3105C34.2715 44.9121 34.5449 45.7246 34.5449 46.748ZM29.8281 46.748C29.8281 48.2441 30.3809 48.9922 31.4863 48.9922C32.5801 48.9922 33.127 48.2441 33.127 46.748C33.127 45.2676 32.5762 44.5273 31.4746 44.5273C30.8965 44.5273 30.4766 44.7188 30.2148 45.1016C29.957 45.4844 29.8281 46.0332 29.8281 46.748ZM41.834 50H40.4512V46.0156C40.4512 45.5156 40.3496 45.1426 40.1465 44.8965C39.9473 44.6504 39.6289 44.5273 39.1914 44.5273C38.6094 44.5273 38.1836 44.6992 37.9141 45.043C37.6445 45.3867 37.5098 45.9629 37.5098 46.7715V50H36.1328V43.5195H37.2109L37.4043 44.3691H37.4746C37.6699 44.0605 37.9473 43.8223 38.3066 43.6543C38.666 43.4863 39.0645 43.4023 39.502 43.4023C41.0566 43.4023 41.834 44.1934 41.834 45.7754V50ZM44.8516 41.4336L44.9395 41.5625C44.7324 42.3789 44.3887 43.3145 43.9082 44.3691H42.9121C43.1816 43.2402 43.377 42.2617 43.498 41.4336H44.8516ZM48.4844 49.0039C48.8203 49.0039 49.1562 48.9512 49.4922 48.8457V49.8828C49.3398 49.9492 49.1426 50.0039 48.9004 50.0469C48.6621 50.0938 48.4141 50.1172 48.1562 50.1172C46.8516 50.1172 46.1992 49.4297 46.1992 48.0547V44.5625H45.3145V43.9531L46.2637 43.4492L46.7324 42.0781H47.582V43.5195H49.4277V44.5625H47.582V48.0312C47.582 48.3633 47.6641 48.6094 47.8281 48.7695C47.9961 48.9258 48.2148 49.0039 48.4844 49.0039ZM59.2246 50L58.3867 46.9766C58.2852 46.6562 58.1016 45.9121 57.8359 44.7441H57.7832C57.5566 45.7988 57.377 46.5469 57.2441 46.9883L56.3828 50H54.8594L53.043 43.5195H54.4492L55.2754 46.7129C55.4629 47.502 55.5957 48.1777 55.6738 48.7402H55.709C55.748 48.4551 55.8066 48.1289 55.8848 47.7617C55.9668 47.3906 56.0371 47.1133 56.0957 46.9297L57.0801 43.5195H58.5918L59.5469 46.9297C59.6055 47.1211 59.6777 47.4141 59.7637 47.8086C59.8535 48.2031 59.9062 48.5098 59.9219 48.7285H59.9688C60.0273 48.248 60.1641 47.5762 60.3789 46.7129L61.2168 43.5195H62.5996L60.7715 50H59.2246ZM69.4668 46.748C69.4668 47.8066 69.1953 48.6328 68.6523 49.2266C68.1094 49.8203 67.3535 50.1172 66.3848 50.1172C65.7793 50.1172 65.2441 49.9805 64.7793 49.707C64.3145 49.4336 63.957 49.041 63.707 48.5293C63.457 48.0176 63.332 47.4238 63.332 46.748C63.332 45.6973 63.6016 44.877 64.1406 44.2871C64.6797 43.6973 65.4395 43.4023 66.4199 43.4023C67.3574 43.4023 68.0996 43.7051 68.6465 44.3105C69.1934 44.9121 69.4668 45.7246 69.4668 46.748ZM64.75 46.748C64.75 48.2441 65.3027 48.9922 66.4082 48.9922C67.502 48.9922 68.0488 48.2441 68.0488 46.748C68.0488 45.2676 67.498 44.5273 66.3965 44.5273C65.8184 44.5273 65.3984 44.7188 65.1367 45.1016C64.8789 45.4844 64.75 46.0332 64.75 46.748ZM74.3418 43.4023C74.6191 43.4023 74.8477 43.4219 75.0273 43.4609L74.8926 44.7441C74.6973 44.6973 74.4941 44.6738 74.2832 44.6738C73.7324 44.6738 73.2852 44.8535 72.9414 45.2129C72.6016 45.5723 72.4316 46.0391 72.4316 46.6133V50H71.0547V43.5195H72.1328L72.3145 44.6621H72.3848C72.5996 44.2754 72.8789 43.9688 73.2227 43.7422C73.5703 43.5156 73.9434 43.4023 74.3418 43.4023ZM79.5215 43.4023C79.7988 43.4023 80.0273 43.4219 80.207 43.4609L80.0723 44.7441C79.877 44.6973 79.6738 44.6738 79.4629 44.6738C78.9121 44.6738 78.4648 44.8535 78.1211 45.2129C77.7812 45.5723 77.6113 46.0391 77.6113 46.6133V50H76.2344V43.5195H77.3125L77.4941 44.6621H77.5645C77.7793 44.2754 78.0586 43.9688 78.4023 43.7422C78.75 43.5156 79.123 43.4023 79.5215 43.4023ZM80.4297 43.5195H81.9297L83.248 47.1934C83.4473 47.7168 83.5801 48.209 83.6465 48.6699H83.6934C83.7285 48.4551 83.793 48.1953 83.8867 47.8906C83.9805 47.582 84.4766 46.125 85.375 43.5195H86.8633L84.0918 50.8613C83.5879 52.209 82.748 52.8828 81.5723 52.8828C81.2676 52.8828 80.9707 52.8496 80.6816 52.7832V51.6934C80.8887 51.7402 81.125 51.7637 81.3906 51.7637C82.0547 51.7637 82.5215 51.3789 82.791 50.6094L83.0312 50L80.4297 43.5195ZM89.0371 47.3984H88.0176L87.7129 41.4336H89.3359L89.0371 47.3984ZM87.6426 49.2676C87.6426 48.9785 87.7188 48.7598 87.8711 48.6113C88.0234 48.459 88.2402 48.3828 88.5215 48.3828C88.7988 48.3828 89.0117 48.4609 89.1602 48.6172C89.3086 48.7734 89.3828 48.9902 89.3828 49.2676C89.3828 49.5449 89.3066 49.7656 89.1543 49.9297C89.0059 50.0898 88.7949 50.1699 88.5215 50.1699C88.2441 50.1699 88.0273 50.0918 87.8711 49.9355C87.7188 49.7793 87.6426 49.5566 87.6426 49.2676ZM101.951 50H100.967L99.2383 44.2637C99.1562 44.0098 99.0645 43.6895 98.9629 43.3027C98.8613 42.916 98.8086 42.6836 98.8047 42.6055C98.7188 43.1211 98.582 43.6855 98.3945 44.2988L96.7188 50H95.7344L93.4551 41.4336H94.5098L95.8633 46.7246C96.0508 47.4668 96.1875 48.1387 96.2734 48.7402C96.3789 48.0254 96.5352 47.3262 96.7422 46.6426L98.2773 41.4336H99.332L100.943 46.6895C101.131 47.2949 101.289 47.9785 101.418 48.7402C101.492 48.1855 101.633 47.5098 101.84 46.7129L103.188 41.4336H104.242L101.951 50ZM108.15 50.1172C107.201 50.1172 106.451 49.8281 105.9 49.25C105.354 48.6719 105.08 47.8691 105.08 46.8418C105.08 45.8066 105.334 44.9844 105.842 44.375C106.354 43.7656 107.039 43.4609 107.898 43.4609C108.703 43.4609 109.34 43.7266 109.809 44.2578C110.277 44.7852 110.512 45.4824 110.512 46.3496V46.9648H106.088C106.107 47.7188 106.297 48.291 106.656 48.6816C107.02 49.0723 107.529 49.2676 108.186 49.2676C108.877 49.2676 109.561 49.123 110.236 48.834V49.7012C109.893 49.8496 109.566 49.9551 109.258 50.0176C108.953 50.084 108.584 50.1172 108.15 50.1172ZM107.887 44.2754C107.371 44.2754 106.959 44.4434 106.65 44.7793C106.346 45.1152 106.166 45.5801 106.111 46.1738H109.469C109.469 45.5605 109.332 45.0918 109.059 44.7676C108.785 44.4395 108.395 44.2754 107.887 44.2754ZM112.955 41.4336L113.043 41.5625C112.941 41.9531 112.795 42.4082 112.604 42.9277C112.412 43.4434 112.213 43.9238 112.006 44.3691H111.291C111.564 43.2559 111.764 42.2773 111.889 41.4336H112.955ZM117.145 43.4609C117.43 43.4609 117.686 43.4844 117.912 43.5312L117.777 44.4336C117.512 44.375 117.277 44.3457 117.074 44.3457C116.555 44.3457 116.109 44.5566 115.738 44.9785C115.371 45.4004 115.188 45.9258 115.188 46.5547V50H114.215V43.5781H115.018L115.129 44.7676H115.176C115.414 44.3496 115.701 44.0273 116.037 43.8008C116.373 43.5742 116.742 43.4609 117.145 43.4609ZM121.826 50.1172C120.877 50.1172 120.127 49.8281 119.576 49.25C119.029 48.6719 118.756 47.8691 118.756 46.8418C118.756 45.8066 119.01 44.9844 119.518 44.375C120.029 43.7656 120.715 43.4609 121.574 43.4609C122.379 43.4609 123.016 43.7266 123.484 44.2578C123.953 44.7852 124.188 45.4824 124.188 46.3496V46.9648H119.764C119.783 47.7188 119.973 48.291 120.332 48.6816C120.695 49.0723 121.205 49.2676 121.861 49.2676C122.553 49.2676 123.236 49.123 123.912 48.834V49.7012C123.568 49.8496 123.242 49.9551 122.934 50.0176C122.629 50.084 122.26 50.1172 121.826 50.1172ZM121.562 44.2754C121.047 44.2754 120.635 44.4434 120.326 44.7793C120.021 45.1152 119.842 45.5801 119.787 46.1738H123.145C123.145 45.5605 123.008 45.0918 122.734 44.7676C122.461 44.4395 122.07 44.2754 121.562 44.2754ZM134.512 46.7832C134.512 47.8301 134.248 48.6484 133.721 49.2383C133.193 49.8242 132.465 50.1172 131.535 50.1172C130.961 50.1172 130.451 49.9824 130.006 49.7129C129.561 49.4434 129.217 49.0566 128.975 48.5527C128.732 48.0488 128.611 47.459 128.611 46.7832C128.611 45.7363 128.873 44.9219 129.396 44.3398C129.92 43.7539 130.646 43.4609 131.576 43.4609C132.475 43.4609 133.188 43.7598 133.715 44.3574C134.246 44.9551 134.512 45.7637 134.512 46.7832ZM129.619 46.7832C129.619 47.6035 129.783 48.2285 130.111 48.6582C130.439 49.0879 130.922 49.3027 131.559 49.3027C132.195 49.3027 132.678 49.0898 133.006 48.6641C133.338 48.2344 133.504 47.6074 133.504 46.7832C133.504 45.9668 133.338 45.3477 133.006 44.9258C132.678 44.5 132.191 44.2871 131.547 44.2871C130.91 44.2871 130.43 44.4961 130.105 44.9141C129.781 45.332 129.619 45.9551 129.619 46.7832ZM140.617 50V45.8457C140.617 45.3223 140.498 44.9316 140.26 44.6738C140.021 44.416 139.648 44.2871 139.141 44.2871C138.469 44.2871 137.977 44.4688 137.664 44.832C137.352 45.1953 137.195 45.7949 137.195 46.6309V50H136.223V43.5781H137.014L137.172 44.457H137.219C137.418 44.1406 137.697 43.8965 138.057 43.7246C138.416 43.5488 138.816 43.4609 139.258 43.4609C140.031 43.4609 140.613 43.6484 141.004 44.0234C141.395 44.3945 141.59 44.9902 141.59 45.8105V50H140.617ZM147.684 50H146.711V43.5781H147.684V50ZM146.629 41.8379C146.629 41.6152 146.684 41.4531 146.793 41.3516C146.902 41.2461 147.039 41.1934 147.203 41.1934C147.359 41.1934 147.494 41.2461 147.607 41.3516C147.721 41.457 147.777 41.6191 147.777 41.8379C147.777 42.0566 147.721 42.2207 147.607 42.3301C147.494 42.4355 147.359 42.4883 147.203 42.4883C147.039 42.4883 146.902 42.4355 146.793 42.3301C146.684 42.2207 146.629 42.0566 146.629 41.8379ZM151.82 49.3145C151.992 49.3145 152.158 49.3027 152.318 49.2793C152.479 49.252 152.605 49.2246 152.699 49.1973V49.9414C152.594 49.9922 152.438 50.0332 152.23 50.0645C152.027 50.0996 151.844 50.1172 151.68 50.1172C150.438 50.1172 149.816 49.4629 149.816 48.1543V44.334H148.896V43.8652L149.816 43.4609L150.227 42.0898H150.789V43.5781H152.652V44.334H150.789V48.1133C150.789 48.5 150.881 48.7969 151.064 49.0039C151.248 49.2109 151.5 49.3145 151.82 49.3145ZM153.848 49.3789C153.848 49.1172 153.906 48.9199 154.023 48.7871C154.145 48.6504 154.316 48.582 154.539 48.582C154.766 48.582 154.941 48.6504 155.066 48.7871C155.195 48.9199 155.26 49.1172 155.26 49.3789C155.26 49.6328 155.195 49.8281 155.066 49.9648C154.938 50.1016 154.762 50.1699 154.539 50.1699C154.34 50.1699 154.174 50.1094 154.041 49.9883C153.912 49.8633 153.848 49.6602 153.848 49.3789ZM20.1777 66V57.4336H21.1738V66H20.1777ZM25.457 65.3145C25.6289 65.3145 25.7949 65.3027 25.9551 65.2793C26.1152 65.252 26.2422 65.2246 26.3359 65.1973V65.9414C26.2305 65.9922 26.0742 66.0332 25.8672 66.0645C25.6641 66.0996 25.4805 66.1172 25.3164 66.1172C24.0742 66.1172 23.4531 65.4629 23.4531 64.1543V60.334H22.5332V59.8652L23.4531 59.4609L23.8633 58.0898H24.4258V59.5781H26.2891V60.334H24.4258V64.1133C24.4258 64.5 24.5176 64.7969 24.7012 65.0039C24.8848 65.2109 25.1367 65.3145 25.457 65.3145ZM35.9863 66L34.8086 62.2324C34.7344 62.002 34.5957 61.4785 34.3926 60.6621H34.3457C34.1895 61.3457 34.0527 61.873 33.9355 62.2441L32.7227 66H31.5977L29.8457 59.5781H30.8652C31.2793 61.1914 31.5938 62.4199 31.8086 63.2637C32.0273 64.1074 32.1523 64.6758 32.1836 64.9688H32.2305C32.2734 64.7461 32.3418 64.459 32.4355 64.1074C32.5332 63.752 32.6172 63.4707 32.6875 63.2637L33.8652 59.5781H34.9199L36.0684 63.2637C36.2871 63.9355 36.4355 64.5 36.5137 64.957H36.5605C36.5762 64.8164 36.6172 64.5996 36.6836 64.3066C36.7539 64.0137 37.1621 62.4375 37.9082 59.5781H38.916L37.1406 66H35.9863ZM41.0547 66H40.082V59.5781H41.0547V66ZM40 57.8379C40 57.6152 40.0547 57.4531 40.1641 57.3516C40.2734 57.2461 40.4102 57.1934 40.5742 57.1934C40.7305 57.1934 40.8652 57.2461 40.9785 57.3516C41.0918 57.457 41.1484 57.6191 41.1484 57.8379C41.1484 58.0566 41.0918 58.2207 40.9785 58.3301C40.8652 58.4355 40.7305 58.4883 40.5742 58.4883C40.4102 58.4883 40.2734 58.4355 40.1641 58.3301C40.0547 58.2207 40 58.0566 40 57.8379ZM44.0898 66H43.1172V56.8828H44.0898V66ZM47.125 66H46.1523V56.8828H47.125V66ZM55.293 59.4727C56.1367 59.4727 56.791 59.7617 57.2559 60.3398C57.7246 60.9141 57.959 61.7285 57.959 62.7832C57.959 63.8379 57.7227 64.6582 57.25 65.2441C56.7812 65.8262 56.1289 66.1172 55.293 66.1172C54.875 66.1172 54.4922 66.041 54.1445 65.8887C53.8008 65.7324 53.5117 65.4941 53.2773 65.1738H53.207L53.002 66H52.3047V56.8828H53.2773V59.0977C53.2773 59.5938 53.2617 60.0391 53.2305 60.4336H53.2773C53.7305 59.793 54.4023 59.4727 55.293 59.4727ZM55.1523 60.2871C54.4883 60.2871 54.0098 60.4785 53.7168 60.8613C53.4238 61.2402 53.2773 61.8809 53.2773 62.7832C53.2773 63.6855 53.4277 64.332 53.7285 64.7227C54.0293 65.1094 54.5117 65.3027 55.1758 65.3027C55.7734 65.3027 56.2188 65.0859 56.5117 64.6523C56.8047 64.2148 56.9512 63.5879 56.9512 62.7715C56.9512 61.9355 56.8047 61.3125 56.5117 60.9023C56.2188 60.4922 55.7656 60.2871 55.1523 60.2871ZM62.377 66.1172C61.4277 66.1172 60.6777 65.8281 60.127 65.25C59.5801 64.6719 59.3066 63.8691 59.3066 62.8418C59.3066 61.8066 59.5605 60.9844 60.0684 60.375C60.5801 59.7656 61.2656 59.4609 62.125 59.4609C62.9297 59.4609 63.5664 59.7266 64.0352 60.2578C64.5039 60.7852 64.7383 61.4824 64.7383 62.3496V62.9648H60.3145C60.334 63.7188 60.5234 64.291 60.8828 64.6816C61.2461 65.0723 61.7559 65.2676 62.4121 65.2676C63.1035 65.2676 63.7871 65.123 64.4629 64.834V65.7012C64.1191 65.8496 63.793 65.9551 63.4844 66.0176C63.1797 66.084 62.8105 66.1172 62.377 66.1172ZM62.1133 60.2754C61.5977 60.2754 61.1855 60.4434 60.877 60.7793C60.5723 61.1152 60.3926 61.5801 60.3379 62.1738H63.6953C63.6953 61.5605 63.5586 61.0918 63.2852 60.7676C63.0117 60.4395 62.6211 60.2754 62.1133 60.2754ZM70.4336 59.5781V63.7441C70.4336 64.2676 70.5527 64.6582 70.791 64.916C71.0293 65.1738 71.4023 65.3027 71.9102 65.3027C72.582 65.3027 73.0723 65.1191 73.3809 64.752C73.6934 64.3848 73.8496 63.7852 73.8496 62.9531V59.5781H74.8223V66H74.0195L73.8789 65.1387H73.8262C73.627 65.4551 73.3496 65.6973 72.9941 65.8652C72.6426 66.0332 72.2402 66.1172 71.7871 66.1172C71.0059 66.1172 70.4199 65.9316 70.0293 65.5605C69.6426 65.1895 69.4492 64.5957 69.4492 63.7793V59.5781H70.4336ZM79.8789 66.1172C79.4609 66.1172 79.0781 66.041 78.7305 65.8887C78.3867 65.7324 78.0977 65.4941 77.8633 65.1738H77.793C77.8398 65.5488 77.8633 65.9043 77.8633 66.2402V68.8828H76.8906V59.5781H77.6816L77.8164 60.457H77.8633C78.1133 60.1055 78.4043 59.8516 78.7363 59.6953C79.0684 59.5391 79.4492 59.4609 79.8789 59.4609C80.7305 59.4609 81.3867 59.752 81.8477 60.334C82.3125 60.916 82.5449 61.7324 82.5449 62.7832C82.5449 63.8379 82.3086 64.6582 81.8359 65.2441C81.3672 65.8262 80.7148 66.1172 79.8789 66.1172ZM79.7383 60.2871C79.082 60.2871 78.6074 60.4688 78.3145 60.832C78.0215 61.1953 77.8711 61.7734 77.8633 62.5664V62.7832C77.8633 63.6855 78.0137 64.332 78.3145 64.7227C78.6152 65.1094 79.0977 65.3027 79.7617 65.3027C80.3164 65.3027 80.75 65.0781 81.0625 64.6289C81.3789 64.1797 81.5371 63.5605 81.5371 62.7715C81.5371 61.9707 81.3789 61.3574 81.0625 60.9316C80.75 60.502 80.3086 60.2871 79.7383 60.2871ZM91.3164 66L91.123 65.0859H91.0762C90.7559 65.4883 90.4355 65.7617 90.1152 65.9062C89.7988 66.0469 89.4023 66.1172 88.9258 66.1172C88.2891 66.1172 87.7891 65.9531 87.4258 65.625C87.0664 65.2969 86.8867 64.8301 86.8867 64.2246C86.8867 62.9277 87.9238 62.248 89.998 62.1855L91.0879 62.1504V61.752C91.0879 61.248 90.9785 60.877 90.7598 60.6387C90.5449 60.3965 90.1992 60.2754 89.7227 60.2754C89.1875 60.2754 88.582 60.4395 87.9062 60.7676L87.6074 60.0234C87.9238 59.8516 88.2695 59.7168 88.6445 59.6191C89.0234 59.5215 89.4023 59.4727 89.7812 59.4727C90.5469 59.4727 91.1133 59.6426 91.4805 59.9824C91.8516 60.3223 92.0371 60.8672 92.0371 61.6172V66H91.3164ZM89.1191 65.3145C89.7246 65.3145 90.1992 65.1484 90.543 64.8164C90.8906 64.4844 91.0645 64.0195 91.0645 63.4219V62.8418L90.0918 62.8828C89.3184 62.9102 88.7598 63.0312 88.416 63.2461C88.0762 63.457 87.9062 63.7871 87.9062 64.2363C87.9062 64.5879 88.0117 64.8555 88.2227 65.0391C88.4375 65.2227 88.7363 65.3145 89.1191 65.3145ZM98.4414 66V61.8457C98.4414 61.3223 98.3223 60.9316 98.084 60.6738C97.8457 60.416 97.4727 60.2871 96.9648 60.2871C96.293 60.2871 95.8008 60.4688 95.4883 60.832C95.1758 61.1953 95.0195 61.7949 95.0195 62.6309V66H94.0469V59.5781H94.8379L94.9961 60.457H95.043C95.2422 60.1406 95.5215 59.8965 95.8809 59.7246C96.2402 59.5488 96.6406 59.4609 97.082 59.4609C97.8555 59.4609 98.4375 59.6484 98.8281 60.0234C99.2188 60.3945 99.4141 60.9902 99.4141 61.8105V66H98.4414ZM105.789 65.1387H105.736C105.287 65.791 104.615 66.1172 103.721 66.1172C102.881 66.1172 102.227 65.8301 101.758 65.2559C101.293 64.6816 101.061 63.8652 101.061 62.8066C101.061 61.748 101.295 60.9258 101.764 60.3398C102.232 59.7539 102.885 59.4609 103.721 59.4609C104.592 59.4609 105.26 59.7773 105.725 60.4102H105.801L105.76 59.9473L105.736 59.4961V56.8828H106.709V66H105.918L105.789 65.1387ZM103.844 65.3027C104.508 65.3027 104.988 65.123 105.285 64.7637C105.586 64.4004 105.736 63.8164 105.736 63.0117V62.8066C105.736 61.8965 105.584 61.248 105.279 60.8613C104.979 60.4707 104.496 60.2754 103.832 60.2754C103.262 60.2754 102.824 60.498 102.52 60.9434C102.219 61.3848 102.068 62.0098 102.068 62.8184C102.068 63.6387 102.219 64.2578 102.52 64.6758C102.82 65.0938 103.262 65.3027 103.844 65.3027ZM114.824 59.4609C115.109 59.4609 115.365 59.4844 115.592 59.5312L115.457 60.4336C115.191 60.375 114.957 60.3457 114.754 60.3457C114.234 60.3457 113.789 60.5566 113.418 60.9785C113.051 61.4004 112.867 61.9258 112.867 62.5547V66H111.895V59.5781H112.697L112.809 60.7676H112.855C113.094 60.3496 113.381 60.0273 113.717 59.8008C114.053 59.5742 114.422 59.4609 114.824 59.4609ZM117.707 59.5781V63.7441C117.707 64.2676 117.826 64.6582 118.064 64.916C118.303 65.1738 118.676 65.3027 119.184 65.3027C119.855 65.3027 120.346 65.1191 120.654 64.752C120.967 64.3848 121.123 63.7852 121.123 62.9531V59.5781H122.096V66H121.293L121.152 65.1387H121.1C120.9 65.4551 120.623 65.6973 120.268 65.8652C119.916 66.0332 119.514 66.1172 119.061 66.1172C118.279 66.1172 117.693 65.9316 117.303 65.5605C116.916 65.1895 116.723 64.5957 116.723 63.7793V59.5781H117.707ZM128.559 66V61.8457C128.559 61.3223 128.439 60.9316 128.201 60.6738C127.963 60.416 127.59 60.2871 127.082 60.2871C126.41 60.2871 125.918 60.4688 125.605 60.832C125.293 61.1953 125.137 61.7949 125.137 62.6309V66H124.164V59.5781H124.955L125.113 60.457H125.16C125.359 60.1406 125.639 59.8965 125.998 59.7246C126.357 59.5488 126.758 59.4609 127.199 59.4609C127.973 59.4609 128.555 59.6484 128.945 60.0234C129.336 60.3945 129.531 60.9902 129.531 61.8105V66H128.559ZM135.93 66V61.8457C135.93 61.3223 135.811 60.9316 135.572 60.6738C135.334 60.416 134.961 60.2871 134.453 60.2871C133.781 60.2871 133.289 60.4688 132.977 60.832C132.664 61.1953 132.508 61.7949 132.508 62.6309V66H131.535V59.5781H132.326L132.484 60.457H132.531C132.73 60.1406 133.01 59.8965 133.369 59.7246C133.729 59.5488 134.129 59.4609 134.57 59.4609C135.344 59.4609 135.926 59.6484 136.316 60.0234C136.707 60.3945 136.902 60.9902 136.902 61.8105V66H135.93ZM139.879 66H138.906V59.5781H139.879V66ZM138.824 57.8379C138.824 57.6152 138.879 57.4531 138.988 57.3516C139.098 57.2461 139.234 57.1934 139.398 57.1934C139.555 57.1934 139.689 57.2461 139.803 57.3516C139.916 57.457 139.973 57.6191 139.973 57.8379C139.973 58.0566 139.916 58.2207 139.803 58.3301C139.689 58.4355 139.555 58.4883 139.398 58.4883C139.234 58.4883 139.098 58.4355 138.988 58.3301C138.879 58.2207 138.824 58.0566 138.824 57.8379ZM146.336 66V61.8457C146.336 61.3223 146.217 60.9316 145.979 60.6738C145.74 60.416 145.367 60.2871 144.859 60.2871C144.188 60.2871 143.695 60.4688 143.383 60.832C143.07 61.1953 142.914 61.7949 142.914 62.6309V66H141.941V59.5781H142.732L142.891 60.457H142.938C143.137 60.1406 143.416 59.8965 143.775 59.7246C144.135 59.5488 144.535 59.4609 144.977 59.4609C145.75 59.4609 146.332 59.6484 146.723 60.0234C147.113 60.3945 147.309 60.9902 147.309 61.8105V66H146.336ZM154.568 59.5781V60.1934L153.379 60.334C153.488 60.4707 153.586 60.6504 153.672 60.873C153.758 61.0918 153.801 61.3398 153.801 61.6172C153.801 62.2461 153.586 62.748 153.156 63.123C152.727 63.498 152.137 63.6855 151.387 63.6855C151.195 63.6855 151.016 63.6699 150.848 63.6387C150.434 63.8574 150.227 64.1328 150.227 64.4648C150.227 64.6406 150.299 64.7715 150.443 64.8574C150.588 64.9395 150.836 64.9805 151.188 64.9805H152.324C153.02 64.9805 153.553 65.127 153.924 65.4199C154.299 65.7129 154.486 66.1387 154.486 66.6973C154.486 67.4082 154.201 67.9492 153.631 68.3203C153.061 68.6953 152.229 68.8828 151.135 68.8828C150.295 68.8828 149.646 68.7266 149.189 68.4141C148.736 68.1016 148.51 67.6602 148.51 67.0898C148.51 66.6992 148.635 66.3613 148.885 66.0762C149.135 65.791 149.486 65.5977 149.939 65.4961C149.775 65.4219 149.637 65.3066 149.523 65.1504C149.414 64.9941 149.359 64.8125 149.359 64.6055C149.359 64.3711 149.422 64.166 149.547 63.9902C149.672 63.8145 149.869 63.6445 150.139 63.4805C149.807 63.3438 149.535 63.1113 149.324 62.7832C149.117 62.4551 149.014 62.0801 149.014 61.6582C149.014 60.9551 149.225 60.4141 149.646 60.0352C150.068 59.6523 150.666 59.4609 151.439 59.4609C151.775 59.4609 152.078 59.5 152.348 59.5781H154.568ZM149.447 67.0781C149.447 67.4258 149.594 67.6895 149.887 67.8691C150.18 68.0488 150.6 68.1387 151.146 68.1387C151.963 68.1387 152.566 68.0156 152.957 67.7695C153.352 67.5273 153.549 67.1973 153.549 66.7793C153.549 66.4316 153.441 66.1895 153.227 66.0527C153.012 65.9199 152.607 65.8535 152.014 65.8535H150.848C150.406 65.8535 150.062 65.959 149.816 66.1699C149.57 66.3809 149.447 66.6836 149.447 67.0781ZM149.975 61.6348C149.975 62.084 150.102 62.4238 150.355 62.6543C150.609 62.8848 150.963 63 151.416 63C152.365 63 152.84 62.5391 152.84 61.6172C152.84 60.6523 152.359 60.1699 151.398 60.1699C150.941 60.1699 150.59 60.293 150.344 60.5391C150.098 60.7852 149.975 61.1504 149.975 61.6348ZM163.146 64.248C163.146 64.8457 162.924 65.3066 162.479 65.6309C162.033 65.9551 161.408 66.1172 160.604 66.1172C159.752 66.1172 159.088 65.9824 158.611 65.7129V64.8105C158.92 64.9668 159.25 65.0898 159.602 65.1797C159.957 65.2695 160.299 65.3145 160.627 65.3145C161.135 65.3145 161.525 65.2344 161.799 65.0742C162.072 64.9102 162.209 64.6621 162.209 64.3301C162.209 64.0801 162.1 63.8672 161.881 63.6914C161.666 63.5117 161.244 63.3008 160.615 63.0586C160.018 62.8359 159.592 62.6426 159.338 62.4785C159.088 62.3105 158.9 62.1211 158.775 61.9102C158.654 61.6992 158.594 61.4473 158.594 61.1543C158.594 60.6309 158.807 60.2188 159.232 59.918C159.658 59.6133 160.242 59.4609 160.984 59.4609C161.676 59.4609 162.352 59.6016 163.012 59.8828L162.666 60.6738C162.021 60.4082 161.438 60.2754 160.914 60.2754C160.453 60.2754 160.105 60.3477 159.871 60.4922C159.637 60.6367 159.52 60.8359 159.52 61.0898C159.52 61.2617 159.562 61.4082 159.648 61.5293C159.738 61.6504 159.881 61.7656 160.076 61.875C160.271 61.9844 160.646 62.1426 161.201 62.3496C161.963 62.627 162.477 62.9062 162.742 63.1875C163.012 63.4688 163.146 63.8223 163.146 64.248ZM170.277 62.7832C170.277 63.8301 170.014 64.6484 169.486 65.2383C168.959 65.8242 168.23 66.1172 167.301 66.1172C166.727 66.1172 166.217 65.9824 165.771 65.7129C165.326 65.4434 164.982 65.0566 164.74 64.5527C164.498 64.0488 164.377 63.459 164.377 62.7832C164.377 61.7363 164.639 60.9219 165.162 60.3398C165.686 59.7539 166.412 59.4609 167.342 59.4609C168.24 59.4609 168.953 59.7598 169.48 60.3574C170.012 60.9551 170.277 61.7637 170.277 62.7832ZM165.385 62.7832C165.385 63.6035 165.549 64.2285 165.877 64.6582C166.205 65.0879 166.688 65.3027 167.324 65.3027C167.961 65.3027 168.443 65.0898 168.771 64.6641C169.104 64.2344 169.27 63.6074 169.27 62.7832C169.27 61.9668 169.104 61.3477 168.771 60.9258C168.443 60.5 167.957 60.2871 167.312 60.2871C166.676 60.2871 166.195 60.4961 165.871 60.9141C165.547 61.332 165.385 61.9551 165.385 62.7832ZM177.531 62.7832C177.531 63.8301 177.268 64.6484 176.74 65.2383C176.213 65.8242 175.484 66.1172 174.555 66.1172C173.98 66.1172 173.471 65.9824 173.025 65.7129C172.58 65.4434 172.236 65.0566 171.994 64.5527C171.752 64.0488 171.631 63.459 171.631 62.7832C171.631 61.7363 171.893 60.9219 172.416 60.3398C172.939 59.7539 173.666 59.4609 174.596 59.4609C175.494 59.4609 176.207 59.7598 176.734 60.3574C177.266 60.9551 177.531 61.7637 177.531 62.7832ZM172.639 62.7832C172.639 63.6035 172.803 64.2285 173.131 64.6582C173.459 65.0879 173.941 65.3027 174.578 65.3027C175.215 65.3027 175.697 65.0898 176.025 64.6641C176.357 64.2344 176.523 63.6074 176.523 62.7832C176.523 61.9668 176.357 61.3477 176.025 60.9258C175.697 60.5 175.211 60.2871 174.566 60.2871C173.93 60.2871 173.449 60.4961 173.125 60.9141C172.801 61.332 172.639 61.9551 172.639 62.7832ZM183.637 66V61.8457C183.637 61.3223 183.518 60.9316 183.279 60.6738C183.041 60.416 182.668 60.2871 182.16 60.2871C181.488 60.2871 180.996 60.4688 180.684 60.832C180.371 61.1953 180.215 61.7949 180.215 62.6309V66H179.242V59.5781H180.033L180.191 60.457H180.238C180.438 60.1406 180.717 59.8965 181.076 59.7246C181.436 59.5488 181.836 59.4609 182.277 59.4609C183.051 59.4609 183.633 59.6484 184.023 60.0234C184.414 60.3945 184.609 60.9902 184.609 61.8105V66H183.637ZM186.473 65.3789C186.473 65.1172 186.531 64.9199 186.648 64.7871C186.77 64.6504 186.941 64.582 187.164 64.582C187.391 64.582 187.566 64.6504 187.691 64.7871C187.82 64.9199 187.885 65.1172 187.885 65.3789C187.885 65.6328 187.82 65.8281 187.691 65.9648C187.562 66.1016 187.387 66.1699 187.164 66.1699C186.965 66.1699 186.799 66.1094 186.666 65.9883C186.537 65.8633 186.473 65.6602 186.473 65.3789Z" fill="white"/>
<path d="M20.312 17.72H24.264C26.088 17.72 27.5013 18.2107 28.504 19.192C29.5067 20.1733 30.008 21.56 30.008 23.352C30.008 25.144 29.5067 26.536 28.504 27.528C27.5013 28.5093 26.088 29 24.264 29H20.312V17.72ZM24.168 27.624C26.9413 27.624 28.328 26.2 28.328 23.352C28.328 20.5147 26.9413 19.096 24.168 19.096H21.96V27.624H24.168ZM35.4495 29.112C34.6815 29.112 34.0042 28.9467 33.4175 28.616C32.8415 28.2853 32.3935 27.816 32.0735 27.208C31.7642 26.5893 31.6095 25.8747 31.6095 25.064C31.6095 24.2427 31.7642 23.528 32.0735 22.92C32.3935 22.3013 32.8415 21.8267 33.4175 21.496C34.0042 21.1653 34.6815 21 35.4495 21C36.2175 21 36.8895 21.1653 37.4655 21.496C38.0522 21.8267 38.5002 22.3013 38.8095 22.92C39.1295 23.528 39.2895 24.2427 39.2895 25.064C39.2895 25.8747 39.1295 26.5893 38.8095 27.208C38.5002 27.816 38.0522 28.2853 37.4655 28.616C36.8895 28.9467 36.2175 29.112 35.4495 29.112ZM35.4495 27.832C36.1642 27.832 36.7082 27.5973 37.0815 27.128C37.4655 26.6587 37.6575 25.9707 37.6575 25.064C37.6575 24.168 37.4655 23.4853 37.0815 23.016C36.6975 22.536 36.1535 22.296 35.4495 22.296C34.7455 22.296 34.2015 22.536 33.8175 23.016C33.4335 23.4853 33.2415 24.168 33.2415 25.064C33.2415 25.9707 33.4282 26.6587 33.8015 27.128C34.1855 27.5973 34.7348 27.832 35.4495 27.832ZM53.1554 21.192L50.1634 29H48.7074L46.6434 23.416L44.5794 29H43.1074L40.1314 21.192H41.8114L43.9234 27.064L46.0514 21.192H47.3154L49.4434 27.096L51.5554 21.192H53.1554ZM58.7499 21C60.6165 21 61.5499 22.0507 61.5499 24.152V29H59.9339V24.232C59.9339 23.5707 59.8005 23.0853 59.5339 22.776C59.2779 22.4667 58.8725 22.312 58.3179 22.312C57.6672 22.312 57.1445 22.5147 56.7499 22.92C56.3552 23.3253 56.1579 23.8693 56.1579 24.552V29H54.5419V21.192H56.1259V22.44C56.3819 21.9707 56.7392 21.6133 57.1979 21.368C57.6565 21.1227 58.1739 21 58.7499 21ZM70.0914 21.192H72.2354V22.44H70.0914V29H68.4754V22.44H66.9554V21.192H68.4754V21.048C68.4754 19.9707 68.7474 19.16 69.2914 18.616C69.846 18.072 70.6887 17.768 71.8194 17.704L72.5394 17.672L72.6354 18.888L71.8994 18.936C71.2594 18.968 70.7954 19.1333 70.5074 19.432C70.23 19.7307 70.0914 20.184 70.0914 20.792V21.192ZM76.762 29.112C75.994 29.112 75.3167 28.9467 74.73 28.616C74.154 28.2853 73.706 27.816 73.386 27.208C73.0767 26.5893 72.922 25.8747 72.922 25.064C72.922 24.2427 73.0767 23.528 73.386 22.92C73.706 22.3013 74.154 21.8267 74.73 21.496C75.3167 21.1653 75.994 21 76.762 21C77.53 21 78.202 21.1653 78.778 21.496C79.3647 21.8267 79.8127 22.3013 80.122 22.92C80.442 23.528 80.602 24.2427 80.602 25.064C80.602 25.8747 80.442 26.5893 80.122 27.208C79.8127 27.816 79.3647 28.2853 78.778 28.616C78.202 28.9467 77.53 29.112 76.762 29.112ZM76.762 27.832C77.4767 27.832 78.0207 27.5973 78.394 27.128C78.778 26.6587 78.97 25.9707 78.97 25.064C78.97 24.168 78.778 23.4853 78.394 23.016C78.01 22.536 77.466 22.296 76.762 22.296C76.058 22.296 75.514 22.536 75.13 23.016C74.746 23.4853 74.554 24.168 74.554 25.064C74.554 25.9707 74.7407 26.6587 75.114 27.128C75.498 27.5973 76.0473 27.832 76.762 27.832ZM87.1533 22.36L86.1773 22.456C85.4093 22.5307 84.8546 22.7653 84.5133 23.16C84.1826 23.5547 84.0173 24.056 84.0173 24.664V29H82.4013V21.192H83.9693V22.552C84.3853 21.6347 85.2333 21.128 86.5133 21.032L87.0413 21L87.1533 22.36ZM103.487 17.72V29H101.999L102.015 20.84L98.6554 27.192H97.5354L94.1594 20.92L94.1754 29H92.6874V17.72H94.0154L98.1114 25.528L102.175 17.72H103.487ZM109.197 21C110.242 21 111.015 21.2613 111.517 21.784C112.029 22.3067 112.285 23.1013 112.285 24.168V29H110.733V27.704C110.53 28.1627 110.226 28.5147 109.821 28.76C109.426 28.9947 108.962 29.112 108.429 29.112C107.917 29.112 107.447 29.0107 107.021 28.808C106.594 28.5947 106.258 28.3013 106.013 27.928C105.778 27.5547 105.661 27.1387 105.661 26.68C105.661 26.1147 105.805 25.672 106.093 25.352C106.391 25.0213 106.877 24.7867 107.549 24.648C108.231 24.5093 109.165 24.44 110.349 24.44H110.717V23.976C110.717 23.3787 110.589 22.9467 110.333 22.68C110.087 22.4133 109.682 22.28 109.117 22.28C108.231 22.28 107.346 22.552 106.461 23.096L105.981 21.96C106.397 21.672 106.898 21.4427 107.485 21.272C108.082 21.0907 108.653 21 109.197 21ZM108.717 27.912C109.303 27.912 109.783 27.7147 110.157 27.32C110.53 26.9147 110.717 26.3973 110.717 25.768V25.352H110.429C109.597 25.352 108.957 25.3893 108.509 25.464C108.061 25.5387 107.741 25.6667 107.549 25.848C107.357 26.0187 107.261 26.2693 107.261 26.6C107.261 26.9733 107.394 27.288 107.661 27.544C107.938 27.7893 108.29 27.912 108.717 27.912ZM114.495 21.192H116.111V29H114.495V21.192ZM116.239 17.704V19.384H114.383V17.704H116.239ZM122.578 21C124.445 21 125.378 22.0507 125.378 24.152V29H123.762V24.232C123.762 23.5707 123.629 23.0853 123.362 22.776C123.106 22.4667 122.701 22.312 122.146 22.312C121.495 22.312 120.973 22.5147 120.578 22.92C120.183 23.3253 119.986 23.8693 119.986 24.552V29H118.37V21.192H119.954V22.44C120.21 21.9707 120.567 21.6133 121.026 21.368C121.485 21.1227 122.002 21 122.578 21ZM131.285 27.864C131.53 27.864 131.77 27.848 132.005 27.816L131.925 29.048C131.658 29.0907 131.381 29.112 131.093 29.112C130.079 29.112 129.322 28.8667 128.821 28.376C128.33 27.8747 128.085 27.1547 128.085 26.216V22.44H126.565V21.192H128.085V18.84H129.701V21.192H131.845V22.44H129.701V26.152C129.701 27.2933 130.229 27.864 131.285 27.864ZM139.917 25.368H134.397C134.515 27.0213 135.336 27.848 136.861 27.848C137.757 27.848 138.568 27.5547 139.293 26.968L139.789 28.104C139.427 28.4133 138.979 28.6587 138.445 28.84C137.912 29.0213 137.368 29.112 136.813 29.112C135.565 29.112 134.579 28.7547 133.853 28.04C133.139 27.3253 132.781 26.3387 132.781 25.08C132.781 24.28 132.936 23.5707 133.245 22.952C133.565 22.3333 134.008 21.8533 134.573 21.512C135.149 21.1707 135.8 21 136.525 21C137.581 21 138.408 21.3413 139.005 22.024C139.613 22.7067 139.917 23.6507 139.917 24.856V25.368ZM136.557 22.184C135.939 22.184 135.443 22.3813 135.069 22.776C134.707 23.16 134.488 23.7147 134.413 24.44H138.525C138.493 23.7147 138.307 23.16 137.965 22.776C137.635 22.3813 137.165 22.184 136.557 22.184ZM145.906 21C147.773 21 148.706 22.0507 148.706 24.152V29H147.09V24.232C147.09 23.5707 146.957 23.0853 146.69 22.776C146.434 22.4667 146.029 22.312 145.474 22.312C144.823 22.312 144.301 22.5147 143.906 22.92C143.511 23.3253 143.314 23.8693 143.314 24.552V29H141.698V21.192H143.282V22.44C143.538 21.9707 143.895 21.6133 144.354 21.368C144.813 21.1227 145.33 21 145.906 21ZM154.181 21C155.226 21 156 21.2613 156.501 21.784C157.013 22.3067 157.269 23.1013 157.269 24.168V29H155.717V27.704C155.514 28.1627 155.21 28.5147 154.805 28.76C154.41 28.9947 153.946 29.112 153.413 29.112C152.901 29.112 152.432 29.0107 152.005 28.808C151.578 28.5947 151.242 28.3013 150.997 27.928C150.762 27.5547 150.645 27.1387 150.645 26.68C150.645 26.1147 150.789 25.672 151.077 25.352C151.376 25.0213 151.861 24.7867 152.533 24.648C153.216 24.5093 154.149 24.44 155.333 24.44H155.701V23.976C155.701 23.3787 155.573 22.9467 155.317 22.68C155.072 22.4133 154.666 22.28 154.101 22.28C153.216 22.28 152.33 22.552 151.445 23.096L150.965 21.96C151.381 21.672 151.882 21.4427 152.469 21.272C153.066 21.0907 153.637 21 154.181 21ZM153.701 27.912C154.288 27.912 154.768 27.7147 155.141 27.32C155.514 26.9147 155.701 26.3973 155.701 25.768V25.352H155.413C154.581 25.352 153.941 25.3893 153.493 25.464C153.045 25.5387 152.725 25.6667 152.533 25.848C152.341 26.0187 152.245 26.2693 152.245 26.6C152.245 26.9733 152.378 27.288 152.645 27.544C152.922 27.7893 153.274 27.912 153.701 27.912ZM163.687 21C165.554 21 166.487 22.0507 166.487 24.152V29H164.871V24.232C164.871 23.5707 164.738 23.0853 164.471 22.776C164.215 22.4667 163.81 22.312 163.255 22.312C162.605 22.312 162.082 22.5147 161.687 22.92C161.293 23.3253 161.095 23.8693 161.095 24.552V29H159.479V21.192H161.063V22.44C161.319 21.9707 161.677 21.6133 162.135 21.368C162.594 21.1227 163.111 21 163.687 21ZM172.122 29.112C171.333 29.112 170.645 28.9467 170.058 28.616C169.482 28.2853 169.034 27.8213 168.714 27.224C168.405 26.616 168.25 25.9067 168.25 25.096C168.25 24.2853 168.41 23.5707 168.73 22.952C169.061 22.3333 169.519 21.8533 170.106 21.512C170.703 21.1707 171.397 21 172.186 21C172.73 21 173.253 21.0907 173.754 21.272C174.266 21.4533 174.682 21.6987 175.002 22.008L174.506 23.16C173.802 22.584 173.071 22.296 172.314 22.296C171.567 22.296 170.981 22.5413 170.554 23.032C170.138 23.512 169.93 24.1947 169.93 25.08C169.93 25.9547 170.138 26.632 170.554 27.112C170.97 27.5813 171.557 27.816 172.314 27.816C173.071 27.816 173.802 27.528 174.506 26.952L175.002 28.12C174.661 28.4293 174.234 28.6747 173.722 28.856C173.21 29.0267 172.677 29.112 172.122 29.112ZM183.121 25.368H177.601C177.718 27.0213 178.539 27.848 180.065 27.848C180.961 27.848 181.771 27.5547 182.497 26.968L182.993 28.104C182.63 28.4133 182.182 28.6587 181.649 28.84C181.115 29.0213 180.571 29.112 180.016 29.112C178.769 29.112 177.782 28.7547 177.057 28.04C176.342 27.3253 175.985 26.3387 175.985 25.08C175.985 24.28 176.139 23.5707 176.449 22.952C176.769 22.3333 177.211 21.8533 177.777 21.512C178.353 21.1707 179.003 21 179.729 21C180.785 21 181.611 21.3413 182.209 22.024C182.817 22.7067 183.121 23.6507 183.121 24.856V25.368ZM179.761 22.184C179.142 22.184 178.646 22.3813 178.273 22.776C177.91 23.16 177.691 23.7147 177.617 24.44H181.729C181.697 23.7147 181.51 23.16 181.169 22.776C180.838 22.3813 180.369 22.184 179.761 22.184Z" fill="white"/>
<defs>
<filter id="filter0_d" x="0" y="0" width="255" height="96" filterUnits="userSpaceOnUse" color-interpolation-filters="sRGB">
<feFlood flood-opacity="0" result="BackgroundImageFix"/>
<feColorMatrix in="SourceAlpha" type="matrix" values="0 0 0 0 0 0 0 0 0 0 0 0 0 0 0 0 0 0 127 0"/>
<feOffset dx="6" dy="6"/>
<feGaussianBlur stdDeviation="3.5"/>
<feColorMatrix type="matrix" values="0 0 0 0 0 0 0 0 0 0 0 0 0 0 0 0 0 0 0.1 0"/>
<feBlend mode="normal" in2="BackgroundImageFix" result="effect1_dropShadow"/>
<feBlend mode="normal" in="SourceGraphic" in2="effect1_dropShadow" result="shape"/>
</filter>
</defs>
</svg>
