<svg width="41" height="18" viewBox="0 0 41 18" fill="none" xmlns="http://www.w3.org/2000/svg">
<rect width="41" height="18" rx="2" fill="#593C8F"/>
<path d="M14.6777 14H12.3691L8.64258 7.51953H8.58984C8.66406 8.66406 8.70117 9.48047 8.70117 9.96875V14H7.07812V5.43359H9.36914L13.0898 11.8496H13.1309C13.0723 10.7363 13.043 9.94922 13.043 9.48828V5.43359H14.6777V14ZM21.7734 14H16.8398V5.43359H21.7734V6.92188H18.6562V8.80273H21.5566V10.291H18.6562V12.5H21.7734V14ZM31.9102 14H29.8418L28.6816 9.5C28.6387 9.33984 28.5645 9.00977 28.459 8.50977C28.3574 8.00586 28.2988 7.66797 28.2832 7.49609C28.2598 7.70703 28.2012 8.04688 28.1074 8.51562C28.0137 8.98047 27.9414 9.3125 27.8906 9.51172L26.7363 14H24.6738L22.4883 5.43359H24.2754L25.3711 10.1094C25.5625 10.9727 25.7012 11.7207 25.7871 12.3535C25.8105 12.1309 25.8633 11.7871 25.9453 11.3223C26.0312 10.8535 26.1113 10.4902 26.1855 10.2324L27.4336 5.43359H29.1504L30.3984 10.2324C30.4531 10.4473 30.5215 10.7754 30.6035 11.2168C30.6855 11.6582 30.748 12.0371 30.791 12.3535C30.8301 12.0488 30.8926 11.6699 30.9785 11.2168C31.0645 10.7598 31.1426 10.3906 31.2129 10.1094L32.3027 5.43359H34.0898L31.9102 14Z" fill="white"/>
</svg>
