<svg width="237" height="32" viewBox="0 0 237 32" fill="none" xmlns="http://www.w3.org/2000/svg">
<rect width="237" height="32" rx="3" fill="black" fill-opacity="0.9"/>
<path d="M58.1738 21H57.1777V12.4336H61.9531V13.3184H58.1738V16.4531H61.7246V17.3379H58.1738V21ZM67.1797 21L66.9863 20.0859H66.9395C66.6191 20.4883 66.2988 20.7617 65.9785 20.9062C65.6621 21.0469 65.2656 21.1172 64.7891 21.1172C64.1523 21.1172 63.6523 20.9531 63.2891 20.625C62.9297 20.2969 62.75 19.8301 62.75 19.2246C62.75 17.9277 63.7871 17.248 65.8613 17.1855L66.9512 17.1504V16.752C66.9512 16.248 66.8418 15.877 66.623 15.6387C66.4082 15.3965 66.0625 15.2754 65.5859 15.2754C65.0508 15.2754 64.4453 15.4395 63.7695 15.7676L63.4707 15.0234C63.7871 14.8516 64.1328 14.7168 64.5078 14.6191C64.8867 14.5215 65.2656 14.4727 65.6445 14.4727C66.4102 14.4727 66.9766 14.6426 67.3438 14.9824C67.7148 15.3223 67.9004 15.8672 67.9004 16.6172V21H67.1797ZM64.9824 20.3145C65.5879 20.3145 66.0625 20.1484 66.4062 19.8164C66.7539 19.4844 66.9277 19.0195 66.9277 18.4219V17.8418L65.9551 17.8828C65.1816 17.9102 64.623 18.0312 64.2793 18.2461C63.9395 18.457 63.7695 18.7871 63.7695 19.2363C63.7695 19.5879 63.875 19.8555 64.0859 20.0391C64.3008 20.2227 64.5996 20.3145 64.9824 20.3145ZM70.8828 21H69.9102V14.5781H70.8828V21ZM69.8281 12.8379C69.8281 12.6152 69.8828 12.4531 69.9922 12.3516C70.1016 12.2461 70.2383 12.1934 70.4023 12.1934C70.5586 12.1934 70.6934 12.2461 70.8066 12.3516C70.9199 12.457 70.9766 12.6191 70.9766 12.8379C70.9766 13.0566 70.9199 13.2207 70.8066 13.3301C70.6934 13.4355 70.5586 13.4883 70.4023 13.4883C70.2383 13.4883 70.1016 13.4355 69.9922 13.3301C69.8828 13.2207 69.8281 13.0566 69.8281 12.8379ZM73.918 21H72.9453V11.8828H73.918V21ZM78.6934 21.1172C77.7441 21.1172 76.9941 20.8281 76.4434 20.25C75.8965 19.6719 75.623 18.8691 75.623 17.8418C75.623 16.8066 75.877 15.9844 76.3848 15.375C76.8965 14.7656 77.582 14.4609 78.4414 14.4609C79.2461 14.4609 79.8828 14.7266 80.3516 15.2578C80.8203 15.7852 81.0547 16.4824 81.0547 17.3496V17.9648H76.6309C76.6504 18.7188 76.8398 19.291 77.1992 19.6816C77.5625 20.0723 78.0723 20.2676 78.7285 20.2676C79.4199 20.2676 80.1035 20.123 80.7793 19.834V20.7012C80.4355 20.8496 80.1094 20.9551 79.8008 21.0176C79.4961 21.084 79.127 21.1172 78.6934 21.1172ZM78.4297 15.2754C77.9141 15.2754 77.502 15.4434 77.1934 15.7793C76.8887 16.1152 76.709 16.5801 76.6543 17.1738H80.0117C80.0117 16.5605 79.875 16.0918 79.6016 15.7676C79.3281 15.4395 78.9375 15.2754 78.4297 15.2754ZM87.0898 20.1387H87.0371C86.5879 20.791 85.916 21.1172 85.0215 21.1172C84.1816 21.1172 83.5273 20.8301 83.0586 20.2559C82.5938 19.6816 82.3613 18.8652 82.3613 17.8066C82.3613 16.748 82.5957 15.9258 83.0645 15.3398C83.5332 14.7539 84.1855 14.4609 85.0215 14.4609C85.8926 14.4609 86.5605 14.7773 87.0254 15.4102H87.1016L87.0605 14.9473L87.0371 14.4961V11.8828H88.0098V21H87.2188L87.0898 20.1387ZM85.1445 20.3027C85.8086 20.3027 86.2891 20.123 86.5859 19.7637C86.8867 19.4004 87.0371 18.8164 87.0371 18.0117V17.8066C87.0371 16.8965 86.8848 16.248 86.5801 15.8613C86.2793 15.4707 85.7969 15.2754 85.1328 15.2754C84.5625 15.2754 84.125 15.498 83.8203 15.9434C83.5195 16.3848 83.3691 17.0098 83.3691 17.8184C83.3691 18.6387 83.5195 19.2578 83.8203 19.6758C84.1211 20.0938 84.5625 20.3027 85.1445 20.3027ZM95.2695 20.3145C95.4414 20.3145 95.6074 20.3027 95.7676 20.2793C95.9277 20.252 96.0547 20.2246 96.1484 20.1973V20.9414C96.043 20.9922 95.8867 21.0332 95.6797 21.0645C95.4766 21.0996 95.293 21.1172 95.1289 21.1172C93.8867 21.1172 93.2656 20.4629 93.2656 19.1543V15.334H92.3457V14.8652L93.2656 14.4609L93.6758 13.0898H94.2383V14.5781H96.1016V15.334H94.2383V19.1133C94.2383 19.5 94.3301 19.7969 94.5137 20.0039C94.6973 20.2109 94.9492 20.3145 95.2695 20.3145ZM102.98 17.7832C102.98 18.8301 102.717 19.6484 102.189 20.2383C101.662 20.8242 100.934 21.1172 100.004 21.1172C99.4297 21.1172 98.9199 20.9824 98.4746 20.7129C98.0293 20.4434 97.6855 20.0566 97.4434 19.5527C97.2012 19.0488 97.0801 18.459 97.0801 17.7832C97.0801 16.7363 97.3418 15.9219 97.8652 15.3398C98.3887 14.7539 99.1152 14.4609 100.045 14.4609C100.943 14.4609 101.656 14.7598 102.184 15.3574C102.715 15.9551 102.98 16.7637 102.98 17.7832ZM98.0879 17.7832C98.0879 18.6035 98.252 19.2285 98.5801 19.6582C98.9082 20.0879 99.3906 20.3027 100.027 20.3027C100.664 20.3027 101.146 20.0898 101.475 19.6641C101.807 19.2344 101.973 18.6074 101.973 17.7832C101.973 16.9668 101.807 16.3477 101.475 15.9258C101.146 15.5 100.66 15.2871 100.016 15.2871C99.3789 15.2871 98.8984 15.4961 98.5742 15.9141C98.25 16.332 98.0879 16.9551 98.0879 17.7832ZM111.951 19.248C111.951 19.8457 111.729 20.3066 111.283 20.6309C110.838 20.9551 110.213 21.1172 109.408 21.1172C108.557 21.1172 107.893 20.9824 107.416 20.7129V19.8105C107.725 19.9668 108.055 20.0898 108.406 20.1797C108.762 20.2695 109.104 20.3145 109.432 20.3145C109.939 20.3145 110.33 20.2344 110.604 20.0742C110.877 19.9102 111.014 19.6621 111.014 19.3301C111.014 19.0801 110.904 18.8672 110.686 18.6914C110.471 18.5117 110.049 18.3008 109.42 18.0586C108.822 17.8359 108.396 17.6426 108.143 17.4785C107.893 17.3105 107.705 17.1211 107.58 16.9102C107.459 16.6992 107.398 16.4473 107.398 16.1543C107.398 15.6309 107.611 15.2188 108.037 14.918C108.463 14.6133 109.047 14.4609 109.789 14.4609C110.48 14.4609 111.156 14.6016 111.816 14.8828L111.471 15.6738C110.826 15.4082 110.242 15.2754 109.719 15.2754C109.258 15.2754 108.91 15.3477 108.676 15.4922C108.441 15.6367 108.324 15.8359 108.324 16.0898C108.324 16.2617 108.367 16.4082 108.453 16.5293C108.543 16.6504 108.686 16.7656 108.881 16.875C109.076 16.9844 109.451 17.1426 110.006 17.3496C110.768 17.627 111.281 17.9062 111.547 18.1875C111.816 18.4688 111.951 18.8223 111.951 19.248ZM116.252 21.1172C115.303 21.1172 114.553 20.8281 114.002 20.25C113.455 19.6719 113.182 18.8691 113.182 17.8418C113.182 16.8066 113.436 15.9844 113.943 15.375C114.455 14.7656 115.141 14.4609 116 14.4609C116.805 14.4609 117.441 14.7266 117.91 15.2578C118.379 15.7852 118.613 16.4824 118.613 17.3496V17.9648H114.189C114.209 18.7188 114.398 19.291 114.758 19.6816C115.121 20.0723 115.631 20.2676 116.287 20.2676C116.979 20.2676 117.662 20.123 118.338 19.834V20.7012C117.994 20.8496 117.668 20.9551 117.359 21.0176C117.055 21.084 116.686 21.1172 116.252 21.1172ZM115.988 15.2754C115.473 15.2754 115.061 15.4434 114.752 15.7793C114.447 16.1152 114.268 16.5801 114.213 17.1738H117.57C117.57 16.5605 117.434 16.0918 117.16 15.7676C116.887 15.4395 116.496 15.2754 115.988 15.2754ZM124.672 21V16.8457C124.672 16.3223 124.553 15.9316 124.314 15.6738C124.076 15.416 123.703 15.2871 123.195 15.2871C122.523 15.2871 122.031 15.4688 121.719 15.832C121.406 16.1953 121.25 16.7949 121.25 17.6309V21H120.277V14.5781H121.068L121.227 15.457H121.273C121.473 15.1406 121.752 14.8965 122.111 14.7246C122.471 14.5488 122.871 14.4609 123.312 14.4609C124.086 14.4609 124.668 14.6484 125.059 15.0234C125.449 15.3945 125.645 15.9902 125.645 16.8105V21H124.672ZM132.02 20.1387H131.967C131.518 20.791 130.846 21.1172 129.951 21.1172C129.111 21.1172 128.457 20.8301 127.988 20.2559C127.523 19.6816 127.291 18.8652 127.291 17.8066C127.291 16.748 127.525 15.9258 127.994 15.3398C128.463 14.7539 129.115 14.4609 129.951 14.4609C130.822 14.4609 131.49 14.7773 131.955 15.4102H132.031L131.99 14.9473L131.967 14.4961V11.8828H132.939V21H132.148L132.02 20.1387ZM130.074 20.3027C130.738 20.3027 131.219 20.123 131.516 19.7637C131.816 19.4004 131.967 18.8164 131.967 18.0117V17.8066C131.967 16.8965 131.814 16.248 131.51 15.8613C131.209 15.4707 130.727 15.2754 130.062 15.2754C129.492 15.2754 129.055 15.498 128.75 15.9434C128.449 16.3848 128.299 17.0098 128.299 17.8184C128.299 18.6387 128.449 19.2578 128.75 19.6758C129.051 20.0938 129.492 20.3027 130.074 20.3027ZM144.963 21H143.826L139.145 13.8105H139.098C139.16 14.6543 139.191 15.4277 139.191 16.1309V21H138.271V12.4336H139.396L144.066 19.5938H144.113C144.105 19.4883 144.088 19.1504 144.061 18.5801C144.033 18.0059 144.023 17.5957 144.031 17.3496V12.4336H144.963V21ZM152.715 17.7832C152.715 18.8301 152.451 19.6484 151.924 20.2383C151.396 20.8242 150.668 21.1172 149.738 21.1172C149.164 21.1172 148.654 20.9824 148.209 20.7129C147.764 20.4434 147.42 20.0566 147.178 19.5527C146.936 19.0488 146.814 18.459 146.814 17.7832C146.814 16.7363 147.076 15.9219 147.6 15.3398C148.123 14.7539 148.85 14.4609 149.779 14.4609C150.678 14.4609 151.391 14.7598 151.918 15.3574C152.449 15.9551 152.715 16.7637 152.715 17.7832ZM147.822 17.7832C147.822 18.6035 147.986 19.2285 148.314 19.6582C148.643 20.0879 149.125 20.3027 149.762 20.3027C150.398 20.3027 150.881 20.0898 151.209 19.6641C151.541 19.2344 151.707 18.6074 151.707 17.7832C151.707 16.9668 151.541 16.3477 151.209 15.9258C150.881 15.5 150.395 15.2871 149.75 15.2871C149.113 15.2871 148.633 15.4961 148.309 15.9141C147.984 16.332 147.822 16.9551 147.822 17.7832ZM156.5 20.3145C156.672 20.3145 156.838 20.3027 156.998 20.2793C157.158 20.252 157.285 20.2246 157.379 20.1973V20.9414C157.273 20.9922 157.117 21.0332 156.91 21.0645C156.707 21.0996 156.523 21.1172 156.359 21.1172C155.117 21.1172 154.496 20.4629 154.496 19.1543V15.334H153.576V14.8652L154.496 14.4609L154.906 13.0898H155.469V14.5781H157.332V15.334H155.469V19.1133C155.469 19.5 155.561 19.7969 155.744 20.0039C155.928 20.2109 156.18 20.3145 156.5 20.3145ZM159.641 21H158.668V14.5781H159.641V21ZM158.586 12.8379C158.586 12.6152 158.641 12.4531 158.75 12.3516C158.859 12.2461 158.996 12.1934 159.16 12.1934C159.316 12.1934 159.451 12.2461 159.564 12.3516C159.678 12.457 159.734 12.6191 159.734 12.8379C159.734 13.0566 159.678 13.2207 159.564 13.3301C159.451 13.4355 159.316 13.4883 159.16 13.4883C158.996 13.4883 158.859 13.4355 158.75 13.3301C158.641 13.2207 158.586 13.0566 158.586 12.8379ZM164.598 15.334H162.963V21H161.99V15.334H160.842V14.8945L161.99 14.543V14.1855C161.99 12.6074 162.68 11.8184 164.059 11.8184C164.398 11.8184 164.797 11.8867 165.254 12.0234L165.002 12.8027C164.627 12.6816 164.307 12.6211 164.041 12.6211C163.674 12.6211 163.402 12.7441 163.227 12.9902C163.051 13.2324 162.963 13.623 162.963 14.1621V14.5781H164.598V15.334ZM166.742 21H165.77V14.5781H166.742V21ZM165.688 12.8379C165.688 12.6152 165.742 12.4531 165.852 12.3516C165.961 12.2461 166.098 12.1934 166.262 12.1934C166.418 12.1934 166.553 12.2461 166.666 12.3516C166.779 12.457 166.836 12.6191 166.836 12.8379C166.836 13.0566 166.779 13.2207 166.666 13.3301C166.553 13.4355 166.418 13.4883 166.262 13.4883C166.098 13.4883 165.961 13.4355 165.852 13.3301C165.742 13.2207 165.688 13.0566 165.688 12.8379ZM171.371 21.1172C170.441 21.1172 169.721 20.832 169.209 20.2617C168.701 19.6875 168.447 18.877 168.447 17.8301C168.447 16.7559 168.705 15.9258 169.221 15.3398C169.74 14.7539 170.479 14.4609 171.436 14.4609C171.744 14.4609 172.053 14.4941 172.361 14.5605C172.67 14.627 172.912 14.7051 173.088 14.7949L172.789 15.6211C172.574 15.5352 172.34 15.4648 172.086 15.4102C171.832 15.3516 171.607 15.3223 171.412 15.3223C170.107 15.3223 169.455 16.1543 169.455 17.8184C169.455 18.6074 169.613 19.2129 169.93 19.6348C170.25 20.0566 170.723 20.2676 171.348 20.2676C171.883 20.2676 172.432 20.1523 172.994 19.9219V20.7832C172.564 21.0059 172.023 21.1172 171.371 21.1172ZM178.473 21L178.279 20.0859H178.232C177.912 20.4883 177.592 20.7617 177.271 20.9062C176.955 21.0469 176.559 21.1172 176.082 21.1172C175.445 21.1172 174.945 20.9531 174.582 20.625C174.223 20.2969 174.043 19.8301 174.043 19.2246C174.043 17.9277 175.08 17.248 177.154 17.1855L178.244 17.1504V16.752C178.244 16.248 178.135 15.877 177.916 15.6387C177.701 15.3965 177.355 15.2754 176.879 15.2754C176.344 15.2754 175.738 15.4395 175.062 15.7676L174.764 15.0234C175.08 14.8516 175.426 14.7168 175.801 14.6191C176.18 14.5215 176.559 14.4727 176.938 14.4727C177.703 14.4727 178.27 14.6426 178.637 14.9824C179.008 15.3223 179.193 15.8672 179.193 16.6172V21H178.473ZM176.275 20.3145C176.881 20.3145 177.355 20.1484 177.699 19.8164C178.047 19.4844 178.221 19.0195 178.221 18.4219V17.8418L177.248 17.8828C176.475 17.9102 175.916 18.0312 175.572 18.2461C175.232 18.457 175.062 18.7871 175.062 19.2363C175.062 19.5879 175.168 19.8555 175.379 20.0391C175.594 20.2227 175.893 20.3145 176.275 20.3145ZM183.277 20.3145C183.449 20.3145 183.615 20.3027 183.775 20.2793C183.936 20.252 184.062 20.2246 184.156 20.1973V20.9414C184.051 20.9922 183.895 21.0332 183.688 21.0645C183.484 21.0996 183.301 21.1172 183.137 21.1172C181.895 21.1172 181.273 20.4629 181.273 19.1543V15.334H180.354V14.8652L181.273 14.4609L181.684 13.0898H182.246V14.5781H184.109V15.334H182.246V19.1133C182.246 19.5 182.338 19.7969 182.521 20.0039C182.705 20.2109 182.957 20.3145 183.277 20.3145ZM186.418 21H185.445V14.5781H186.418V21ZM185.363 12.8379C185.363 12.6152 185.418 12.4531 185.527 12.3516C185.637 12.2461 185.773 12.1934 185.938 12.1934C186.094 12.1934 186.229 12.2461 186.342 12.3516C186.455 12.457 186.512 12.6191 186.512 12.8379C186.512 13.0566 186.455 13.2207 186.342 13.3301C186.229 13.4355 186.094 13.4883 185.938 13.4883C185.773 13.4883 185.637 13.4355 185.527 13.3301C185.418 13.2207 185.363 13.0566 185.363 12.8379ZM194.023 17.7832C194.023 18.8301 193.76 19.6484 193.232 20.2383C192.705 20.8242 191.977 21.1172 191.047 21.1172C190.473 21.1172 189.963 20.9824 189.518 20.7129C189.072 20.4434 188.729 20.0566 188.486 19.5527C188.244 19.0488 188.123 18.459 188.123 17.7832C188.123 16.7363 188.385 15.9219 188.908 15.3398C189.432 14.7539 190.158 14.4609 191.088 14.4609C191.986 14.4609 192.699 14.7598 193.227 15.3574C193.758 15.9551 194.023 16.7637 194.023 17.7832ZM189.131 17.7832C189.131 18.6035 189.295 19.2285 189.623 19.6582C189.951 20.0879 190.434 20.3027 191.07 20.3027C191.707 20.3027 192.189 20.0898 192.518 19.6641C192.85 19.2344 193.016 18.6074 193.016 17.7832C193.016 16.9668 192.85 16.3477 192.518 15.9258C192.189 15.5 191.703 15.2871 191.059 15.2871C190.422 15.2871 189.941 15.4961 189.617 15.9141C189.293 16.332 189.131 16.9551 189.131 17.7832ZM200.129 21V16.8457C200.129 16.3223 200.01 15.9316 199.771 15.6738C199.533 15.416 199.16 15.2871 198.652 15.2871C197.98 15.2871 197.488 15.4688 197.176 15.832C196.863 16.1953 196.707 16.7949 196.707 17.6309V21H195.734V14.5781H196.525L196.684 15.457H196.73C196.93 15.1406 197.209 14.8965 197.568 14.7246C197.928 14.5488 198.328 14.4609 198.77 14.4609C199.543 14.4609 200.125 14.6484 200.516 15.0234C200.906 15.3945 201.102 15.9902 201.102 16.8105V21H200.129Z" fill="white"/>
<path d="M41 12.5C41.385 12.5 41.7 12.815 41.7 13.2V16C41.7 16.385 41.385 16.7 41 16.7C40.615 16.7 40.3 16.385 40.3 16V13.2C40.3 12.815 40.615 12.5 41 12.5ZM40.993 9C37.129 9 34 12.136 34 16C34 19.864 37.129 23 40.993 23C44.864 23 48 19.864 48 16C48 12.136 44.864 9 40.993 9ZM41 21.6C37.906 21.6 35.4 19.094 35.4 16C35.4 12.906 37.906 10.4 41 10.4C44.094 10.4 46.6 12.906 46.6 16C46.6 19.094 44.094 21.6 41 21.6ZM41.7 19.5H40.3V18.1H41.7V19.5Z" fill="white"/>
</svg>
