<svg width="288" height="100" viewBox="0 0 288 100" fill="none" xmlns="http://www.w3.org/2000/svg">
<rect width="288" height="100" fill="white"/>
<path d="M20 83.5198V40.5118H31.072V44.7998C31.9254 43.2638 33.2266 42.0478 34.976 41.1518C36.7254 40.2558 38.6454 39.8078 40.736 39.8078C43.424 39.8078 45.792 40.4692 47.84 41.7918C49.9306 43.1144 51.552 45.0132 52.704 47.4878C53.8986 49.9198 54.496 52.8424 54.496 56.2558C54.496 59.6264 53.92 62.5492 52.768 65.0238C51.616 67.4984 49.9946 69.3972 47.904 70.7198C45.856 72.0424 43.4666 72.7038 40.736 72.7038C38.7734 72.7038 36.9386 72.2984 35.232 71.4878C33.568 70.6772 32.288 69.5892 31.392 68.2238V83.5198H20ZM37.152 64.3198C38.8586 64.3198 40.2666 63.6798 41.376 62.3998C42.4854 61.1198 43.04 59.0718 43.04 56.2558C43.04 53.3972 42.4854 51.3492 41.376 50.1118C40.2666 48.8318 38.8586 48.1918 37.152 48.1918C35.4026 48.1918 33.9734 48.8318 32.864 50.1118C31.7546 51.3492 31.2 53.3972 31.2 56.2558C31.2 59.0718 31.7546 61.1198 32.864 62.3998C33.9734 63.6798 35.4026 64.3198 37.152 64.3198ZM72.1036 72.7038C67.7516 72.7038 64.5942 71.6158 62.6316 69.4398C60.6688 67.2212 59.6876 63.8932 59.6876 59.4558V26.8798H71.0796V59.0718C71.0796 62.0584 72.4448 63.5518 75.1754 63.5518C75.6022 63.5518 76.0288 63.5304 76.4556 63.4878C76.9248 63.4452 77.3728 63.3812 77.7996 63.2958L77.6716 71.9998C75.9648 72.4692 74.1088 72.7038 72.1036 72.7038ZM92.8816 72.7038C90.4496 72.7038 88.2948 72.2558 86.4176 71.3598C84.5828 70.4638 83.1322 69.2478 82.0656 67.7118C81.0416 66.1332 80.5296 64.3412 80.5296 62.3358C80.5296 60.0744 81.1268 58.2824 82.3216 56.9598C83.5162 55.5944 85.4362 54.6344 88.0816 54.0798C90.7268 53.4824 94.2468 53.1838 98.6416 53.1838H101.074V52.2878C101.074 50.7518 100.668 49.6638 99.8576 49.0238C99.0896 48.3838 97.7456 48.0638 95.8256 48.0638C94.2042 48.0638 92.4122 48.3198 90.4496 48.8318C88.4868 49.3438 86.5668 50.1332 84.6896 51.1998L81.8096 43.7118C82.8762 42.9438 84.2416 42.2612 85.9056 41.6638C87.5696 41.0664 89.3188 40.6184 91.1536 40.3198C92.9882 39.9784 94.7162 39.8078 96.3376 39.8078C101.586 39.8078 105.468 40.9384 107.986 43.1998C110.546 45.4612 111.826 49.0238 111.826 53.8878V71.9998H101.202V67.5198C100.647 69.1412 99.6442 70.4212 98.1936 71.3598C96.7428 72.2558 94.9722 72.7038 92.8816 72.7038ZM95.4416 65.2798C97.0202 65.2798 98.3428 64.7678 99.4096 63.7438C100.519 62.7198 101.074 61.3758 101.074 59.7118V58.5598H98.6416C96.1242 58.5598 94.2682 58.8372 93.0736 59.3918C91.9216 59.9038 91.3456 60.7358 91.3456 61.8878C91.3456 62.8692 91.6868 63.6798 92.3696 64.3198C93.0948 64.9598 94.1188 65.2798 95.4416 65.2798ZM119.92 83.5198L126.256 69.8238L113.392 40.5118H125.36L132.272 58.3678L139.44 40.5118H150.704L131.44 83.5198H119.92ZM176.177 72.7038C171.185 72.7038 166.897 71.7438 163.313 69.8238C159.729 67.9038 156.977 65.1944 155.057 61.6958C153.18 58.1972 152.241 54.1012 152.241 49.4078C152.241 44.7144 153.18 40.6398 155.057 37.1838C156.977 33.6852 159.729 30.9758 163.313 29.0558C166.897 27.1358 171.185 26.1758 176.177 26.1758C179.164 26.1758 182.044 26.6452 184.817 27.5838C187.59 28.4798 189.83 29.6744 191.537 31.1678L188.017 40.4478C186.14 39.0824 184.262 38.0798 182.385 37.4398C180.508 36.7572 178.588 36.4158 176.625 36.4158C172.657 36.4158 169.67 37.5464 167.665 39.8078C165.66 42.0264 164.657 45.2264 164.657 49.4078C164.657 53.6318 165.66 56.8744 167.665 59.1358C169.67 61.3544 172.657 62.4638 176.625 62.4638C178.588 62.4638 180.508 62.1438 182.385 61.5038C184.262 60.8212 186.14 59.7972 188.017 58.4318L191.537 67.7118C189.83 69.2052 187.59 70.4212 184.817 71.3598C182.044 72.2558 179.164 72.7038 176.177 72.7038ZM207.33 71.9998V36.4798H192.994V26.8798H233.442V36.4798H219.106V71.9998H207.33ZM237.894 71.9998V26.8798H269.382V35.9678H249.67V45.0558H267.974V54.0798H249.67V71.9998H237.894Z" fill="#191919"/>
</svg>
