<svg width="30" height="30" viewBox="0 0 30 30" fill="none" xmlns="http://www.w3.org/2000/svg">
<path d="M22 7H18.5L17.5 6H12.5L11.5 7H8V9H22V7ZM9 22C9 22.5304 9.21071 23.0391 9.58579 23.4142C9.96086 23.7893 10.4696 24 11 24H19C19.5304 24 20.0391 23.7893 20.4142 23.4142C20.7893 23.0391 21 22.5304 21 22V10H9V22Z" fill="#393939"/>
<path d="M3 2H27V0H3V2ZM28 3V27H30V3H28ZM27 28H3V30H27V28ZM2 27V3H0V27H2ZM3 28C2.44772 28 2 27.5523 2 27H0C0 28.6569 1.34315 30 3 30V28ZM28 27C28 27.5523 27.5523 28 27 28V30C28.6569 30 30 28.6569 30 27H28ZM27 2C27.5523 2 28 2.44772 28 3H30C30 1.34315 28.6569 0 27 0V2ZM3 0C1.34315 0 0 1.34315 0 3H2C2 2.44772 2.44772 2 3 2V0Z" fill="#575757" fill-opacity="0.7"/>
</svg>
