<svg width="468" height="302" viewBox="0 0 468 302" fill="none" xmlns="http://www.w3.org/2000/svg">
<rect width="468" height="302" rx="4" fill="#696969"/>
<path d="M0 4C0 1.79086 1.79086 0 4 0H464C466.209 0 468 1.79086 468 4V23H0V4Z" fill="#F0F0F0"/>
<path d="M17.672 56.338L17.658 47.476H19.226V48.386C19.4313 48.022 19.6927 47.756 20.01 47.588C20.3273 47.42 20.6773 47.336 21.06 47.336C21.536 47.336 21.9653 47.4667 22.348 47.728C22.74 47.98 23.0527 48.3627 23.286 48.876C23.5193 49.38 23.636 50.01 23.636 50.766C23.636 51.5313 23.5147 52.166 23.272 52.67C23.0293 53.174 22.7073 53.552 22.306 53.804C21.914 54.0467 21.4893 54.168 21.032 54.168C20.6867 54.168 20.3553 54.1073 20.038 53.986C19.7207 53.8647 19.4687 53.6827 19.282 53.44V56.338H17.672ZM20.598 52.936C20.8687 52.936 21.116 52.866 21.34 52.726C21.564 52.586 21.7413 52.3527 21.872 52.026C22.0027 51.6993 22.068 51.2513 22.068 50.682C22.068 50.038 21.942 49.5293 21.69 49.156C21.4473 48.7827 21.1113 48.5913 20.682 48.582C20.234 48.5727 19.884 48.75 19.632 49.114C19.3893 49.4687 19.268 50.052 19.268 50.864C19.2867 52.2453 19.73 52.936 20.598 52.936ZM24.882 54V52.754H26.716V45.852H24.966V44.606H28.312V52.754H30.132V54H24.882ZM33.772 54.168C33.0533 54.168 32.4933 54 32.092 53.664C31.7 53.328 31.504 52.8847 31.504 52.334C31.504 51.6433 31.812 51.074 32.428 50.626C33.0533 50.1687 33.9587 49.94 35.144 49.94C35.2093 49.94 35.2933 49.94 35.396 49.94C35.508 49.94 35.6247 49.9447 35.746 49.954C35.6807 49.4127 35.5267 49.0487 35.284 48.862C35.0413 48.666 34.7147 48.568 34.304 48.568C34.0053 48.568 33.7253 48.6193 33.464 48.722C33.2027 48.8153 32.9413 48.9927 32.68 49.254L31.812 48.302C32.1853 47.9567 32.5913 47.7093 33.03 47.56C33.4687 47.4107 33.9167 47.336 34.374 47.336C34.9153 47.336 35.41 47.4247 35.858 47.602C36.306 47.77 36.6607 48.0687 36.922 48.498C37.1833 48.918 37.314 49.5013 37.314 50.248V54H35.676V53.3C35.4333 53.6267 35.1533 53.8553 34.836 53.986C34.5187 54.1073 34.164 54.168 33.772 54.168ZM33.086 52.138C33.086 52.4367 33.1793 52.6467 33.366 52.768C33.562 52.88 33.8 52.936 34.08 52.936C34.584 52.936 34.976 52.7867 35.256 52.488C35.536 52.18 35.704 51.6993 35.76 51.046C35.6387 51.046 35.522 51.046 35.41 51.046C35.298 51.0367 35.2 51.032 35.116 51.032C34.3693 51.032 33.842 51.1347 33.534 51.34C33.2353 51.5453 33.086 51.8113 33.086 52.138ZM39.764 56.464C39.4467 56.464 39.1667 56.4127 38.924 56.31C38.6813 56.2073 38.4433 56.058 38.21 55.862L38.756 54.77L38.812 54.644L38.938 54.7C38.966 54.7747 38.9987 54.8447 39.036 54.91C39.0733 54.9753 39.1573 55.05 39.288 55.134C39.428 55.2087 39.5867 55.246 39.764 55.246C40.044 55.246 40.268 55.1293 40.436 54.896C40.6133 54.6627 40.7907 54.294 40.968 53.79L38.434 47.49H40.016L41.682 51.788L42.382 49.8C42.522 49.3987 42.6387 49.0113 42.732 48.638C42.8253 48.2647 42.886 47.882 42.914 47.49H44.384C44.3467 47.91 44.2487 48.3533 44.09 48.82C43.9313 49.2867 43.7727 49.73 43.614 50.15L42.004 54.574C41.7427 55.2647 41.4253 55.75 41.052 56.03C40.688 56.3193 40.2587 56.464 39.764 56.464ZM49.116 54.168C48.4627 54.168 47.8467 54 47.268 53.664C46.6987 53.328 46.232 52.824 45.868 52.152C45.5133 51.4707 45.336 50.6167 45.336 49.59C45.336 48.5633 45.504 47.7233 45.84 47.07C46.176 46.4073 46.6053 45.9173 47.128 45.6C47.66 45.2827 48.22 45.124 48.808 45.124C49.6573 45.124 50.3387 45.3993 50.852 45.95C51.3653 46.5007 51.622 47.3593 51.622 48.526V51.648H50.39V51.214C50.25 51.3913 50.0867 51.5267 49.9 51.62C49.7133 51.7133 49.494 51.76 49.242 51.76C48.7007 51.76 48.2573 51.578 47.912 51.214C47.5667 50.85 47.394 50.3973 47.394 49.856C47.394 49.184 47.6227 48.638 48.08 48.218C48.5467 47.798 49.3027 47.5973 50.348 47.616C50.3293 47.14 50.18 46.7807 49.9 46.538C49.62 46.286 49.242 46.16 48.766 46.16C48.374 46.16 48.01 46.2767 47.674 46.51C47.338 46.734 47.0627 47.0933 46.848 47.588C46.6427 48.0827 46.54 48.7267 46.54 49.52C46.54 50.3227 46.6613 50.9853 46.904 51.508C47.156 52.0213 47.4827 52.404 47.884 52.656C48.2947 52.908 48.7333 53.034 49.2 53.034C49.4427 53.034 49.6947 52.992 49.956 52.908C50.2173 52.824 50.474 52.684 50.726 52.488L51.314 53.454C50.6513 53.93 49.9187 54.168 49.116 54.168ZM49.424 50.668C49.7787 50.668 50.0307 50.5187 50.18 50.22C50.3293 49.912 50.404 49.4033 50.404 48.694C49.7413 48.666 49.2793 48.7547 49.018 48.96C48.7567 49.1653 48.626 49.436 48.626 49.772C48.626 50.3693 48.892 50.668 49.424 50.668ZM55.906 54.154C55.2713 54.154 54.688 54 54.156 53.692C53.6333 53.3747 53.2133 52.8847 52.896 52.222C52.588 51.5593 52.434 50.7147 52.434 49.688C52.434 48.8293 52.5367 48.1107 52.742 47.532C52.9567 46.944 53.2367 46.4773 53.582 46.132C53.9273 45.7867 54.3053 45.5393 54.716 45.39C55.136 45.2313 55.5513 45.152 55.962 45.152C56.6153 45.152 57.1753 45.3013 57.642 45.6C58.118 45.8987 58.4773 46.3187 58.72 46.86L57.726 47.602L57.614 47.672L57.544 47.56C57.5533 47.4947 57.544 47.4293 57.516 47.364C57.4973 47.2893 57.4507 47.1867 57.376 47.056C57.1707 46.8133 56.956 46.65 56.732 46.566C56.5173 46.4727 56.2887 46.426 56.046 46.426C55.6913 46.426 55.3553 46.5473 55.038 46.79C54.73 47.0327 54.478 47.392 54.282 47.868C54.0953 48.3347 54.002 48.918 54.002 49.618C54.002 50.626 54.184 51.4193 54.548 51.998C54.9213 52.5673 55.388 52.852 55.948 52.852C56.2933 52.852 56.592 52.7773 56.844 52.628C57.096 52.4787 57.3247 52.2313 57.53 51.886L58.622 52.698C58.2953 53.23 57.908 53.608 57.46 53.832C57.0213 54.0467 56.5033 54.154 55.906 54.154ZM61.674 54V46.608H59.322V45.278H65.664V46.608H63.186V54H61.674ZM66.924 54V45.278H72.356V46.552H68.338V48.666H71.6V49.94H68.338V54H66.924ZM76.29 49.926C76.0007 49.926 75.7533 49.8187 75.548 49.604C75.3427 49.3893 75.24 49.1467 75.24 48.876C75.24 48.596 75.3427 48.3487 75.548 48.134C75.7533 47.9193 76.0007 47.812 76.29 47.812C76.5607 47.812 76.8033 47.9147 77.018 48.12C77.242 48.3253 77.354 48.5773 77.354 48.876C77.354 49.1467 77.2513 49.3893 77.046 49.604C76.8407 49.8187 76.5887 49.926 76.29 49.926ZM76.29 54.168C75.9913 54.168 75.7393 54.0653 75.534 53.86C75.338 53.6453 75.24 53.398 75.24 53.118C75.24 52.838 75.3427 52.5907 75.548 52.376C75.7533 52.152 76.0007 52.04 76.29 52.04C76.5607 52.04 76.8033 52.1473 77.018 52.362C77.242 52.5767 77.354 52.8287 77.354 53.118C77.354 53.3887 77.2513 53.6313 77.046 53.846C76.85 54.0607 76.598 54.168 76.29 54.168ZM82.1 54.602L80.644 53.972L84.956 44.662L86.384 45.39L82.1 54.602ZM90.262 54.63V53.86C89.8047 53.8227 89.3473 53.7107 88.89 53.524C88.442 53.3373 88.0547 53.0807 87.728 52.754L88.456 51.55C88.54 51.5873 88.5867 51.648 88.596 51.732C88.6147 51.816 88.6567 51.8907 88.722 51.956C88.918 52.152 89.142 52.3107 89.394 52.432C89.6553 52.544 89.9307 52.6233 90.22 52.67V50.136C89.4827 49.856 88.9133 49.5387 88.512 49.184C88.12 48.82 87.924 48.3487 87.924 47.77C87.924 47.3967 88.0313 47.0653 88.246 46.776C88.4607 46.4867 88.7453 46.2533 89.1 46.076C89.4547 45.8893 89.842 45.768 90.262 45.712V44.886H91.27C91.3073 44.9047 91.326 44.9373 91.326 44.984C91.326 45.012 91.312 45.0587 91.284 45.124C91.256 45.1893 91.242 45.264 91.242 45.348V45.698C91.6527 45.754 92.0447 45.8753 92.418 46.062C92.7913 46.2393 93.1087 46.4867 93.37 46.804L92.642 47.728C92.5393 47.7187 92.4787 47.672 92.46 47.588C92.4413 47.504 92.4087 47.448 92.362 47.42C92.2407 47.28 92.082 47.168 91.886 47.084C91.69 47 91.4893 46.9393 91.284 46.902V49.1C92.0867 49.3893 92.67 49.7067 93.034 50.052C93.4073 50.388 93.594 50.8547 93.594 51.452C93.594 51.816 93.496 52.1707 93.3 52.516C93.104 52.8613 92.8287 53.1553 92.474 53.398C92.1193 53.6407 91.7087 53.79 91.242 53.846V54.63H90.262ZM90.22 48.722V46.888C89.9493 46.9347 89.7207 47.028 89.534 47.168C89.3473 47.2987 89.254 47.476 89.254 47.7C89.254 47.9053 89.338 48.0967 89.506 48.274C89.6833 48.442 89.9213 48.5913 90.22 48.722ZM91.284 52.642C91.5733 52.5767 91.8113 52.4367 91.998 52.222C92.194 52.0073 92.292 51.774 92.292 51.522C92.292 51.2607 92.1987 51.046 92.012 50.878C91.8347 50.7007 91.592 50.556 91.284 50.444V52.642ZM17.672 92.338L17.658 83.476H19.226V84.386C19.4313 84.022 19.6927 83.756 20.01 83.588C20.3273 83.42 20.6773 83.336 21.06 83.336C21.536 83.336 21.9653 83.4667 22.348 83.728C22.74 83.98 23.0527 84.3627 23.286 84.876C23.5193 85.38 23.636 86.01 23.636 86.766C23.636 87.5313 23.5147 88.166 23.272 88.67C23.0293 89.174 22.7073 89.552 22.306 89.804C21.914 90.0467 21.4893 90.168 21.032 90.168C20.6867 90.168 20.3553 90.1073 20.038 89.986C19.7207 89.8647 19.4687 89.6827 19.282 89.44V92.338H17.672ZM20.598 88.936C20.8687 88.936 21.116 88.866 21.34 88.726C21.564 88.586 21.7413 88.3527 21.872 88.026C22.0027 87.6993 22.068 87.2513 22.068 86.682C22.068 86.038 21.942 85.5293 21.69 85.156C21.4473 84.7827 21.1113 84.5913 20.682 84.582C20.234 84.5727 19.884 84.75 19.632 85.114C19.3893 85.4687 19.268 86.052 19.268 86.864C19.2867 88.2453 19.73 88.936 20.598 88.936ZM24.882 90V88.754H26.716V81.852H24.966V80.606H28.312V88.754H30.132V90H24.882ZM33.772 90.168C33.0533 90.168 32.4933 90 32.092 89.664C31.7 89.328 31.504 88.8847 31.504 88.334C31.504 87.6433 31.812 87.074 32.428 86.626C33.0533 86.1687 33.9587 85.94 35.144 85.94C35.2093 85.94 35.2933 85.94 35.396 85.94C35.508 85.94 35.6247 85.9447 35.746 85.954C35.6807 85.4127 35.5267 85.0487 35.284 84.862C35.0413 84.666 34.7147 84.568 34.304 84.568C34.0053 84.568 33.7253 84.6193 33.464 84.722C33.2027 84.8153 32.9413 84.9927 32.68 85.254L31.812 84.302C32.1853 83.9567 32.5913 83.7093 33.03 83.56C33.4687 83.4107 33.9167 83.336 34.374 83.336C34.9153 83.336 35.41 83.4247 35.858 83.602C36.306 83.77 36.6607 84.0687 36.922 84.498C37.1833 84.918 37.314 85.5013 37.314 86.248V90H35.676V89.3C35.4333 89.6267 35.1533 89.8553 34.836 89.986C34.5187 90.1073 34.164 90.168 33.772 90.168ZM33.086 88.138C33.086 88.4367 33.1793 88.6467 33.366 88.768C33.562 88.88 33.8 88.936 34.08 88.936C34.584 88.936 34.976 88.7867 35.256 88.488C35.536 88.18 35.704 87.6993 35.76 87.046C35.6387 87.046 35.522 87.046 35.41 87.046C35.298 87.0367 35.2 87.032 35.116 87.032C34.3693 87.032 33.842 87.1347 33.534 87.34C33.2353 87.5453 33.086 87.8113 33.086 88.138ZM39.764 92.464C39.4467 92.464 39.1667 92.4127 38.924 92.31C38.6813 92.2073 38.4433 92.058 38.21 91.862L38.756 90.77L38.812 90.644L38.938 90.7C38.966 90.7747 38.9987 90.8447 39.036 90.91C39.0733 90.9753 39.1573 91.05 39.288 91.134C39.428 91.2087 39.5867 91.246 39.764 91.246C40.044 91.246 40.268 91.1293 40.436 90.896C40.6133 90.6627 40.7907 90.294 40.968 89.79L38.434 83.49H40.016L41.682 87.788L42.382 85.8C42.522 85.3987 42.6387 85.0113 42.732 84.638C42.8253 84.2647 42.886 83.882 42.914 83.49H44.384C44.3467 83.91 44.2487 84.3533 44.09 84.82C43.9313 85.2867 43.7727 85.73 43.614 86.15L42.004 90.574C41.7427 91.2647 41.4253 91.75 41.052 92.03C40.688 92.3193 40.2587 92.464 39.764 92.464ZM49.116 90.168C48.4627 90.168 47.8467 90 47.268 89.664C46.6987 89.328 46.232 88.824 45.868 88.152C45.5133 87.4707 45.336 86.6167 45.336 85.59C45.336 84.5633 45.504 83.7233 45.84 83.07C46.176 82.4073 46.6053 81.9173 47.128 81.6C47.66 81.2827 48.22 81.124 48.808 81.124C49.6573 81.124 50.3387 81.3993 50.852 81.95C51.3653 82.5007 51.622 83.3593 51.622 84.526V87.648H50.39V87.214C50.25 87.3913 50.0867 87.5267 49.9 87.62C49.7133 87.7133 49.494 87.76 49.242 87.76C48.7007 87.76 48.2573 87.578 47.912 87.214C47.5667 86.85 47.394 86.3973 47.394 85.856C47.394 85.184 47.6227 84.638 48.08 84.218C48.5467 83.798 49.3027 83.5973 50.348 83.616C50.3293 83.14 50.18 82.7807 49.9 82.538C49.62 82.286 49.242 82.16 48.766 82.16C48.374 82.16 48.01 82.2767 47.674 82.51C47.338 82.734 47.0627 83.0933 46.848 83.588C46.6427 84.0827 46.54 84.7267 46.54 85.52C46.54 86.3227 46.6613 86.9853 46.904 87.508C47.156 88.0213 47.4827 88.404 47.884 88.656C48.2947 88.908 48.7333 89.034 49.2 89.034C49.4427 89.034 49.6947 88.992 49.956 88.908C50.2173 88.824 50.474 88.684 50.726 88.488L51.314 89.454C50.6513 89.93 49.9187 90.168 49.116 90.168ZM49.424 86.668C49.7787 86.668 50.0307 86.5187 50.18 86.22C50.3293 85.912 50.404 85.4033 50.404 84.694C49.7413 84.666 49.2793 84.7547 49.018 84.96C48.7567 85.1653 48.626 85.436 48.626 85.772C48.626 86.3693 48.892 86.668 49.424 86.668ZM55.906 90.154C55.2713 90.154 54.688 90 54.156 89.692C53.6333 89.3747 53.2133 88.8847 52.896 88.222C52.588 87.5593 52.434 86.7147 52.434 85.688C52.434 84.8293 52.5367 84.1107 52.742 83.532C52.9567 82.944 53.2367 82.4773 53.582 82.132C53.9273 81.7867 54.3053 81.5393 54.716 81.39C55.136 81.2313 55.5513 81.152 55.962 81.152C56.6153 81.152 57.1753 81.3013 57.642 81.6C58.118 81.8987 58.4773 82.3187 58.72 82.86L57.726 83.602L57.614 83.672L57.544 83.56C57.5533 83.4947 57.544 83.4293 57.516 83.364C57.4973 83.2893 57.4507 83.1867 57.376 83.056C57.1707 82.8133 56.956 82.65 56.732 82.566C56.5173 82.4727 56.2887 82.426 56.046 82.426C55.6913 82.426 55.3553 82.5473 55.038 82.79C54.73 83.0327 54.478 83.392 54.282 83.868C54.0953 84.3347 54.002 84.918 54.002 85.618C54.002 86.626 54.184 87.4193 54.548 87.998C54.9213 88.5673 55.388 88.852 55.948 88.852C56.2933 88.852 56.592 88.7773 56.844 88.628C57.096 88.4787 57.3247 88.2313 57.53 87.886L58.622 88.698C58.2953 89.23 57.908 89.608 57.46 89.832C57.0213 90.0467 56.5033 90.154 55.906 90.154ZM61.674 90V82.608H59.322V81.278H65.664V82.608H63.186V90H61.674ZM66.924 90V81.278H72.356V82.552H68.338V84.666H71.6V85.94H68.338V90H66.924ZM76.29 85.926C76.0007 85.926 75.7533 85.8187 75.548 85.604C75.3427 85.3893 75.24 85.1467 75.24 84.876C75.24 84.596 75.3427 84.3487 75.548 84.134C75.7533 83.9193 76.0007 83.812 76.29 83.812C76.5607 83.812 76.8033 83.9147 77.018 84.12C77.242 84.3253 77.354 84.5773 77.354 84.876C77.354 85.1467 77.2513 85.3893 77.046 85.604C76.8407 85.8187 76.5887 85.926 76.29 85.926ZM76.29 90.168C75.9913 90.168 75.7393 90.0653 75.534 89.86C75.338 89.6453 75.24 89.398 75.24 89.118C75.24 88.838 75.3427 88.5907 75.548 88.376C75.7533 88.152 76.0007 88.04 76.29 88.04C76.5607 88.04 76.8033 88.1473 77.018 88.362C77.242 88.5767 77.354 88.8287 77.354 89.118C77.354 89.3887 77.2513 89.6313 77.046 89.846C76.85 90.0607 76.598 90.168 76.29 90.168ZM82.1 90.602L80.644 89.972L84.956 80.662L86.384 81.39L82.1 90.602ZM90.262 90.63V89.86C89.8047 89.8227 89.3473 89.7107 88.89 89.524C88.442 89.3373 88.0547 89.0807 87.728 88.754L88.456 87.55C88.54 87.5873 88.5867 87.648 88.596 87.732C88.6147 87.816 88.6567 87.8907 88.722 87.956C88.918 88.152 89.142 88.3107 89.394 88.432C89.6553 88.544 89.9307 88.6233 90.22 88.67V86.136C89.4827 85.856 88.9133 85.5387 88.512 85.184C88.12 84.82 87.924 84.3487 87.924 83.77C87.924 83.3967 88.0313 83.0653 88.246 82.776C88.4607 82.4867 88.7453 82.2533 89.1 82.076C89.4547 81.8893 89.842 81.768 90.262 81.712V80.886H91.27C91.3073 80.9047 91.326 80.9373 91.326 80.984C91.326 81.012 91.312 81.0587 91.284 81.124C91.256 81.1893 91.242 81.264 91.242 81.348V81.698C91.6527 81.754 92.0447 81.8753 92.418 82.062C92.7913 82.2393 93.1087 82.4867 93.37 82.804L92.642 83.728C92.5393 83.7187 92.4787 83.672 92.46 83.588C92.4413 83.504 92.4087 83.448 92.362 83.42C92.2407 83.28 92.082 83.168 91.886 83.084C91.69 83 91.4893 82.9393 91.284 82.902V85.1C92.0867 85.3893 92.67 85.7067 93.034 86.052C93.4073 86.388 93.594 86.8547 93.594 87.452C93.594 87.816 93.496 88.1707 93.3 88.516C93.104 88.8613 92.8287 89.1553 92.474 89.398C92.1193 89.6407 91.7087 89.79 91.242 89.846V90.63H90.262ZM90.22 84.722V82.888C89.9493 82.9347 89.7207 83.028 89.534 83.168C89.3473 83.2987 89.254 83.476 89.254 83.7C89.254 83.9053 89.338 84.0967 89.506 84.274C89.6833 84.442 89.9213 84.5913 90.22 84.722ZM91.284 88.642C91.5733 88.5767 91.8113 88.4367 91.998 88.222C92.194 88.0073 92.292 87.774 92.292 87.522C92.292 87.2607 92.1987 87.046 92.012 86.878C91.8347 86.7007 91.592 86.556 91.284 86.444V88.642ZM17.672 128.338L17.658 119.476H19.226V120.386C19.4313 120.022 19.6927 119.756 20.01 119.588C20.3273 119.42 20.6773 119.336 21.06 119.336C21.536 119.336 21.9653 119.467 22.348 119.728C22.74 119.98 23.0527 120.363 23.286 120.876C23.5193 121.38 23.636 122.01 23.636 122.766C23.636 123.531 23.5147 124.166 23.272 124.67C23.0293 125.174 22.7073 125.552 22.306 125.804C21.914 126.047 21.4893 126.168 21.032 126.168C20.6867 126.168 20.3553 126.107 20.038 125.986C19.7207 125.865 19.4687 125.683 19.282 125.44V128.338H17.672ZM20.598 124.936C20.8687 124.936 21.116 124.866 21.34 124.726C21.564 124.586 21.7413 124.353 21.872 124.026C22.0027 123.699 22.068 123.251 22.068 122.682C22.068 122.038 21.942 121.529 21.69 121.156C21.4473 120.783 21.1113 120.591 20.682 120.582C20.234 120.573 19.884 120.75 19.632 121.114C19.3893 121.469 19.268 122.052 19.268 122.864C19.2867 124.245 19.73 124.936 20.598 124.936ZM24.882 126V124.754H26.716V117.852H24.966V116.606H28.312V124.754H30.132V126H24.882ZM33.772 126.168C33.0533 126.168 32.4933 126 32.092 125.664C31.7 125.328 31.504 124.885 31.504 124.334C31.504 123.643 31.812 123.074 32.428 122.626C33.0533 122.169 33.9587 121.94 35.144 121.94C35.2093 121.94 35.2933 121.94 35.396 121.94C35.508 121.94 35.6247 121.945 35.746 121.954C35.6807 121.413 35.5267 121.049 35.284 120.862C35.0413 120.666 34.7147 120.568 34.304 120.568C34.0053 120.568 33.7253 120.619 33.464 120.722C33.2027 120.815 32.9413 120.993 32.68 121.254L31.812 120.302C32.1853 119.957 32.5913 119.709 33.03 119.56C33.4687 119.411 33.9167 119.336 34.374 119.336C34.9153 119.336 35.41 119.425 35.858 119.602C36.306 119.77 36.6607 120.069 36.922 120.498C37.1833 120.918 37.314 121.501 37.314 122.248V126H35.676V125.3C35.4333 125.627 35.1533 125.855 34.836 125.986C34.5187 126.107 34.164 126.168 33.772 126.168ZM33.086 124.138C33.086 124.437 33.1793 124.647 33.366 124.768C33.562 124.88 33.8 124.936 34.08 124.936C34.584 124.936 34.976 124.787 35.256 124.488C35.536 124.18 35.704 123.699 35.76 123.046C35.6387 123.046 35.522 123.046 35.41 123.046C35.298 123.037 35.2 123.032 35.116 123.032C34.3693 123.032 33.842 123.135 33.534 123.34C33.2353 123.545 33.086 123.811 33.086 124.138ZM39.764 128.464C39.4467 128.464 39.1667 128.413 38.924 128.31C38.6813 128.207 38.4433 128.058 38.21 127.862L38.756 126.77L38.812 126.644L38.938 126.7C38.966 126.775 38.9987 126.845 39.036 126.91C39.0733 126.975 39.1573 127.05 39.288 127.134C39.428 127.209 39.5867 127.246 39.764 127.246C40.044 127.246 40.268 127.129 40.436 126.896C40.6133 126.663 40.7907 126.294 40.968 125.79L38.434 119.49H40.016L41.682 123.788L42.382 121.8C42.522 121.399 42.6387 121.011 42.732 120.638C42.8253 120.265 42.886 119.882 42.914 119.49H44.384C44.3467 119.91 44.2487 120.353 44.09 120.82C43.9313 121.287 43.7727 121.73 43.614 122.15L42.004 126.574C41.7427 127.265 41.4253 127.75 41.052 128.03C40.688 128.319 40.2587 128.464 39.764 128.464ZM49.116 126.168C48.4627 126.168 47.8467 126 47.268 125.664C46.6987 125.328 46.232 124.824 45.868 124.152C45.5133 123.471 45.336 122.617 45.336 121.59C45.336 120.563 45.504 119.723 45.84 119.07C46.176 118.407 46.6053 117.917 47.128 117.6C47.66 117.283 48.22 117.124 48.808 117.124C49.6573 117.124 50.3387 117.399 50.852 117.95C51.3653 118.501 51.622 119.359 51.622 120.526V123.648H50.39V123.214C50.25 123.391 50.0867 123.527 49.9 123.62C49.7133 123.713 49.494 123.76 49.242 123.76C48.7007 123.76 48.2573 123.578 47.912 123.214C47.5667 122.85 47.394 122.397 47.394 121.856C47.394 121.184 47.6227 120.638 48.08 120.218C48.5467 119.798 49.3027 119.597 50.348 119.616C50.3293 119.14 50.18 118.781 49.9 118.538C49.62 118.286 49.242 118.16 48.766 118.16C48.374 118.16 48.01 118.277 47.674 118.51C47.338 118.734 47.0627 119.093 46.848 119.588C46.6427 120.083 46.54 120.727 46.54 121.52C46.54 122.323 46.6613 122.985 46.904 123.508C47.156 124.021 47.4827 124.404 47.884 124.656C48.2947 124.908 48.7333 125.034 49.2 125.034C49.4427 125.034 49.6947 124.992 49.956 124.908C50.2173 124.824 50.474 124.684 50.726 124.488L51.314 125.454C50.6513 125.93 49.9187 126.168 49.116 126.168ZM49.424 122.668C49.7787 122.668 50.0307 122.519 50.18 122.22C50.3293 121.912 50.404 121.403 50.404 120.694C49.7413 120.666 49.2793 120.755 49.018 120.96C48.7567 121.165 48.626 121.436 48.626 121.772C48.626 122.369 48.892 122.668 49.424 122.668ZM55.906 126.154C55.2713 126.154 54.688 126 54.156 125.692C53.6333 125.375 53.2133 124.885 52.896 124.222C52.588 123.559 52.434 122.715 52.434 121.688C52.434 120.829 52.5367 120.111 52.742 119.532C52.9567 118.944 53.2367 118.477 53.582 118.132C53.9273 117.787 54.3053 117.539 54.716 117.39C55.136 117.231 55.5513 117.152 55.962 117.152C56.6153 117.152 57.1753 117.301 57.642 117.6C58.118 117.899 58.4773 118.319 58.72 118.86L57.726 119.602L57.614 119.672L57.544 119.56C57.5533 119.495 57.544 119.429 57.516 119.364C57.4973 119.289 57.4507 119.187 57.376 119.056C57.1707 118.813 56.956 118.65 56.732 118.566C56.5173 118.473 56.2887 118.426 56.046 118.426C55.6913 118.426 55.3553 118.547 55.038 118.79C54.73 119.033 54.478 119.392 54.282 119.868C54.0953 120.335 54.002 120.918 54.002 121.618C54.002 122.626 54.184 123.419 54.548 123.998C54.9213 124.567 55.388 124.852 55.948 124.852C56.2933 124.852 56.592 124.777 56.844 124.628C57.096 124.479 57.3247 124.231 57.53 123.886L58.622 124.698C58.2953 125.23 57.908 125.608 57.46 125.832C57.0213 126.047 56.5033 126.154 55.906 126.154ZM61.674 126V118.608H59.322V117.278H65.664V118.608H63.186V126H61.674ZM66.924 126V117.278H72.356V118.552H68.338V120.666H71.6V121.94H68.338V126H66.924ZM76.29 121.926C76.0007 121.926 75.7533 121.819 75.548 121.604C75.3427 121.389 75.24 121.147 75.24 120.876C75.24 120.596 75.3427 120.349 75.548 120.134C75.7533 119.919 76.0007 119.812 76.29 119.812C76.5607 119.812 76.8033 119.915 77.018 120.12C77.242 120.325 77.354 120.577 77.354 120.876C77.354 121.147 77.2513 121.389 77.046 121.604C76.8407 121.819 76.5887 121.926 76.29 121.926ZM76.29 126.168C75.9913 126.168 75.7393 126.065 75.534 125.86C75.338 125.645 75.24 125.398 75.24 125.118C75.24 124.838 75.3427 124.591 75.548 124.376C75.7533 124.152 76.0007 124.04 76.29 124.04C76.5607 124.04 76.8033 124.147 77.018 124.362C77.242 124.577 77.354 124.829 77.354 125.118C77.354 125.389 77.2513 125.631 77.046 125.846C76.85 126.061 76.598 126.168 76.29 126.168ZM82.1 126.602L80.644 125.972L84.956 116.662L86.384 117.39L82.1 126.602ZM90.262 126.63V125.86C89.8047 125.823 89.3473 125.711 88.89 125.524C88.442 125.337 88.0547 125.081 87.728 124.754L88.456 123.55C88.54 123.587 88.5867 123.648 88.596 123.732C88.6147 123.816 88.6567 123.891 88.722 123.956C88.918 124.152 89.142 124.311 89.394 124.432C89.6553 124.544 89.9307 124.623 90.22 124.67V122.136C89.4827 121.856 88.9133 121.539 88.512 121.184C88.12 120.82 87.924 120.349 87.924 119.77C87.924 119.397 88.0313 119.065 88.246 118.776C88.4607 118.487 88.7453 118.253 89.1 118.076C89.4547 117.889 89.842 117.768 90.262 117.712V116.886H91.27C91.3073 116.905 91.326 116.937 91.326 116.984C91.326 117.012 91.312 117.059 91.284 117.124C91.256 117.189 91.242 117.264 91.242 117.348V117.698C91.6527 117.754 92.0447 117.875 92.418 118.062C92.7913 118.239 93.1087 118.487 93.37 118.804L92.642 119.728C92.5393 119.719 92.4787 119.672 92.46 119.588C92.4413 119.504 92.4087 119.448 92.362 119.42C92.2407 119.28 92.082 119.168 91.886 119.084C91.69 119 91.4893 118.939 91.284 118.902V121.1C92.0867 121.389 92.67 121.707 93.034 122.052C93.4073 122.388 93.594 122.855 93.594 123.452C93.594 123.816 93.496 124.171 93.3 124.516C93.104 124.861 92.8287 125.155 92.474 125.398C92.1193 125.641 91.7087 125.79 91.242 125.846V126.63H90.262ZM90.22 120.722V118.888C89.9493 118.935 89.7207 119.028 89.534 119.168C89.3473 119.299 89.254 119.476 89.254 119.7C89.254 119.905 89.338 120.097 89.506 120.274C89.6833 120.442 89.9213 120.591 90.22 120.722ZM91.284 124.642C91.5733 124.577 91.8113 124.437 91.998 124.222C92.194 124.007 92.292 123.774 92.292 123.522C92.292 123.261 92.1987 123.046 92.012 122.878C91.8347 122.701 91.592 122.556 91.284 122.444V124.642Z" fill="#86FF29"/>
<path d="M102.512 54.014L101.224 47.602H102.106L103.142 52.74L104.234 48.204H104.85L106.208 52.726C106.329 51.8953 106.427 51.214 106.502 50.682C106.586 50.15 106.647 49.716 106.684 49.38C106.731 49.0347 106.759 48.7453 106.768 48.512C106.787 48.2787 106.796 48.0453 106.796 47.812V47.602H107.734C107.454 49.7673 107.099 51.9047 106.67 54.014H105.718L104.542 49.87L103.422 54.014H102.512ZM109.022 44.69H110.128V44.788C110.072 44.844 110.035 44.9047 110.016 44.97C110.007 45.0353 110.002 45.1473 110.002 45.306V48.736C110.254 48.344 110.567 48.0313 110.94 47.798C111.323 47.5647 111.71 47.448 112.102 47.448C112.681 47.448 113.147 47.6533 113.502 48.064C113.866 48.4653 114.048 49.1513 114.048 50.122V54H113.068V50.15C113.068 49.478 112.951 49.0067 112.718 48.736C112.494 48.4653 112.219 48.33 111.892 48.33C111.612 48.33 111.323 48.4093 111.024 48.568C110.735 48.7267 110.492 48.9553 110.296 49.254C110.1 49.5433 110.002 49.898 110.002 50.318V54H109.022V44.69ZM118.808 54.14C117.875 54.14 117.119 53.8553 116.54 53.286C115.971 52.7167 115.686 51.8953 115.686 50.822C115.686 50.094 115.817 49.4827 116.078 48.988C116.349 48.484 116.703 48.1013 117.142 47.84C117.59 47.5787 118.085 47.448 118.626 47.448C119.111 47.448 119.55 47.5553 119.942 47.77C120.334 47.9847 120.647 48.316 120.88 48.764C121.113 49.212 121.23 49.786 121.23 50.486C121.23 50.5607 121.225 50.64 121.216 50.724C121.216 50.7987 121.211 50.8733 121.202 50.948H116.652C116.689 51.7693 116.918 52.3713 117.338 52.754C117.767 53.1367 118.267 53.328 118.836 53.328C119.508 53.328 120.059 53.09 120.488 52.614L121.048 53.16C120.507 53.8133 119.76 54.14 118.808 54.14ZM116.694 50.164H120.208C120.208 49.5667 120.054 49.0953 119.746 48.75C119.447 48.3953 119.051 48.218 118.556 48.218C118.117 48.218 117.721 48.3767 117.366 48.694C117.011 49.002 116.787 49.492 116.694 50.164ZM123.008 54V47.602H123.988V48.736C124.231 48.344 124.543 48.0313 124.926 47.798C125.318 47.5647 125.729 47.448 126.158 47.448C126.681 47.448 127.124 47.6533 127.488 48.064C127.852 48.4653 128.034 49.1513 128.034 50.122V54H127.054V50.15C127.054 49.478 126.937 49.0067 126.704 48.736C126.48 48.4653 126.205 48.33 125.878 48.33C125.598 48.33 125.309 48.414 125.01 48.582C124.721 48.7407 124.478 48.9693 124.282 49.268C124.086 49.5573 123.988 49.9073 123.988 50.318V54H123.008ZM104.276 90.14C103.847 90.14 103.427 90.0187 103.016 89.776C102.615 89.524 102.283 89.146 102.022 88.642C101.761 88.138 101.63 87.5033 101.63 86.738C101.63 85.954 101.765 85.3193 102.036 84.834C102.307 84.3487 102.647 83.994 103.058 83.77C103.478 83.546 103.903 83.434 104.332 83.434C104.771 83.434 105.149 83.5367 105.466 83.742C105.793 83.938 106.035 84.204 106.194 84.54V80.69H107.258V80.788C107.202 80.844 107.165 80.9047 107.146 80.97C107.137 81.0353 107.132 81.1473 107.132 81.306L107.146 89.006C107.146 89.174 107.151 89.342 107.16 89.51C107.179 89.6687 107.221 89.832 107.286 90H106.292C106.227 89.832 106.185 89.6687 106.166 89.51C106.157 89.342 106.152 89.174 106.152 89.006C105.947 89.3513 105.685 89.6267 105.368 89.832C105.051 90.0373 104.687 90.14 104.276 90.14ZM104.43 89.258C104.841 89.258 105.167 89.146 105.41 88.922C105.662 88.698 105.839 88.3993 105.942 88.026C106.054 87.6433 106.11 87.2233 106.11 86.766C106.11 86.0473 105.97 85.45 105.69 84.974C105.41 84.498 104.962 84.26 104.346 84.26C103.777 84.26 103.343 84.47 103.044 84.89C102.755 85.31 102.61 85.8747 102.61 86.584C102.61 87.3867 102.764 88.0353 103.072 88.53C103.38 89.0153 103.833 89.258 104.43 89.258ZM111.094 90.154C110.459 90.154 109.932 89.916 109.512 89.44C109.092 88.964 108.887 88.208 108.896 87.172L108.91 83.602H109.89V87.172C109.89 87.984 110.03 88.5487 110.31 88.866C110.599 89.1833 110.945 89.342 111.346 89.342C111.645 89.342 111.925 89.2627 112.186 89.104C112.447 88.9453 112.657 88.7027 112.816 88.376C112.984 88.0493 113.068 87.634 113.068 87.13V83.602H114.048V89.006C114.048 89.174 114.053 89.342 114.062 89.51C114.081 89.6687 114.123 89.832 114.188 90H113.222C113.157 89.8413 113.115 89.678 113.096 89.51C113.087 89.342 113.082 89.1787 113.082 89.02C112.877 89.3747 112.597 89.6547 112.242 89.86C111.897 90.056 111.514 90.154 111.094 90.154ZM116.666 83.602H117.716L117.688 84.778C117.865 84.3487 118.141 84.022 118.514 83.798C118.887 83.5647 119.289 83.448 119.718 83.448C120.399 83.448 120.964 83.6813 121.412 84.148L120.964 84.932L120.908 85.058L120.81 85.002C120.791 84.9273 120.763 84.8573 120.726 84.792C120.689 84.7267 120.609 84.6473 120.488 84.554C120.339 84.4607 120.199 84.4 120.068 84.372C119.947 84.3347 119.807 84.316 119.648 84.316C119.34 84.316 119.032 84.3953 118.724 84.554C118.425 84.7127 118.178 84.96 117.982 85.296C117.786 85.632 117.688 86.0707 117.688 86.612V90.014H116.666V83.602ZM124.954 90.154C124.226 90.154 123.666 89.9907 123.274 89.664C122.882 89.328 122.686 88.9033 122.686 88.39C122.686 87.9327 122.831 87.5407 123.12 87.214C123.409 86.878 123.797 86.6213 124.282 86.444C124.777 86.2573 125.318 86.164 125.906 86.164C126.121 86.164 126.345 86.1687 126.578 86.178C126.821 86.1873 127.077 86.2107 127.348 86.248C127.292 85.5013 127.096 84.988 126.76 84.708C126.433 84.428 125.962 84.288 125.346 84.288C125.038 84.288 124.735 84.3487 124.436 84.47C124.137 84.582 123.867 84.7593 123.624 85.002L123.134 84.358C123.433 84.0593 123.778 83.8353 124.17 83.686C124.562 83.5367 124.977 83.462 125.416 83.462C125.985 83.462 126.48 83.5553 126.9 83.742C127.32 83.9287 127.647 84.2507 127.88 84.708C128.113 85.1653 128.23 85.7953 128.23 86.598V90H127.138V89.02C126.979 89.328 126.774 89.566 126.522 89.734C126.279 89.8927 126.018 90 125.738 90.056C125.467 90.1213 125.206 90.154 124.954 90.154ZM123.694 88.334C123.694 88.7353 123.825 89.0107 124.086 89.16C124.347 89.3093 124.669 89.384 125.052 89.384C125.743 89.384 126.289 89.1833 126.69 88.782C127.091 88.3713 127.311 87.7833 127.348 87.018C126.863 86.9527 126.41 86.92 125.99 86.92C125.318 86.92 124.767 87.032 124.338 87.256C123.909 87.48 123.694 87.8393 123.694 88.334ZM133.186 90.098C132.635 90.098 132.215 89.972 131.926 89.72C131.646 89.468 131.459 89.0807 131.366 88.558C131.273 88.026 131.24 87.3493 131.268 86.528L131.352 84.428H129.98V83.602H131.38L131.436 81.964L132.486 81.838L132.626 81.824L132.64 81.922C132.593 81.9873 132.551 82.0527 132.514 82.118C132.486 82.1833 132.463 82.2953 132.444 82.454L132.346 83.602H134.586V84.428H132.36L132.262 86.598C132.234 87.3073 132.253 87.858 132.318 88.25C132.383 88.6327 132.5 88.8987 132.668 89.048C132.836 89.188 133.06 89.258 133.34 89.258C133.648 89.258 133.919 89.1973 134.152 89.076C134.395 88.9547 134.647 88.8007 134.908 88.614L135.216 89.412C134.899 89.6453 134.572 89.818 134.236 89.93C133.9 90.042 133.55 90.098 133.186 90.098ZM137.4 90V89.188H139.038V84.414H137.484V83.602H140.046V89.188H141.544V90H137.4ZM139.486 82.258C139.29 82.258 139.122 82.188 138.982 82.048C138.842 81.908 138.772 81.74 138.772 81.544C138.772 81.3387 138.837 81.166 138.968 81.026C139.108 80.886 139.281 80.816 139.486 80.816C139.682 80.816 139.85 80.8907 139.99 81.04C140.139 81.18 140.214 81.348 140.214 81.544C140.214 81.74 140.139 81.908 139.99 82.048C139.85 82.188 139.682 82.258 139.486 82.258ZM146.5 90.112C145.921 90.112 145.408 89.972 144.96 89.692C144.521 89.4027 144.176 89.0107 143.924 88.516C143.672 88.012 143.546 87.438 143.546 86.794C143.546 86.1407 143.672 85.5667 143.924 85.072C144.176 84.568 144.521 84.176 144.96 83.896C145.408 83.6067 145.921 83.462 146.5 83.462C147.079 83.462 147.587 83.6067 148.026 83.896C148.474 84.176 148.824 84.568 149.076 85.072C149.328 85.5667 149.454 86.1407 149.454 86.794C149.454 87.438 149.328 88.012 149.076 88.516C148.824 89.0107 148.474 89.4027 148.026 89.692C147.587 89.972 147.079 90.112 146.5 90.112ZM146.5 89.272C146.873 89.272 147.2 89.1647 147.48 88.95C147.76 88.7353 147.979 88.4413 148.138 88.068C148.306 87.6947 148.39 87.2653 148.39 86.78C148.39 86.052 148.213 85.4593 147.858 85.002C147.503 84.5353 147.051 84.302 146.5 84.302C145.949 84.302 145.497 84.5353 145.142 85.002C144.787 85.4593 144.61 86.052 144.61 86.78C144.61 87.2653 144.689 87.6947 144.848 88.068C145.016 88.4413 145.24 88.7353 145.52 88.95C145.809 89.1647 146.136 89.272 146.5 89.272ZM151.008 90V83.602H151.988V84.736C152.231 84.344 152.543 84.0313 152.926 83.798C153.318 83.5647 153.729 83.448 154.158 83.448C154.681 83.448 155.124 83.6533 155.488 84.064C155.852 84.4653 156.034 85.1513 156.034 86.122V90H155.054V86.15C155.054 85.478 154.937 85.0067 154.704 84.736C154.48 84.4653 154.205 84.33 153.878 84.33C153.598 84.33 153.309 84.414 153.01 84.582C152.721 84.7407 152.478 84.9693 152.282 85.268C152.086 85.5573 151.988 85.9073 151.988 86.318V90H151.008Z" fill="#F0FF93"/>
<path d="M20.388 72.154C19.8093 72.154 19.2633 72.07 18.75 71.902C18.246 71.7247 17.826 71.4587 17.49 71.104L18.26 69.802L18.316 69.69L18.442 69.76C18.4607 69.8347 18.484 69.9093 18.512 69.984C18.5493 70.0493 18.624 70.1333 18.736 70.236C18.9693 70.4133 19.226 70.558 19.506 70.67C19.7953 70.782 20.108 70.838 20.444 70.838C20.8827 70.838 21.2373 70.7447 21.508 70.558C21.788 70.362 21.928 70.0773 21.928 69.704C21.928 69.5173 21.886 69.3447 21.802 69.186C21.718 69.018 21.55 68.85 21.298 68.682C21.0553 68.514 20.6913 68.318 20.206 68.094C19.6087 67.8327 19.1327 67.5713 18.778 67.31C18.4327 67.0393 18.1853 66.75 18.036 66.442C17.8867 66.1247 17.812 65.77 17.812 65.378C17.812 64.9487 17.9287 64.566 18.162 64.23C18.4047 63.894 18.736 63.628 19.156 63.432C19.576 63.236 20.0567 63.138 20.598 63.138C21.6713 63.138 22.5533 63.5113 23.244 64.258L22.32 65.322L22.236 65.42L22.124 65.336C22.1147 65.2613 22.096 65.1913 22.068 65.126C22.0493 65.0513 21.9887 64.958 21.886 64.846C21.7087 64.678 21.5173 64.566 21.312 64.51C21.116 64.454 20.8827 64.426 20.612 64.426C20.2293 64.426 19.926 64.5147 19.702 64.692C19.478 64.8693 19.366 65.0747 19.366 65.308C19.366 65.4947 19.408 65.6627 19.492 65.812C19.576 65.9613 19.744 66.12 19.996 66.288C20.2573 66.456 20.654 66.6567 21.186 66.89C21.774 67.1607 22.236 67.4267 22.572 67.688C22.908 67.94 23.1413 68.22 23.272 68.528C23.412 68.836 23.482 69.1953 23.482 69.606C23.482 70.026 23.3747 70.432 23.16 70.824C22.9453 71.216 22.6093 71.538 22.152 71.79C21.6947 72.0327 21.1067 72.154 20.388 72.154ZM26.968 72.168C26.3053 72.168 25.7593 71.944 25.33 71.496C24.9007 71.048 24.686 70.32 24.686 69.312V65.49H26.282V69.312C26.282 69.8907 26.3753 70.3013 26.562 70.544C26.758 70.7773 27.0007 70.894 27.29 70.894C27.682 70.894 27.9993 70.754 28.242 70.474C28.494 70.194 28.62 69.7693 28.62 69.2V65.49H30.202V70.964C30.202 71.1693 30.2067 71.356 30.216 71.524C30.2347 71.6827 30.2767 71.8413 30.342 72H28.9C28.8253 71.86 28.7833 71.72 28.774 71.58C28.7647 71.44 28.76 71.3 28.76 71.16C28.564 71.496 28.3027 71.748 27.976 71.916C27.6587 72.084 27.3227 72.168 26.968 72.168ZM31.77 72V65.49H33.352V66.386C33.5853 66.0687 33.856 65.8167 34.164 65.63C34.472 65.434 34.8267 65.336 35.228 65.336C35.6013 65.336 35.9467 65.4293 36.264 65.616C36.5907 65.7933 36.852 66.0827 37.048 66.484C37.244 66.8853 37.342 67.4127 37.342 68.066V72H35.76V68.094C35.76 67.562 35.676 67.1747 35.508 66.932C35.34 66.68 35.1067 66.554 34.808 66.554C34.5747 66.554 34.346 66.6193 34.122 66.75C33.898 66.8713 33.7113 67.0487 33.562 67.282C33.422 67.5153 33.352 67.7953 33.352 68.122V72H31.77ZM45.588 72V63.278H47.842C48.6073 63.278 49.2 63.3853 49.62 63.6C50.0493 63.8053 50.4087 64.0993 50.698 64.482C50.9873 64.874 51.2113 65.3407 51.37 65.882C51.538 66.4233 51.622 67.03 51.622 67.702C51.6033 68.5793 51.4587 69.3447 51.188 69.998C50.9173 70.642 50.4927 71.1367 49.914 71.482C49.3447 71.8273 48.598 72 47.674 72H45.588ZM47.128 70.768H47.632C48.2293 70.768 48.7053 70.642 49.06 70.39C49.424 70.138 49.6853 69.7833 49.844 69.326C50.0027 68.8687 50.0773 68.332 50.068 67.716C50.068 67.072 49.998 66.512 49.858 66.036C49.7273 65.56 49.494 65.1913 49.158 64.93C48.822 64.6687 48.3647 64.538 47.786 64.538H47.128V70.768ZM55.794 72.154C55.1687 72.154 54.6087 72.0233 54.114 71.762C53.6287 71.5007 53.246 71.118 52.966 70.614C52.686 70.11 52.546 69.5033 52.546 68.794C52.546 68.066 52.6813 67.4453 52.952 66.932C53.232 66.4187 53.6007 66.0267 54.058 65.756C54.5247 65.476 55.0427 65.336 55.612 65.336C56.116 65.336 56.578 65.4527 56.998 65.686C57.4273 65.9193 57.768 66.274 58.02 66.75C58.2813 67.2167 58.412 67.8 58.412 68.5C58.412 68.5933 58.4073 68.7053 58.398 68.836C58.398 68.9667 58.3933 69.0787 58.384 69.172H54.072C54.0907 69.5827 54.1887 69.9187 54.366 70.18C54.5433 70.432 54.7627 70.6187 55.024 70.74C55.2853 70.8613 55.5653 70.922 55.864 70.922C56.1533 70.922 56.4287 70.8753 56.69 70.782C56.9513 70.6887 57.194 70.53 57.418 70.306L58.23 71.09C57.9127 71.4633 57.5487 71.734 57.138 71.902C56.7273 72.07 56.2793 72.154 55.794 72.154ZM54.1 67.982H56.872C56.872 67.5247 56.7553 67.1747 56.522 66.932C56.2887 66.6893 55.962 66.568 55.542 66.568C55.178 66.568 54.8607 66.6847 54.59 66.918C54.3193 67.142 54.156 67.4967 54.1 67.982ZM62.892 72.168C62.2573 72.168 61.688 72.0233 61.184 71.734C60.68 71.4447 60.2787 71.048 59.98 70.544C59.6907 70.0307 59.546 69.4473 59.546 68.794C59.546 68.15 59.6907 67.5667 59.98 67.044C60.2787 66.5213 60.68 66.106 61.184 65.798C61.688 65.49 62.262 65.336 62.906 65.336C63.5033 65.336 64.026 65.448 64.474 65.672C64.922 65.896 65.2767 66.204 65.538 66.596L64.656 67.562L64.572 67.66L64.46 67.576C64.46 67.492 64.4507 67.4173 64.432 67.352C64.4133 67.2773 64.3527 67.1793 64.25 67.058C64.0727 66.89 63.872 66.7733 63.648 66.708C63.4333 66.6427 63.1907 66.61 62.92 66.61C62.612 66.61 62.3227 66.694 62.052 66.862C61.7813 67.03 61.562 67.2773 61.394 67.604C61.2353 67.9307 61.156 68.3273 61.156 68.794C61.156 69.214 61.24 69.5827 61.408 69.9C61.576 70.208 61.7953 70.4507 62.066 70.628C62.346 70.796 62.6447 70.88 62.962 70.88C63.2513 70.88 63.536 70.8193 63.816 70.698C64.096 70.5767 64.3573 70.3667 64.6 70.068L65.482 71.076C65.1367 71.4587 64.7353 71.7387 64.278 71.916C63.8207 72.084 63.3587 72.168 62.892 72.168ZM76.976 72V69.928H73.56V68.892L77.34 63.278H78.516V68.654H79.664V69.942H78.516V72H76.976ZM75.156 68.682H77.018V65.77L75.156 68.682ZM82.982 74.38L82.128 73.666C82.3893 73.4233 82.59 73.1807 82.73 72.938C82.87 72.7047 82.94 72.5087 82.94 72.35C82.94 72.21 82.884 72.084 82.772 71.972C82.6693 71.8507 82.562 71.72 82.45 71.58C82.338 71.4307 82.282 71.2487 82.282 71.034C82.282 70.726 82.3893 70.488 82.604 70.32C82.8187 70.152 83.0707 70.068 83.36 70.068C83.724 70.068 84.0133 70.1987 84.228 70.46C84.4427 70.7213 84.55 71.0573 84.55 71.468C84.55 72.3453 84.0273 73.316 82.982 74.38ZM96.912 72V65L95.33 65.56L94.994 64.51L97.318 63.278H98.494V72H96.912ZM102.736 72C103.147 70.7213 103.571 69.48 104.01 68.276C104.458 67.072 104.929 65.8587 105.424 64.636H101.91V63.278H107.202V64.146C106.67 65.4247 106.166 66.708 105.69 67.996C105.214 69.284 104.775 70.6187 104.374 72H102.736ZM111.29 67.926C111.001 67.926 110.753 67.8187 110.548 67.604C110.343 67.3893 110.24 67.1467 110.24 66.876C110.24 66.596 110.343 66.3487 110.548 66.134C110.753 65.9193 111.001 65.812 111.29 65.812C111.561 65.812 111.803 65.9147 112.018 66.12C112.242 66.3253 112.354 66.5773 112.354 66.876C112.354 67.1467 112.251 67.3893 112.046 67.604C111.841 67.8187 111.589 67.926 111.29 67.926ZM111.29 72.168C110.991 72.168 110.739 72.0653 110.534 71.86C110.338 71.6453 110.24 71.398 110.24 71.118C110.24 70.838 110.343 70.5907 110.548 70.376C110.753 70.152 111.001 70.04 111.29 70.04C111.561 70.04 111.803 70.1473 112.018 70.362C112.242 70.5767 112.354 70.8287 112.354 71.118C112.354 71.3887 112.251 71.6313 112.046 71.846C111.85 72.0607 111.598 72.168 111.29 72.168ZM118.5 72.168C117.585 72.168 116.857 71.7807 116.316 71.006C115.784 70.2313 115.518 69.1253 115.518 67.688C115.518 66.2693 115.784 65.1587 116.316 64.356C116.857 63.5533 117.585 63.152 118.5 63.152C119.415 63.152 120.138 63.5533 120.67 64.356C121.211 65.1587 121.482 66.2693 121.482 67.688C121.482 69.1253 121.211 70.2313 120.67 71.006C120.138 71.7807 119.415 72.168 118.5 72.168ZM116.988 67.688C116.988 68.0707 117.007 68.4253 117.044 68.752L119.732 65.56C119.48 64.804 119.069 64.426 118.5 64.426C117.996 64.426 117.618 64.7153 117.366 65.294C117.114 65.8633 116.988 66.6613 116.988 67.688ZM118.5 70.95C119.004 70.95 119.382 70.67 119.634 70.11C119.886 69.5407 120.012 68.7333 120.012 67.688C120.012 67.324 119.993 66.9833 119.956 66.666L117.268 69.844C117.52 70.5813 117.931 70.95 118.5 70.95ZM125.5 72.168C124.585 72.168 123.857 71.7807 123.316 71.006C122.784 70.2313 122.518 69.1253 122.518 67.688C122.518 66.2693 122.784 65.1587 123.316 64.356C123.857 63.5533 124.585 63.152 125.5 63.152C126.415 63.152 127.138 63.5533 127.67 64.356C128.211 65.1587 128.482 66.2693 128.482 67.688C128.482 69.1253 128.211 70.2313 127.67 71.006C127.138 71.7807 126.415 72.168 125.5 72.168ZM123.988 67.688C123.988 68.0707 124.007 68.4253 124.044 68.752L126.732 65.56C126.48 64.804 126.069 64.426 125.5 64.426C124.996 64.426 124.618 64.7153 124.366 65.294C124.114 65.8633 123.988 66.6613 123.988 67.688ZM125.5 70.95C126.004 70.95 126.382 70.67 126.634 70.11C126.886 69.5407 127.012 68.7333 127.012 67.688C127.012 67.324 126.993 66.9833 126.956 66.666L124.268 69.844C124.52 70.5813 124.931 70.95 125.5 70.95ZM136.98 72V70.726H138.688V64.552H137.078V63.278H141.894V64.552H140.186V70.726H141.964V72H136.98ZM146.388 72.154C145.809 72.154 145.263 72.07 144.75 71.902C144.246 71.7247 143.826 71.4587 143.49 71.104L144.26 69.802L144.316 69.69L144.442 69.76C144.461 69.8347 144.484 69.9093 144.512 69.984C144.549 70.0493 144.624 70.1333 144.736 70.236C144.969 70.4133 145.226 70.558 145.506 70.67C145.795 70.782 146.108 70.838 146.444 70.838C146.883 70.838 147.237 70.7447 147.508 70.558C147.788 70.362 147.928 70.0773 147.928 69.704C147.928 69.5173 147.886 69.3447 147.802 69.186C147.718 69.018 147.55 68.85 147.298 68.682C147.055 68.514 146.691 68.318 146.206 68.094C145.609 67.8327 145.133 67.5713 144.778 67.31C144.433 67.0393 144.185 66.75 144.036 66.442C143.887 66.1247 143.812 65.77 143.812 65.378C143.812 64.9487 143.929 64.566 144.162 64.23C144.405 63.894 144.736 63.628 145.156 63.432C145.576 63.236 146.057 63.138 146.598 63.138C147.671 63.138 148.553 63.5113 149.244 64.258L148.32 65.322L148.236 65.42L148.124 65.336C148.115 65.2613 148.096 65.1913 148.068 65.126C148.049 65.0513 147.989 64.958 147.886 64.846C147.709 64.678 147.517 64.566 147.312 64.51C147.116 64.454 146.883 64.426 146.612 64.426C146.229 64.426 145.926 64.5147 145.702 64.692C145.478 64.8693 145.366 65.0747 145.366 65.308C145.366 65.4947 145.408 65.6627 145.492 65.812C145.576 65.9613 145.744 66.12 145.996 66.288C146.257 66.456 146.654 66.6567 147.186 66.89C147.774 67.1607 148.236 67.4267 148.572 67.688C148.908 67.94 149.141 68.22 149.272 68.528C149.412 68.836 149.482 69.1953 149.482 69.606C149.482 70.026 149.375 70.432 149.16 70.824C148.945 71.216 148.609 71.538 148.152 71.79C147.695 72.0327 147.107 72.154 146.388 72.154ZM152.674 72V64.608H150.322V63.278H156.664V64.608H154.186V72H152.674ZM18.736 108C19.1467 106.721 19.5713 105.48 20.01 104.276C20.458 103.072 20.9293 101.859 21.424 100.636H17.91V99.278H23.202V100.146C22.67 101.425 22.166 102.708 21.69 103.996C21.214 105.284 20.7753 106.619 20.374 108H18.736ZM24.798 106.824C25.47 106.171 26.0533 105.606 26.548 105.13C27.0427 104.645 27.4533 104.215 27.78 103.842C28.1067 103.459 28.3493 103.1 28.508 102.764C28.6667 102.419 28.746 102.055 28.746 101.672C28.746 100.869 28.3353 100.468 27.514 100.468C27.2153 100.468 26.9447 100.519 26.702 100.622C26.4593 100.725 26.24 100.893 26.044 101.126C25.96 101.257 25.904 101.355 25.876 101.42C25.8573 101.485 25.8527 101.555 25.862 101.63L25.778 101.728L25.68 101.658L24.588 100.818C24.9053 100.286 25.3207 99.8753 25.834 99.586C26.3567 99.2967 26.9213 99.152 27.528 99.152C28.032 99.152 28.4893 99.2593 28.9 99.474C29.3107 99.6793 29.6373 99.9687 29.88 100.342C30.1227 100.715 30.244 101.159 30.244 101.672C30.244 102.269 30.104 102.825 29.824 103.338C29.544 103.842 29.1473 104.36 28.634 104.892C28.13 105.424 27.542 106.031 26.87 106.712H29.628C29.7773 106.712 29.8847 106.703 29.95 106.684C30.0247 106.665 30.09 106.628 30.146 106.572H30.272V108H24.798V106.824ZM38.77 98.606H40.478V98.732C40.4313 98.788 40.3987 98.8533 40.38 98.928C40.3707 98.9933 40.366 99.1007 40.366 99.25V102.344C40.5993 102.008 40.8887 101.756 41.234 101.588C41.5793 101.42 41.9247 101.336 42.27 101.336C42.8953 101.336 43.3993 101.551 43.782 101.98C44.1647 102.4 44.356 103.095 44.356 104.066V108H42.76V104.094C42.76 103.525 42.676 103.128 42.508 102.904C42.3493 102.671 42.13 102.554 41.85 102.554C41.4487 102.554 41.0987 102.708 40.8 103.016C40.5107 103.315 40.366 103.73 40.366 104.262V108H38.77V98.606ZM48.486 108.14C47.9073 108.14 47.38 108 46.904 107.72C46.4373 107.431 46.0687 107.034 45.798 106.53C45.5273 106.017 45.392 105.419 45.392 104.738C45.392 104.094 45.5273 103.515 45.798 103.002C46.0687 102.489 46.4373 102.083 46.904 101.784C47.38 101.485 47.9073 101.336 48.486 101.336C49.074 101.336 49.6013 101.485 50.068 101.784C50.544 102.083 50.9173 102.489 51.188 103.002C51.468 103.515 51.608 104.094 51.608 104.738C51.608 105.41 51.468 106.003 51.188 106.516C50.9173 107.029 50.544 107.431 50.068 107.72C49.6013 108 49.074 108.14 48.486 108.14ZM48.486 106.88C48.934 106.88 49.3027 106.684 49.592 106.292C49.8813 105.891 50.026 105.373 50.026 104.738C50.026 104.085 49.8813 103.567 49.592 103.184C49.3027 102.801 48.934 102.61 48.486 102.61C48.0567 102.61 47.6973 102.801 47.408 103.184C47.1187 103.567 46.974 104.085 46.974 104.738C46.974 105.373 47.114 105.891 47.394 106.292C47.6833 106.684 48.0473 106.88 48.486 106.88ZM54.968 108.168C54.3053 108.168 53.7593 107.944 53.33 107.496C52.9007 107.048 52.686 106.32 52.686 105.312V101.49H54.282V105.312C54.282 105.891 54.3753 106.301 54.562 106.544C54.758 106.777 55.0007 106.894 55.29 106.894C55.682 106.894 55.9993 106.754 56.242 106.474C56.494 106.194 56.62 105.769 56.62 105.2V101.49H58.202V106.964C58.202 107.169 58.2067 107.356 58.216 107.524C58.2347 107.683 58.2767 107.841 58.342 108H56.9C56.8253 107.86 56.7833 107.72 56.774 107.58C56.7647 107.44 56.76 107.3 56.76 107.16C56.564 107.496 56.3027 107.748 55.976 107.916C55.6587 108.084 55.3227 108.168 54.968 108.168ZM60.246 101.49H61.884L61.87 102.54C62.0473 102.167 62.3087 101.873 62.654 101.658C62.9993 101.443 63.3633 101.336 63.746 101.336C64.474 101.336 65.076 101.583 65.552 102.078L64.88 103.408L64.838 103.52L64.712 103.464C64.684 103.389 64.656 103.315 64.628 103.24C64.6 103.156 64.53 103.063 64.418 102.96C64.2873 102.857 64.1473 102.778 63.998 102.722C63.858 102.666 63.704 102.638 63.536 102.638C63.088 102.638 62.696 102.792 62.36 103.1C62.024 103.408 61.856 103.903 61.856 104.584V108H60.246V101.49ZM69.626 108.154C69.0287 108.154 68.478 108.075 67.974 107.916C67.47 107.757 67.022 107.491 66.63 107.118L67.33 105.83L67.386 105.718L67.498 105.788C67.526 105.853 67.554 105.928 67.582 106.012C67.61 106.087 67.68 106.175 67.792 106.278C68.0253 106.474 68.2867 106.628 68.576 106.74C68.8747 106.852 69.234 106.908 69.654 106.908C70.046 106.908 70.3493 106.843 70.564 106.712C70.7787 106.581 70.886 106.409 70.886 106.194C70.886 105.979 70.7647 105.807 70.522 105.676C70.2887 105.545 69.9013 105.401 69.36 105.242C68.6507 105.055 68.086 104.803 67.666 104.486C67.246 104.169 67.036 103.744 67.036 103.212C67.036 102.68 67.2647 102.237 67.722 101.882C68.1887 101.518 68.814 101.336 69.598 101.336C70.6713 101.336 71.544 101.667 72.216 102.33L71.446 103.408L71.348 103.52L71.25 103.436C71.2407 103.361 71.2173 103.291 71.18 103.226C71.152 103.161 71.082 103.072 70.97 102.96C70.7833 102.829 70.5687 102.731 70.326 102.666C70.0927 102.591 69.8593 102.554 69.626 102.554C69.3087 102.554 69.0333 102.605 68.8 102.708C68.576 102.811 68.464 102.969 68.464 103.184C68.464 103.371 68.5853 103.529 68.828 103.66C69.0707 103.791 69.486 103.931 70.074 104.08C70.858 104.276 71.4273 104.537 71.782 104.864C72.1367 105.181 72.314 105.592 72.314 106.096C72.314 106.469 72.2113 106.815 72.006 107.132C71.8007 107.44 71.4973 107.687 71.096 107.874C70.704 108.061 70.214 108.154 69.626 108.154ZM19.786 146.114V134.872H21.228V146.114H19.786ZM26.786 146.114V134.872H28.228V146.114H26.786ZM33.786 146.114V134.872H35.228V146.114H33.786ZM40.786 146.114V134.872H42.228V146.114H40.786ZM47.786 146.114V134.872H49.228V146.114H47.786ZM54.786 146.114V134.872H56.228V146.114H54.786ZM61.786 146.114V134.872H63.228V146.114H61.786ZM68.786 146.114V134.872H70.228V146.114H68.786ZM75.786 146.114V134.872H77.228V146.114H75.786ZM82.786 146.114V134.872H84.228V146.114H82.786ZM87.434 145.414V144.154H93.566V145.414H87.434ZM94.434 145.414V144.154H100.566V145.414H94.434ZM101.434 145.414V144.154H107.566V145.414H101.434ZM108.434 145.414V144.154H114.566V145.414H108.434ZM115.434 145.414V144.154H121.566V145.414H115.434ZM122.434 145.414V144.154H128.566V145.414H122.434ZM129.434 145.414V144.154H135.566V145.414H129.434ZM136.434 145.414V144.154H142.566V145.414H136.434ZM143.434 145.414V144.154H149.566V145.414H143.434ZM150.434 145.414V144.154H156.566V145.414H150.434ZM157.434 145.414V144.154H163.566V145.414H157.434ZM164.434 145.414V144.154H170.566V145.414H164.434ZM171.434 145.414V144.154H177.566V145.414H171.434ZM178.434 145.414V144.154H184.566V145.414H178.434ZM185.434 145.414V144.154H191.566V145.414H185.434ZM192.434 145.414V144.154H198.566V145.414H192.434ZM199.434 145.414V144.154H205.566V145.414H199.434ZM206.434 145.414V144.154H212.566V145.414H206.434ZM213.434 145.414V144.154H219.566V145.414H213.434ZM220.434 145.414V144.154H226.566V145.414H220.434ZM227.434 145.414V144.154H233.566V145.414H227.434ZM234.434 145.414V144.154H240.566V145.414H234.434ZM241.434 145.414V144.154H247.566V145.414H241.434ZM248.434 145.414V144.154H254.566V145.414H248.434ZM255.434 145.414V144.154H261.566V145.414H255.434ZM262.434 145.414V144.154H268.566V145.414H262.434ZM269.434 145.414V144.154H275.566V145.414H269.434ZM276.434 145.414V144.154H282.566V145.414H276.434ZM283.434 145.414V144.154H289.566V145.414H283.434ZM295.544 145.512C294.648 145.129 293.897 144.625 293.29 144C292.683 143.384 292.221 142.693 291.904 141.928C291.596 141.163 291.442 140.36 291.442 139.52C291.442 138.689 291.596 137.901 291.904 137.154C292.212 136.398 292.665 135.721 293.262 135.124C293.859 134.527 294.592 134.037 295.46 133.654L295.852 134.97C294.937 135.446 294.228 136.067 293.724 136.832C293.22 137.597 292.968 138.507 292.968 139.562C292.968 140.589 293.229 141.513 293.752 142.334C294.284 143.146 295.021 143.785 295.964 144.252L295.544 145.512ZM297.798 142.824C298.47 142.171 299.053 141.606 299.548 141.13C300.043 140.645 300.453 140.215 300.78 139.842C301.107 139.459 301.349 139.1 301.508 138.764C301.667 138.419 301.746 138.055 301.746 137.672C301.746 136.869 301.335 136.468 300.514 136.468C300.215 136.468 299.945 136.519 299.702 136.622C299.459 136.725 299.24 136.893 299.044 137.126C298.96 137.257 298.904 137.355 298.876 137.42C298.857 137.485 298.853 137.555 298.862 137.63L298.778 137.728L298.68 137.658L297.588 136.818C297.905 136.286 298.321 135.875 298.834 135.586C299.357 135.297 299.921 135.152 300.528 135.152C301.032 135.152 301.489 135.259 301.9 135.474C302.311 135.679 302.637 135.969 302.88 136.342C303.123 136.715 303.244 137.159 303.244 137.672C303.244 138.269 303.104 138.825 302.824 139.338C302.544 139.842 302.147 140.36 301.634 140.892C301.13 141.424 300.542 142.031 299.87 142.712H302.628C302.777 142.712 302.885 142.703 302.95 142.684C303.025 142.665 303.09 142.628 303.146 142.572H303.272V144H297.798V142.824ZM307.528 144.168C306.921 144.168 306.371 144.051 305.876 143.818C305.391 143.585 305.017 143.239 304.756 142.782L305.862 141.872L305.974 141.788L306.044 141.886C306.044 141.961 306.058 142.031 306.086 142.096C306.114 142.161 306.175 142.255 306.268 142.376C306.595 142.712 307.01 142.88 307.514 142.88C307.934 142.88 308.279 142.726 308.55 142.418C308.821 142.101 308.956 141.704 308.956 141.228C308.956 140.715 308.825 140.299 308.564 139.982C308.303 139.655 307.939 139.492 307.472 139.492C306.884 139.492 306.413 139.721 306.058 140.178L305.092 139.926L305.414 135.278H310.076V136.552H306.73L306.604 138.526C306.772 138.433 306.968 138.358 307.192 138.302C307.425 138.246 307.64 138.218 307.836 138.218C308.611 138.218 309.241 138.47 309.726 138.974C310.211 139.469 310.454 140.183 310.454 141.116C310.454 141.751 310.328 142.297 310.076 142.754C309.824 143.202 309.474 143.552 309.026 143.804C308.587 144.047 308.088 144.168 307.528 144.168ZM312.932 138.876C312.633 138.876 312.358 138.797 312.106 138.638C311.854 138.47 311.649 138.246 311.49 137.966C311.341 137.677 311.266 137.355 311.266 137C311.266 136.645 311.341 136.328 311.49 136.048C311.649 135.768 311.854 135.544 312.106 135.376C312.358 135.208 312.633 135.124 312.932 135.124C313.24 135.124 313.52 135.208 313.772 135.376C314.024 135.544 314.225 135.773 314.374 136.062C314.523 136.342 314.598 136.659 314.598 137.014C314.598 137.555 314.439 138.003 314.122 138.358C313.805 138.703 313.408 138.876 312.932 138.876ZM311.49 144L316.39 135.278H317.566L312.624 144H311.49ZM312.932 137.896C313.109 137.896 313.249 137.821 313.352 137.672C313.464 137.513 313.52 137.289 313.52 137C313.52 136.72 313.464 136.501 313.352 136.342C313.24 136.174 313.095 136.09 312.918 136.09C312.75 136.09 312.61 136.174 312.498 136.342C312.395 136.501 312.344 136.72 312.344 137C312.344 137.289 312.395 137.513 312.498 137.672C312.61 137.821 312.755 137.896 312.932 137.896ZM316.138 144.14C315.839 144.14 315.564 144.061 315.312 143.902C315.06 143.734 314.855 143.51 314.696 143.23C314.547 142.941 314.472 142.619 314.472 142.264C314.472 141.919 314.547 141.606 314.696 141.326C314.855 141.037 315.06 140.813 315.312 140.654C315.564 140.486 315.839 140.402 316.138 140.402C316.446 140.402 316.726 140.486 316.978 140.654C317.23 140.822 317.431 141.051 317.58 141.34C317.729 141.62 317.804 141.933 317.804 142.278C317.804 142.819 317.641 143.267 317.314 143.622C316.997 143.967 316.605 144.14 316.138 144.14ZM316.152 143.174C316.329 143.174 316.469 143.095 316.572 142.936C316.684 142.777 316.74 142.558 316.74 142.278C316.74 142.026 316.689 141.811 316.586 141.634C316.483 141.457 316.334 141.368 316.138 141.368C315.961 141.368 315.816 141.447 315.704 141.606C315.592 141.765 315.536 141.984 315.536 142.264C315.536 142.553 315.592 142.777 315.704 142.936C315.816 143.095 315.965 143.174 316.152 143.174ZM319.848 145.512L319.428 144.252C320.371 143.785 321.103 143.146 321.626 142.334C322.158 141.513 322.424 140.589 322.424 139.562C322.424 138.507 322.172 137.597 321.668 136.832C321.164 136.067 320.455 135.446 319.54 134.97L319.932 133.654C320.8 134.037 321.533 134.527 322.13 135.124C322.727 135.721 323.18 136.398 323.488 137.154C323.796 137.901 323.95 138.689 323.95 139.52C323.95 140.36 323.791 141.163 323.474 141.928C323.166 142.693 322.709 143.384 322.102 144C321.495 144.625 320.744 145.129 319.848 145.512Z" fill="white"/>
<path d="M102.666 119.602H103.716L103.688 120.778C103.865 120.349 104.141 120.022 104.514 119.798C104.887 119.565 105.289 119.448 105.718 119.448C106.399 119.448 106.964 119.681 107.412 120.148L106.964 120.932L106.908 121.058L106.81 121.002C106.791 120.927 106.763 120.857 106.726 120.792C106.689 120.727 106.609 120.647 106.488 120.554C106.339 120.461 106.199 120.4 106.068 120.372C105.947 120.335 105.807 120.316 105.648 120.316C105.34 120.316 105.032 120.395 104.724 120.554C104.425 120.713 104.178 120.96 103.982 121.296C103.786 121.632 103.688 122.071 103.688 122.612V126.014H102.666V119.602ZM111.808 126.14C110.875 126.14 110.119 125.855 109.54 125.286C108.971 124.717 108.686 123.895 108.686 122.822C108.686 122.094 108.817 121.483 109.078 120.988C109.349 120.484 109.703 120.101 110.142 119.84C110.59 119.579 111.085 119.448 111.626 119.448C112.111 119.448 112.55 119.555 112.942 119.77C113.334 119.985 113.647 120.316 113.88 120.764C114.113 121.212 114.23 121.786 114.23 122.486C114.23 122.561 114.225 122.64 114.216 122.724C114.216 122.799 114.211 122.873 114.202 122.948H109.652C109.689 123.769 109.918 124.371 110.338 124.754C110.767 125.137 111.267 125.328 111.836 125.328C112.508 125.328 113.059 125.09 113.488 124.614L114.048 125.16C113.507 125.813 112.76 126.14 111.808 126.14ZM109.694 122.164H113.208C113.208 121.567 113.054 121.095 112.746 120.75C112.447 120.395 112.051 120.218 111.556 120.218C111.117 120.218 110.721 120.377 110.366 120.694C110.011 121.002 109.787 121.492 109.694 122.164ZM118.164 123.83C117.8 123.83 117.469 123.765 117.17 123.634C117.002 123.839 116.918 124.035 116.918 124.222C116.918 124.446 117.058 124.609 117.338 124.712C117.618 124.805 118.131 124.852 118.878 124.852C119.531 124.852 120.026 124.922 120.362 125.062C120.698 125.202 120.927 125.393 121.048 125.636C121.169 125.879 121.23 126.159 121.23 126.476C121.23 126.803 121.141 127.115 120.964 127.414C120.787 127.713 120.493 127.951 120.082 128.128C119.681 128.315 119.139 128.408 118.458 128.408C117.562 128.408 116.848 128.268 116.316 127.988C115.793 127.717 115.532 127.307 115.532 126.756C115.532 126.411 115.63 126.117 115.826 125.874C116.022 125.622 116.255 125.435 116.526 125.314C116.218 125.109 116.064 124.824 116.064 124.46C116.064 124.255 116.115 124.054 116.218 123.858C116.321 123.662 116.461 123.471 116.638 123.284C116.162 122.864 115.924 122.299 115.924 121.59C115.924 121.179 116.013 120.806 116.19 120.47C116.377 120.134 116.638 119.868 116.974 119.672C117.31 119.467 117.707 119.364 118.164 119.364C118.509 119.364 118.817 119.425 119.088 119.546C119.368 119.658 119.606 119.817 119.802 120.022C120.045 119.798 120.301 119.639 120.572 119.546C120.843 119.443 121.16 119.406 121.524 119.434L121.65 120.26C121.37 120.232 121.104 120.237 120.852 120.274C120.609 120.311 120.381 120.4 120.166 120.54C120.325 120.857 120.404 121.207 120.404 121.59C120.404 122.001 120.311 122.379 120.124 122.724C119.947 123.06 119.69 123.331 119.354 123.536C119.027 123.732 118.631 123.83 118.164 123.83ZM118.164 122.99C118.575 122.99 118.911 122.855 119.172 122.584C119.433 122.304 119.564 121.973 119.564 121.59C119.564 121.207 119.433 120.881 119.172 120.61C118.911 120.33 118.575 120.19 118.164 120.19C117.763 120.19 117.427 120.33 117.156 120.61C116.895 120.881 116.764 121.207 116.764 121.59C116.764 121.973 116.895 122.304 117.156 122.584C117.427 122.855 117.763 122.99 118.164 122.99ZM116.456 126.644C116.456 126.961 116.633 127.209 116.988 127.386C117.352 127.563 117.847 127.652 118.472 127.652C119.107 127.652 119.569 127.554 119.858 127.358C120.157 127.171 120.306 126.929 120.306 126.63C120.306 126.425 120.269 126.257 120.194 126.126C120.119 125.995 119.965 125.897 119.732 125.832C119.499 125.767 119.144 125.734 118.668 125.734C118.341 125.734 118.043 125.72 117.772 125.692C117.511 125.664 117.273 125.617 117.058 125.552C116.843 125.701 116.689 125.851 116.596 126C116.503 126.159 116.456 126.373 116.456 126.644ZM123.4 126V125.188H125.038V120.414H123.484V119.602H126.046V125.188H127.544V126H123.4ZM125.486 118.258C125.29 118.258 125.122 118.188 124.982 118.048C124.842 117.908 124.772 117.74 124.772 117.544C124.772 117.339 124.837 117.166 124.968 117.026C125.108 116.886 125.281 116.816 125.486 116.816C125.682 116.816 125.85 116.891 125.99 117.04C126.139 117.18 126.214 117.348 126.214 117.544C126.214 117.74 126.139 117.908 125.99 118.048C125.85 118.188 125.682 118.258 125.486 118.258ZM132.514 126.14C131.431 126.14 130.526 125.804 129.798 125.132L130.358 124.18L130.442 124.054L130.526 124.11C130.545 124.185 130.563 124.264 130.582 124.348C130.61 124.423 130.675 124.516 130.778 124.628C130.974 124.824 131.207 124.987 131.478 125.118C131.758 125.239 132.113 125.3 132.542 125.3C133.055 125.3 133.452 125.211 133.732 125.034C134.021 124.847 134.166 124.595 134.166 124.278C134.166 124.007 134.045 123.783 133.802 123.606C133.569 123.429 133.153 123.242 132.556 123.046C131.819 122.831 131.231 122.565 130.792 122.248C130.363 121.931 130.148 121.534 130.148 121.058C130.148 120.573 130.344 120.185 130.736 119.896C131.137 119.597 131.725 119.448 132.5 119.448C133.097 119.448 133.592 119.532 133.984 119.7C134.376 119.868 134.731 120.12 135.048 120.456L134.474 121.156L134.376 121.268L134.306 121.198C134.297 121.123 134.273 121.053 134.236 120.988C134.208 120.913 134.143 120.825 134.04 120.722C133.825 120.554 133.583 120.428 133.312 120.344C133.041 120.251 132.78 120.204 132.528 120.204C132.155 120.204 131.833 120.269 131.562 120.4C131.291 120.531 131.156 120.731 131.156 121.002C131.156 121.142 131.203 121.282 131.296 121.422C131.399 121.553 131.581 121.688 131.842 121.828C132.103 121.959 132.477 122.094 132.962 122.234C133.765 122.477 134.329 122.743 134.656 123.032C134.992 123.312 135.16 123.681 135.16 124.138C135.16 124.493 135.062 124.824 134.866 125.132C134.679 125.44 134.39 125.687 133.998 125.874C133.606 126.051 133.111 126.14 132.514 126.14ZM140.186 126.098C139.635 126.098 139.215 125.972 138.926 125.72C138.646 125.468 138.459 125.081 138.366 124.558C138.273 124.026 138.24 123.349 138.268 122.528L138.352 120.428H136.98V119.602H138.38L138.436 117.964L139.486 117.838L139.626 117.824L139.64 117.922C139.593 117.987 139.551 118.053 139.514 118.118C139.486 118.183 139.463 118.295 139.444 118.454L139.346 119.602H141.586V120.428H139.36L139.262 122.598C139.234 123.307 139.253 123.858 139.318 124.25C139.383 124.633 139.5 124.899 139.668 125.048C139.836 125.188 140.06 125.258 140.34 125.258C140.648 125.258 140.919 125.197 141.152 125.076C141.395 124.955 141.647 124.801 141.908 124.614L142.216 125.412C141.899 125.645 141.572 125.818 141.236 125.93C140.9 126.042 140.55 126.098 140.186 126.098ZM144.666 119.602H145.716L145.688 120.778C145.865 120.349 146.141 120.022 146.514 119.798C146.887 119.565 147.289 119.448 147.718 119.448C148.399 119.448 148.964 119.681 149.412 120.148L148.964 120.932L148.908 121.058L148.81 121.002C148.791 120.927 148.763 120.857 148.726 120.792C148.689 120.727 148.609 120.647 148.488 120.554C148.339 120.461 148.199 120.4 148.068 120.372C147.947 120.335 147.807 120.316 147.648 120.316C147.34 120.316 147.032 120.395 146.724 120.554C146.425 120.713 146.178 120.96 145.982 121.296C145.786 121.632 145.688 122.071 145.688 122.612V126.014H144.666V119.602ZM152.954 126.154C152.226 126.154 151.666 125.991 151.274 125.664C150.882 125.328 150.686 124.903 150.686 124.39C150.686 123.933 150.831 123.541 151.12 123.214C151.409 122.878 151.797 122.621 152.282 122.444C152.777 122.257 153.318 122.164 153.906 122.164C154.121 122.164 154.345 122.169 154.578 122.178C154.821 122.187 155.077 122.211 155.348 122.248C155.292 121.501 155.096 120.988 154.76 120.708C154.433 120.428 153.962 120.288 153.346 120.288C153.038 120.288 152.735 120.349 152.436 120.47C152.137 120.582 151.867 120.759 151.624 121.002L151.134 120.358C151.433 120.059 151.778 119.835 152.17 119.686C152.562 119.537 152.977 119.462 153.416 119.462C153.985 119.462 154.48 119.555 154.9 119.742C155.32 119.929 155.647 120.251 155.88 120.708C156.113 121.165 156.23 121.795 156.23 122.598V126H155.138V125.02C154.979 125.328 154.774 125.566 154.522 125.734C154.279 125.893 154.018 126 153.738 126.056C153.467 126.121 153.206 126.154 152.954 126.154ZM151.694 124.334C151.694 124.735 151.825 125.011 152.086 125.16C152.347 125.309 152.669 125.384 153.052 125.384C153.743 125.384 154.289 125.183 154.69 124.782C155.091 124.371 155.311 123.783 155.348 123.018C154.863 122.953 154.41 122.92 153.99 122.92C153.318 122.92 152.767 123.032 152.338 123.256C151.909 123.48 151.694 123.839 151.694 124.334ZM161.186 126.098C160.635 126.098 160.215 125.972 159.926 125.72C159.646 125.468 159.459 125.081 159.366 124.558C159.273 124.026 159.24 123.349 159.268 122.528L159.352 120.428H157.98V119.602H159.38L159.436 117.964L160.486 117.838L160.626 117.824L160.64 117.922C160.593 117.987 160.551 118.053 160.514 118.118C160.486 118.183 160.463 118.295 160.444 118.454L160.346 119.602H162.586V120.428H160.36L160.262 122.598C160.234 123.307 160.253 123.858 160.318 124.25C160.383 124.633 160.5 124.899 160.668 125.048C160.836 125.188 161.06 125.258 161.34 125.258C161.648 125.258 161.919 125.197 162.152 125.076C162.395 124.955 162.647 124.801 162.908 124.614L163.216 125.412C162.899 125.645 162.572 125.818 162.236 125.93C161.9 126.042 161.55 126.098 161.186 126.098ZM165.4 126V125.188H167.038V120.414H165.484V119.602H168.046V125.188H169.544V126H165.4ZM167.486 118.258C167.29 118.258 167.122 118.188 166.982 118.048C166.842 117.908 166.772 117.74 166.772 117.544C166.772 117.339 166.837 117.166 166.968 117.026C167.108 116.886 167.281 116.816 167.486 116.816C167.682 116.816 167.85 116.891 167.99 117.04C168.139 117.18 168.214 117.348 168.214 117.544C168.214 117.74 168.139 117.908 167.99 118.048C167.85 118.188 167.682 118.258 167.486 118.258ZM174.5 126.112C173.921 126.112 173.408 125.972 172.96 125.692C172.521 125.403 172.176 125.011 171.924 124.516C171.672 124.012 171.546 123.438 171.546 122.794C171.546 122.141 171.672 121.567 171.924 121.072C172.176 120.568 172.521 120.176 172.96 119.896C173.408 119.607 173.921 119.462 174.5 119.462C175.079 119.462 175.587 119.607 176.026 119.896C176.474 120.176 176.824 120.568 177.076 121.072C177.328 121.567 177.454 122.141 177.454 122.794C177.454 123.438 177.328 124.012 177.076 124.516C176.824 125.011 176.474 125.403 176.026 125.692C175.587 125.972 175.079 126.112 174.5 126.112ZM174.5 125.272C174.873 125.272 175.2 125.165 175.48 124.95C175.76 124.735 175.979 124.441 176.138 124.068C176.306 123.695 176.39 123.265 176.39 122.78C176.39 122.052 176.213 121.459 175.858 121.002C175.503 120.535 175.051 120.302 174.5 120.302C173.949 120.302 173.497 120.535 173.142 121.002C172.787 121.459 172.61 122.052 172.61 122.78C172.61 123.265 172.689 123.695 172.848 124.068C173.016 124.441 173.24 124.735 173.52 124.95C173.809 125.165 174.136 125.272 174.5 125.272ZM179.008 126V119.602H179.988V120.736C180.231 120.344 180.543 120.031 180.926 119.798C181.318 119.565 181.729 119.448 182.158 119.448C182.681 119.448 183.124 119.653 183.488 120.064C183.852 120.465 184.034 121.151 184.034 122.122V126H183.054V122.15C183.054 121.478 182.937 121.007 182.704 120.736C182.48 120.465 182.205 120.33 181.878 120.33C181.598 120.33 181.309 120.414 181.01 120.582C180.721 120.741 180.478 120.969 180.282 121.268C180.086 121.557 179.988 121.907 179.988 122.318V126H179.008Z" fill="#F0FF93"/>
<circle cx="21" cy="12" r="4" fill="#EF6767"/>
<circle cx="33" cy="12" r="4" fill="#F7E54B"/>
<circle cx="45" cy="12" r="4" fill="#7BEC54"/>
</svg>
