<svg width="95" height="31" viewBox="0 0 95 31" fill="none" xmlns="http://www.w3.org/2000/svg">
<path d="M5.76515 11.6343C7.39011 11.6343 8.68301 12.0393 9.64388 12.8495C10.6189 13.6451 11.2335 14.7012 11.4879 16.0177H7.10045C6.91677 15.3233 6.43632 14.9761 5.65918 14.9761C5.22115 14.9761 5.00212 15.1497 5.00212 15.4969C5.00212 15.7428 5.15757 15.9309 5.46842 16.0611C5.79343 16.1913 6.30211 16.3287 6.99447 16.4734C7.89879 16.647 8.6689 16.8567 9.30475 17.1027C9.95473 17.3341 10.5129 17.7175 10.9792 18.2528C11.4455 18.788 11.6786 19.5186 11.6786 20.4445C11.6786 21.1678 11.4808 21.8116 11.0852 22.3758C10.6895 22.94 10.1102 23.3812 9.34714 23.6995C8.58412 24.0177 7.68684 24.1769 6.65535 24.1769C4.93146 24.1769 3.56085 23.8007 2.54348 23.0485C1.52611 22.2962 0.897318 21.2112 0.657104 19.7935H5.17169C5.25647 20.5023 5.74396 20.8568 6.63416 20.8568C7.11457 20.8568 7.35479 20.6832 7.35479 20.336C7.35479 20.0611 7.19231 19.8586 6.8673 19.7284C6.5423 19.5982 6.01949 19.468 5.29886 19.3378C4.38039 19.1497 3.61737 18.9472 3.00977 18.7302C2.41631 18.5132 1.89349 18.1443 1.44133 17.6235C0.989162 17.1027 0.763081 16.3866 0.763081 15.4752C0.763081 14.7374 0.953838 14.0791 1.33535 13.5005C1.71687 12.9218 2.28207 12.4661 3.03097 12.1334C3.77987 11.8006 4.69127 11.6343 5.76515 11.6343ZM16.7888 11.6343C17.566 11.6343 18.2301 11.8006 18.7812 12.1334C19.3464 12.4516 19.7773 12.8929 20.0741 13.4571V7.96698H24.7794V24.025H20.0741V22.3541C19.7773 22.9183 19.3464 23.3667 18.7812 23.6995C18.2301 24.0177 17.566 24.1769 16.7888 24.1769C15.8562 24.1769 15.0155 23.9309 14.2666 23.4391C13.5177 22.9327 12.9242 22.2094 12.4862 21.2691C12.0623 20.3143 11.8503 19.1931 11.8503 17.9056C11.8503 16.618 12.0623 15.5041 12.4862 14.5638C12.9242 13.609 13.5177 12.8856 14.2666 12.3938C15.0155 11.8874 15.8562 11.6343 16.7888 11.6343ZM18.3573 15.8441C17.8486 15.8441 17.4318 16.0249 17.1068 16.3866C16.7817 16.7482 16.6193 17.2546 16.6193 17.9056C16.6193 18.5566 16.7817 19.0629 17.1068 19.4246C17.4318 19.7862 17.8486 19.9671 18.3573 19.9671C18.866 19.9671 19.2828 19.7862 19.6078 19.4246C19.9328 19.0629 20.0953 18.5566 20.0953 17.9056C20.0953 17.2546 19.9328 16.7482 19.6078 16.3866C19.2828 16.0249 18.866 15.8441 18.3573 15.8441ZM30.7498 11.6343C32.3748 11.6343 33.6677 12.0393 34.6286 12.8495C35.6036 13.6451 36.2182 14.7012 36.4726 16.0177H32.0851C31.9015 15.3233 31.421 14.9761 30.6439 14.9761C30.2059 14.9761 29.9868 15.1497 29.9868 15.4969C29.9868 15.7428 30.1423 15.9309 30.4531 16.0611C30.7781 16.1913 31.2868 16.3287 31.9792 16.4734C32.8835 16.647 33.6536 16.8567 34.2894 17.1027C34.9394 17.3341 35.4976 17.7175 35.9639 18.2528C36.4302 18.788 36.6633 19.5186 36.6633 20.4445C36.6633 21.1678 36.4655 21.8116 36.0698 22.3758C35.6742 22.94 35.0949 23.3812 34.3318 23.6995C33.5688 24.0177 32.6715 24.1769 31.64 24.1769C29.9162 24.1769 28.5455 23.8007 27.5282 23.0485C26.5108 22.2962 25.882 21.2112 25.6418 19.7935H30.1564C30.2412 20.5023 30.7287 20.8568 31.6189 20.8568C32.0993 20.8568 32.3395 20.6832 32.3395 20.336C32.3395 20.0611 32.177 19.8586 31.852 19.7284C31.527 19.5982 31.0042 19.468 30.2836 19.3378C29.3651 19.1497 28.6021 18.9472 27.9945 18.7302C27.401 18.5132 26.8782 18.1443 26.426 17.6235C25.9738 17.1027 25.7478 16.3866 25.7478 15.4752C25.7478 14.7374 25.9385 14.0791 26.32 13.5005C26.7016 12.9218 27.2668 12.4661 28.0157 12.1334C28.7646 11.8006 29.676 11.6343 30.7498 11.6343ZM42.1763 7.96698V24.025H37.4709V7.96698H42.1763ZM47.7563 11.6343C48.5333 11.6343 49.2044 11.8006 49.7698 12.1334C50.3349 12.4516 50.766 12.8929 51.0627 13.4571V11.7862H55.7469V24.025H51.0627V22.3541C50.766 22.9183 50.3349 23.3667 49.7698 23.6995C49.2044 24.0177 48.5333 24.1769 47.7563 24.1769C46.8237 24.1769 45.9827 23.9309 45.2341 23.4391C44.485 22.9327 43.8916 22.2094 43.4537 21.2691C43.0298 20.3143 42.8178 19.1931 42.8178 17.9056C42.8178 16.618 43.0298 15.5041 43.4537 14.5638C43.8916 13.609 44.485 12.8856 45.2341 12.3938C45.9827 11.8874 46.8237 11.6343 47.7563 11.6343ZM49.3247 15.8441C48.816 15.8441 48.399 16.0249 48.0742 16.3866C47.7491 16.7482 47.5867 17.2546 47.5867 17.9056C47.5867 18.5566 47.7491 19.0629 48.0742 19.4246C48.399 19.7862 48.816 19.9671 49.3247 19.9671C49.8334 19.9671 50.2501 19.7862 50.5753 19.4246C50.9 19.0629 51.0627 18.5566 51.0627 17.9056C51.0627 17.2546 50.9 16.7482 50.5753 16.3866C50.2501 16.0249 49.8334 15.8441 49.3247 15.8441ZM65.0024 11.6343C65.935 11.6343 66.776 11.8874 67.5246 12.3938C68.2736 12.8856 68.8599 13.609 69.2838 14.5638C69.7221 15.5041 69.9409 16.618 69.9409 17.9056C69.9409 19.1931 69.7221 20.3143 69.2838 21.2691C68.8599 22.2094 68.2736 22.9327 67.5246 23.4391C66.776 23.9309 65.935 24.1769 65.0024 24.1769C64.2253 24.1769 63.5543 24.0177 62.9888 23.6995C62.4378 23.3667 62.0139 22.9183 61.7171 22.3541V24.025H57.0118V7.96698H61.7171V13.4571C62.0139 12.8929 62.4378 12.4516 62.9888 12.1334C63.5543 11.8006 64.2253 11.6343 65.0024 11.6343ZM63.4339 15.8441C62.9253 15.8441 62.5085 16.0249 62.1834 16.3866C61.8587 16.7482 61.6959 17.2546 61.6959 17.9056C61.6959 18.5566 61.8587 19.0629 62.1834 19.4246C62.5085 19.7862 62.9253 19.9671 63.4339 19.9671C63.9426 19.9671 64.3597 19.7862 64.6845 19.4246C65.0096 19.0629 65.1719 18.5566 65.1719 17.9056C65.1719 17.2546 65.0096 16.7482 64.6845 16.3866C64.3597 16.0249 63.9426 15.8441 63.4339 15.8441ZM75.2756 11.6343C76.9005 11.6343 78.1934 12.0393 79.1544 12.8495C80.1293 13.6451 80.744 14.7012 80.9983 16.0177H76.6109C76.427 15.3233 75.9467 14.9761 75.1697 14.9761C74.7314 14.9761 74.5126 15.1497 74.5126 15.4969C74.5126 15.7428 74.6678 15.9309 74.9789 16.0611C75.3036 16.1913 75.8123 16.3287 76.505 16.4734C77.4092 16.647 78.1794 16.8567 78.8152 17.1027C79.4651 17.3341 80.0234 17.7175 80.4897 18.2528C80.9559 18.788 81.1891 19.5186 81.1891 20.4445C81.1891 21.1678 80.9911 21.8116 80.5956 22.3758C80.1997 22.94 79.6207 23.3812 78.8576 23.6995C78.0946 24.0177 77.1972 24.1769 76.1658 24.1769C74.4418 24.1769 73.0713 23.8007 72.054 23.0485C71.0366 22.2962 70.4075 21.2112 70.1676 19.7935H74.6822C74.7669 20.5023 75.2544 20.8568 76.1446 20.8568C76.6249 20.8568 76.8653 20.6832 76.8653 20.336C76.8653 20.0611 76.7025 19.8586 76.3778 19.7284C76.0527 19.5982 75.53 19.468 74.8093 19.3378C73.8908 19.1497 73.1277 18.9472 72.5203 18.7302C71.9268 18.5132 71.4037 18.1443 70.9518 17.6235C70.4995 17.1027 70.2736 16.3866 70.2736 15.4752C70.2736 14.7374 70.4643 14.0791 70.8458 13.5005C71.2273 12.9218 71.7924 12.4661 72.5415 12.1334C73.2901 11.8006 74.2015 11.6343 75.2756 11.6343Z" fill="#191919"/>
<path fill-rule="evenodd" clip-rule="evenodd" d="M95 5.8125V25.9625H87.0518V5.8125H95Z" fill="#FF5851"/>
</svg>
