<svg width="95" height="31" viewBox="0 0 95 31" fill="none" xmlns="http://www.w3.org/2000/svg">
<path d="M5.76527 11.6343C7.39023 11.6343 8.68314 12.0393 9.644 12.8495C10.619 13.6451 11.2336 14.7012 11.488 16.0177H7.10057C6.91689 15.3233 6.43644 14.9761 5.6593 14.9761C5.22128 14.9761 5.00225 15.1497 5.00225 15.4969C5.00225 15.7428 5.15769 15.9309 5.46854 16.0611C5.79355 16.1913 6.30223 16.3287 6.9946 16.4734C7.89891 16.647 8.66902 16.8567 9.30488 17.1027C9.95485 17.3341 10.513 17.7175 10.9793 18.2528C11.4456 18.788 11.6787 19.5186 11.6787 20.4445C11.6787 21.1678 11.4809 21.8116 11.0853 22.3758C10.6896 22.94 10.1103 23.3812 9.34727 23.6995C8.58424 24.0177 7.68696 24.1769 6.65547 24.1769C4.93158 24.1769 3.56097 23.8007 2.5436 23.0485C1.52623 22.2962 0.89744 21.2112 0.657227 19.7935H5.17181C5.25659 20.5023 5.74408 20.8568 6.63428 20.8568C7.11469 20.8568 7.35492 20.6832 7.35492 20.336C7.35492 20.0611 7.19243 19.8586 6.86742 19.7284C6.54242 19.5982 6.01962 19.468 5.29898 19.3378C4.38051 19.1497 3.61749 18.9472 3.0099 18.7302C2.41643 18.5132 1.89362 18.1443 1.44145 17.6235C0.989284 17.1027 0.763203 16.3866 0.763203 15.4752C0.763203 14.7374 0.95396 14.0791 1.33547 13.5005C1.71699 12.9218 2.28219 12.4661 3.03109 12.1334C3.77999 11.8006 4.6914 11.6343 5.76527 11.6343ZM16.7889 11.6343C17.5661 11.6343 18.2302 11.8006 18.7813 12.1334C19.3465 12.4516 19.7775 12.8929 20.0742 13.4571V7.96698H24.7795V24.025H20.0742V22.3541C19.7775 22.9183 19.3465 23.3667 18.7813 23.6995C18.2302 24.0177 17.5661 24.1769 16.7889 24.1769C15.8564 24.1769 15.0156 23.9309 14.2667 23.4391C13.5178 22.9327 12.9243 22.2094 12.4863 21.2691C12.0624 20.3143 11.8505 19.1931 11.8505 17.9056C11.8505 16.618 12.0624 15.5041 12.4863 14.5638C12.9243 13.609 13.5178 12.8856 14.2667 12.3938C15.0156 11.8874 15.8564 11.6343 16.7889 11.6343ZM18.3574 15.8441C17.8487 15.8441 17.4319 16.0249 17.1069 16.3866C16.7819 16.7482 16.6194 17.2546 16.6194 17.9056C16.6194 18.5566 16.7819 19.0629 17.1069 19.4246C17.4319 19.7862 17.8487 19.9671 18.3574 19.9671C18.8661 19.9671 19.2829 19.7862 19.6079 19.4246C19.9329 19.0629 20.0954 18.5566 20.0954 17.9056C20.0954 17.2546 19.9329 16.7482 19.6079 16.3866C19.2829 16.0249 18.8661 15.8441 18.3574 15.8441ZM30.75 11.6343C32.3749 11.6343 33.6678 12.0393 34.6287 12.8495C35.6037 13.6451 36.2183 14.7012 36.4727 16.0177H32.0853C31.9016 15.3233 31.4211 14.9761 30.644 14.9761C30.206 14.9761 29.9869 15.1497 29.9869 15.4969C29.9869 15.7428 30.1424 15.9309 30.4532 16.0611C30.7782 16.1913 31.2869 16.3287 31.9793 16.4734C32.8836 16.647 33.6537 16.8567 34.2896 17.1027C34.9395 17.3341 35.4977 17.7175 35.964 18.2528C36.4303 18.788 36.6634 19.5186 36.6634 20.4445C36.6634 21.1678 36.4656 21.8116 36.07 22.3758C35.6743 22.94 35.095 23.3812 34.332 23.6995C33.5689 24.0177 32.6717 24.1769 31.6402 24.1769C29.9163 24.1769 28.5457 23.8007 27.5283 23.0485C26.5109 22.2962 25.8821 21.2112 25.6419 19.7935H30.1565C30.2413 20.5023 30.7288 20.8568 31.619 20.8568C32.0994 20.8568 32.3396 20.6832 32.3396 20.336C32.3396 20.0611 32.1771 19.8586 31.8521 19.7284C31.5271 19.5982 31.0043 19.468 30.2837 19.3378C29.3652 19.1497 28.6022 18.9472 27.9946 18.7302C27.4011 18.5132 26.8783 18.1443 26.4261 17.6235C25.974 17.1027 25.7479 16.3866 25.7479 15.4752C25.7479 14.7374 25.9387 14.0791 26.3202 13.5005C26.7017 12.9218 27.2669 12.4661 28.0158 12.1334C28.7647 11.8006 29.6761 11.6343 30.75 11.6343ZM42.1764 7.96698V24.025H37.471V7.96698H42.1764ZM47.7564 11.6343C48.5334 11.6343 49.2045 11.8006 49.77 12.1334C50.335 12.4516 50.7661 12.8929 51.0629 13.4571V11.7862H55.747V24.025H51.0629V22.3541C50.7661 22.9183 50.335 23.3667 49.77 23.6995C49.2045 24.0177 48.5334 24.1769 47.7564 24.1769C46.8238 24.1769 45.9828 23.9309 45.2342 23.4391C44.4852 22.9327 43.8917 22.2094 43.4538 21.2691C43.0299 20.3143 42.8179 19.1931 42.8179 17.9056C42.8179 16.618 43.0299 15.5041 43.4538 14.5638C43.8917 13.609 44.4852 12.8856 45.2342 12.3938C45.9828 11.8874 46.8238 11.6343 47.7564 11.6343ZM49.3249 15.8441C48.8162 15.8441 48.3991 16.0249 48.0743 16.3866C47.7492 16.7482 47.5868 17.2546 47.5868 17.9056C47.5868 18.5566 47.7492 19.0629 48.0743 19.4246C48.3991 19.7862 48.8162 19.9671 49.3249 19.9671C49.8335 19.9671 50.2503 19.7862 50.5754 19.4246C50.9001 19.0629 51.0629 18.5566 51.0629 17.9056C51.0629 17.2546 50.9001 16.7482 50.5754 16.3866C50.2503 16.0249 49.8335 15.8441 49.3249 15.8441ZM65.0025 11.6343C65.9351 11.6343 66.7761 11.8874 67.5247 12.3938C68.2738 12.8856 68.86 13.609 69.2839 14.5638C69.7222 15.5041 69.941 16.618 69.941 17.9056C69.941 19.1931 69.7222 20.3143 69.2839 21.2691C68.86 22.2094 68.2738 22.9327 67.5247 23.4391C66.7761 23.9309 65.9351 24.1769 65.0025 24.1769C64.2255 24.1769 63.5544 24.0177 62.989 23.6995C62.4379 23.3667 62.014 22.9183 61.7172 22.3541V24.025H57.0119V7.96698H61.7172V13.4571C62.014 12.8929 62.4379 12.4516 62.989 12.1334C63.5544 11.8006 64.2255 11.6343 65.0025 11.6343ZM63.4341 15.8441C62.9254 15.8441 62.5087 16.0249 62.1835 16.3866C61.8588 16.7482 61.6961 17.2546 61.6961 17.9056C61.6961 18.5566 61.8588 19.0629 62.1835 19.4246C62.5087 19.7862 62.9254 19.9671 63.4341 19.9671C63.9427 19.9671 64.3598 19.7862 64.6846 19.4246C65.0097 19.0629 65.1721 18.5566 65.1721 17.9056C65.1721 17.2546 65.0097 16.7482 64.6846 16.3866C64.3598 16.0249 63.9427 15.8441 63.4341 15.8441ZM75.2757 11.6343C76.9006 11.6343 78.1935 12.0393 79.1545 12.8495C80.1295 13.6451 80.7441 14.7012 80.9985 16.0177H76.6111C76.4271 15.3233 75.9468 14.9761 75.1698 14.9761C74.7315 14.9761 74.5127 15.1497 74.5127 15.4969C74.5127 15.7428 74.6679 15.9309 74.979 16.0611C75.3038 16.1913 75.8124 16.3287 76.5051 16.4734C77.4093 16.647 78.1795 16.8567 78.8154 17.1027C79.4652 17.3341 80.0235 17.7175 80.4898 18.2528C80.9561 18.788 81.1892 19.5186 81.1892 20.4445C81.1892 21.1678 80.9913 21.8116 80.5957 22.3758C80.1999 22.94 79.6208 23.3812 78.8577 23.6995C78.0947 24.0177 77.1973 24.1769 76.166 24.1769C74.4419 24.1769 73.0714 23.8007 72.0541 23.0485C71.0367 22.2962 70.4077 21.2112 70.1677 19.7935H74.6823C74.7671 20.5023 75.2546 20.8568 76.1448 20.8568C76.6251 20.8568 76.8654 20.6832 76.8654 20.336C76.8654 20.0611 76.7026 19.8586 76.3779 19.7284C76.0528 19.5982 75.5301 19.468 74.8095 19.3378C73.8909 19.1497 73.1278 18.9472 72.5204 18.7302C71.9269 18.5132 71.4038 18.1443 70.9519 17.6235C70.4996 17.1027 70.2737 16.3866 70.2737 15.4752C70.2737 14.7374 70.4644 14.0791 70.846 13.5005C71.2275 12.9218 71.7925 12.4661 72.5416 12.1334C73.2902 11.8006 74.2016 11.6343 75.2757 11.6343Z" fill="#191919"/>
<path fill-rule="evenodd" clip-rule="evenodd" d="M95 5.8125V25.9625H87.0518V5.8125H95Z" fill="#FF5851"/>
</svg>
