<svg width="95" height="31" viewBox="0 0 95 31" fill="none" xmlns="http://www.w3.org/2000/svg">
<path d="M5.76527 11.6341C7.39023 11.6341 8.68314 12.0392 9.644 12.8493C10.619 13.645 11.2336 14.701 11.488 16.0175H7.10057C6.91689 15.3231 6.43644 14.9759 5.6593 14.9759C5.22128 14.9759 5.00225 15.1495 5.00225 15.4967C5.00225 15.7426 5.15769 15.9307 5.46854 16.0609C5.79355 16.1911 6.30223 16.3285 6.9946 16.4732C7.89891 16.6468 8.66902 16.8566 9.30488 17.1025C9.95485 17.334 10.513 17.7173 10.9793 18.2526C11.4456 18.7879 11.6787 19.5184 11.6787 20.4443C11.6787 21.1676 11.4809 21.8114 11.0853 22.3756C10.6896 22.9398 10.1103 23.381 9.34727 23.6993C8.58424 24.0175 7.68696 24.1767 6.65547 24.1767C4.93158 24.1767 3.56097 23.8005 2.5436 23.0483C1.52623 22.296 0.89744 21.211 0.657227 19.7933H5.17181C5.25659 20.5022 5.74408 20.8566 6.63428 20.8566C7.11469 20.8566 7.35492 20.683 7.35492 20.3358C7.35492 20.0609 7.19243 19.8584 6.86743 19.7282C6.54242 19.598 6.01962 19.4678 5.29898 19.3376C4.38051 19.1495 3.61749 18.947 3.0099 18.73C2.41643 18.513 1.89362 18.1441 1.44145 17.6233C0.989284 17.1025 0.763203 16.3864 0.763203 15.475C0.763203 14.7372 0.95396 14.079 1.33547 13.5003C1.71699 12.9216 2.28219 12.4659 3.03109 12.1332C3.77999 11.8005 4.6914 11.6341 5.76527 11.6341ZM16.7889 11.6341C17.5661 11.6341 18.2302 11.8005 18.7813 12.1332C19.3465 12.4515 19.7775 12.8927 20.0742 13.4569V7.9668H24.7795V24.0248H20.0742V22.3539C19.7775 22.9181 19.3465 23.3665 18.7813 23.6993C18.2302 24.0175 17.5661 24.1767 16.7889 24.1767C15.8564 24.1767 15.0156 23.9308 14.2667 23.4389C13.5178 22.9326 12.9243 22.2092 12.4863 21.2689C12.0624 20.3141 11.8505 19.1929 11.8505 17.9054C11.8505 16.6179 12.0624 15.5039 12.4863 14.5636C12.9243 13.6088 13.5178 12.8855 14.2667 12.3936C15.0156 11.8873 15.8564 11.6341 16.7889 11.6341ZM18.3574 15.8439C17.8487 15.8439 17.4319 16.0247 17.1069 16.3864C16.7819 16.748 16.6194 17.2544 16.6194 17.9054C16.6194 18.5564 16.7819 19.0627 17.1069 19.4244C17.4319 19.786 17.8487 19.9669 18.3574 19.9669C18.8661 19.9669 19.2829 19.786 19.6079 19.4244C19.9329 19.0627 20.0954 18.5564 20.0954 17.9054C20.0954 17.2544 19.9329 16.748 19.6079 16.3864C19.2829 16.0247 18.8661 15.8439 18.3574 15.8439ZM30.75 11.6341C32.3749 11.6341 33.6678 12.0392 34.6287 12.8493C35.6037 13.645 36.2183 14.701 36.4727 16.0175H32.0853C31.9016 15.3231 31.4211 14.9759 30.644 14.9759C30.206 14.9759 29.9869 15.1495 29.9869 15.4967C29.9869 15.7426 30.1424 15.9307 30.4532 16.0609C30.7782 16.1911 31.2869 16.3285 31.9793 16.4732C32.8836 16.6468 33.6537 16.8566 34.2896 17.1025C34.9395 17.334 35.4977 17.7173 35.964 18.2526C36.4303 18.7879 36.6634 19.5184 36.6634 20.4443C36.6634 21.1676 36.4656 21.8114 36.07 22.3756C35.6743 22.9398 35.095 23.381 34.332 23.6993C33.5689 24.0175 32.6717 24.1767 31.6402 24.1767C29.9163 24.1767 28.5457 23.8005 27.5283 23.0483C26.5109 22.296 25.8821 21.211 25.6419 19.7933H30.1565C30.2413 20.5022 30.7288 20.8566 31.619 20.8566C32.0994 20.8566 32.3396 20.683 32.3396 20.3358C32.3396 20.0609 32.1771 19.8584 31.8521 19.7282C31.5271 19.598 31.0043 19.4678 30.2837 19.3376C29.3652 19.1495 28.6022 18.947 27.9946 18.73C27.4011 18.513 26.8783 18.1441 26.4261 17.6233C25.974 17.1025 25.7479 16.3864 25.7479 15.475C25.7479 14.7372 25.9387 14.079 26.3202 13.5003C26.7017 12.9216 27.2669 12.4659 28.0158 12.1332C28.7647 11.8005 29.6761 11.6341 30.75 11.6341ZM42.1764 7.9668V24.0248H37.471V7.9668H42.1764ZM47.7564 11.6341C48.5334 11.6341 49.2045 11.8005 49.77 12.1332C50.335 12.4515 50.7661 12.8927 51.0629 13.4569V11.786H55.747V24.0248H51.0629V22.3539C50.7661 22.9181 50.335 23.3665 49.77 23.6993C49.2045 24.0175 48.5334 24.1767 47.7564 24.1767C46.8238 24.1767 45.9828 23.9308 45.2342 23.4389C44.4852 22.9326 43.8917 22.2092 43.4538 21.2689C43.0299 20.3141 42.8179 19.1929 42.8179 17.9054C42.8179 16.6179 43.0299 15.5039 43.4538 14.5636C43.8917 13.6088 44.4852 12.8855 45.2342 12.3936C45.9828 11.8873 46.8238 11.6341 47.7564 11.6341ZM49.3249 15.8439C48.8162 15.8439 48.3991 16.0247 48.0743 16.3864C47.7492 16.748 47.5868 17.2544 47.5868 17.9054C47.5868 18.5564 47.7492 19.0627 48.0743 19.4244C48.3991 19.786 48.8162 19.9669 49.3249 19.9669C49.8335 19.9669 50.2503 19.786 50.5754 19.4244C50.9001 19.0627 51.0629 18.5564 51.0629 17.9054C51.0629 17.2544 50.9001 16.748 50.5754 16.3864C50.2503 16.0247 49.8335 15.8439 49.3249 15.8439ZM65.0025 11.6341C65.9351 11.6341 66.7761 11.8873 67.5247 12.3936C68.2738 12.8855 68.86 13.6088 69.2839 14.5636C69.7222 15.5039 69.941 16.6179 69.941 17.9054C69.941 19.1929 69.7222 20.3141 69.2839 21.2689C68.86 22.2092 68.2738 22.9326 67.5247 23.4389C66.7761 23.9308 65.9351 24.1767 65.0025 24.1767C64.2255 24.1767 63.5544 24.0175 62.989 23.6993C62.4379 23.3665 62.014 22.9181 61.7172 22.3539V24.0248H57.0119V7.9668H61.7172V13.4569C62.014 12.8927 62.4379 12.4515 62.989 12.1332C63.5544 11.8005 64.2255 11.6341 65.0025 11.6341ZM63.4341 15.8439C62.9254 15.8439 62.5087 16.0247 62.1835 16.3864C61.8588 16.748 61.6961 17.2544 61.6961 17.9054C61.6961 18.5564 61.8588 19.0627 62.1835 19.4244C62.5087 19.786 62.9254 19.9669 63.4341 19.9669C63.9427 19.9669 64.3598 19.786 64.6846 19.4244C65.0097 19.0627 65.1721 18.5564 65.1721 17.9054C65.1721 17.2544 65.0097 16.748 64.6846 16.3864C64.3598 16.0247 63.9427 15.8439 63.4341 15.8439ZM75.2758 11.6341C76.9006 11.6341 78.1935 12.0392 79.1545 12.8493C80.1295 13.645 80.7441 14.701 80.9985 16.0175H76.6111C76.4271 15.3231 75.9468 14.9759 75.1698 14.9759C74.7315 14.9759 74.5127 15.1495 74.5127 15.4967C74.5127 15.7426 74.6679 15.9307 74.979 16.0609C75.3038 16.1911 75.8124 16.3285 76.5051 16.4732C77.4093 16.6468 78.1795 16.8566 78.8154 17.1025C79.4652 17.334 80.0235 17.7173 80.4898 18.2526C80.9561 18.7879 81.1892 19.5184 81.1892 20.4443C81.1892 21.1676 80.9913 21.8114 80.5958 22.3756C80.1999 22.9398 79.6208 23.381 78.8577 23.6993C78.0947 24.0175 77.1973 24.1767 76.166 24.1767C74.4419 24.1767 73.0714 23.8005 72.0541 23.0483C71.0367 22.296 70.4077 21.211 70.1677 19.7933H74.6823C74.7671 20.5022 75.2546 20.8566 76.1448 20.8566C76.6251 20.8566 76.8654 20.683 76.8654 20.3358C76.8654 20.0609 76.7026 19.8584 76.3779 19.7282C76.0528 19.598 75.5301 19.4678 74.8095 19.3376C73.8909 19.1495 73.1278 18.947 72.5204 18.73C71.9269 18.513 71.4038 18.1441 70.9519 17.6233C70.4996 17.1025 70.2737 16.3864 70.2737 15.475C70.2737 14.7372 70.4644 14.079 70.846 13.5003C71.2275 12.9216 71.7925 12.4659 72.5416 12.1332C73.2902 11.8005 74.2016 11.6341 75.2758 11.6341Z" fill="#D7D6D7"/>
<path fill-rule="evenodd" clip-rule="evenodd" d="M95 5.8125V25.9625H87.0518V5.8125H95Z" fill="#FF5851"/>
</svg>
