<svg width="237" height="32" viewBox="0 0 237 32" fill="none" xmlns="http://www.w3.org/2000/svg">
<rect width="237" height="32" rx="3" fill="black" fill-opacity="0.9"/>
<path d="M63.1777 21V12.4336H64.1738V21H63.1777ZM70.7773 21V16.8457C70.7773 16.3223 70.6582 15.9316 70.4199 15.6738C70.1816 15.416 69.8086 15.2871 69.3008 15.2871C68.6289 15.2871 68.1367 15.4688 67.8242 15.832C67.5117 16.1953 67.3555 16.7949 67.3555 17.6309V21H66.3828V14.5781H67.1738L67.332 15.457H67.3789C67.5781 15.1406 67.8574 14.8965 68.2168 14.7246C68.5762 14.5488 68.9766 14.4609 69.418 14.4609C70.1914 14.4609 70.7734 14.6484 71.1641 15.0234C71.5547 15.3945 71.75 15.9902 71.75 16.8105V21H70.7773ZM76.3203 21.1172C75.3906 21.1172 74.6699 20.832 74.1582 20.2617C73.6504 19.6875 73.3965 18.877 73.3965 17.8301C73.3965 16.7559 73.6543 15.9258 74.1699 15.3398C74.6895 14.7539 75.4277 14.4609 76.3848 14.4609C76.6934 14.4609 77.002 14.4941 77.3105 14.5605C77.6191 14.627 77.8613 14.7051 78.0371 14.7949L77.7383 15.6211C77.5234 15.5352 77.2891 15.4648 77.0352 15.4102C76.7812 15.3516 76.5566 15.3223 76.3613 15.3223C75.0566 15.3223 74.4043 16.1543 74.4043 17.8184C74.4043 18.6074 74.5625 19.2129 74.8789 19.6348C75.1992 20.0566 75.6719 20.2676 76.2969 20.2676C76.832 20.2676 77.3809 20.1523 77.9434 19.9219V20.7832C77.5137 21.0059 76.9727 21.1172 76.3203 21.1172ZM85.0156 17.7832C85.0156 18.8301 84.752 19.6484 84.2246 20.2383C83.6973 20.8242 82.9688 21.1172 82.0391 21.1172C81.4648 21.1172 80.9551 20.9824 80.5098 20.7129C80.0645 20.4434 79.7207 20.0566 79.4785 19.5527C79.2363 19.0488 79.1152 18.459 79.1152 17.7832C79.1152 16.7363 79.377 15.9219 79.9004 15.3398C80.4238 14.7539 81.1504 14.4609 82.0801 14.4609C82.9785 14.4609 83.6914 14.7598 84.2188 15.3574C84.75 15.9551 85.0156 16.7637 85.0156 17.7832ZM80.123 17.7832C80.123 18.6035 80.2871 19.2285 80.6152 19.6582C80.9434 20.0879 81.4258 20.3027 82.0625 20.3027C82.6992 20.3027 83.1816 20.0898 83.5098 19.6641C83.8418 19.2344 84.0078 18.6074 84.0078 17.7832C84.0078 16.9668 83.8418 16.3477 83.5098 15.9258C83.1816 15.5 82.6953 15.2871 82.0508 15.2871C81.4141 15.2871 80.9336 15.4961 80.6094 15.9141C80.2852 16.332 80.123 16.9551 80.123 17.7832ZM89.6562 14.4609C89.9414 14.4609 90.1973 14.4844 90.4238 14.5312L90.2891 15.4336C90.0234 15.375 89.7891 15.3457 89.5859 15.3457C89.0664 15.3457 88.6211 15.5566 88.25 15.9785C87.8828 16.4004 87.6992 16.9258 87.6992 17.5547V21H86.7266V14.5781H87.5293L87.6406 15.7676H87.6875C87.9258 15.3496 88.2129 15.0273 88.5488 14.8008C88.8848 14.5742 89.2539 14.4609 89.6562 14.4609ZM94.5547 14.4609C94.8398 14.4609 95.0957 14.4844 95.3223 14.5312L95.1875 15.4336C94.9219 15.375 94.6875 15.3457 94.4844 15.3457C93.9648 15.3457 93.5195 15.5566 93.1484 15.9785C92.7812 16.4004 92.5977 16.9258 92.5977 17.5547V21H91.625V14.5781H92.4277L92.5391 15.7676H92.5859C92.8242 15.3496 93.1113 15.0273 93.4473 14.8008C93.7832 14.5742 94.1523 14.4609 94.5547 14.4609ZM99.2363 21.1172C98.2871 21.1172 97.5371 20.8281 96.9863 20.25C96.4395 19.6719 96.166 18.8691 96.166 17.8418C96.166 16.8066 96.4199 15.9844 96.9277 15.375C97.4395 14.7656 98.125 14.4609 98.9844 14.4609C99.7891 14.4609 100.426 14.7266 100.895 15.2578C101.363 15.7852 101.598 16.4824 101.598 17.3496V17.9648H97.1738C97.1934 18.7188 97.3828 19.291 97.7422 19.6816C98.1055 20.0723 98.6152 20.2676 99.2715 20.2676C99.9629 20.2676 100.646 20.123 101.322 19.834V20.7012C100.979 20.8496 100.652 20.9551 100.344 21.0176C100.039 21.084 99.6699 21.1172 99.2363 21.1172ZM98.9727 15.2754C98.457 15.2754 98.0449 15.4434 97.7363 15.7793C97.4316 16.1152 97.252 16.5801 97.1973 17.1738H100.555C100.555 16.5605 100.418 16.0918 100.145 15.7676C99.8711 15.4395 99.4805 15.2754 98.9727 15.2754ZM105.828 21.1172C104.898 21.1172 104.178 20.832 103.666 20.2617C103.158 19.6875 102.904 18.877 102.904 17.8301C102.904 16.7559 103.162 15.9258 103.678 15.3398C104.197 14.7539 104.936 14.4609 105.893 14.4609C106.201 14.4609 106.51 14.4941 106.818 14.5605C107.127 14.627 107.369 14.7051 107.545 14.7949L107.246 15.6211C107.031 15.5352 106.797 15.4648 106.543 15.4102C106.289 15.3516 106.064 15.3223 105.869 15.3223C104.564 15.3223 103.912 16.1543 103.912 17.8184C103.912 18.6074 104.07 19.2129 104.387 19.6348C104.707 20.0566 105.18 20.2676 105.805 20.2676C106.34 20.2676 106.889 20.1523 107.451 19.9219V20.7832C107.021 21.0059 106.48 21.1172 105.828 21.1172ZM111.055 20.3145C111.227 20.3145 111.393 20.3027 111.553 20.2793C111.713 20.252 111.84 20.2246 111.934 20.1973V20.9414C111.828 20.9922 111.672 21.0332 111.465 21.0645C111.262 21.0996 111.078 21.1172 110.914 21.1172C109.672 21.1172 109.051 20.4629 109.051 19.1543V15.334H108.131V14.8652L109.051 14.4609L109.461 13.0898H110.023V14.5781H111.887V15.334H110.023V19.1133C110.023 19.5 110.115 19.7969 110.299 20.0039C110.482 20.2109 110.734 20.3145 111.055 20.3145ZM119.234 15.334H117.6V21H116.627V15.334H115.479V14.8945L116.627 14.543V14.1855C116.627 12.6074 117.316 11.8184 118.695 11.8184C119.035 11.8184 119.434 11.8867 119.891 12.0234L119.639 12.8027C119.264 12.6816 118.943 12.6211 118.678 12.6211C118.311 12.6211 118.039 12.7441 117.863 12.9902C117.688 13.2324 117.6 13.623 117.6 14.1621V14.5781H119.234V15.334ZM121.379 21H120.406V11.8828H121.379V21ZM127.391 21L127.197 20.0859H127.15C126.83 20.4883 126.51 20.7617 126.189 20.9062C125.873 21.0469 125.477 21.1172 125 21.1172C124.363 21.1172 123.863 20.9531 123.5 20.625C123.141 20.2969 122.961 19.8301 122.961 19.2246C122.961 17.9277 123.998 17.248 126.072 17.1855L127.162 17.1504V16.752C127.162 16.248 127.053 15.877 126.834 15.6387C126.619 15.3965 126.273 15.2754 125.797 15.2754C125.262 15.2754 124.656 15.4395 123.98 15.7676L123.682 15.0234C123.998 14.8516 124.344 14.7168 124.719 14.6191C125.098 14.5215 125.477 14.4727 125.855 14.4727C126.621 14.4727 127.188 14.6426 127.555 14.9824C127.926 15.3223 128.111 15.8672 128.111 16.6172V21H127.391ZM125.193 20.3145C125.799 20.3145 126.273 20.1484 126.617 19.8164C126.965 19.4844 127.139 19.0195 127.139 18.4219V17.8418L126.166 17.8828C125.393 17.9102 124.834 18.0312 124.49 18.2461C124.15 18.457 123.98 18.7871 123.98 19.2363C123.98 19.5879 124.086 19.8555 124.297 20.0391C124.512 20.2227 124.811 20.3145 125.193 20.3145ZM135.377 14.5781V15.1934L134.188 15.334C134.297 15.4707 134.395 15.6504 134.48 15.873C134.566 16.0918 134.609 16.3398 134.609 16.6172C134.609 17.2461 134.395 17.748 133.965 18.123C133.535 18.498 132.945 18.6855 132.195 18.6855C132.004 18.6855 131.824 18.6699 131.656 18.6387C131.242 18.8574 131.035 19.1328 131.035 19.4648C131.035 19.6406 131.107 19.7715 131.252 19.8574C131.396 19.9395 131.645 19.9805 131.996 19.9805H133.133C133.828 19.9805 134.361 20.127 134.732 20.4199C135.107 20.7129 135.295 21.1387 135.295 21.6973C135.295 22.4082 135.01 22.9492 134.439 23.3203C133.869 23.6953 133.037 23.8828 131.943 23.8828C131.104 23.8828 130.455 23.7266 129.998 23.4141C129.545 23.1016 129.318 22.6602 129.318 22.0898C129.318 21.6992 129.443 21.3613 129.693 21.0762C129.943 20.791 130.295 20.5977 130.748 20.4961C130.584 20.4219 130.445 20.3066 130.332 20.1504C130.223 19.9941 130.168 19.8125 130.168 19.6055C130.168 19.3711 130.23 19.166 130.355 18.9902C130.48 18.8145 130.678 18.6445 130.947 18.4805C130.615 18.3438 130.344 18.1113 130.133 17.7832C129.926 17.4551 129.822 17.0801 129.822 16.6582C129.822 15.9551 130.033 15.4141 130.455 15.0352C130.877 14.6523 131.475 14.4609 132.248 14.4609C132.584 14.4609 132.887 14.5 133.156 14.5781H135.377ZM130.256 22.0781C130.256 22.4258 130.402 22.6895 130.695 22.8691C130.988 23.0488 131.408 23.1387 131.955 23.1387C132.771 23.1387 133.375 23.0156 133.766 22.7695C134.16 22.5273 134.357 22.1973 134.357 21.7793C134.357 21.4316 134.25 21.1895 134.035 21.0527C133.82 20.9199 133.416 20.8535 132.822 20.8535H131.656C131.215 20.8535 130.871 20.959 130.625 21.1699C130.379 21.3809 130.256 21.6836 130.256 22.0781ZM130.783 16.6348C130.783 17.084 130.91 17.4238 131.164 17.6543C131.418 17.8848 131.771 18 132.225 18C133.174 18 133.648 17.5391 133.648 16.6172C133.648 15.6523 133.168 15.1699 132.207 15.1699C131.75 15.1699 131.398 15.293 131.152 15.5391C130.906 15.7852 130.783 16.1504 130.783 16.6348ZM143.955 19.248C143.955 19.8457 143.732 20.3066 143.287 20.6309C142.842 20.9551 142.217 21.1172 141.412 21.1172C140.561 21.1172 139.896 20.9824 139.42 20.7129V19.8105C139.729 19.9668 140.059 20.0898 140.41 20.1797C140.766 20.2695 141.107 20.3145 141.436 20.3145C141.943 20.3145 142.334 20.2344 142.607 20.0742C142.881 19.9102 143.018 19.6621 143.018 19.3301C143.018 19.0801 142.908 18.8672 142.689 18.6914C142.475 18.5117 142.053 18.3008 141.424 18.0586C140.826 17.8359 140.4 17.6426 140.146 17.4785C139.896 17.3105 139.709 17.1211 139.584 16.9102C139.463 16.6992 139.402 16.4473 139.402 16.1543C139.402 15.6309 139.615 15.2188 140.041 14.918C140.467 14.6133 141.051 14.4609 141.793 14.4609C142.484 14.4609 143.16 14.6016 143.82 14.8828L143.475 15.6738C142.83 15.4082 142.246 15.2754 141.723 15.2754C141.262 15.2754 140.914 15.3477 140.68 15.4922C140.445 15.6367 140.328 15.8359 140.328 16.0898C140.328 16.2617 140.371 16.4082 140.457 16.5293C140.547 16.6504 140.689 16.7656 140.885 16.875C141.08 16.9844 141.455 17.1426 142.01 17.3496C142.771 17.627 143.285 17.9062 143.551 18.1875C143.82 18.4688 143.955 18.8223 143.955 19.248ZM146.457 14.5781V18.7441C146.457 19.2676 146.576 19.6582 146.814 19.916C147.053 20.1738 147.426 20.3027 147.934 20.3027C148.605 20.3027 149.096 20.1191 149.404 19.752C149.717 19.3848 149.873 18.7852 149.873 17.9531V14.5781H150.846V21H150.043L149.902 20.1387H149.85C149.65 20.4551 149.373 20.6973 149.018 20.8652C148.666 21.0332 148.264 21.1172 147.811 21.1172C147.029 21.1172 146.443 20.9316 146.053 20.5605C145.666 20.1895 145.473 19.5957 145.473 18.7793V14.5781H146.457ZM155.902 14.4727C156.746 14.4727 157.4 14.7617 157.865 15.3398C158.334 15.9141 158.568 16.7285 158.568 17.7832C158.568 18.8379 158.332 19.6582 157.859 20.2441C157.391 20.8262 156.738 21.1172 155.902 21.1172C155.484 21.1172 155.102 21.041 154.754 20.8887C154.41 20.7324 154.121 20.4941 153.887 20.1738H153.816L153.611 21H152.914V11.8828H153.887V14.0977C153.887 14.5938 153.871 15.0391 153.84 15.4336H153.887C154.34 14.793 155.012 14.4727 155.902 14.4727ZM155.762 15.2871C155.098 15.2871 154.619 15.4785 154.326 15.8613C154.033 16.2402 153.887 16.8809 153.887 17.7832C153.887 18.6855 154.037 19.332 154.338 19.7227C154.639 20.1094 155.121 20.3027 155.785 20.3027C156.383 20.3027 156.828 20.0859 157.121 19.6523C157.414 19.2148 157.561 18.5879 157.561 17.7715C157.561 16.9355 157.414 16.3125 157.121 15.9023C156.828 15.4922 156.375 15.2871 155.762 15.2871ZM168.459 21V16.8223C168.459 16.3105 168.35 15.9277 168.131 15.6738C167.912 15.416 167.572 15.2871 167.111 15.2871C166.506 15.2871 166.059 15.4609 165.77 15.8086C165.48 16.1562 165.336 16.6914 165.336 17.4141V21H164.363V16.8223C164.363 16.3105 164.254 15.9277 164.035 15.6738C163.816 15.416 163.475 15.2871 163.01 15.2871C162.4 15.2871 161.953 15.4707 161.668 15.8379C161.387 16.2012 161.246 16.7988 161.246 17.6309V21H160.273V14.5781H161.064L161.223 15.457H161.27C161.453 15.1445 161.711 14.9004 162.043 14.7246C162.379 14.5488 162.754 14.4609 163.168 14.4609C164.172 14.4609 164.828 14.8242 165.137 15.5508H165.184C165.375 15.2148 165.652 14.9492 166.016 14.7539C166.379 14.5586 166.793 14.4609 167.258 14.4609C167.984 14.4609 168.527 14.6484 168.887 15.0234C169.25 15.3945 169.432 15.9902 169.432 16.8105V21H168.459ZM172.414 21H171.441V14.5781H172.414V21ZM171.359 12.8379C171.359 12.6152 171.414 12.4531 171.523 12.3516C171.633 12.2461 171.77 12.1934 171.934 12.1934C172.09 12.1934 172.225 12.2461 172.338 12.3516C172.451 12.457 172.508 12.6191 172.508 12.8379C172.508 13.0566 172.451 13.2207 172.338 13.3301C172.225 13.4355 172.09 13.4883 171.934 13.4883C171.77 13.4883 171.633 13.4355 171.523 13.3301C171.414 13.2207 171.359 13.0566 171.359 12.8379ZM176.551 20.3145C176.723 20.3145 176.889 20.3027 177.049 20.2793C177.209 20.252 177.336 20.2246 177.43 20.1973V20.9414C177.324 20.9922 177.168 21.0332 176.961 21.0645C176.758 21.0996 176.574 21.1172 176.41 21.1172C175.168 21.1172 174.547 20.4629 174.547 19.1543V15.334H173.627V14.8652L174.547 14.4609L174.957 13.0898H175.52V14.5781H177.383V15.334H175.52V19.1133C175.52 19.5 175.611 19.7969 175.795 20.0039C175.979 20.2109 176.23 20.3145 176.551 20.3145ZM180.793 20.3145C180.965 20.3145 181.131 20.3027 181.291 20.2793C181.451 20.252 181.578 20.2246 181.672 20.1973V20.9414C181.566 20.9922 181.41 21.0332 181.203 21.0645C181 21.0996 180.816 21.1172 180.652 21.1172C179.41 21.1172 178.789 20.4629 178.789 19.1543V15.334H177.869V14.8652L178.789 14.4609L179.199 13.0898H179.762V14.5781H181.625V15.334H179.762V19.1133C179.762 19.5 179.854 19.7969 180.037 20.0039C180.221 20.2109 180.473 20.3145 180.793 20.3145ZM185.674 21.1172C184.725 21.1172 183.975 20.8281 183.424 20.25C182.877 19.6719 182.604 18.8691 182.604 17.8418C182.604 16.8066 182.857 15.9844 183.365 15.375C183.877 14.7656 184.562 14.4609 185.422 14.4609C186.227 14.4609 186.863 14.7266 187.332 15.2578C187.801 15.7852 188.035 16.4824 188.035 17.3496V17.9648H183.611C183.631 18.7188 183.82 19.291 184.18 19.6816C184.543 20.0723 185.053 20.2676 185.709 20.2676C186.4 20.2676 187.084 20.123 187.76 19.834V20.7012C187.416 20.8496 187.09 20.9551 186.781 21.0176C186.477 21.084 186.107 21.1172 185.674 21.1172ZM185.41 15.2754C184.895 15.2754 184.482 15.4434 184.174 15.7793C183.869 16.1152 183.689 16.5801 183.635 17.1738H186.992C186.992 16.5605 186.855 16.0918 186.582 15.7676C186.309 15.4395 185.918 15.2754 185.41 15.2754ZM194.07 20.1387H194.018C193.568 20.791 192.896 21.1172 192.002 21.1172C191.162 21.1172 190.508 20.8301 190.039 20.2559C189.574 19.6816 189.342 18.8652 189.342 17.8066C189.342 16.748 189.576 15.9258 190.045 15.3398C190.514 14.7539 191.166 14.4609 192.002 14.4609C192.873 14.4609 193.541 14.7773 194.006 15.4102H194.082L194.041 14.9473L194.018 14.4961V11.8828H194.99V21H194.199L194.07 20.1387ZM192.125 20.3027C192.789 20.3027 193.27 20.123 193.566 19.7637C193.867 19.4004 194.018 18.8164 194.018 18.0117V17.8066C194.018 16.8965 193.865 16.248 193.561 15.8613C193.26 15.4707 192.777 15.2754 192.113 15.2754C191.543 15.2754 191.105 15.498 190.801 15.9434C190.5 16.3848 190.35 17.0098 190.35 17.8184C190.35 18.6387 190.5 19.2578 190.801 19.6758C191.102 20.0938 191.543 20.3027 192.125 20.3027Z" fill="white"/>
<path d="M47 12.5C47.385 12.5 47.7 12.815 47.7 13.2V16C47.7 16.385 47.385 16.7 47 16.7C46.615 16.7 46.3 16.385 46.3 16V13.2C46.3 12.815 46.615 12.5 47 12.5ZM46.993 9C43.129 9 40 12.136 40 16C40 19.864 43.129 23 46.993 23C50.864 23 54 19.864 54 16C54 12.136 50.864 9 46.993 9ZM47 21.6C43.906 21.6 41.4 19.094 41.4 16C41.4 12.906 43.906 10.4 47 10.4C50.094 10.4 52.6 12.906 52.6 16C52.6 19.094 50.094 21.6 47 21.6ZM47.7 19.5H46.3V18.1H47.7V19.5Z" fill="white"/>
</svg>
