<svg width="237" height="32" viewBox="0 0 237 32" fill="none" xmlns="http://www.w3.org/2000/svg">
<rect width="237" height="32" rx="3" fill="black" fill-opacity="0.9"/>
<path d="M55.1772 21H54.1812V12.4336H58.9565V13.3184H55.1772V16.4531H58.728V17.3379H55.1772V21ZM61.2065 21H60.2339V11.8828H61.2065V21ZM67.2183 21L67.0249 20.0859H66.978C66.6577 20.4883 66.3374 20.7617 66.0171 20.9062C65.7007 21.0469 65.3042 21.1172 64.8276 21.1172C64.1909 21.1172 63.6909 20.9531 63.3276 20.625C62.9683 20.2969 62.7886 19.8301 62.7886 19.2246C62.7886 17.9277 63.8257 17.248 65.8999 17.1855L66.9897 17.1504V16.752C66.9897 16.248 66.8804 15.877 66.6616 15.6387C66.4468 15.3965 66.1011 15.2754 65.6245 15.2754C65.0894 15.2754 64.4839 15.4395 63.8081 15.7676L63.5093 15.0234C63.8257 14.8516 64.1714 14.7168 64.5464 14.6191C64.9253 14.5215 65.3042 14.4727 65.6831 14.4727C66.4487 14.4727 67.0151 14.6426 67.3823 14.9824C67.7534 15.3223 67.939 15.8672 67.939 16.6172V21H67.2183ZM65.021 20.3145C65.6265 20.3145 66.1011 20.1484 66.4448 19.8164C66.7925 19.4844 66.9663 19.0195 66.9663 18.4219V17.8418L65.9937 17.8828C65.2202 17.9102 64.6616 18.0312 64.3179 18.2461C63.978 18.457 63.8081 18.7871 63.8081 19.2363C63.8081 19.5879 63.9136 19.8555 64.1245 20.0391C64.3394 20.2227 64.6382 20.3145 65.021 20.3145ZM75.2046 14.5781V15.1934L74.0151 15.334C74.1245 15.4707 74.2222 15.6504 74.3081 15.873C74.394 16.0918 74.437 16.3398 74.437 16.6172C74.437 17.2461 74.2222 17.748 73.7925 18.123C73.3628 18.498 72.7729 18.6855 72.0229 18.6855C71.8315 18.6855 71.6519 18.6699 71.4839 18.6387C71.0698 18.8574 70.8628 19.1328 70.8628 19.4648C70.8628 19.6406 70.9351 19.7715 71.0796 19.8574C71.2241 19.9395 71.4722 19.9805 71.8237 19.9805H72.9604C73.6558 19.9805 74.189 20.127 74.5601 20.4199C74.9351 20.7129 75.1226 21.1387 75.1226 21.6973C75.1226 22.4082 74.8374 22.9492 74.2671 23.3203C73.6968 23.6953 72.8647 23.8828 71.771 23.8828C70.9312 23.8828 70.2827 23.7266 69.8257 23.4141C69.3726 23.1016 69.146 22.6602 69.146 22.0898C69.146 21.6992 69.271 21.3613 69.521 21.0762C69.771 20.791 70.1226 20.5977 70.5757 20.4961C70.4116 20.4219 70.2729 20.3066 70.1597 20.1504C70.0503 19.9941 69.9956 19.8125 69.9956 19.6055C69.9956 19.3711 70.0581 19.166 70.1831 18.9902C70.3081 18.8145 70.5054 18.6445 70.7749 18.4805C70.4429 18.3438 70.1714 18.1113 69.9604 17.7832C69.7534 17.4551 69.6499 17.0801 69.6499 16.6582C69.6499 15.9551 69.8608 15.4141 70.2827 15.0352C70.7046 14.6523 71.3022 14.4609 72.0757 14.4609C72.4116 14.4609 72.7144 14.5 72.9839 14.5781H75.2046ZM70.0835 22.0781C70.0835 22.4258 70.23 22.6895 70.5229 22.8691C70.8159 23.0488 71.2358 23.1387 71.7827 23.1387C72.5991 23.1387 73.2026 23.0156 73.5933 22.7695C73.9878 22.5273 74.1851 22.1973 74.1851 21.7793C74.1851 21.4316 74.0776 21.1895 73.8628 21.0527C73.6479 20.9199 73.2437 20.8535 72.6499 20.8535H71.4839C71.0425 20.8535 70.6987 20.959 70.4526 21.1699C70.2065 21.3809 70.0835 21.6836 70.0835 22.0781ZM70.6108 16.6348C70.6108 17.084 70.7378 17.4238 70.9917 17.6543C71.2456 17.8848 71.5991 18 72.0522 18C73.0015 18 73.4761 17.5391 73.4761 16.6172C73.4761 15.6523 72.9956 15.1699 72.0347 15.1699C71.5776 15.1699 71.2261 15.293 70.98 15.5391C70.7339 15.7852 70.6108 16.1504 70.6108 16.6348ZM83.7827 19.248C83.7827 19.8457 83.5601 20.3066 83.1147 20.6309C82.6694 20.9551 82.0444 21.1172 81.2397 21.1172C80.3882 21.1172 79.7241 20.9824 79.2476 20.7129V19.8105C79.5562 19.9668 79.8862 20.0898 80.2378 20.1797C80.5933 20.2695 80.9351 20.3145 81.2632 20.3145C81.771 20.3145 82.1616 20.2344 82.4351 20.0742C82.7085 19.9102 82.8452 19.6621 82.8452 19.3301C82.8452 19.0801 82.7358 18.8672 82.5171 18.6914C82.3022 18.5117 81.8804 18.3008 81.2515 18.0586C80.6538 17.8359 80.228 17.6426 79.9741 17.4785C79.7241 17.3105 79.5366 17.1211 79.4116 16.9102C79.2905 16.6992 79.23 16.4473 79.23 16.1543C79.23 15.6309 79.4429 15.2188 79.8687 14.918C80.2944 14.6133 80.8784 14.4609 81.6206 14.4609C82.312 14.4609 82.9878 14.6016 83.6479 14.8828L83.3022 15.6738C82.6577 15.4082 82.0737 15.2754 81.5503 15.2754C81.0894 15.2754 80.7417 15.3477 80.5073 15.4922C80.2729 15.6367 80.1558 15.8359 80.1558 16.0898C80.1558 16.2617 80.1987 16.4082 80.2847 16.5293C80.3745 16.6504 80.5171 16.7656 80.7124 16.875C80.9077 16.9844 81.2827 17.1426 81.8374 17.3496C82.5991 17.627 83.1128 17.9062 83.3784 18.1875C83.6479 18.4688 83.7827 18.8223 83.7827 19.248ZM86.2847 14.5781V18.7441C86.2847 19.2676 86.4038 19.6582 86.6421 19.916C86.8804 20.1738 87.2534 20.3027 87.7612 20.3027C88.4331 20.3027 88.9233 20.1191 89.2319 19.752C89.5444 19.3848 89.7007 18.7852 89.7007 17.9531V14.5781H90.6733V21H89.8706L89.73 20.1387H89.6772C89.478 20.4551 89.2007 20.6973 88.8452 20.8652C88.4937 21.0332 88.0913 21.1172 87.6382 21.1172C86.8569 21.1172 86.271 20.9316 85.8804 20.5605C85.4937 20.1895 85.3003 19.5957 85.3003 18.7793V14.5781H86.2847ZM95.73 14.4727C96.5737 14.4727 97.228 14.7617 97.6929 15.3398C98.1616 15.9141 98.396 16.7285 98.396 17.7832C98.396 18.8379 98.1597 19.6582 97.687 20.2441C97.2183 20.8262 96.5659 21.1172 95.73 21.1172C95.312 21.1172 94.9292 21.041 94.5815 20.8887C94.2378 20.7324 93.9487 20.4941 93.7144 20.1738H93.644L93.439 21H92.7417V11.8828H93.7144V14.0977C93.7144 14.5938 93.6987 15.0391 93.6675 15.4336H93.7144C94.1675 14.793 94.8394 14.4727 95.73 14.4727ZM95.5894 15.2871C94.9253 15.2871 94.4468 15.4785 94.1538 15.8613C93.8608 16.2402 93.7144 16.8809 93.7144 17.7832C93.7144 18.6855 93.8647 19.332 94.1655 19.7227C94.4663 20.1094 94.9487 20.3027 95.6128 20.3027C96.2104 20.3027 96.6558 20.0859 96.9487 19.6523C97.2417 19.2148 97.3882 18.5879 97.3882 17.7715C97.3882 16.9355 97.2417 16.3125 96.9487 15.9023C96.6558 15.4922 96.2026 15.2871 95.5894 15.2871ZM108.287 21V16.8223C108.287 16.3105 108.177 15.9277 107.958 15.6738C107.74 15.416 107.4 15.2871 106.939 15.2871C106.333 15.2871 105.886 15.4609 105.597 15.8086C105.308 16.1562 105.164 16.6914 105.164 17.4141V21H104.191V16.8223C104.191 16.3105 104.082 15.9277 103.863 15.6738C103.644 15.416 103.302 15.2871 102.837 15.2871C102.228 15.2871 101.781 15.4707 101.496 15.8379C101.214 16.2012 101.074 16.7988 101.074 17.6309V21H100.101V14.5781H100.892L101.05 15.457H101.097C101.281 15.1445 101.539 14.9004 101.871 14.7246C102.207 14.5488 102.582 14.4609 102.996 14.4609C104 14.4609 104.656 14.8242 104.964 15.5508H105.011C105.203 15.2148 105.48 14.9492 105.843 14.7539C106.207 14.5586 106.621 14.4609 107.085 14.4609C107.812 14.4609 108.355 14.6484 108.714 15.0234C109.078 15.3945 109.259 15.9902 109.259 16.8105V21H108.287ZM112.242 21H111.269V14.5781H112.242V21ZM111.187 12.8379C111.187 12.6152 111.242 12.4531 111.351 12.3516C111.46 12.2461 111.597 12.1934 111.761 12.1934C111.917 12.1934 112.052 12.2461 112.166 12.3516C112.279 12.457 112.335 12.6191 112.335 12.8379C112.335 13.0566 112.279 13.2207 112.166 13.3301C112.052 13.4355 111.917 13.4883 111.761 13.4883C111.597 13.4883 111.46 13.4355 111.351 13.3301C111.242 13.2207 111.187 13.0566 111.187 12.8379ZM116.378 20.3145C116.55 20.3145 116.716 20.3027 116.876 20.2793C117.037 20.252 117.164 20.2246 117.257 20.1973V20.9414C117.152 20.9922 116.996 21.0332 116.789 21.0645C116.585 21.0996 116.402 21.1172 116.238 21.1172C114.996 21.1172 114.375 20.4629 114.375 19.1543V15.334H113.455V14.8652L114.375 14.4609L114.785 13.0898H115.347V14.5781H117.21V15.334H115.347V19.1133C115.347 19.5 115.439 19.7969 115.623 20.0039C115.806 20.2109 116.058 20.3145 116.378 20.3145ZM120.621 20.3145C120.792 20.3145 120.958 20.3027 121.119 20.2793C121.279 20.252 121.406 20.2246 121.5 20.1973V20.9414C121.394 20.9922 121.238 21.0332 121.031 21.0645C120.828 21.0996 120.644 21.1172 120.48 21.1172C119.238 21.1172 118.617 20.4629 118.617 19.1543V15.334H117.697V14.8652L118.617 14.4609L119.027 13.0898H119.589V14.5781H121.453V15.334H119.589V19.1133C119.589 19.5 119.681 19.7969 119.865 20.0039C120.048 20.2109 120.3 20.3145 120.621 20.3145ZM125.501 21.1172C124.552 21.1172 123.802 20.8281 123.251 20.25C122.705 19.6719 122.431 18.8691 122.431 17.8418C122.431 16.8066 122.685 15.9844 123.193 15.375C123.705 14.7656 124.39 14.4609 125.25 14.4609C126.054 14.4609 126.691 14.7266 127.16 15.2578C127.628 15.7852 127.863 16.4824 127.863 17.3496V17.9648H123.439C123.458 18.7188 123.648 19.291 124.007 19.6816C124.371 20.0723 124.88 20.2676 125.537 20.2676C126.228 20.2676 126.912 20.123 127.587 19.834V20.7012C127.244 20.8496 126.917 20.9551 126.609 21.0176C126.304 21.084 125.935 21.1172 125.501 21.1172ZM125.238 15.2754C124.722 15.2754 124.31 15.4434 124.001 15.7793C123.697 16.1152 123.517 16.5801 123.462 17.1738H126.82C126.82 16.5605 126.683 16.0918 126.41 15.7676C126.136 15.4395 125.746 15.2754 125.238 15.2754ZM133.898 20.1387H133.845C133.396 20.791 132.724 21.1172 131.83 21.1172C130.99 21.1172 130.335 20.8301 129.867 20.2559C129.402 19.6816 129.169 18.8652 129.169 17.8066C129.169 16.748 129.404 15.9258 129.873 15.3398C130.341 14.7539 130.994 14.4609 131.83 14.4609C132.701 14.4609 133.369 14.7773 133.833 15.4102H133.91L133.869 14.9473L133.845 14.4961V11.8828H134.818V21H134.027L133.898 20.1387ZM131.953 20.3027C132.617 20.3027 133.097 20.123 133.394 19.7637C133.695 19.4004 133.845 18.8164 133.845 18.0117V17.8066C133.845 16.8965 133.693 16.248 133.388 15.8613C133.087 15.4707 132.605 15.2754 131.941 15.2754C131.371 15.2754 130.933 15.498 130.628 15.9434C130.328 16.3848 130.177 17.0098 130.177 17.8184C130.177 18.6387 130.328 19.2578 130.628 19.6758C130.929 20.0938 131.371 20.3027 131.953 20.3027ZM144.146 19.248C144.146 19.8457 143.923 20.3066 143.478 20.6309C143.033 20.9551 142.408 21.1172 141.603 21.1172C140.751 21.1172 140.087 20.9824 139.611 20.7129V19.8105C139.919 19.9668 140.25 20.0898 140.601 20.1797C140.957 20.2695 141.298 20.3145 141.626 20.3145C142.134 20.3145 142.525 20.2344 142.798 20.0742C143.072 19.9102 143.208 19.6621 143.208 19.3301C143.208 19.0801 143.099 18.8672 142.88 18.6914C142.666 18.5117 142.244 18.3008 141.615 18.0586C141.017 17.8359 140.591 17.6426 140.337 17.4785C140.087 17.3105 139.9 17.1211 139.775 16.9102C139.654 16.6992 139.593 16.4473 139.593 16.1543C139.593 15.6309 139.806 15.2188 140.232 14.918C140.658 14.6133 141.242 14.4609 141.984 14.4609C142.675 14.4609 143.351 14.6016 144.011 14.8828L143.666 15.6738C143.021 15.4082 142.437 15.2754 141.914 15.2754C141.453 15.2754 141.105 15.3477 140.871 15.4922C140.636 15.6367 140.519 15.8359 140.519 16.0898C140.519 16.2617 140.562 16.4082 140.648 16.5293C140.738 16.6504 140.88 16.7656 141.076 16.875C141.271 16.9844 141.646 17.1426 142.201 17.3496C142.962 17.627 143.476 17.9062 143.742 18.1875C144.011 18.4688 144.146 18.8223 144.146 19.248ZM146.648 14.5781V18.7441C146.648 19.2676 146.767 19.6582 147.005 19.916C147.244 20.1738 147.617 20.3027 148.125 20.3027C148.796 20.3027 149.287 20.1191 149.595 19.752C149.908 19.3848 150.064 18.7852 150.064 17.9531V14.5781H151.037V21H150.234L150.093 20.1387H150.041C149.841 20.4551 149.564 20.6973 149.208 20.8652C148.857 21.0332 148.455 21.1172 148.001 21.1172C147.22 21.1172 146.634 20.9316 146.244 20.5605C145.857 20.1895 145.664 19.5957 145.664 18.7793V14.5781H146.648ZM155.671 21.1172C154.742 21.1172 154.021 20.832 153.509 20.2617C153.001 19.6875 152.748 18.877 152.748 17.8301C152.748 16.7559 153.005 15.9258 153.521 15.3398C154.041 14.7539 154.779 14.4609 155.736 14.4609C156.044 14.4609 156.353 14.4941 156.662 14.5605C156.97 14.627 157.212 14.7051 157.388 14.7949L157.089 15.6211C156.875 15.5352 156.64 15.4648 156.386 15.4102C156.132 15.3516 155.908 15.3223 155.712 15.3223C154.408 15.3223 153.755 16.1543 153.755 17.8184C153.755 18.6074 153.914 19.2129 154.23 19.6348C154.55 20.0566 155.023 20.2676 155.648 20.2676C156.183 20.2676 156.732 20.1523 157.294 19.9219V20.7832C156.865 21.0059 156.324 21.1172 155.671 21.1172ZM161.39 21.1172C160.46 21.1172 159.74 20.832 159.228 20.2617C158.72 19.6875 158.466 18.877 158.466 17.8301C158.466 16.7559 158.724 15.9258 159.24 15.3398C159.759 14.7539 160.498 14.4609 161.455 14.4609C161.763 14.4609 162.072 14.4941 162.38 14.5605C162.689 14.627 162.931 14.7051 163.107 14.7949L162.808 15.6211C162.593 15.5352 162.359 15.4648 162.105 15.4102C161.851 15.3516 161.626 15.3223 161.431 15.3223C160.126 15.3223 159.474 16.1543 159.474 17.8184C159.474 18.6074 159.632 19.2129 159.949 19.6348C160.269 20.0566 160.742 20.2676 161.367 20.2676C161.902 20.2676 162.451 20.1523 163.013 19.9219V20.7832C162.583 21.0059 162.042 21.1172 161.39 21.1172ZM167.255 21.1172C166.306 21.1172 165.556 20.8281 165.005 20.25C164.458 19.6719 164.185 18.8691 164.185 17.8418C164.185 16.8066 164.439 15.9844 164.947 15.375C165.458 14.7656 166.144 14.4609 167.003 14.4609C167.808 14.4609 168.445 14.7266 168.914 15.2578C169.382 15.7852 169.617 16.4824 169.617 17.3496V17.9648H165.193C165.212 18.7188 165.402 19.291 165.761 19.6816C166.125 20.0723 166.634 20.2676 167.291 20.2676C167.982 20.2676 168.666 20.123 169.341 19.834V20.7012C168.998 20.8496 168.671 20.9551 168.363 21.0176C168.058 21.084 167.689 21.1172 167.255 21.1172ZM166.992 15.2754C166.476 15.2754 166.064 15.4434 165.755 15.7793C165.451 16.1152 165.271 16.5801 165.216 17.1738H168.574C168.574 16.5605 168.437 16.0918 168.164 15.7676C167.89 15.4395 167.5 15.2754 166.992 15.2754ZM175.423 19.248C175.423 19.8457 175.201 20.3066 174.755 20.6309C174.31 20.9551 173.685 21.1172 172.88 21.1172C172.029 21.1172 171.365 20.9824 170.888 20.7129V19.8105C171.197 19.9668 171.527 20.0898 171.878 20.1797C172.234 20.2695 172.576 20.3145 172.904 20.3145C173.412 20.3145 173.802 20.2344 174.076 20.0742C174.349 19.9102 174.486 19.6621 174.486 19.3301C174.486 19.0801 174.376 18.8672 174.158 18.6914C173.943 18.5117 173.521 18.3008 172.892 18.0586C172.294 17.8359 171.869 17.6426 171.615 17.4785C171.365 17.3105 171.177 17.1211 171.052 16.9102C170.931 16.6992 170.871 16.4473 170.871 16.1543C170.871 15.6309 171.083 15.2188 171.509 14.918C171.935 14.6133 172.519 14.4609 173.261 14.4609C173.953 14.4609 174.628 14.6016 175.289 14.8828L174.943 15.6738C174.298 15.4082 173.714 15.2754 173.191 15.2754C172.73 15.2754 172.382 15.3477 172.148 15.4922C171.914 15.6367 171.796 15.8359 171.796 16.0898C171.796 16.2617 171.839 16.4082 171.925 16.5293C172.015 16.6504 172.158 16.7656 172.353 16.875C172.548 16.9844 172.923 17.1426 173.478 17.3496C174.24 17.627 174.753 17.9062 175.019 18.1875C175.289 18.4688 175.423 18.8223 175.423 19.248ZM181.154 19.248C181.154 19.8457 180.931 20.3066 180.486 20.6309C180.041 20.9551 179.416 21.1172 178.611 21.1172C177.759 21.1172 177.095 20.9824 176.619 20.7129V19.8105C176.927 19.9668 177.257 20.0898 177.609 20.1797C177.964 20.2695 178.306 20.3145 178.634 20.3145C179.142 20.3145 179.533 20.2344 179.806 20.0742C180.08 19.9102 180.216 19.6621 180.216 19.3301C180.216 19.0801 180.107 18.8672 179.888 18.6914C179.673 18.5117 179.251 18.3008 178.623 18.0586C178.025 17.8359 177.599 17.6426 177.345 17.4785C177.095 17.3105 176.908 17.1211 176.783 16.9102C176.662 16.6992 176.601 16.4473 176.601 16.1543C176.601 15.6309 176.814 15.2188 177.24 14.918C177.666 14.6133 178.25 14.4609 178.992 14.4609C179.683 14.4609 180.359 14.6016 181.019 14.8828L180.673 15.6738C180.029 15.4082 179.445 15.2754 178.921 15.2754C178.46 15.2754 178.113 15.3477 177.878 15.4922C177.644 15.6367 177.527 15.8359 177.527 16.0898C177.527 16.2617 177.57 16.4082 177.656 16.5293C177.746 16.6504 177.888 16.7656 178.083 16.875C178.279 16.9844 178.654 17.1426 179.208 17.3496C179.97 17.627 180.484 17.9062 180.75 18.1875C181.019 18.4688 181.154 18.8223 181.154 19.248ZM185.636 15.334H184.001V21H183.029V15.334H181.88V14.8945L183.029 14.543V14.1855C183.029 12.6074 183.718 11.8184 185.097 11.8184C185.437 11.8184 185.835 11.8867 186.292 12.0234L186.041 12.8027C185.666 12.6816 185.345 12.6211 185.08 12.6211C184.712 12.6211 184.441 12.7441 184.265 12.9902C184.089 13.2324 184.001 13.623 184.001 14.1621V14.5781H185.636V15.334ZM187.722 14.5781V18.7441C187.722 19.2676 187.841 19.6582 188.08 19.916C188.318 20.1738 188.691 20.3027 189.199 20.3027C189.871 20.3027 190.361 20.1191 190.669 19.752C190.982 19.3848 191.138 18.7852 191.138 17.9531V14.5781H192.111V21H191.308L191.167 20.1387H191.115C190.916 20.4551 190.638 20.6973 190.283 20.8652C189.931 21.0332 189.529 21.1172 189.076 21.1172C188.294 21.1172 187.708 20.9316 187.318 20.5605C186.931 20.1895 186.738 19.5957 186.738 18.7793V14.5781H187.722ZM195.152 21H194.179V11.8828H195.152V21ZM198.187 21H197.214V11.8828H198.187V21ZM199.23 14.5781H200.273L201.679 18.2402C201.988 19.0762 202.179 19.6797 202.253 20.0508H202.3C202.351 19.8516 202.457 19.5117 202.617 19.0312C202.781 18.5469 203.312 17.0625 204.21 14.5781H205.253L202.494 21.8906C202.22 22.6133 201.9 23.125 201.533 23.4258C201.169 23.7305 200.722 23.8828 200.191 23.8828C199.894 23.8828 199.601 23.8496 199.312 23.7832V23.0039C199.527 23.0508 199.767 23.0742 200.033 23.0742C200.701 23.0742 201.177 22.6992 201.462 21.9492L201.82 21.0352L199.23 14.5781Z" fill="white"/>
<path d="M35.331 19.4934L32.4117 16.5769C32.0864 16.2519 31.5693 16.2519 31.244 16.5769C30.9187 16.9019 30.9187 17.4185 31.244 17.7435L34.7388 21.235C35.064 21.56 35.5895 21.56 35.9148 21.235L44.756 12.4104C45.0813 12.0854 45.0813 11.5687 44.756 11.2437C44.4307 10.9188 43.9136 10.9188 43.5883 11.2437L35.331 19.4934Z" fill="white"/>
</svg>
