<svg width="27" height="26" viewBox="0 0 27 26" fill="none" xmlns="http://www.w3.org/2000/svg">
<rect x="0.692383" width="25.6154" height="25.6154" rx="2" fill="#393939"/>
<path d="M9.58022 20.6345C16.8299 20.6345 20.7951 14.6115 20.7951 9.38834C20.7951 9.21727 20.7951 9.04696 20.7836 8.87743C21.555 8.31791 22.2209 7.62511 22.7501 6.83148C22.0307 7.15113 21.2676 7.36075 20.4862 7.45336C21.309 6.95939 21.9249 6.18246 22.2191 5.26716C21.4454 5.72756 20.5989 6.05203 19.7162 6.22656C19.1219 5.59288 18.336 5.17328 17.4799 5.03268C16.6238 4.89208 15.7454 5.03832 14.9806 5.44878C14.2158 5.85923 13.6072 6.51102 13.249 7.30327C12.8908 8.09553 12.803 8.98408 12.9991 9.83143C11.432 9.75265 9.89897 9.34428 8.49949 8.63283C7.1 7.92138 5.86535 6.92276 4.8757 5.70178C4.37166 6.57192 4.21728 7.60198 4.444 8.58224C4.67072 9.56251 5.26148 10.4193 6.09601 10.9781C5.46875 10.9594 4.85516 10.7898 4.30704 10.4834C4.30704 10.4995 4.30704 10.5165 4.30704 10.5335C4.30728 11.446 4.62231 12.3304 5.19867 13.0366C5.77503 13.7428 6.57725 14.2273 7.46925 14.408C6.88897 14.5667 6.28012 14.5899 5.6895 14.4759C5.94137 15.2612 6.43173 15.948 7.09199 16.4402C7.75226 16.9323 8.54942 17.2052 9.37197 17.2207C7.97624 18.3207 6.25206 18.9179 4.47687 18.9161C4.16326 18.9155 3.84996 18.8964 3.53857 18.859C5.34111 20.019 7.43845 20.6343 9.58022 20.6314" fill="white"/>
</svg>
