<svg width="20" height="17" viewBox="0 0 20 17" fill="none" xmlns="http://www.w3.org/2000/svg">
<path d="M18.6 8.498L20 9.908L13.47 16.498L10 12.998L11.4 11.588L13.47 13.668L18.6 8.498ZM7.5 13L10.5 16H0.5V14C0.5 11.79 4.082 10 8.5 10L10.388 10.112L7.5 13ZM8.5 0C9.56087 0 10.5783 0.421427 11.3284 1.17157C12.0786 1.92172 12.5 2.93913 12.5 4C12.5 5.06087 12.0786 6.07828 11.3284 6.82843C10.5783 7.57857 9.56087 8 8.5 8C7.43913 8 6.42172 7.57857 5.67157 6.82843C4.92143 6.07828 4.5 5.06087 4.5 4C4.5 2.93913 4.92143 1.92172 5.67157 1.17157C6.42172 0.421427 7.43913 0 8.5 0Z" fill="#393939"/>
</svg>
