<svg width="30" height="30" viewBox="0 0 30 30" fill="none" xmlns="http://www.w3.org/2000/svg">
<path d="M15 24C10.0293 24 6 19.9707 6 15C6 10.0293 10.0293 6 15 6C19.9707 6 24 10.0293 24 15C24 19.9707 19.9707 24 15 24ZM15 22.2C16.9096 22.2 18.7409 21.4414 20.0912 20.0912C21.4414 18.7409 22.2 16.9096 22.2 15C22.2 13.0904 21.4414 11.2591 20.0912 9.90883C18.7409 8.55857 16.9096 7.8 15 7.8C13.0904 7.8 11.2591 8.55857 9.90883 9.90883C8.55857 11.2591 7.8 13.0904 7.8 15C7.8 16.9096 8.55857 18.7409 9.90883 20.0912C11.2591 21.4414 13.0904 22.2 15 22.2ZM12.3 12.3H14.1V17.7H12.3V12.3ZM15.9 12.3H17.7V17.7H15.9V12.3Z" fill="#393939"/>
<path d="M3 2H27V0H3V2ZM28 3V27H30V3H28ZM27 28H3V30H27V28ZM2 27V3H0V27H2ZM3 28C2.44772 28 2 27.5523 2 27H0C0 28.6569 1.34315 30 3 30V28ZM28 27C28 27.5523 27.5523 28 27 28V30C28.6569 30 30 28.6569 30 27H28ZM27 2C27.5523 2 28 2.44772 28 3H30C30 1.34315 28.6569 0 27 0V2ZM3 0C1.34315 0 0 1.34315 0 3H2C2 2.44772 2.44772 2 3 2V0Z" fill="#575757" fill-opacity="0.7"/>
</svg>
