<svg width="116" height="20" viewBox="0 0 116 20" fill="none" xmlns="http://www.w3.org/2000/svg">
<rect width="116" height="20" rx="3" fill="black"/>
<path d="M40.0093 6.14746V11.2285C40.0093 12.1237 39.7389 12.8273 39.1982 13.3394C38.6576 13.8514 37.9146 14.1074 36.9692 14.1074C36.0239 14.1074 35.2917 13.8496 34.7725 13.334C34.2568 12.8184 33.999 12.1094 33.999 11.207V6.14746H34.9121V11.2715C34.9121 11.9268 35.0911 12.4299 35.4492 12.7808C35.8073 13.1317 36.3337 13.3071 37.0283 13.3071C37.6908 13.3071 38.201 13.1317 38.5591 12.7808C38.9172 12.4263 39.0962 11.9196 39.0962 11.2607V6.14746H40.0093ZM44.6982 14.1074C44.3151 14.1074 43.9642 14.0376 43.6455 13.8979C43.3304 13.7547 43.0654 13.5363 42.8506 13.2427H42.7861C42.8291 13.5864 42.8506 13.9123 42.8506 14.2202V16.6426H41.959V8.11328H42.6841L42.8076 8.91895H42.8506C43.0798 8.59668 43.3465 8.36393 43.6509 8.2207C43.9552 8.07747 44.3044 8.00586 44.6982 8.00586C45.4788 8.00586 46.0804 8.27262 46.5029 8.80615C46.929 9.33968 47.1421 10.0881 47.1421 11.0513C47.1421 12.0181 46.9255 12.77 46.4922 13.3071C46.0625 13.8407 45.4645 14.1074 44.6982 14.1074ZM44.5693 8.76318C43.9678 8.76318 43.5327 8.92969 43.2642 9.2627C42.9956 9.5957 42.8577 10.1257 42.8506 10.8525V11.0513C42.8506 11.8784 42.9884 12.471 43.2642 12.8291C43.5399 13.1836 43.9821 13.3608 44.5908 13.3608C45.0993 13.3608 45.4967 13.1549 45.7832 12.7432C46.0732 12.3314 46.2183 11.7638 46.2183 11.0405C46.2183 10.3065 46.0732 9.7443 45.7832 9.354C45.4967 8.96012 45.0921 8.76318 44.5693 8.76318ZM49.5967 14H48.7051V5.64258H49.5967V14ZM56.5684 11.0513C56.5684 12.0109 56.3267 12.7611 55.8433 13.3018C55.3599 13.8389 54.6921 14.1074 53.8398 14.1074C53.3135 14.1074 52.8462 13.9839 52.438 13.7368C52.0298 13.4897 51.7147 13.1353 51.4927 12.6733C51.2707 12.2114 51.1597 11.6707 51.1597 11.0513C51.1597 10.0916 51.3996 9.34505 51.8794 8.81152C52.3592 8.27441 53.0252 8.00586 53.8774 8.00586C54.701 8.00586 55.3545 8.27979 55.8379 8.82764C56.3249 9.37549 56.5684 10.1167 56.5684 11.0513ZM52.0835 11.0513C52.0835 11.8032 52.2339 12.3761 52.5347 12.77C52.8354 13.1639 53.2777 13.3608 53.8613 13.3608C54.445 13.3608 54.8872 13.1657 55.188 12.7754C55.4924 12.3815 55.6445 11.8068 55.6445 11.0513C55.6445 10.3029 55.4924 9.73535 55.188 9.34863C54.8872 8.95833 54.4414 8.76318 53.8506 8.76318C53.2669 8.76318 52.8265 8.95475 52.5293 9.33789C52.2321 9.72103 52.0835 10.2922 52.0835 11.0513ZM61.7568 14L61.5796 13.1621H61.5366C61.243 13.5309 60.9494 13.7816 60.6558 13.9141C60.3657 14.043 60.0023 14.1074 59.5654 14.1074C58.9818 14.1074 58.5234 13.957 58.1904 13.6562C57.861 13.3555 57.6963 12.9276 57.6963 12.3726C57.6963 11.1838 58.647 10.5607 60.5483 10.5034L61.5474 10.4712V10.106C61.5474 9.64404 61.4471 9.30387 61.2466 9.08545C61.0496 8.86344 60.7327 8.75244 60.2959 8.75244C59.8053 8.75244 59.2503 8.90283 58.6309 9.20361L58.3569 8.52148C58.647 8.36393 58.9639 8.2404 59.3076 8.15088C59.6549 8.06136 60.0023 8.0166 60.3496 8.0166C61.0514 8.0166 61.5706 8.17236 61.9072 8.48389C62.2474 8.79541 62.4175 9.29492 62.4175 9.98242V14H61.7568ZM59.7427 13.3716C60.2977 13.3716 60.7327 13.2194 61.0479 12.915C61.3665 12.6107 61.5259 12.1846 61.5259 11.6367V11.105L60.6343 11.1426C59.9253 11.1676 59.4132 11.2786 59.0981 11.4756C58.7866 11.6689 58.6309 11.9715 58.6309 12.3833C58.6309 12.7056 58.7275 12.9508 58.9209 13.1191C59.1178 13.2874 59.3918 13.3716 59.7427 13.3716ZM68.2666 13.2104H68.2183C67.8065 13.8084 67.1906 14.1074 66.3706 14.1074C65.6007 14.1074 65.001 13.8442 64.5713 13.3179C64.1452 12.7915 63.9321 12.0431 63.9321 11.0728C63.9321 10.1024 64.147 9.34863 64.5767 8.81152C65.0063 8.27441 65.6043 8.00586 66.3706 8.00586C67.1691 8.00586 67.7814 8.2959 68.2075 8.87598H68.2773L68.2397 8.45166L68.2183 8.03809V5.64258H69.1099V14H68.3848L68.2666 13.2104ZM66.4834 13.3608C67.0921 13.3608 67.5326 13.1961 67.8047 12.8667C68.0804 12.5337 68.2183 11.9984 68.2183 11.2607V11.0728C68.2183 10.2384 68.0786 9.64404 67.7993 9.28955C67.5236 8.93148 67.0814 8.75244 66.4727 8.75244C65.9499 8.75244 65.5488 8.95654 65.2695 9.36475C64.9938 9.76937 64.856 10.3423 64.856 11.0835C64.856 11.8354 64.9938 12.403 65.2695 12.7861C65.5452 13.1693 65.9499 13.3608 66.4834 13.3608ZM76.5166 8.80615H75.0181V14H74.1265V8.80615H73.0737V8.40332L74.1265 8.08105V7.75342C74.1265 6.3068 74.7585 5.5835 76.0225 5.5835C76.334 5.5835 76.6992 5.64616 77.1182 5.77148L76.8872 6.48584C76.5435 6.37484 76.2498 6.31934 76.0063 6.31934C75.6698 6.31934 75.4209 6.43213 75.2598 6.65771C75.0986 6.87972 75.0181 7.23779 75.0181 7.73193V8.11328H76.5166V8.80615ZM81.2109 14L81.0337 13.1621H80.9907C80.6971 13.5309 80.4035 13.7816 80.1099 13.9141C79.8198 14.043 79.4564 14.1074 79.0195 14.1074C78.4359 14.1074 77.9775 13.957 77.6445 13.6562C77.3151 13.3555 77.1504 12.9276 77.1504 12.3726C77.1504 11.1838 78.1011 10.5607 80.0024 10.5034L81.0015 10.4712V10.106C81.0015 9.64404 80.9012 9.30387 80.7007 9.08545C80.5037 8.86344 80.1868 8.75244 79.75 8.75244C79.2594 8.75244 78.7044 8.90283 78.085 9.20361L77.811 8.52148C78.1011 8.36393 78.418 8.2404 78.7617 8.15088C79.109 8.06136 79.4564 8.0166 79.8037 8.0166C80.5055 8.0166 81.0247 8.17236 81.3613 8.48389C81.7015 8.79541 81.8716 9.29492 81.8716 9.98242V14H81.2109ZM79.1968 13.3716C79.7518 13.3716 80.1868 13.2194 80.502 12.915C80.8206 12.6107 80.98 12.1846 80.98 11.6367V11.105L80.0884 11.1426C79.3794 11.1676 78.8674 11.2786 78.5522 11.4756C78.2407 11.6689 78.085 11.9715 78.085 12.3833C78.085 12.7056 78.1816 12.9508 78.375 13.1191C78.5719 13.2874 78.8459 13.3716 79.1968 13.3716ZM84.6055 14H83.7139V8.11328H84.6055V14ZM83.6387 6.51807C83.6387 6.31396 83.6888 6.16536 83.7891 6.07227C83.8893 5.97559 84.0146 5.92725 84.165 5.92725C84.3083 5.92725 84.4318 5.97559 84.5356 6.07227C84.6395 6.16895 84.6914 6.31755 84.6914 6.51807C84.6914 6.71859 84.6395 6.86898 84.5356 6.96924C84.4318 7.06592 84.3083 7.11426 84.165 7.11426C84.0146 7.11426 83.8893 7.06592 83.7891 6.96924C83.6888 6.86898 83.6387 6.71859 83.6387 6.51807ZM87.3877 14H86.4961V5.64258H87.3877V14ZM91.7651 14.1074C90.895 14.1074 90.2075 13.8424 89.7026 13.3125C89.2013 12.7826 88.9507 12.0467 88.9507 11.105C88.9507 10.1561 89.1834 9.40234 89.6489 8.84375C90.118 8.28516 90.7464 8.00586 91.5342 8.00586C92.2718 8.00586 92.8555 8.24935 93.2852 8.73633C93.7148 9.21973 93.9297 9.85889 93.9297 10.6538V11.2178H89.8745C89.8924 11.9089 90.0661 12.4334 90.3955 12.7915C90.7285 13.1496 91.1958 13.3286 91.7974 13.3286C92.4312 13.3286 93.0578 13.1961 93.6772 12.9312V13.7261C93.3621 13.8621 93.0632 13.9588 92.7803 14.0161C92.501 14.077 92.1626 14.1074 91.7651 14.1074ZM91.5234 8.75244C91.0508 8.75244 90.673 8.90641 90.3901 9.21436C90.1108 9.5223 89.9461 9.9484 89.896 10.4927H92.9736C92.9736 9.9305 92.8483 9.50081 92.5977 9.20361C92.347 8.90283 91.9889 8.75244 91.5234 8.75244ZM99.4619 13.2104H99.4136C99.0018 13.8084 98.3859 14.1074 97.5659 14.1074C96.7961 14.1074 96.1963 13.8442 95.7666 13.3179C95.3405 12.7915 95.1274 12.0431 95.1274 11.0728C95.1274 10.1024 95.3423 9.34863 95.772 8.81152C96.2017 8.27441 96.7996 8.00586 97.5659 8.00586C98.3644 8.00586 98.9767 8.2959 99.4028 8.87598H99.4727L99.4351 8.45166L99.4136 8.03809V5.64258H100.305V14H99.5801L99.4619 13.2104ZM97.6787 13.3608C98.2874 13.3608 98.7279 13.1961 99 12.8667C99.2757 12.5337 99.4136 11.9984 99.4136 11.2607V11.0728C99.4136 10.2384 99.2739 9.64404 98.9946 9.28955C98.7189 8.93148 98.2767 8.75244 97.668 8.75244C97.1452 8.75244 96.7441 8.95654 96.4648 9.36475C96.1891 9.76937 96.0513 10.3423 96.0513 11.0835C96.0513 11.8354 96.1891 12.403 96.4648 12.7861C96.7406 13.1693 97.1452 13.3608 97.6787 13.3608Z" fill="white"/>
<path d="M19.5 7.75C19.8025 7.75 20.05 7.9975 20.05 8.3V10.5C20.05 10.8025 19.8025 11.05 19.5 11.05C19.1975 11.05 18.95 10.8025 18.95 10.5V8.3C18.95 7.9975 19.1975 7.75 19.5 7.75ZM19.4945 5C16.4585 5 14 7.464 14 10.5C14 13.536 16.4585 16 19.4945 16C22.536 16 25 13.536 25 10.5C25 7.464 22.536 5 19.4945 5ZM19.5 14.9C17.069 14.9 15.1 12.931 15.1 10.5C15.1 8.069 17.069 6.1 19.5 6.1C21.931 6.1 23.9 8.069 23.9 10.5C23.9 12.931 21.931 14.9 19.5 14.9ZM20.05 13.25H18.95V12.15H20.05V13.25Z" fill="white"/>
</svg>
