<svg width="167" height="20" viewBox="0 0 167 20" fill="none" xmlns="http://www.w3.org/2000/svg">
<rect width="167" height="20" rx="3" fill="black"/>
<path d="M42.5107 11.9106C42.5107 12.6017 42.2601 13.1406 41.7588 13.5273C41.2575 13.9141 40.5771 14.1074 39.7178 14.1074C38.7868 14.1074 38.0706 13.9875 37.5693 13.7476V12.8667C37.8916 13.0028 38.2425 13.1102 38.6221 13.189C39.0016 13.2677 39.3776 13.3071 39.75 13.3071C40.3587 13.3071 40.8171 13.1925 41.125 12.9634C41.4329 12.7306 41.5869 12.4084 41.5869 11.9966C41.5869 11.7244 41.5314 11.5024 41.4204 11.3306C41.313 11.1551 41.1304 10.994 40.8726 10.8472C40.6183 10.7004 40.2298 10.5339 39.707 10.3477C38.9766 10.0863 38.4538 9.77653 38.1387 9.41846C37.8271 9.06038 37.6714 8.5931 37.6714 8.0166C37.6714 7.41146 37.8988 6.92985 38.3535 6.57178C38.8083 6.2137 39.4098 6.03467 40.1582 6.03467C40.9388 6.03467 41.6567 6.1779 42.312 6.46436L42.0273 7.25928C41.3792 6.98714 40.749 6.85107 40.1367 6.85107C39.6533 6.85107 39.2756 6.95492 39.0034 7.1626C38.7313 7.37028 38.5952 7.65853 38.5952 8.02734C38.5952 8.29948 38.6453 8.52327 38.7456 8.69873C38.8459 8.87061 39.0142 9.02995 39.2505 9.17676C39.4904 9.31999 39.8556 9.47933 40.3462 9.65479C41.1698 9.9484 41.7355 10.2635 42.0435 10.6001C42.355 10.9367 42.5107 11.3735 42.5107 11.9106ZM44.8203 8.11328V11.9321C44.8203 12.4119 44.9295 12.77 45.1479 13.0063C45.3664 13.2427 45.7083 13.3608 46.1738 13.3608C46.7897 13.3608 47.2391 13.1925 47.522 12.856C47.8084 12.5194 47.9517 11.9697 47.9517 11.207V8.11328H48.8433V14H48.1074L47.9785 13.2104H47.9302C47.7476 13.5005 47.4933 13.7225 47.1675 13.8765C46.8452 14.0304 46.4764 14.1074 46.061 14.1074C45.3449 14.1074 44.8078 13.9373 44.4497 13.5972C44.0952 13.257 43.918 12.7127 43.918 11.9644V8.11328H44.8203ZM53.0918 14.1074C52.2396 14.1074 51.5789 13.846 51.1099 13.3232C50.6444 12.7969 50.4116 12.0539 50.4116 11.0942C50.4116 10.1095 50.6479 9.34863 51.1206 8.81152C51.5968 8.27441 52.2736 8.00586 53.1509 8.00586C53.4338 8.00586 53.7166 8.0363 53.9995 8.09717C54.2824 8.15804 54.5044 8.22965 54.6655 8.31201L54.3916 9.06934C54.1947 8.99056 53.9798 8.92611 53.7471 8.87598C53.5143 8.82227 53.3084 8.79541 53.1294 8.79541C51.9334 8.79541 51.3354 9.55811 51.3354 11.0835C51.3354 11.8068 51.4805 12.3618 51.7705 12.7485C52.0641 13.1353 52.4974 13.3286 53.0703 13.3286C53.5609 13.3286 54.064 13.223 54.5796 13.0117V13.8013C54.1857 14.0054 53.6898 14.1074 53.0918 14.1074ZM58.334 14.1074C57.4818 14.1074 56.8211 13.846 56.3521 13.3232C55.8866 12.7969 55.6538 12.0539 55.6538 11.0942C55.6538 10.1095 55.8901 9.34863 56.3628 8.81152C56.839 8.27441 57.5158 8.00586 58.3931 8.00586C58.6759 8.00586 58.9588 8.0363 59.2417 8.09717C59.5246 8.15804 59.7466 8.22965 59.9077 8.31201L59.6338 9.06934C59.4368 8.99056 59.222 8.92611 58.9893 8.87598C58.7565 8.82227 58.5506 8.79541 58.3716 8.79541C57.1756 8.79541 56.5776 9.55811 56.5776 11.0835C56.5776 11.8068 56.7227 12.3618 57.0127 12.7485C57.3063 13.1353 57.7396 13.3286 58.3125 13.3286C58.8031 13.3286 59.3062 13.223 59.8218 13.0117V13.8013C59.4279 14.0054 58.932 14.1074 58.334 14.1074ZM63.7104 14.1074C62.8403 14.1074 62.1528 13.8424 61.6479 13.3125C61.1466 12.7826 60.896 12.0467 60.896 11.105C60.896 10.1561 61.1287 9.40234 61.5942 8.84375C62.0633 8.28516 62.6917 8.00586 63.4795 8.00586C64.2171 8.00586 64.8008 8.24935 65.2305 8.73633C65.6602 9.21973 65.875 9.85889 65.875 10.6538V11.2178H61.8198C61.8377 11.9089 62.0114 12.4334 62.3408 12.7915C62.6738 13.1496 63.1411 13.3286 63.7427 13.3286C64.3765 13.3286 65.0031 13.1961 65.6226 12.9312V13.7261C65.3075 13.8621 65.0085 13.9588 64.7256 14.0161C64.4463 14.077 64.1079 14.1074 63.7104 14.1074ZM63.4688 8.75244C62.9961 8.75244 62.6183 8.90641 62.3354 9.21436C62.0562 9.5223 61.8914 9.9484 61.8413 10.4927H64.9189C64.9189 9.9305 64.7936 9.50081 64.543 9.20361C64.2923 8.90283 63.9342 8.75244 63.4688 8.75244ZM71.1978 12.394C71.1978 12.9419 70.9937 13.3644 70.5854 13.6616C70.1772 13.9588 69.6043 14.1074 68.8667 14.1074C68.0861 14.1074 67.4774 13.9839 67.0405 13.7368V12.9097C67.3234 13.0529 67.626 13.1657 67.9482 13.248C68.2741 13.3304 68.5874 13.3716 68.8882 13.3716C69.3537 13.3716 69.7118 13.2982 69.9624 13.1514C70.2131 13.001 70.3384 12.7736 70.3384 12.4692C70.3384 12.2401 70.2381 12.0449 70.0376 11.8838C69.8407 11.7191 69.4539 11.5257 68.8774 11.3037C68.3296 11.0996 67.9393 10.9224 67.7065 10.772C67.4774 10.618 67.3055 10.4443 67.1909 10.251C67.0799 10.0576 67.0244 9.82666 67.0244 9.55811C67.0244 9.07829 67.2196 8.70052 67.6099 8.4248C68.0002 8.14551 68.5355 8.00586 69.2158 8.00586C69.8496 8.00586 70.4691 8.13477 71.0742 8.39258L70.7573 9.11768C70.1665 8.87419 69.6312 8.75244 69.1514 8.75244C68.7288 8.75244 68.4102 8.81868 68.1953 8.95117C67.9805 9.08366 67.873 9.26628 67.873 9.49902C67.873 9.65658 67.9124 9.79085 67.9912 9.90186C68.0736 10.0129 68.2043 10.1185 68.3833 10.2188C68.5623 10.319 68.9061 10.464 69.4146 10.6538C70.1128 10.908 70.5837 11.1641 70.8271 11.4219C71.0742 11.6797 71.1978 12.0037 71.1978 12.394ZM76.4507 12.394C76.4507 12.9419 76.2466 13.3644 75.8384 13.6616C75.4302 13.9588 74.8573 14.1074 74.1196 14.1074C73.339 14.1074 72.7303 13.9839 72.2935 13.7368V12.9097C72.5763 13.0529 72.8789 13.1657 73.2012 13.248C73.527 13.3304 73.8403 13.3716 74.1411 13.3716C74.6066 13.3716 74.9647 13.2982 75.2153 13.1514C75.466 13.001 75.5913 12.7736 75.5913 12.4692C75.5913 12.2401 75.491 12.0449 75.2905 11.8838C75.0936 11.7191 74.7069 11.5257 74.1304 11.3037C73.5825 11.0996 73.1922 10.9224 72.9595 10.772C72.7303 10.618 72.5584 10.4443 72.4438 10.251C72.3328 10.0576 72.2773 9.82666 72.2773 9.55811C72.2773 9.07829 72.4725 8.70052 72.8628 8.4248C73.2531 8.14551 73.7884 8.00586 74.4688 8.00586C75.1025 8.00586 75.722 8.13477 76.3271 8.39258L76.0103 9.11768C75.4194 8.87419 74.8841 8.75244 74.4043 8.75244C73.9818 8.75244 73.6631 8.81868 73.4482 8.95117C73.2334 9.08366 73.126 9.26628 73.126 9.49902C73.126 9.65658 73.1654 9.79085 73.2441 9.90186C73.3265 10.0129 73.4572 10.1185 73.6362 10.2188C73.8153 10.319 74.159 10.464 74.6675 10.6538C75.3657 10.908 75.8366 11.1641 76.0801 11.4219C76.3271 11.6797 76.4507 12.0037 76.4507 12.394ZM80.5596 8.80615H79.061V14H78.1694V8.80615H77.1167V8.40332L78.1694 8.08105V7.75342C78.1694 6.3068 78.8014 5.5835 80.0654 5.5835C80.377 5.5835 80.7422 5.64616 81.1611 5.77148L80.9302 6.48584C80.5864 6.37484 80.2928 6.31934 80.0493 6.31934C79.7127 6.31934 79.4639 6.43213 79.3027 6.65771C79.1416 6.87972 79.061 7.23779 79.061 7.73193V8.11328H80.5596V8.80615ZM82.4717 8.11328V11.9321C82.4717 12.4119 82.5809 12.77 82.7993 13.0063C83.0177 13.2427 83.3597 13.3608 83.8252 13.3608C84.4411 13.3608 84.8905 13.1925 85.1733 12.856C85.4598 12.5194 85.603 11.9697 85.603 11.207V8.11328H86.4946V14H85.7588L85.6299 13.2104H85.5815C85.3989 13.5005 85.1447 13.7225 84.8188 13.8765C84.4966 14.0304 84.1278 14.1074 83.7124 14.1074C82.9963 14.1074 82.4591 13.9373 82.1011 13.5972C81.7466 13.257 81.5693 12.7127 81.5693 11.9644V8.11328H82.4717ZM89.2822 14H88.3906V5.64258H89.2822V14ZM92.0645 14H91.1729V5.64258H92.0645V14ZM93.0205 8.11328H93.9766L95.2656 11.4702C95.5485 12.2365 95.724 12.7897 95.792 13.1299H95.835C95.8815 12.9473 95.9782 12.6357 96.125 12.1953C96.2754 11.7513 96.7624 10.3906 97.5859 8.11328H98.542L96.0122 14.8164C95.7616 15.4788 95.4679 15.9479 95.1313 16.2236C94.7983 16.5029 94.3883 16.6426 93.9014 16.6426C93.6292 16.6426 93.3607 16.6121 93.0957 16.5513V15.8369C93.2926 15.8799 93.5129 15.9014 93.7563 15.9014C94.3687 15.9014 94.8055 15.5576 95.0669 14.8701L95.3945 14.0322L93.0205 8.11328ZM108.419 6.14746V11.2285C108.419 12.1237 108.149 12.8273 107.608 13.3394C107.068 13.8514 106.325 14.1074 105.379 14.1074C104.434 14.1074 103.702 13.8496 103.183 13.334C102.667 12.8184 102.409 12.1094 102.409 11.207V6.14746H103.322V11.2715C103.322 11.9268 103.501 12.4299 103.859 12.7808C104.217 13.1317 104.744 13.3071 105.438 13.3071C106.101 13.3071 106.611 13.1317 106.969 12.7808C107.327 12.4263 107.506 11.9196 107.506 11.2607V6.14746H108.419ZM113.108 14.1074C112.725 14.1074 112.374 14.0376 112.056 13.8979C111.741 13.7547 111.476 13.5363 111.261 13.2427H111.196C111.239 13.5864 111.261 13.9123 111.261 14.2202V16.6426H110.369V8.11328H111.094L111.218 8.91895H111.261C111.49 8.59668 111.757 8.36393 112.061 8.2207C112.365 8.07747 112.715 8.00586 113.108 8.00586C113.889 8.00586 114.491 8.27262 114.913 8.80615C115.339 9.33968 115.552 10.0881 115.552 11.0513C115.552 12.0181 115.336 12.77 114.902 13.3071C114.473 13.8407 113.875 14.1074 113.108 14.1074ZM112.979 8.76318C112.378 8.76318 111.943 8.92969 111.674 9.2627C111.406 9.5957 111.268 10.1257 111.261 10.8525V11.0513C111.261 11.8784 111.399 12.471 111.674 12.8291C111.95 13.1836 112.392 13.3608 113.001 13.3608C113.509 13.3608 113.907 13.1549 114.193 12.7432C114.483 12.3314 114.628 11.7638 114.628 11.0405C114.628 10.3065 114.483 9.7443 114.193 9.354C113.907 8.96012 113.502 8.76318 112.979 8.76318ZM118.007 14H117.115V5.64258H118.007V14ZM124.979 11.0513C124.979 12.0109 124.737 12.7611 124.253 13.3018C123.77 13.8389 123.102 14.1074 122.25 14.1074C121.724 14.1074 121.256 13.9839 120.848 13.7368C120.44 13.4897 120.125 13.1353 119.903 12.6733C119.681 12.2114 119.57 11.6707 119.57 11.0513C119.57 10.0916 119.81 9.34505 120.29 8.81152C120.769 8.27441 121.435 8.00586 122.288 8.00586C123.111 8.00586 123.765 8.27979 124.248 8.82764C124.735 9.37549 124.979 10.1167 124.979 11.0513ZM120.494 11.0513C120.494 11.8032 120.644 12.3761 120.945 12.77C121.246 13.1639 121.688 13.3608 122.271 13.3608C122.855 13.3608 123.297 13.1657 123.598 12.7754C123.903 12.3815 124.055 11.8068 124.055 11.0513C124.055 10.3029 123.903 9.73535 123.598 9.34863C123.297 8.95833 122.852 8.76318 122.261 8.76318C121.677 8.76318 121.237 8.95475 120.939 9.33789C120.642 9.72103 120.494 10.2922 120.494 11.0513ZM130.167 14L129.99 13.1621H129.947C129.653 13.5309 129.36 13.7816 129.066 13.9141C128.776 14.043 128.412 14.1074 127.976 14.1074C127.392 14.1074 126.934 13.957 126.601 13.6562C126.271 13.3555 126.106 12.9276 126.106 12.3726C126.106 11.1838 127.057 10.5607 128.958 10.5034L129.958 10.4712V10.106C129.958 9.64404 129.857 9.30387 129.657 9.08545C129.46 8.86344 129.143 8.75244 128.706 8.75244C128.215 8.75244 127.66 8.90283 127.041 9.20361L126.767 8.52148C127.057 8.36393 127.374 8.2404 127.718 8.15088C128.065 8.06136 128.412 8.0166 128.76 8.0166C129.462 8.0166 129.981 8.17236 130.317 8.48389C130.658 8.79541 130.828 9.29492 130.828 9.98242V14H130.167ZM128.153 13.3716C128.708 13.3716 129.143 13.2194 129.458 12.915C129.777 12.6107 129.936 12.1846 129.936 11.6367V11.105L129.044 11.1426C128.335 11.1676 127.823 11.2786 127.508 11.4756C127.197 11.6689 127.041 11.9715 127.041 12.3833C127.041 12.7056 127.138 12.9508 127.331 13.1191C127.528 13.2874 127.802 13.3716 128.153 13.3716ZM136.677 13.2104H136.628C136.217 13.8084 135.601 14.1074 134.781 14.1074C134.011 14.1074 133.411 13.8442 132.981 13.3179C132.555 12.7915 132.342 12.0431 132.342 11.0728C132.342 10.1024 132.557 9.34863 132.987 8.81152C133.417 8.27441 134.014 8.00586 134.781 8.00586C135.579 8.00586 136.192 8.2959 136.618 8.87598H136.688L136.65 8.45166L136.628 8.03809V5.64258H137.52V14H136.795L136.677 13.2104ZM134.894 13.3608C135.502 13.3608 135.943 13.1961 136.215 12.8667C136.491 12.5337 136.628 11.9984 136.628 11.2607V11.0728C136.628 10.2384 136.489 9.64404 136.209 9.28955C135.934 8.93148 135.492 8.75244 134.883 8.75244C134.36 8.75244 133.959 8.95654 133.68 9.36475C133.404 9.76937 133.266 10.3423 133.266 11.0835C133.266 11.8354 133.404 12.403 133.68 12.7861C133.955 13.1693 134.36 13.3608 134.894 13.3608ZM141.903 14.1074C141.033 14.1074 140.345 13.8424 139.84 13.3125C139.339 12.7826 139.088 12.0467 139.088 11.105C139.088 10.1561 139.321 9.40234 139.787 8.84375C140.256 8.28516 140.884 8.00586 141.672 8.00586C142.41 8.00586 142.993 8.24935 143.423 8.73633C143.853 9.21973 144.067 9.85889 144.067 10.6538V11.2178H140.012C140.03 11.9089 140.204 12.4334 140.533 12.7915C140.866 13.1496 141.333 13.3286 141.935 13.3286C142.569 13.3286 143.195 13.1961 143.815 12.9312V13.7261C143.5 13.8621 143.201 13.9588 142.918 14.0161C142.639 14.077 142.3 14.1074 141.903 14.1074ZM141.661 8.75244C141.188 8.75244 140.811 8.90641 140.528 9.21436C140.249 9.5223 140.084 9.9484 140.034 10.4927H143.111C143.111 9.9305 142.986 9.50081 142.735 9.20361C142.485 8.90283 142.127 8.75244 141.661 8.75244ZM149.6 13.2104H149.551C149.139 13.8084 148.524 14.1074 147.704 14.1074C146.934 14.1074 146.334 13.8442 145.904 13.3179C145.478 12.7915 145.265 12.0431 145.265 11.0728C145.265 10.1024 145.48 9.34863 145.91 8.81152C146.339 8.27441 146.937 8.00586 147.704 8.00586C148.502 8.00586 149.114 8.2959 149.541 8.87598H149.61L149.573 8.45166L149.551 8.03809V5.64258H150.443V14H149.718L149.6 13.2104ZM147.816 13.3608C148.425 13.3608 148.866 13.1961 149.138 12.8667C149.413 12.5337 149.551 11.9984 149.551 11.2607V11.0728C149.551 10.2384 149.412 9.64404 149.132 9.28955C148.857 8.93148 148.414 8.75244 147.806 8.75244C147.283 8.75244 146.882 8.95654 146.603 9.36475C146.327 9.76937 146.189 10.3423 146.189 11.0835C146.189 11.8354 146.327 12.403 146.603 12.7861C146.878 13.1693 147.283 13.3608 147.816 13.3608Z" fill="white"/>
<path d="M20.0216 12.8868L17.3108 10.1785C17.0088 9.87675 16.5286 9.87675 16.2265 10.1785C15.9245 10.4803 15.9245 10.96 16.2265 11.2618L19.4717 14.504C19.7738 14.8057 20.2617 14.8057 20.5637 14.504L28.7735 6.30962C29.0755 6.00785 29.0755 5.5281 28.7735 5.22633C28.4714 4.92456 27.9912 4.92456 27.6892 5.22633L20.0216 12.8868Z" fill="white"/>
</svg>
