<svg width="87" height="144" viewBox="0 0 87 144" fill="none" xmlns="http://www.w3.org/2000/svg">
<path d="M43.4913 78.7122C54.0383 78.7122 63.7226 82.4802 71.2763 88.7486C75.0444 82.4802 77.1749 75.2258 77.1749 67.6369V33.7419C77.1749 14.9016 61.7681 -0.32914 42.875 0.00540781C24.334 0.339955 9.8252 16.275 9.8252 34.8688V63.9216C9.8252 73.5002 12.0086 81.8287 15.9175 88.5901C23.4008 82.4098 32.997 78.7122 43.4913 78.7122Z" fill="#575757"/>
<path d="M87 122.275V143.351H0V122.275C0 98.2047 19.4742 78.7129 43.4912 78.7129C67.5082 78.7129 87 98.2047 87 122.275Z" fill="#525252"/>
<path d="M65.9937 84.9989C64.814 88.9254 63.2117 92.2004 61.0284 95.5459C58.3872 99.5605 55.165 103.276 51.5202 106.428C48.1747 109.315 43.491 114.527 43.491 120.866C43.491 114.545 38.825 109.368 35.5147 106.48C31.8171 103.276 28.5244 99.5077 25.8656 95.4051C23.7527 92.1652 22.1856 88.9958 21.0411 85.2102C21.0059 85.1573 21.0059 85.0693 20.9883 85.0165C27.556 81.0019 35.2682 78.7129 43.491 78.7129C51.7138 78.7129 59.4437 81.0019 65.9937 84.9989Z" fill="#E6871A"/>
<path d="M53.3165 85.7379C47.8933 91.1611 39.0895 91.1611 33.6663 85.7379V70.2783H53.3165V85.7379Z" fill="#F0DAA3"/>
<path d="M71.558 40.7847V33.7592C71.558 18.2468 58.9861 5.65723 43.4913 5.65723C27.9964 5.65723 15.4421 18.2468 15.4421 33.7592V40.7847C12.3607 40.7847 9.8252 43.3202 9.8252 46.4016C9.8252 49.5006 12.3431 52.0185 15.4421 52.0185C15.5477 52.0185 15.671 51.9833 15.7766 51.9833C17.8015 65.5237 29.4226 75.8946 43.5089 75.8946C57.5951 75.8946 69.2162 65.4884 71.2411 51.9833C71.3467 51.9833 71.47 52.0185 71.5757 52.0185C74.657 52.0185 77.1925 49.483 77.1925 46.4016C77.1749 43.285 74.6394 40.7847 71.558 40.7847Z" fill="#F2DFB0"/>
<path d="M42.875 0.00540781C24.334 0.339955 9.8252 16.275 9.8252 34.8688V63.9216C9.8252 73.5002 12.0086 81.8287 15.9175 88.5901C19.8264 95.3339 25.4257 99.9647 32.2751 103.398C32.2223 103.31 32.1695 103.257 32.099 103.169C31.025 102.078 30.0213 100.916 29.0705 99.7358C28.9296 99.5421 28.7536 99.3661 28.6303 99.1724C27.6443 97.9398 26.7287 96.6721 25.8835 95.3867C25.1616 94.2598 24.5101 93.1153 23.8938 91.9884C23.7882 91.7595 23.6473 91.5658 23.5593 91.3369C22.5556 89.4001 21.728 87.4104 21.059 85.1742C21.0237 85.1214 21.0237 85.0333 21.0061 84.9805C18.9636 78.0607 18.2593 69.0983 18.2593 53.8324C18.2593 43.5494 23.8762 30.907 43.5089 30.907C63.1415 30.907 68.7584 44.958 68.7584 53.8324C68.7584 69.0983 68.0541 78.0607 66.0116 84.9805C65.7299 85.9137 65.4305 86.8117 65.0784 87.6745C64.2684 89.7874 63.3176 91.7243 62.1555 93.6611C61.8738 94.1366 61.592 94.5944 61.2927 95.0698C61.2047 95.2106 61.1166 95.3867 61.011 95.5276C59.215 98.2744 57.0845 100.898 54.7778 103.293C54.6018 103.522 54.4081 103.715 54.2496 103.944C61.1166 100.511 67.2089 95.3163 71.1178 89.0127C71.1707 88.9247 71.2235 88.819 71.2939 88.731C75.062 82.4626 77.1925 75.2082 77.1925 67.6193V33.7419C77.1749 14.9016 61.7681 -0.32914 42.875 0.00540781Z" fill="#454545"/>
<path d="M27.1875 48.9375C27.9345 45.7901 30.0887 43.5 32.6424 43.5C35.1613 43.5 37.2981 45.7901 38.0625 48.9375" stroke="#393939" stroke-width="1.75" stroke-miterlimit="10" stroke-linecap="round"/>
<path d="M48.9375 48.9375C49.7592 45.7901 52.1288 43.5 54.9379 43.5C57.7087 43.5 60.0592 45.7901 60.9 48.9375" stroke="#393939" stroke-width="1.75" stroke-miterlimit="10" stroke-linecap="round"/>
<path opacity="0.4" d="M17.8536 91.6006C17.8536 91.6178 17.8536 91.6178 17.8536 91.6178C17.8364 91.6006 17.8364 91.6006 17.8364 91.6006H17.8536Z" fill="#3A3A3A"/>
<path opacity="0.3" d="M85.5207 111.093C80.432 104.385 73.6707 99.0319 65.8352 95.6512C67.8601 93.6263 69.6385 91.4078 71.0999 89.0307C71.1528 88.9427 71.2232 88.8546 71.276 88.7666C78.1254 94.4715 83.1789 102.219 85.5207 111.093Z" fill="white" fill-opacity="0.51"/>
<path opacity="0.3" d="M1.67261 110.952C6.76125 104.243 13.5226 98.8903 21.3581 95.5096C19.3332 93.4847 17.5548 91.2662 16.0934 88.8891C16.0405 88.8011 15.9701 88.713 15.9173 88.625C9.06787 94.3299 4.01444 102.077 1.67261 110.952Z" fill="white" fill-opacity="0.51"/>
<path opacity="0.3" d="M76.2418 25.871C69.6037 14.7253 57.4191 7.25961 43.4914 7.25961C29.8806 7.25961 17.9249 14.3908 11.1987 25.1315C15.1957 11.0453 27.6796 0.304542 42.8751 0.0228175C59.039 -0.258907 72.6675 10.8516 76.2418 25.871Z" fill="white" fill-opacity="0.51"/>
<line x1="41.1347" y1="65.8539" x2="46.4801" y2="64.5176" stroke="#393939" stroke-width="1.75" stroke-linecap="round"/>
<line x1="43.4126" y1="117.362" x2="43.4126" y2="141.462" stroke="#393939" stroke-width="2" stroke-linecap="round"/>
<ellipse cx="43.5001" cy="116.363" rx="1.0875" ry="2.175" fill="#282828"/>
</svg>
